<svg id="my-svg" width="100%" xmlns="http://www.w3.org/2000/svg" xmlns:xlink="http://www.w3.org/1999/xlink" class="erDiagram" style="max-width: 621.281px; background-color: white;" viewBox="0 0 621.28125 714" role="graphics-document document" aria-roledescription="er"><style>#my-svg{font-family:"trebuchet ms",verdana,arial,sans-serif;font-size:16px;fill:#333;}@keyframes edge-animation-frame{from{stroke-dashoffset:0;}}@keyframes dash{to{stroke-dashoffset:0;}}#my-svg .edge-animation-slow{stroke-dasharray:9,5!important;stroke-dashoffset:900;animation:dash 50s linear infinite;stroke-linecap:round;}#my-svg .edge-animation-fast{stroke-dasharray:9,5!important;stroke-dashoffset:900;animation:dash 20s linear infinite;stroke-linecap:round;}#my-svg .error-icon{fill:#552222;}#my-svg .error-text{fill:#552222;stroke:#552222;}#my-svg .edge-thickness-normal{stroke-width:1px;}#my-svg .edge-thickness-thick{stroke-width:3.5px;}#my-svg .edge-pattern-solid{stroke-dasharray:0;}#my-svg .edge-thickness-invisible{stroke-width:0;fill:none;}#my-svg .edge-pattern-dashed{stroke-dasharray:3;}#my-svg .edge-pattern-dotted{stroke-dasharray:2;}#my-svg .marker{fill:#333333;stroke:#333333;}#my-svg .marker.cross{stroke:#333333;}#my-svg svg{font-family:"trebuchet ms",verdana,arial,sans-serif;font-size:16px;}#my-svg p{margin:0;}#my-svg .entityBox{fill:#ECECFF;stroke:#9370DB;}#my-svg .relationshipLabelBox{fill:hsl(80, 100%, 96.2745098039%);opacity:0.7;background-color:hsl(80, 100%, 96.2745098039%);}#my-svg .relationshipLabelBox rect{opacity:0.5;}#my-svg .labelBkg{background-color:rgba(248.6666666666, 255, 235.9999999999, 0.5);}#my-svg .edgeLabel{background-color:rgba(232,232,232, 0.8);}#my-svg .edgeLabel .label rect{fill:rgba(232,232,232, 0.8);}#my-svg .edgeLabel .label text{fill:#333;}#my-svg .edgeLabel .label{fill:#9370DB;font-size:14px;}#my-svg .label{font-family:"trebuchet ms",verdana,arial,sans-serif;color:#333;}#my-svg .edge-pattern-dashed{stroke-dasharray:8,8;}#my-svg .node rect,#my-svg .node circle,#my-svg .node ellipse,#my-svg .node polygon{fill:#ECECFF;stroke:#9370DB;stroke-width:1px;}#my-svg .relationshipLine{stroke:#333333;stroke-width:1px;fill:none;}#my-svg .marker{fill:none!important;stroke:#333333!important;stroke-width:1;}#my-svg [data-look=neo].labelBkg{background-color:rgba(248.6666666666, 255, 235.9999999999, 0.5);}#my-svg .node .neo-node{stroke:#9370DB;}#my-svg [data-look="neo"].node rect,#my-svg [data-look="neo"].cluster rect,#my-svg [data-look="neo"].node polygon{stroke:#9370DB;filter:drop-shadow(1px 2px 2px rgba(185, 185, 185, 1));}#my-svg [data-look="neo"].node path{stroke:#9370DB;stroke-width:1px;}#my-svg [data-look="neo"].node .outer-path{filter:drop-shadow(1px 2px 2px rgba(185, 185, 185, 1));}#my-svg [data-look="neo"].node .neo-line path{stroke:#9370DB;filter:none;}#my-svg [data-look="neo"].node circle{stroke:#9370DB;filter:drop-shadow(1px 2px 2px rgba(185, 185, 185, 1));}#my-svg [data-look="neo"].node circle .state-start{fill:#000000;}#my-svg [data-look="neo"].icon-shape .icon{fill:#9370DB;filter:drop-shadow(1px 2px 2px rgba(185, 185, 185, 1));}#my-svg [data-look="neo"].icon-shape .icon-neo path{stroke:#9370DB;filter:drop-shadow(1px 2px 2px rgba(185, 185, 185, 1));}#my-svg :root{--mermaid-font-family:"trebuchet ms",verdana,arial,sans-serif;}</style><g><defs><marker id="my-svg_er-onlyOneStart" class="marker onlyOne er" refX="0" refY="9" markerWidth="18" markerHeight="18" orient="auto"><path d="M9,0 L9,18 M15,0 L15,18"/></marker></defs><defs><marker id="my-svg_er-onlyOneEnd" class="marker onlyOne er" refX="18" refY="9" markerWidth="18" markerHeight="18" orient="auto"><path d="M3,0 L3,18 M9,0 L9,18"/></marker></defs><defs><marker id="my-svg_er-zeroOrOneStart" class="marker zeroOrOne er" refX="0" refY="9" markerWidth="30" markerHeight="18" orient="auto"><circle fill="white" cx="21" cy="9" r="6"/><path d="M9,0 L9,18"/></marker></defs><defs><marker id="my-svg_er-zeroOrOneEnd" class="marker zeroOrOne er" refX="30" refY="9" markerWidth="30" markerHeight="18" orient="auto"><circle fill="white" cx="9" cy="9" r="6"/><path d="M21,0 L21,18"/></marker></defs><defs><marker id="my-svg_er-oneOrMoreStart" class="marker oneOrMore er" refX="18" refY="18" markerWidth="45" markerHeight="36" orient="auto"><path d="M0,18 Q 18,0 36,18 Q 18,36 0,18 M42,9 L42,27"/></marker></defs><defs><marker id="my-svg_er-oneOrMoreEnd" class="marker oneOrMore er" refX="27" refY="18" markerWidth="45" markerHeight="36" orient="auto"><path d="M3,9 L3,27 M9,18 Q27,0 45,18 Q27,36 9,18"/></marker></defs><defs><marker id="my-svg_er-zeroOrMoreStart" class="marker zeroOrMore er" refX="18" refY="18" markerWidth="57" markerHeight="36" orient="auto"><circle fill="white" cx="48" cy="18" r="6"/><path d="M0,18 Q18,0 36,18 Q18,36 0,18"/></marker></defs><defs><marker id="my-svg_er-zeroOrMoreEnd" class="marker zeroOrMore er" refX="39" refY="18" markerWidth="57" markerHeight="36" orient="auto"><circle fill="white" cx="9" cy="18" r="6"/><path d="M21,18 Q39,0 57,18 Q39,36 21,18"/></marker></defs><g class="root"><g class="clusters"/><g class="edgePaths"><path d="M310.641,521L310.641,529.417C310.641,537.833,310.641,554.667,310.641,571.5C310.641,588.333,310.641,605.167,310.641,613.583L310.641,622" id="my-svg-id_entity-PPL_ADDON_PACKAGE-0_entity-ORDER_ITEM-1_0" class="edge-thickness-normal edge-pattern-solid relationshipLine" style="undefined;;;undefined" data-edge="true" data-et="edge" data-id="id_entity-PPL_ADDON_PACKAGE-0_entity-ORDER_ITEM-1_0" data-points="W3sieCI6MzEwLjY0MDYyNSwieSI6NTIxfSx7IngiOjMxMC42NDA2MjUsInkiOjU3MS41fSx7IngiOjMxMC42NDA2MjUsInkiOjYyMn1d" data-look="classic" marker-start="url(#my-svg_er-onlyOneStart)" marker-end="url(#my-svg_er-zeroOrMoreEnd)"/></g><g class="edgeLabels"><g class="edgeLabel" transform="translate(310.640625, 571.5)"><g class="label" data-id="id_entity-PPL_ADDON_PACKAGE-0_entity-ORDER_ITEM-1_0" transform="translate(-40.5859375, -10.5)"><foreignObject width="81.171875" height="21"><div xmlns="http://www.w3.org/1999/xhtml" class="labelBkg" style="display: table-cell; white-space: nowrap; line-height: 1.5; max-width: 200px; text-align: center;"><span class="edgeLabel"><p>purchased as</p></span></div></foreignObject></g></g></g><g class="nodes"><g class="node default" id="my-svg-entity-PPL_ADDON_PACKAGE-0" data-look="classic" transform="translate(310.640625, 264.5)"><g class="outer-path" style=""><path d="M-302.640625 -256.5 L302.640625 -256.5 L302.640625 256.5 L-302.640625 256.5" stroke="none" stroke-width="0" fill="#ECECFF"/><path d="M-302.640625 -256.5 C-109.18204583540336 -256.5, 84.27653332919328 -256.5, 302.640625 -256.5 M-302.640625 -256.5 C-177.15233777770533 -256.5, -51.66405055541068 -256.5, 302.640625 -256.5 M302.640625 -256.5 C302.640625 -124.03683792832962, 302.640625 8.426324143340764, 302.640625 256.5 M302.640625 -256.5 C302.640625 -61.33555876158661, 302.640625 133.82888247682678, 302.640625 256.5 M302.640625 256.5 C66.51288024520068 256.5, -169.61486450959865 256.5, -302.640625 256.5 M302.640625 256.5 C123.38923017733487 256.5, -55.86216464533027 256.5, -302.640625 256.5 M-302.640625 256.5 C-302.640625 153.40789627219922, -302.640625 50.31579254439845, -302.640625 -256.5 M-302.640625 256.5 C-302.640625 137.77821255916905, -302.640625 19.05642511833807, -302.640625 -256.5" stroke="#9370DB" stroke-width="1.3" fill="none" stroke-dasharray="0 0"/></g><g style="" class="row-rect-odd"><path d="M-302.640625 -213.75 L302.640625 -213.75 L302.640625 -171 L-302.640625 -171" stroke="none" stroke-width="0" fill="hsl(240, 100%, 100%)"/><path d="M-302.640625 -213.75 C-84.50010346858565 -213.75, 133.6404180628287 -213.75, 302.640625 -213.75 M-302.640625 -213.75 C-127.42233665079115 -213.75, 47.795951698417696 -213.75, 302.640625 -213.75 M302.640625 -213.75 C302.640625 -204.11027977375772, 302.640625 -194.47055954751545, 302.640625 -171 M302.640625 -213.75 C302.640625 -202.06889731154305, 302.640625 -190.3877946230861, 302.640625 -171 M302.640625 -171 C94.20461441256546 -171, -114.23139617486908 -171, -302.640625 -171 M302.640625 -171 C148.98087948482433 -171, -4.678866030351344 -171, -302.640625 -171 M-302.640625 -171 C-302.640625 -182.56579562615147, -302.640625 -194.13159125230294, -302.640625 -213.75 M-302.640625 -171 C-302.640625 -180.31679609054507, -302.640625 -189.63359218109017, -302.640625 -213.75" stroke="#9370DB" stroke-width="1.3" fill="none" stroke-dasharray="0 0"/></g><g style="" class="row-rect-even"><path d="M-302.640625 -171 L302.640625 -171 L302.640625 -128.25 L-302.640625 -128.25" stroke="none" stroke-width="0" fill="hsl(240, 100%, 97.2745098039%)"/><path d="M-302.640625 -171 C-141.3419827299331 -171, 19.956659540133785 -171, 302.640625 -171 M-302.640625 -171 C-179.95253569311052 -171, -57.26444638622104 -171, 302.640625 -171 M302.640625 -171 C302.640625 -159.65655134115963, 302.640625 -148.31310268231928, 302.640625 -128.25 M302.640625 -171 C302.640625 -157.6456376971958, 302.640625 -144.2912753943916, 302.640625 -128.25 M302.640625 -128.25 C175.0434571839644 -128.25, 47.446289367928784 -128.25, -302.640625 -128.25 M302.640625 -128.25 C150.23664216409307 -128.25, -2.167340671813861 -128.25, -302.640625 -128.25 M-302.640625 -128.25 C-302.640625 -139.4032686002872, -302.640625 -150.55653720057435, -302.640625 -171 M-302.640625 -128.25 C-302.640625 -139.0640756618949, -302.640625 -149.87815132378978, -302.640625 -171" stroke="#9370DB" stroke-width="1.3" fill="none" stroke-dasharray="0 0"/></g><g style="" class="row-rect-odd"><path d="M-302.640625 -128.25 L302.640625 -128.25 L302.640625 -85.5 L-302.640625 -85.5" stroke="none" stroke-width="0" fill="hsl(240, 100%, 100%)"/><path d="M-302.640625 -128.25 C-100.77271675772707 -128.25, 101.09519148454586 -128.25, 302.640625 -128.25 M-302.640625 -128.25 C-180.08964332012434 -128.25, -57.53866164024868 -128.25, 302.640625 -128.25 M302.640625 -128.25 C302.640625 -112.28394292244995, 302.640625 -96.31788584489989, 302.640625 -85.5 M302.640625 -128.25 C302.640625 -117.0804888300417, 302.640625 -105.91097766008339, 302.640625 -85.5 M302.640625 -85.5 C83.4904708213848 -85.5, -135.6596833572304 -85.5, -302.640625 -85.5 M302.640625 -85.5 C156.13345257370327 -85.5, 9.626280147406533 -85.5, -302.640625 -85.5 M-302.640625 -85.5 C-302.640625 -95.16007537771266, -302.640625 -104.82015075542532, -302.640625 -128.25 M-302.640625 -85.5 C-302.640625 -98.31918467135641, -302.640625 -111.13836934271282, -302.640625 -128.25" stroke="#9370DB" stroke-width="1.3" fill="none" stroke-dasharray="0 0"/></g><g style="" class="row-rect-even"><path d="M-302.640625 -85.5 L302.640625 -85.5 L302.640625 -42.75 L-302.640625 -42.75" stroke="none" stroke-width="0" fill="hsl(240, 100%, 97.2745098039%)"/><path d="M-302.640625 -85.5 C-143.5881955306357 -85.5, 15.464233938728626 -85.5, 302.640625 -85.5 M-302.640625 -85.5 C-131.9169915048111 -85.5, 38.806641990377784 -85.5, 302.640625 -85.5 M302.640625 -85.5 C302.640625 -72.51772283617194, 302.640625 -59.53544567234388, 302.640625 -42.75 M302.640625 -85.5 C302.640625 -71.69543082787342, 302.640625 -57.89086165574685, 302.640625 -42.75 M302.640625 -42.75 C116.47789659753437 -42.75, -69.68483180493126 -42.75, -302.640625 -42.75 M302.640625 -42.75 C142.38720270846835 -42.75, -17.866219583063298 -42.75, -302.640625 -42.75 M-302.640625 -42.75 C-302.640625 -55.66558881147836, -302.640625 -68.58117762295672, -302.640625 -85.5 M-302.640625 -42.75 C-302.640625 -52.29096792988352, -302.640625 -61.83193585976705, -302.640625 -85.5" stroke="#9370DB" stroke-width="1.3" fill="none" stroke-dasharray="0 0"/></g><g style="" class="row-rect-odd"><path d="M-302.640625 -42.75 L302.640625 -42.75 L302.640625 0 L-302.640625 0" stroke="none" stroke-width="0" fill="hsl(240, 100%, 100%)"/><path d="M-302.640625 -42.75 C-111.27692331689747 -42.75, 80.08677836620507 -42.75, 302.640625 -42.75 M-302.640625 -42.75 C-149.48437489050335 -42.75, 3.671875218993307 -42.75, 302.640625 -42.75 M302.640625 -42.75 C302.640625 -27.879532917364674, 302.640625 -13.009065834729348, 302.640625 0 M302.640625 -42.75 C302.640625 -27.956504449315183, 302.640625 -13.163008898630363, 302.640625 0 M302.640625 0 C125.01124447427424 0, -52.61813605145153 0, -302.640625 0 M302.640625 0 C66.59593254665384 0, -169.44875990669232 0, -302.640625 0 M-302.640625 0 C-302.640625 -9.687060473061562, -302.640625 -19.374120946123124, -302.640625 -42.75 M-302.640625 0 C-302.640625 -15.811311790591205, -302.640625 -31.62262358118241, -302.640625 -42.75" stroke="#9370DB" stroke-width="1.3" fill="none" stroke-dasharray="0 0"/></g><g style="" class="row-rect-even"><path d="M-302.640625 0 L302.640625 0 L302.640625 42.75 L-302.640625 42.75" stroke="none" stroke-width="0" fill="hsl(240, 100%, 97.2745098039%)"/><path d="M-302.640625 0 C-98.60423018535519 0, 105.43216462928962 0, 302.640625 0 M-302.640625 0 C-118.54611346181107 0, 65.54839807637785 0, 302.640625 0 M302.640625 0 C302.640625 14.093081090782713, 302.640625 28.186162181565425, 302.640625 42.75 M302.640625 0 C302.640625 12.378615715210378, 302.640625 24.757231430420756, 302.640625 42.75 M302.640625 42.75 C178.60925128694 42.75, 54.577877573880016 42.75, -302.640625 42.75 M302.640625 42.75 C98.19121783569997 42.75, -106.25818932860005 42.75, -302.640625 42.75 M-302.640625 42.75 C-302.640625 29.812300138414795, -302.640625 16.87460027682959, -302.640625 0 M-302.640625 42.75 C-302.640625 31.86374506392383, -302.640625 20.977490127847663, -302.640625 0" stroke="#9370DB" stroke-width="1.3" fill="none" stroke-dasharray="0 0"/></g><g style="" class="row-rect-odd"><path d="M-302.640625 42.75 L302.640625 42.75 L302.640625 85.5 L-302.640625 85.5" stroke="none" stroke-width="0" fill="hsl(240, 100%, 100%)"/><path d="M-302.640625 42.75 C-62.94918623616982 42.75, 176.74225252766036 42.75, 302.640625 42.75 M-302.640625 42.75 C-68.63747469458298 42.75, 165.36567561083405 42.75, 302.640625 42.75 M302.640625 42.75 C302.640625 56.92234113001883, 302.640625 71.09468226003766, 302.640625 85.5 M302.640625 42.75 C302.640625 55.17239735827127, 302.640625 67.59479471654254, 302.640625 85.5 M302.640625 85.5 C122.6006613362213 85.5, -57.439302327557414 85.5, -302.640625 85.5 M302.640625 85.5 C162.54467375227662 85.5, 22.448722504553245 85.5, -302.640625 85.5 M-302.640625 85.5 C-302.640625 69.81516610917713, -302.640625 54.13033221835427, -302.640625 42.75 M-302.640625 85.5 C-302.640625 74.30519609139121, -302.640625 63.11039218278241, -302.640625 42.75" stroke="#9370DB" stroke-width="1.3" fill="none" stroke-dasharray="0 0"/></g><g style="" class="row-rect-even"><path d="M-302.640625 85.5 L302.640625 85.5 L302.640625 128.25 L-302.640625 128.25" stroke="none" stroke-width="0" fill="hsl(240, 100%, 97.2745098039%)"/><path d="M-302.640625 85.5 C-84.43861760147593 85.5, 133.76338979704815 85.5, 302.640625 85.5 M-302.640625 85.5 C-78.33201241417811 85.5, 145.97660017164378 85.5, 302.640625 85.5 M302.640625 85.5 C302.640625 102.46252451732728, 302.640625 119.42504903465456, 302.640625 128.25 M302.640625 85.5 C302.640625 96.11974549834396, 302.640625 106.73949099668792, 302.640625 128.25 M302.640625 128.25 C117.27076558013317 128.25, -68.09909383973365 128.25, -302.640625 128.25 M302.640625 128.25 C129.93097299649793 128.25, -42.77867900700414 128.25, -302.640625 128.25 M-302.640625 128.25 C-302.640625 116.16160084662533, -302.640625 104.07320169325068, -302.640625 85.5 M-302.640625 128.25 C-302.640625 114.64197516014784, -302.640625 101.03395032029567, -302.640625 85.5" stroke="#9370DB" stroke-width="1.3" fill="none" stroke-dasharray="0 0"/></g><g style="" class="row-rect-odd"><path d="M-302.640625 128.25 L302.640625 128.25 L302.640625 171 L-302.640625 171" stroke="none" stroke-width="0" fill="hsl(240, 100%, 100%)"/><path d="M-302.640625 128.25 C-93.70552329682727 128.25, 115.22957840634547 128.25, 302.640625 128.25 M-302.640625 128.25 C-66.66333177296801 128.25, 169.31396145406399 128.25, 302.640625 128.25 M302.640625 128.25 C302.640625 144.73653573086747, 302.640625 161.22307146173497, 302.640625 171 M302.640625 128.25 C302.640625 142.3231760697909, 302.640625 156.39635213958178, 302.640625 171 M302.640625 171 C122.26283249290279 171, -58.11496001419442 171, -302.640625 171 M302.640625 171 C138.04265024612258 171, -26.555324507754847 171, -302.640625 171 M-302.640625 171 C-302.640625 162.09563161917958, -302.640625 153.19126323835914, -302.640625 128.25 M-302.640625 171 C-302.640625 157.79387941366238, -302.640625 144.58775882732476, -302.640625 128.25" stroke="#9370DB" stroke-width="1.3" fill="none" stroke-dasharray="0 0"/></g><g style="" class="row-rect-even"><path d="M-302.640625 171 L302.640625 171 L302.640625 213.75 L-302.640625 213.75" stroke="none" stroke-width="0" fill="hsl(240, 100%, 97.2745098039%)"/><path d="M-302.640625 171 C-127.87510155446341 171, 46.890421891073174 171, 302.640625 171 M-302.640625 171 C-118.25967842425018 171, 66.12126815149963 171, 302.640625 171 M302.640625 171 C302.640625 181.42327125730145, 302.640625 191.8465425146029, 302.640625 213.75 M302.640625 171 C302.640625 184.69911980023943, 302.640625 198.3982396004789, 302.640625 213.75 M302.640625 213.75 C143.6739561427308 213.75, -15.292712714538425 213.75, -302.640625 213.75 M302.640625 213.75 C113.14284793487883 213.75, -76.35492913024234 213.75, -302.640625 213.75 M-302.640625 213.75 C-302.640625 203.28954042584215, -302.640625 192.8290808516843, -302.640625 171 M-302.640625 213.75 C-302.640625 197.2900477230947, -302.640625 180.83009544618938, -302.640625 171" stroke="#9370DB" stroke-width="1.3" fill="none" stroke-dasharray="0 0"/></g><g style="" class="row-rect-odd"><path d="M-302.640625 213.75 L302.640625 213.75 L302.640625 256.5 L-302.640625 256.5" stroke="none" stroke-width="0" fill="hsl(240, 100%, 100%)"/><path d="M-302.640625 213.75 C-135.29234962765096 213.75, 32.05592574469807 213.75, 302.640625 213.75 M-302.640625 213.75 C-165.2066155176359 213.75, -27.772606035271792 213.75, 302.640625 213.75 M302.640625 213.75 C302.640625 225.71336140971943, 302.640625 237.67672281943882, 302.640625 256.5 M302.640625 213.75 C302.640625 228.9808090786782, 302.640625 244.2116181573564, 302.640625 256.5 M302.640625 256.5 C104.82967924746984 256.5, -92.98126650506032 256.5, -302.640625 256.5 M302.640625 256.5 C64.17968357256089 256.5, -174.28125785487822 256.5, -302.640625 256.5 M-302.640625 256.5 C-302.640625 241.58641380589094, -302.640625 226.67282761178188, -302.640625 213.75 M-302.640625 256.5 C-302.640625 242.8940734499929, -302.640625 229.2881468999858, -302.640625 213.75" stroke="#9370DB" stroke-width="1.3" fill="none" stroke-dasharray="0 0"/></g><g class="label name" transform="translate(-78.484375, -247.125)" style=""><foreignObject width="156.96875" height="24"><div xmlns="http://www.w3.org/1999/xhtml" style="display: table-cell; white-space: nowrap; line-height: 1.5; max-width: 275px; text-align: start;"><span class="nodeLabel"><p>PPL_ADDON_PACKAGE</p></span></div></foreignObject></g><g class="label attribute-type" transform="translate(-290.140625, -204.375)" style=""><foreignObject width="19.65625" height="24"><div xmlns="http://www.w3.org/1999/xhtml" style="display: table-cell; white-space: nowrap; line-height: 1.5; max-width: 117px; text-align: start;"><span class="nodeLabel"><p>int</p></span></div></foreignObject></g><g class="label attribute-name" transform="translate(-199.828125, -204.375)" style=""><foreignObject width="13.484375" height="24"><div xmlns="http://www.w3.org/1999/xhtml" style="display: table-cell; white-space: nowrap; line-height: 1.5; max-width: 112px; text-align: start;"><span class="nodeLabel"><p>id</p></span></div></foreignObject></g><g class="label attribute-keys" transform="translate(-47.6875, -204.375)" style=""><foreignObject width="18.140625" height="24"><div xmlns="http://www.w3.org/1999/xhtml" style="display: table-cell; white-space: nowrap; line-height: 1.5; max-width: 120px; text-align: start;"><span class="nodeLabel"><p>PK</p></span></div></foreignObject></g><g class="label attribute-comment" transform="translate(-4.546875, -204.375)" style=""><foreignObject width="0" height="0"><div xmlns="http://www.w3.org/1999/xhtml" style="display: table-cell; white-space: nowrap; line-height: 1.5; max-width: 100px; text-align: start;"><span class="nodeLabel"></span></div></foreignObject></g><g class="label attribute-type" transform="translate(-290.140625, -161.625)" style=""><foreignObject width="40.375" height="24"><div xmlns="http://www.w3.org/1999/xhtml" style="display: table-cell; white-space: nowrap; line-height: 1.5; max-width: 136px; text-align: start;"><span class="nodeLabel"><p>string</p></span></div></foreignObject></g><g class="label attribute-name" transform="translate(-199.828125, -161.625)" style=""><foreignObject width="39.15625" height="24"><div xmlns="http://www.w3.org/1999/xhtml" style="display: table-cell; white-space: nowrap; line-height: 1.5; max-width: 135px; text-align: start;"><span class="nodeLabel"><p>name</p></span></div></foreignObject></g><g class="label attribute-keys" transform="translate(-47.6875, -161.625)" style=""><foreignObject width="0" height="0"><div xmlns="http://www.w3.org/1999/xhtml" style="display: table-cell; white-space: nowrap; line-height: 1.5; max-width: 100px; text-align: start;"><span class="nodeLabel"></span></div></foreignObject></g><g class="label attribute-comment" transform="translate(-4.546875, -161.625)" style=""><foreignObject width="294.6875" height="24"><div xmlns="http://www.w3.org/1999/xhtml" style="display: table-cell; white-space: nowrap; line-height: 1.5; max-width: 375px; text-align: start;"><span class="nodeLabel"><p>case-insensitive unique on LOWER(name)</p></span></div></foreignObject></g><g class="label attribute-type" transform="translate(-290.140625, -118.875)" style=""><foreignObject width="19.65625" height="24"><div xmlns="http://www.w3.org/1999/xhtml" style="display: table-cell; white-space: nowrap; line-height: 1.5; max-width: 117px; text-align: start;"><span class="nodeLabel"><p>int</p></span></div></foreignObject></g><g class="label attribute-name" transform="translate(-199.828125, -118.875)" style=""><foreignObject width="88.328125" height="24"><div xmlns="http://www.w3.org/1999/xhtml" style="display: table-cell; white-space: nowrap; line-height: 1.5; max-width: 177px; text-align: start;"><span class="nodeLabel"><p>lead_credits</p></span></div></foreignObject></g><g class="label attribute-keys" transform="translate(-47.6875, -118.875)" style=""><foreignObject width="0" height="0"><div xmlns="http://www.w3.org/1999/xhtml" style="display: table-cell; white-space: nowrap; line-height: 1.5; max-width: 100px; text-align: start;"><span class="nodeLabel"></span></div></foreignObject></g><g class="label attribute-comment" transform="translate(-4.546875, -118.875)" style=""><foreignObject width="132.546875" height="24"><div xmlns="http://www.w3.org/1999/xhtml" style="display: table-cell; white-space: nowrap; line-height: 1.5; max-width: 215px; text-align: start;"><span class="nodeLabel"><p>e.g. 5, 20, 50, 100</p></span></div></foreignObject></g><g class="label attribute-type" transform="translate(-290.140625, -76.125)" style=""><foreignObject width="56.53125" height="24"><div xmlns="http://www.w3.org/1999/xhtml" style="display: table-cell; white-space: nowrap; line-height: 1.5; max-width: 151px; text-align: start;"><span class="nodeLabel"><p>decimal</p></span></div></foreignObject></g><g class="label attribute-name" transform="translate(-199.828125, -76.125)" style=""><foreignObject width="54.109375" height="24"><div xmlns="http://www.w3.org/1999/xhtml" style="display: table-cell; white-space: nowrap; line-height: 1.5; max-width: 148px; text-align: start;"><span class="nodeLabel"><p>amount</p></span></div></foreignObject></g><g class="label attribute-keys" transform="translate(-47.6875, -76.125)" style=""><foreignObject width="0" height="0"><div xmlns="http://www.w3.org/1999/xhtml" style="display: table-cell; white-space: nowrap; line-height: 1.5; max-width: 100px; text-align: start;"><span class="nodeLabel"></span></div></foreignObject></g><g class="label attribute-comment" transform="translate(-4.546875, -76.125)" style=""><foreignObject width="106.015625" height="24"><div xmlns="http://www.w3.org/1999/xhtml" style="display: table-cell; white-space: nowrap; line-height: 1.5; max-width: 193px; text-align: start;"><span class="nodeLabel"><p>one-time price</p></span></div></foreignObject></g><g class="label attribute-type" transform="translate(-290.140625, -33.375)" style=""><foreignObject width="40.375" height="24"><div xmlns="http://www.w3.org/1999/xhtml" style="display: table-cell; white-space: nowrap; line-height: 1.5; max-width: 136px; text-align: start;"><span class="nodeLabel"><p>string</p></span></div></foreignObject></g><g class="label attribute-name" transform="translate(-199.828125, -33.375)" style=""><foreignObject width="62.390625" height="24"><div xmlns="http://www.w3.org/1999/xhtml" style="display: table-cell; white-space: nowrap; line-height: 1.5; max-width: 156px; text-align: start;"><span class="nodeLabel"><p>currency</p></span></div></foreignObject></g><g class="label attribute-keys" transform="translate(-47.6875, -33.375)" style=""><foreignObject width="0" height="0"><div xmlns="http://www.w3.org/1999/xhtml" style="display: table-cell; white-space: nowrap; line-height: 1.5; max-width: 100px; text-align: start;"><span class="nodeLabel"></span></div></foreignObject></g><g class="label attribute-comment" transform="translate(-4.546875, -33.375)" style=""><foreignObject width="80.71875" height="24"><div xmlns="http://www.w3.org/1999/xhtml" style="display: table-cell; white-space: nowrap; line-height: 1.5; max-width: 171px; text-align: start;"><span class="nodeLabel"><p>default usd</p></span></div></foreignObject></g><g class="label attribute-type" transform="translate(-290.140625, 9.375)" style=""><foreignObject width="40.375" height="24"><div xmlns="http://www.w3.org/1999/xhtml" style="display: table-cell; white-space: nowrap; line-height: 1.5; max-width: 136px; text-align: start;"><span class="nodeLabel"><p>string</p></span></div></foreignObject></g><g class="label attribute-name" transform="translate(-199.828125, 9.375)" style=""><foreignObject width="107.84375" height="24"><div xmlns="http://www.w3.org/1999/xhtml" style="display: table-cell; white-space: nowrap; line-height: 1.5; max-width: 196px; text-align: start;"><span class="nodeLabel"><p>stripe_price_id</p></span></div></foreignObject></g><g class="label attribute-keys" transform="translate(-47.6875, 9.375)" style=""><foreignObject width="0" height="0"><div xmlns="http://www.w3.org/1999/xhtml" style="display: table-cell; white-space: nowrap; line-height: 1.5; max-width: 100px; text-align: start;"><span class="nodeLabel"></span></div></foreignObject></g><g class="label attribute-comment" transform="translate(-4.546875, 9.375)" style=""><foreignObject width="133.4375" height="24"><div xmlns="http://www.w3.org/1999/xhtml" style="display: table-cell; white-space: nowrap; line-height: 1.5; max-width: 218px; text-align: start;"><span class="nodeLabel"><p>nullable; checkout</p></span></div></foreignObject></g><g class="label attribute-type" transform="translate(-290.140625, 52.125)" style=""><foreignObject width="40.375" height="24"><div xmlns="http://www.w3.org/1999/xhtml" style="display: table-cell; white-space: nowrap; line-height: 1.5; max-width: 136px; text-align: start;"><span class="nodeLabel"><p>string</p></span></div></foreignObject></g><g class="label attribute-name" transform="translate(-199.828125, 52.125)" style=""><foreignObject width="127.140625" height="24"><div xmlns="http://www.w3.org/1999/xhtml" style="display: table-cell; white-space: nowrap; line-height: 1.5; max-width: 213px; text-align: start;"><span class="nodeLabel"><p>stripe_product_id</p></span></div></foreignObject></g><g class="label attribute-keys" transform="translate(-47.6875, 52.125)" style=""><foreignObject width="0" height="0"><div xmlns="http://www.w3.org/1999/xhtml" style="display: table-cell; white-space: nowrap; line-height: 1.5; max-width: 100px; text-align: start;"><span class="nodeLabel"></span></div></foreignObject></g><g class="label attribute-comment" transform="translate(-4.546875, 52.125)" style=""><foreignObject width="57.6875" height="24"><div xmlns="http://www.w3.org/1999/xhtml" style="display: table-cell; white-space: nowrap; line-height: 1.5; max-width: 152px; text-align: start;"><span class="nodeLabel"><p>nullable</p></span></div></foreignObject></g><g class="label attribute-type" transform="translate(-290.140625, 94.875)" style=""><foreignObject width="19.65625" height="24"><div xmlns="http://www.w3.org/1999/xhtml" style="display: table-cell; white-space: nowrap; line-height: 1.5; max-width: 117px; text-align: start;"><span class="nodeLabel"><p>int</p></span></div></foreignObject></g><g class="label attribute-name" transform="translate(-199.828125, 94.875)" style=""><foreignObject width="74.6875" height="24"><div xmlns="http://www.w3.org/1999/xhtml" style="display: table-cell; white-space: nowrap; line-height: 1.5; max-width: 166px; text-align: start;"><span class="nodeLabel"><p>sort_order</p></span></div></foreignObject></g><g class="label attribute-keys" transform="translate(-47.6875, 94.875)" style=""><foreignObject width="0" height="0"><div xmlns="http://www.w3.org/1999/xhtml" style="display: table-cell; white-space: nowrap; line-height: 1.5; max-width: 100px; text-align: start;"><span class="nodeLabel"></span></div></foreignObject></g><g class="label attribute-comment" transform="translate(-4.546875, 94.875)" style=""><foreignObject width="169.046875" height="24"><div xmlns="http://www.w3.org/1999/xhtml" style="display: table-cell; white-space: nowrap; line-height: 1.5; max-width: 249px; text-align: start;"><span class="nodeLabel"><p>default 0; display order</p></span></div></foreignObject></g><g class="label attribute-type" transform="translate(-290.140625, 137.625)" style=""><foreignObject width="56.6875" height="24"><div xmlns="http://www.w3.org/1999/xhtml" style="display: table-cell; white-space: nowrap; line-height: 1.5; max-width: 151px; text-align: start;"><span class="nodeLabel"><p>boolean</p></span></div></foreignObject></g><g class="label attribute-name" transform="translate(-199.828125, 137.625)" style=""><foreignObject width="63.234375" height="24"><div xmlns="http://www.w3.org/1999/xhtml" style="display: table-cell; white-space: nowrap; line-height: 1.5; max-width: 157px; text-align: start;"><span class="nodeLabel"><p>is_active</p></span></div></foreignObject></g><g class="label attribute-keys" transform="translate(-47.6875, 137.625)" style=""><foreignObject width="0" height="0"><div xmlns="http://www.w3.org/1999/xhtml" style="display: table-cell; white-space: nowrap; line-height: 1.5; max-width: 100px; text-align: start;"><span class="nodeLabel"></span></div></foreignObject></g><g class="label attribute-comment" transform="translate(-4.546875, 137.625)" style=""><foreignObject width="86.625" height="24"><div xmlns="http://www.w3.org/1999/xhtml" style="display: table-cell; white-space: nowrap; line-height: 1.5; max-width: 173px; text-align: start;"><span class="nodeLabel"><p>default true</p></span></div></foreignObject></g><g class="label attribute-type" transform="translate(-290.140625, 180.375)" style=""><foreignObject width="65.3125" height="24"><div xmlns="http://www.w3.org/1999/xhtml" style="display: table-cell; white-space: nowrap; line-height: 1.5; max-width: 155px; text-align: start;"><span class="nodeLabel"><p>datetime</p></span></div></foreignObject></g><g class="label attribute-name" transform="translate(-199.828125, 180.375)" style=""><foreignObject width="78.40625" height="24"><div xmlns="http://www.w3.org/1999/xhtml" style="display: table-cell; white-space: nowrap; line-height: 1.5; max-width: 166px; text-align: start;"><span class="nodeLabel"><p>created_at</p></span></div></foreignObject></g><g class="label attribute-keys" transform="translate(-47.6875, 180.375)" style=""><foreignObject width="0" height="0"><div xmlns="http://www.w3.org/1999/xhtml" style="display: table-cell; white-space: nowrap; line-height: 1.5; max-width: 100px; text-align: start;"><span class="nodeLabel"></span></div></foreignObject></g><g class="label attribute-comment" transform="translate(-4.546875, 180.375)" style=""><foreignObject width="0" height="0"><div xmlns="http://www.w3.org/1999/xhtml" style="display: table-cell; white-space: nowrap; line-height: 1.5; max-width: 100px; text-align: start;"><span class="nodeLabel"></span></div></foreignObject></g><g class="label attribute-type" transform="translate(-290.140625, 223.125)" style=""><foreignObject width="65.3125" height="24"><div xmlns="http://www.w3.org/1999/xhtml" style="display: table-cell; white-space: nowrap; line-height: 1.5; max-width: 155px; text-align: start;"><span class="nodeLabel"><p>datetime</p></span></div></foreignObject></g><g class="label attribute-name" transform="translate(-199.828125, 223.125)" style=""><foreignObject width="82.109375" height="24"><div xmlns="http://www.w3.org/1999/xhtml" style="display: table-cell; white-space: nowrap; line-height: 1.5; max-width: 170px; text-align: start;"><span class="nodeLabel"><p>updated_at</p></span></div></foreignObject></g><g class="label attribute-keys" transform="translate(-47.6875, 223.125)" style=""><foreignObject width="0" height="0"><div xmlns="http://www.w3.org/1999/xhtml" style="display: table-cell; white-space: nowrap; line-height: 1.5; max-width: 100px; text-align: start;"><span class="nodeLabel"></span></div></foreignObject></g><g class="label attribute-comment" transform="translate(-4.546875, 223.125)" style=""><foreignObject width="0" height="0"><div xmlns="http://www.w3.org/1999/xhtml" style="display: table-cell; white-space: nowrap; line-height: 1.5; max-width: 100px; text-align: start;"><span class="nodeLabel"></span></div></foreignObject></g><g class="divider"><path d="M-302.640625 -213.75005 L-302.640625 -213.74995 L302.640625 -213.74995 L302.640625 -213.75005" stroke="none" stroke-width="0" fill="#ECECFF" fill-rule="evenodd"/><path d="M-302.640625 -213.75005 C-302.640625 -213.75001356712, -302.640625 -213.74997713424003, -302.640625 -213.74995 M-302.640625 -213.75005 C-302.640625 -213.75001316347317, -302.640625 -213.74997632694635, -302.640625 -213.74995 M-302.640625 -213.74995 C-104.33147767340938 -213.74995, 93.97766965318124 -213.74995, 302.640625 -213.74995 M-302.640625 -213.74995 C-157.98907949695723 -213.74995, -13.337533993914462 -213.74995, 302.640625 -213.74995 M302.640625 -213.74995 C302.640625 -213.7499756883302, 302.640625 -213.75000137666044, 302.640625 -213.75005 M302.640625 -213.74995 C302.640625 -213.74998161088178, 302.640625 -213.75001322176354, 302.640625 -213.75005 M302.640625 -213.75005 C120.12671246088004 -213.75005, -62.387200078239914 -213.75005, -302.640625 -213.75005 M302.640625 -213.75005 C79.57089938084616 -213.75005, -143.4988262383077 -213.75005, -302.640625 -213.75005" stroke="#9370DB" stroke-width="1.3" fill="none" stroke-dasharray="0 0"/></g><g class="divider"><path d="M-212.328175 -213.75 L-212.328075 -213.75 L-212.328075 256.5 L-212.328175 256.5" stroke="none" stroke-width="0" fill="#ECECFF" fill-rule="evenodd"/><path d="M-212.328175 -213.75 C-212.32813614237472 -213.75, -212.32809728474945 -213.75, -212.328075 -213.75 M-212.328175 -213.75 C-212.3281473207817 -213.75, -212.3281196415634 -213.75, -212.328075 -213.75 M-212.328075 -213.75 C-212.328075 -86.38576135896867, -212.328075 40.97847728206267, -212.328075 256.5 M-212.328075 -213.75 C-212.328075 -35.45020876192223, -212.328075 142.84958247615555, -212.328075 256.5 M-212.328075 256.5 C-212.3281084741237 256.5, -212.32814194824735 256.5, -212.328175 256.5 M-212.328075 256.5 C-212.32810811297767 256.5, -212.3281412259553 256.5, -212.328175 256.5 M-212.328175 256.5 C-212.328175 108.31203992879756, -212.328175 -39.87592014240488, -212.328175 -213.75 M-212.328175 256.5 C-212.328175 119.86542711100168, -212.328175 -16.76914577799664, -212.328175 -213.75" stroke="#9370DB" stroke-width="1.3" fill="none" stroke-dasharray="0 0"/></g><g class="divider"><path d="M-60.18755 -213.75 L-60.18745 -213.75 L-60.18745 256.5 L-60.18755 256.5" stroke="none" stroke-width="0" fill="#ECECFF" fill-rule="evenodd"/><path d="M-60.18755 -213.75 C-60.18752826679482 -213.75, -60.187506533589634 -213.75, -60.18745 -213.75 M-60.18755 -213.75 C-60.187521839128905 -213.75, -60.187493678257816 -213.75, -60.18745 -213.75 M-60.18745 -213.75 C-60.18745 -81.78520577138278, -60.18745 50.179588457234445, -60.18745 256.5 M-60.18745 -213.75 C-60.18745 -54.4914493787675, -60.18745 104.767101242465, -60.18745 256.5 M-60.18745 256.5 C-60.187486906323954 256.5, -60.1875238126479 256.5, -60.18755 256.5 M-60.18745 256.5 C-60.187484115057046 256.5, -60.1875182301141 256.5, -60.18755 256.5 M-60.18755 256.5 C-60.18755 140.08189830483195, -60.18755 23.663796609663876, -60.18755 -213.75 M-60.18755 256.5 C-60.18755 88.8874288644613, -60.18755 -78.7251422710774, -60.18755 -213.75" stroke="#9370DB" stroke-width="1.3" fill="none" stroke-dasharray="0 0"/></g><g class="divider"><path d="M-17.046925 -213.75 L-17.046825 -213.75 L-17.046825 256.5 L-17.046925 256.5" stroke="none" stroke-width="0" fill="#ECECFF" fill-rule="evenodd"/><path d="M-17.046925 -213.75 C-17.04688849818026 -213.75, -17.04685199636052 -213.75, -17.046825 -213.75 M-17.046925 -213.75 C-17.04689186445587 -213.75, -17.046858728911737 -213.75, -17.046825 -213.75 M-17.046825 -213.75 C-17.046825 -70.99256475202543, -17.046825 71.76487049594914, -17.046825 256.5 M-17.046825 -213.75 C-17.046825 -42.80913657510118, -17.046825 128.13172684979764, -17.046825 256.5 M-17.046825 256.5 C-17.046847276630434 256.5, -17.046869553260866 256.5, -17.046925 256.5 M-17.046825 256.5 C-17.046846775527072 256.5, -17.046868551054146 256.5, -17.046925 256.5 M-17.046925 256.5 C-17.046925 137.76326535876115, -17.046925 19.02653071752232, -17.046925 -213.75 M-17.046925 256.5 C-17.046925 104.80484908111694, -17.046925 -46.89030183776612, -17.046925 -213.75" stroke="#9370DB" stroke-width="1.3" fill="none" stroke-dasharray="0 0"/></g><g class="divider"><path d="M-302.640625 -213.75005 L-302.640625 -213.74995 L302.640625 -213.74995 L302.640625 -213.75005" stroke="none" stroke-width="0" fill="#ECECFF" fill-rule="evenodd"/><path d="M-302.640625 -213.75005 C-302.640625 -213.7500161456613, -302.640625 -213.74998229132265, -302.640625 -213.74995 M-302.640625 -213.75005 C-302.640625 -213.75002550682882, -302.640625 -213.75000101365765, -302.640625 -213.74995 M-302.640625 -213.74995 C-157.4777334066067 -213.74995, -12.314841813213377 -213.74995, 302.640625 -213.74995 M-302.640625 -213.74995 C-158.3395841767911 -213.74995, -14.038543353582213 -213.74995, 302.640625 -213.74995 M302.640625 -213.74995 C302.640625 -213.74997430697633, 302.640625 -213.74999861395264, 302.640625 -213.75005 M302.640625 -213.74995 C302.640625 -213.7499785288733, 302.640625 -213.75000705774661, 302.640625 -213.75005 M302.640625 -213.75005 C179.8310456426626 -213.75005, 57.021466285325175 -213.75005, -302.640625 -213.75005 M302.640625 -213.75005 C75.97177812789201 -213.75005, -150.69706874421598 -213.75005, -302.640625 -213.75005" stroke="#9370DB" stroke-width="1.3" fill="none" stroke-dasharray="0 0"/></g></g><g class="node default" id="my-svg-entity-ORDER_ITEM-1" data-look="classic" transform="translate(310.640625, 664)"><rect class="basic label-container" style="" x="-64.921875" y="-42" width="129.84375" height="84"/><g class="label" style="" transform="translate(-44.921875, -12)"><rect/><foreignObject width="89.84375" height="24"><div xmlns="http://www.w3.org/1999/xhtml" style="display: table-cell; white-space: nowrap; line-height: 1.5; max-width: 200px; text-align: center;"><span class="nodeLabel markdown-node-label"><p>ORDER_ITEM</p></span></div></foreignObject></g></g></g></g></g><defs><filter id="my-svg-drop-shadow" height="130%" width="130%"><feDropShadow dx="4" dy="4" stdDeviation="0" flood-opacity="0.06" flood-color="#000000"/></filter></defs><defs><filter id="my-svg-drop-shadow-small" height="150%" width="150%"><feDropShadow dx="2" dy="2" stdDeviation="0" flood-opacity="0.06" flood-color="#000000"/></filter></defs></svg>