<svg id="my-svg" width="100%" xmlns="http://www.w3.org/2000/svg" xmlns:xlink="http://www.w3.org/1999/xlink" class="erDiagram" style="max-width: 1271.41px; background-color: white;" viewBox="0 0 1271.40625 856.25" role="graphics-document document" aria-roledescription="er"><style>#my-svg{font-family:"trebuchet ms",verdana,arial,sans-serif;font-size:16px;fill:#333;}@keyframes edge-animation-frame{from{stroke-dashoffset:0;}}@keyframes dash{to{stroke-dashoffset:0;}}#my-svg .edge-animation-slow{stroke-dasharray:9,5!important;stroke-dashoffset:900;animation:dash 50s linear infinite;stroke-linecap:round;}#my-svg .edge-animation-fast{stroke-dasharray:9,5!important;stroke-dashoffset:900;animation:dash 20s linear infinite;stroke-linecap:round;}#my-svg .error-icon{fill:#552222;}#my-svg .error-text{fill:#552222;stroke:#552222;}#my-svg .edge-thickness-normal{stroke-width:1px;}#my-svg .edge-thickness-thick{stroke-width:3.5px;}#my-svg .edge-pattern-solid{stroke-dasharray:0;}#my-svg .edge-thickness-invisible{stroke-width:0;fill:none;}#my-svg .edge-pattern-dashed{stroke-dasharray:3;}#my-svg .edge-pattern-dotted{stroke-dasharray:2;}#my-svg .marker{fill:#333333;stroke:#333333;}#my-svg .marker.cross{stroke:#333333;}#my-svg svg{font-family:"trebuchet ms",verdana,arial,sans-serif;font-size:16px;}#my-svg p{margin:0;}#my-svg .entityBox{fill:#ECECFF;stroke:#9370DB;}#my-svg .relationshipLabelBox{fill:hsl(80, 100%, 96.2745098039%);opacity:0.7;background-color:hsl(80, 100%, 96.2745098039%);}#my-svg .relationshipLabelBox rect{opacity:0.5;}#my-svg .labelBkg{background-color:rgba(248.6666666666, 255, 235.9999999999, 0.5);}#my-svg .edgeLabel{background-color:rgba(232,232,232, 0.8);}#my-svg .edgeLabel .label rect{fill:rgba(232,232,232, 0.8);}#my-svg .edgeLabel .label text{fill:#333;}#my-svg .edgeLabel .label{fill:#9370DB;font-size:14px;}#my-svg .label{font-family:"trebuchet ms",verdana,arial,sans-serif;color:#333;}#my-svg .edge-pattern-dashed{stroke-dasharray:8,8;}#my-svg .node rect,#my-svg .node circle,#my-svg .node ellipse,#my-svg .node polygon{fill:#ECECFF;stroke:#9370DB;stroke-width:1px;}#my-svg .relationshipLine{stroke:#333333;stroke-width:1px;fill:none;}#my-svg .marker{fill:none!important;stroke:#333333!important;stroke-width:1;}#my-svg [data-look=neo].labelBkg{background-color:rgba(248.6666666666, 255, 235.9999999999, 0.5);}#my-svg .node .neo-node{stroke:#9370DB;}#my-svg [data-look="neo"].node rect,#my-svg [data-look="neo"].cluster rect,#my-svg [data-look="neo"].node polygon{stroke:#9370DB;filter:drop-shadow(1px 2px 2px rgba(185, 185, 185, 1));}#my-svg [data-look="neo"].node path{stroke:#9370DB;stroke-width:1px;}#my-svg [data-look="neo"].node .outer-path{filter:drop-shadow(1px 2px 2px rgba(185, 185, 185, 1));}#my-svg [data-look="neo"].node .neo-line path{stroke:#9370DB;filter:none;}#my-svg [data-look="neo"].node circle{stroke:#9370DB;filter:drop-shadow(1px 2px 2px rgba(185, 185, 185, 1));}#my-svg [data-look="neo"].node circle .state-start{fill:#000000;}#my-svg [data-look="neo"].icon-shape .icon{fill:#9370DB;filter:drop-shadow(1px 2px 2px rgba(185, 185, 185, 1));}#my-svg [data-look="neo"].icon-shape .icon-neo path{stroke:#9370DB;filter:drop-shadow(1px 2px 2px rgba(185, 185, 185, 1));}#my-svg :root{--mermaid-font-family:"trebuchet ms",verdana,arial,sans-serif;}</style><g><defs><marker id="my-svg_er-onlyOneStart" class="marker onlyOne er" refX="0" refY="9" markerWidth="18" markerHeight="18" orient="auto"><path d="M9,0 L9,18 M15,0 L15,18"/></marker></defs><defs><marker id="my-svg_er-onlyOneEnd" class="marker onlyOne er" refX="18" refY="9" markerWidth="18" markerHeight="18" orient="auto"><path d="M3,0 L3,18 M9,0 L9,18"/></marker></defs><defs><marker id="my-svg_er-zeroOrOneStart" class="marker zeroOrOne er" refX="0" refY="9" markerWidth="30" markerHeight="18" orient="auto"><circle fill="white" cx="21" cy="9" r="6"/><path d="M9,0 L9,18"/></marker></defs><defs><marker id="my-svg_er-zeroOrOneEnd" class="marker zeroOrOne er" refX="30" refY="9" markerWidth="30" markerHeight="18" orient="auto"><circle fill="white" cx="9" cy="9" r="6"/><path d="M21,0 L21,18"/></marker></defs><defs><marker id="my-svg_er-oneOrMoreStart" class="marker oneOrMore er" refX="18" refY="18" markerWidth="45" markerHeight="36" orient="auto"><path d="M0,18 Q 18,0 36,18 Q 18,36 0,18 M42,9 L42,27"/></marker></defs><defs><marker id="my-svg_er-oneOrMoreEnd" class="marker oneOrMore er" refX="27" refY="18" markerWidth="45" markerHeight="36" orient="auto"><path d="M3,9 L3,27 M9,18 Q27,0 45,18 Q27,36 9,18"/></marker></defs><defs><marker id="my-svg_er-zeroOrMoreStart" class="marker zeroOrMore er" refX="18" refY="18" markerWidth="57" markerHeight="36" orient="auto"><circle fill="white" cx="48" cy="18" r="6"/><path d="M0,18 Q18,0 36,18 Q18,36 0,18"/></marker></defs><defs><marker id="my-svg_er-zeroOrMoreEnd" class="marker zeroOrMore er" refX="39" refY="18" markerWidth="57" markerHeight="36" orient="auto"><circle fill="white" cx="9" cy="18" r="6"/><path d="M21,18 Q39,0 57,18 Q39,36 21,18"/></marker></defs><g class="root"><g class="clusters"/><g class="edgePaths"><path d="M367.621,92L367.621,100.417C367.621,108.833,367.621,125.667,371.217,142.5C374.812,159.333,382.003,176.167,385.599,184.583L389.194,193" id="my-svg-id_entity-SHOWS-0_entity-SHOW_PRODUCT-1_0" class="edge-thickness-normal edge-pattern-solid relationshipLine" style="undefined;;;undefined" data-edge="true" data-et="edge" data-id="id_entity-SHOWS-0_entity-SHOW_PRODUCT-1_0" data-points="W3sieCI6MzY3LjYyMTA5Mzc1LCJ5Ijo5Mn0seyJ4IjozNjcuNjIxMDkzNzUsInkiOjE0Mi41fSx7IngiOjM4OS4xOTQwOTcwMzIyNzU3LCJ5IjoxOTN9XQ==" data-look="classic" marker-start="url(#my-svg_er-onlyOneStart)" marker-end="url(#my-svg_er-zeroOrMoreEnd)"/><path d="M611.652,92L611.652,100.417C611.652,108.833,611.652,125.667,608.057,142.5C604.461,159.333,597.27,176.167,593.675,184.583L590.079,193" id="my-svg-id_entity-PRODUCT-2_entity-SHOW_PRODUCT-1_1" class="edge-thickness-normal edge-pattern-solid relationshipLine" style="undefined;;;undefined" data-edge="true" data-et="edge" data-id="id_entity-PRODUCT-2_entity-SHOW_PRODUCT-1_1" data-points="W3sieCI6NjExLjY1MjM0Mzc1LCJ5Ijo5Mn0seyJ4Ijo2MTEuNjUyMzQzNzUsInkiOjE0Mi41fSx7IngiOjU5MC4wNzkzNDA0Njc3MjQzLCJ5IjoxOTN9XQ==" data-look="classic" marker-start="url(#my-svg_er-onlyOneStart)" marker-end="url(#my-svg_er-zeroOrMoreEnd)"/><path d="M236.004,599.741L207.921,618.742C179.839,637.744,123.673,675.747,95.59,703.165C67.508,730.583,67.508,747.417,67.508,755.833L67.508,764.25" id="my-svg-id_entity-SHOW_PRODUCT-1_entity-CART_ITEM-3_2" class="edge-thickness-normal edge-pattern-solid relationshipLine" style="undefined;;;undefined" data-edge="true" data-et="edge" data-id="id_entity-SHOW_PRODUCT-1_entity-CART_ITEM-3_2" data-points="W3sieCI6MjM2LjAwMzkwNjI1LCJ5Ijo1OTkuNzQwNTIwNzUxMzk5Nn0seyJ4Ijo2Ny41MDc4MTI1LCJ5Ijo3MTMuNzV9LHsieCI6NjcuNTA3ODEyNSwieSI6NzY0LjI1fV0=" data-look="classic" marker-start="url(#my-svg_er-onlyOneStart)" marker-end="url(#my-svg_er-zeroOrMoreEnd)"/><path d="M359.82,663.25L355.173,671.667C350.526,680.083,341.232,696.917,336.585,713.75C331.938,730.583,331.938,747.417,331.938,755.833L331.938,764.25" id="my-svg-id_entity-SHOW_PRODUCT-1_entity-ORDER_ITEM-4_3" class="edge-thickness-normal edge-pattern-solid relationshipLine" style="undefined;;;undefined" data-edge="true" data-et="edge" data-id="id_entity-SHOW_PRODUCT-1_entity-ORDER_ITEM-4_3" data-points="W3sieCI6MzU5LjgxOTU1MDA1NDcwNDU2LCJ5Ijo2NjMuMjV9LHsieCI6MzMxLjkzNzUsInkiOjcxMy43NX0seyJ4IjozMzEuOTM3NSwieSI6NzY0LjI1fV0=" data-look="classic" marker-start="url(#my-svg_er-onlyOneStart)" marker-end="url(#my-svg_er-zeroOrMoreEnd)"/><path d="M619.454,663.25L624.101,671.667C628.748,680.083,638.042,696.917,642.689,713.75C647.336,730.583,647.336,747.417,647.336,755.833L647.336,764.25" id="my-svg-id_entity-SHOW_PRODUCT-1_entity-INVENTORY_RESERVATION-5_4" class="edge-thickness-normal edge-pattern-solid relationshipLine" style="undefined;;;undefined" data-edge="true" data-et="edge" data-id="id_entity-SHOW_PRODUCT-1_entity-INVENTORY_RESERVATION-5_4" data-points="W3sieCI6NjE5LjQ1Mzg4NzQ0NTI5NTQsInkiOjY2My4yNX0seyJ4Ijo2NDcuMzM1OTM3NSwieSI6NzEzLjc1fSx7IngiOjY0Ny4zMzU5Mzc1LCJ5Ijo3NjQuMjV9XQ==" data-look="classic" marker-start="url(#my-svg_er-onlyOneStart)" marker-end="url(#my-svg_er-zeroOrMoreEnd)"/><path d="M743.27,550.709L799.493,577.883C855.716,605.056,968.163,659.403,1024.386,694.993C1080.609,730.583,1080.609,747.417,1080.609,755.833L1080.609,764.25" id="my-svg-id_entity-SHOW_PRODUCT-1_entity-BOOTH_SIZE_BASED_SHOW_PRODUCT_PRICES-6_5" class="edge-thickness-normal edge-pattern-solid relationshipLine" style="undefined;;;undefined" data-edge="true" data-et="edge" data-id="id_entity-SHOW_PRODUCT-1_entity-BOOTH_SIZE_BASED_SHOW_PRODUCT_PRICES-6_5" data-points="W3sieCI6NzQzLjI2OTUzMTI1LCJ5Ijo1NTAuNzA5MTM1MzMwMzk0MX0seyJ4IjoxMDgwLjYwOTM3NSwieSI6NzEzLjc1fSx7IngiOjEwODAuNjA5Mzc1LCJ5Ijo3NjQuMjV9XQ==" data-look="classic" marker-start="url(#my-svg_er-onlyOneStart)" marker-end="url(#my-svg_er-zeroOrMoreEnd)"/></g><g class="edgeLabels"><g class="edgeLabel" transform="translate(367.62109375, 142.5)"><g class="label" data-id="id_entity-SHOWS-0_entity-SHOW_PRODUCT-1_0" transform="translate(-63.84375, -10.5)"><foreignObject width="127.6875" height="21"><div xmlns="http://www.w3.org/1999/xhtml" class="labelBkg" style="display: table-cell; white-space: nowrap; line-height: 1.5; max-width: 200px; text-align: center;"><span class="edgeLabel"><p>offered at (cascade)</p></span></div></foreignObject></g></g><g class="edgeLabel" transform="translate(611.65234375, 142.5)"><g class="label" data-id="id_entity-PRODUCT-2_entity-SHOW_PRODUCT-1_1" transform="translate(-45.375, -10.5)"><foreignObject width="90.75" height="21"><div xmlns="http://www.w3.org/1999/xhtml" class="labelBkg" style="display: table-cell; white-space: nowrap; line-height: 1.5; max-width: 200px; text-align: center;"><span class="edgeLabel"><p>is of (cascade)</p></span></div></foreignObject></g></g><g class="edgeLabel" transform="translate(67.5078125, 713.75)"><g class="label" data-id="id_entity-SHOW_PRODUCT-1_entity-CART_ITEM-3_2" transform="translate(-27.8203125, -10.5)"><foreignObject width="55.640625" height="21"><div xmlns="http://www.w3.org/1999/xhtml" class="labelBkg" style="display: table-cell; white-space: nowrap; line-height: 1.5; max-width: 200px; text-align: center;"><span class="edgeLabel"><p>added as</p></span></div></foreignObject></g></g><g class="edgeLabel" transform="translate(331.9375, 713.75)"><g class="label" data-id="id_entity-SHOW_PRODUCT-1_entity-ORDER_ITEM-4_3" transform="translate(-33.2578125, -10.5)"><foreignObject width="66.515625" height="21"><div xmlns="http://www.w3.org/1999/xhtml" class="labelBkg" style="display: table-cell; white-space: nowrap; line-height: 1.5; max-width: 200px; text-align: center;"><span class="edgeLabel"><p>ordered as</p></span></div></foreignObject></g></g><g class="edgeLabel" transform="translate(647.3359375, 713.75)"><g class="label" data-id="id_entity-SHOW_PRODUCT-1_entity-INVENTORY_RESERVATION-5_4" transform="translate(-82.1796875, -10.5)"><foreignObject width="164.359375" height="21"><div xmlns="http://www.w3.org/1999/xhtml" class="labelBkg" style="display: table-cell; white-space: nowrap; line-height: 1.5; max-width: 200px; text-align: center;"><span class="edgeLabel"><p>stock tracked by (restrict)</p></span></div></foreignObject></g></g><g class="edgeLabel" transform="translate(1080.609375, 713.75)"><g class="label" data-id="id_entity-SHOW_PRODUCT-1_entity-BOOTH_SIZE_BASED_SHOW_PRODUCT_PRICES-6_5" transform="translate(-59.6171875, -10.5)"><foreignObject width="119.234375" height="21"><div xmlns="http://www.w3.org/1999/xhtml" class="labelBkg" style="display: table-cell; white-space: nowrap; line-height: 1.5; max-width: 200px; text-align: center;"><span class="edgeLabel"><p>priced by (restrict)</p></span></div></foreignObject></g></g></g><g class="nodes"><g class="node default" id="my-svg-entity-SHOWS-0" data-look="classic" transform="translate(367.62109375, 50)"><rect class="basic label-container" style="" x="-50" y="-42" width="100" height="84"/><g class="label" style="" transform="translate(-25.140625, -12)"><rect/><foreignObject width="50.28125" height="24"><div xmlns="http://www.w3.org/1999/xhtml" style="display: table-cell; white-space: nowrap; line-height: 1.5; max-width: 100px; text-align: center;"><span class="nodeLabel markdown-node-label"><p>SHOWS</p></span></div></foreignObject></g></g><g class="node default" id="my-svg-entity-SHOW_PRODUCT-1" data-look="classic" transform="translate(489.63671875, 428.125)"><g class="outer-path" style=""><path d="M-253.6328125 -235.125 L253.6328125 -235.125 L253.6328125 235.125 L-253.6328125 235.125" stroke="none" stroke-width="0" fill="#ECECFF"/><path d="M-253.6328125 -235.125 C-146.95050729161773 -235.125, -40.26820208323548 -235.125, 253.6328125 -235.125 M-253.6328125 -235.125 C-111.0080246523292 -235.125, 31.616763195341605 -235.125, 253.6328125 -235.125 M253.6328125 -235.125 C253.6328125 -70.32399028032106, 253.6328125 94.47701943935789, 253.6328125 235.125 M253.6328125 -235.125 C253.6328125 -71.61489855390994, 253.6328125 91.89520289218012, 253.6328125 235.125 M253.6328125 235.125 C101.65185561621016 235.125, -50.32910126757969 235.125, -253.6328125 235.125 M253.6328125 235.125 C123.546860109498 235.125, -6.539092281004002 235.125, -253.6328125 235.125 M-253.6328125 235.125 C-253.6328125 137.78308811381504, -253.6328125 40.44117622763011, -253.6328125 -235.125 M-253.6328125 235.125 C-253.6328125 86.15993783353429, -253.6328125 -62.80512433293143, -253.6328125 -235.125" stroke="#9370DB" stroke-width="1.3" fill="none" stroke-dasharray="0 0"/></g><g style="" class="row-rect-odd"><path d="M-253.6328125 -192.375 L253.6328125 -192.375 L253.6328125 -149.625 L-253.6328125 -149.625" stroke="none" stroke-width="0" fill="hsl(240, 100%, 100%)"/><path d="M-253.6328125 -192.375 C-138.58280386503785 -192.375, -23.532795230075692 -192.375, 253.6328125 -192.375 M-253.6328125 -192.375 C-133.38194914890738 -192.375, -13.131085797814734 -192.375, 253.6328125 -192.375 M253.6328125 -192.375 C253.6328125 -181.52163653244796, 253.6328125 -170.66827306489594, 253.6328125 -149.625 M253.6328125 -192.375 C253.6328125 -183.25662658387176, 253.6328125 -174.13825316774353, 253.6328125 -149.625 M253.6328125 -149.625 C129.38909818509836 -149.625, 5.145383870196724 -149.625, -253.6328125 -149.625 M253.6328125 -149.625 C56.92314123648177 -149.625, -139.78653002703646 -149.625, -253.6328125 -149.625 M-253.6328125 -149.625 C-253.6328125 -161.45071249667006, -253.6328125 -173.27642499334016, -253.6328125 -192.375 M-253.6328125 -149.625 C-253.6328125 -163.83452323869426, -253.6328125 -178.04404647738852, -253.6328125 -192.375" stroke="#9370DB" stroke-width="1.3" fill="none" stroke-dasharray="0 0"/></g><g style="" class="row-rect-even"><path d="M-253.6328125 -149.625 L253.6328125 -149.625 L253.6328125 -106.875 L-253.6328125 -106.875" stroke="none" stroke-width="0" fill="hsl(240, 100%, 97.2745098039%)"/><path d="M-253.6328125 -149.625 C-104.40487578396045 -149.625, 44.8230609320791 -149.625, 253.6328125 -149.625 M-253.6328125 -149.625 C-83.82534376829128 -149.625, 85.98212496341745 -149.625, 253.6328125 -149.625 M253.6328125 -149.625 C253.6328125 -133.48667803703648, 253.6328125 -117.34835607407295, 253.6328125 -106.875 M253.6328125 -149.625 C253.6328125 -136.18049264580517, 253.6328125 -122.73598529161038, 253.6328125 -106.875 M253.6328125 -106.875 C59.69245044806004 -106.875, -134.2479116038799 -106.875, -253.6328125 -106.875 M253.6328125 -106.875 C89.26134658644543 -106.875, -75.11011932710915 -106.875, -253.6328125 -106.875 M-253.6328125 -106.875 C-253.6328125 -118.01041123990639, -253.6328125 -129.14582247981278, -253.6328125 -149.625 M-253.6328125 -106.875 C-253.6328125 -123.13635286392736, -253.6328125 -139.3977057278547, -253.6328125 -149.625" stroke="#9370DB" stroke-width="1.3" fill="none" stroke-dasharray="0 0"/></g><g style="" class="row-rect-odd"><path d="M-253.6328125 -106.875 L253.6328125 -106.875 L253.6328125 -64.125 L-253.6328125 -64.125" stroke="none" stroke-width="0" fill="hsl(240, 100%, 100%)"/><path d="M-253.6328125 -106.875 C-133.2960484729624 -106.875, -12.959284445924794 -106.875, 253.6328125 -106.875 M-253.6328125 -106.875 C-86.12074573933484 -106.875, 81.39132102133033 -106.875, 253.6328125 -106.875 M253.6328125 -106.875 C253.6328125 -94.79545147959671, 253.6328125 -82.71590295919343, 253.6328125 -64.125 M253.6328125 -106.875 C253.6328125 -96.36340611226366, 253.6328125 -85.85181222452734, 253.6328125 -64.125 M253.6328125 -64.125 C130.23488277602465 -64.125, 6.836953052049296 -64.125, -253.6328125 -64.125 M253.6328125 -64.125 C107.90718758793014 -64.125, -37.81843732413972 -64.125, -253.6328125 -64.125 M-253.6328125 -64.125 C-253.6328125 -74.99293477936524, -253.6328125 -85.86086955873047, -253.6328125 -106.875 M-253.6328125 -64.125 C-253.6328125 -76.43058178557209, -253.6328125 -88.73616357114417, -253.6328125 -106.875" stroke="#9370DB" stroke-width="1.3" fill="none" stroke-dasharray="0 0"/></g><g style="" class="row-rect-even"><path d="M-253.6328125 -64.125 L253.6328125 -64.125 L253.6328125 -21.375 L-253.6328125 -21.375" stroke="none" stroke-width="0" fill="hsl(240, 100%, 97.2745098039%)"/><path d="M-253.6328125 -64.125 C-127.9007103464821 -64.125, -2.1686081929642 -64.125, 253.6328125 -64.125 M-253.6328125 -64.125 C-150.5518914419584 -64.125, -47.47097038391681 -64.125, 253.6328125 -64.125 M253.6328125 -64.125 C253.6328125 -48.30368990370067, 253.6328125 -32.482379807401344, 253.6328125 -21.375 M253.6328125 -64.125 C253.6328125 -53.961597418110685, 253.6328125 -43.79819483622137, 253.6328125 -21.375 M253.6328125 -21.375 C110.4229357522118 -21.375, -32.7869409955764 -21.375, -253.6328125 -21.375 M253.6328125 -21.375 C85.43690120021597 -21.375, -82.75901009956806 -21.375, -253.6328125 -21.375 M-253.6328125 -21.375 C-253.6328125 -36.736538447074096, -253.6328125 -52.09807689414819, -253.6328125 -64.125 M-253.6328125 -21.375 C-253.6328125 -34.56058971424303, -253.6328125 -47.74617942848606, -253.6328125 -64.125" stroke="#9370DB" stroke-width="1.3" fill="none" stroke-dasharray="0 0"/></g><g style="" class="row-rect-odd"><path d="M-253.6328125 -21.375 L253.6328125 -21.375 L253.6328125 21.375 L-253.6328125 21.375" stroke="none" stroke-width="0" fill="hsl(240, 100%, 100%)"/><path d="M-253.6328125 -21.375 C-126.10386712808572 -21.375, 1.4250782438285512 -21.375, 253.6328125 -21.375 M-253.6328125 -21.375 C-66.96149665325007 -21.375, 119.70981919349987 -21.375, 253.6328125 -21.375 M253.6328125 -21.375 C253.6328125 -6.3575239668680545, 253.6328125 8.659952066263891, 253.6328125 21.375 M253.6328125 -21.375 C253.6328125 -10.416783278562352, 253.6328125 0.5414334428752952, 253.6328125 21.375 M253.6328125 21.375 C66.23263705864727 21.375, -121.16753838270546 21.375, -253.6328125 21.375 M253.6328125 21.375 C118.35576930718605 21.375, -16.921273885627897 21.375, -253.6328125 21.375 M-253.6328125 21.375 C-253.6328125 9.31625162769665, -253.6328125 -2.742496744606701, -253.6328125 -21.375 M-253.6328125 21.375 C-253.6328125 12.753693849187355, -253.6328125 4.1323876983747105, -253.6328125 -21.375" stroke="#9370DB" stroke-width="1.3" fill="none" stroke-dasharray="0 0"/></g><g style="" class="row-rect-even"><path d="M-253.6328125 21.375 L253.6328125 21.375 L253.6328125 64.125 L-253.6328125 64.125" stroke="none" stroke-width="0" fill="hsl(240, 100%, 97.2745098039%)"/><path d="M-253.6328125 21.375 C-98.87854720627399 21.375, 55.875718087452015 21.375, 253.6328125 21.375 M-253.6328125 21.375 C-68.2049215420291 21.375, 117.2229694159418 21.375, 253.6328125 21.375 M253.6328125 21.375 C253.6328125 36.03419910562677, 253.6328125 50.693398211253545, 253.6328125 64.125 M253.6328125 21.375 C253.6328125 36.10645907146408, 253.6328125 50.83791814292816, 253.6328125 64.125 M253.6328125 64.125 C61.625110717527974 64.125, -130.38259106494405 64.125, -253.6328125 64.125 M253.6328125 64.125 C64.52514843409207 64.125, -124.58251563181585 64.125, -253.6328125 64.125 M-253.6328125 64.125 C-253.6328125 48.80776094402404, -253.6328125 33.49052188804808, -253.6328125 21.375 M-253.6328125 64.125 C-253.6328125 52.29047666258686, -253.6328125 40.455953325173724, -253.6328125 21.375" stroke="#9370DB" stroke-width="1.3" fill="none" stroke-dasharray="0 0"/></g><g style="" class="row-rect-odd"><path d="M-253.6328125 64.125 L253.6328125 64.125 L253.6328125 106.875 L-253.6328125 106.875" stroke="none" stroke-width="0" fill="hsl(240, 100%, 100%)"/><path d="M-253.6328125 64.125 C-67.393806580881 64.125, 118.84519933823799 64.125, 253.6328125 64.125 M-253.6328125 64.125 C-70.01360305075983 64.125, 113.60560639848035 64.125, 253.6328125 64.125 M253.6328125 64.125 C253.6328125 75.80733740978346, 253.6328125 87.4896748195669, 253.6328125 106.875 M253.6328125 64.125 C253.6328125 77.13682216861075, 253.6328125 90.1486443372215, 253.6328125 106.875 M253.6328125 106.875 C56.68336920867881 106.875, -140.26607408264238 106.875, -253.6328125 106.875 M253.6328125 106.875 C76.35112484024205 106.875, -100.9305628195159 106.875, -253.6328125 106.875 M-253.6328125 106.875 C-253.6328125 93.4508937672616, -253.6328125 80.02678753452321, -253.6328125 64.125 M-253.6328125 106.875 C-253.6328125 89.79505216653676, -253.6328125 72.71510433307353, -253.6328125 64.125" stroke="#9370DB" stroke-width="1.3" fill="none" stroke-dasharray="0 0"/></g><g style="" class="row-rect-even"><path d="M-253.6328125 106.875 L253.6328125 106.875 L253.6328125 149.625 L-253.6328125 149.625" stroke="none" stroke-width="0" fill="hsl(240, 100%, 97.2745098039%)"/><path d="M-253.6328125 106.875 C-60.38332129640895 106.875, 132.8661699071821 106.875, 253.6328125 106.875 M-253.6328125 106.875 C-95.31410592353174 106.875, 63.00460065293652 106.875, 253.6328125 106.875 M253.6328125 106.875 C253.6328125 117.01561315163642, 253.6328125 127.15622630327283, 253.6328125 149.625 M253.6328125 106.875 C253.6328125 116.03856339769551, 253.6328125 125.20212679539102, 253.6328125 149.625 M253.6328125 149.625 C76.37071741141767 149.625, -100.89137767716466 149.625, -253.6328125 149.625 M253.6328125 149.625 C65.97661933798221 149.625, -121.67957382403557 149.625, -253.6328125 149.625 M-253.6328125 149.625 C-253.6328125 133.17362742524207, -253.6328125 116.72225485048415, -253.6328125 106.875 M-253.6328125 149.625 C-253.6328125 138.24819680223035, -253.6328125 126.87139360446074, -253.6328125 106.875" stroke="#9370DB" stroke-width="1.3" fill="none" stroke-dasharray="0 0"/></g><g style="" class="row-rect-odd"><path d="M-253.6328125 149.625 L253.6328125 149.625 L253.6328125 192.375 L-253.6328125 192.375" stroke="none" stroke-width="0" fill="hsl(240, 100%, 100%)"/><path d="M-253.6328125 149.625 C-74.0008041884027 149.625, 105.6312041231946 149.625, 253.6328125 149.625 M-253.6328125 149.625 C-63.68274328900932 149.625, 126.26732592198135 149.625, 253.6328125 149.625 M253.6328125 149.625 C253.6328125 161.03090983808073, 253.6328125 172.43681967616146, 253.6328125 192.375 M253.6328125 149.625 C253.6328125 161.87090219147706, 253.6328125 174.11680438295411, 253.6328125 192.375 M253.6328125 192.375 C101.36106425138115 192.375, -50.9106839972377 192.375, -253.6328125 192.375 M253.6328125 192.375 C87.17041271705506 192.375, -79.29198706588988 192.375, -253.6328125 192.375 M-253.6328125 192.375 C-253.6328125 181.74630740052672, -253.6328125 171.11761480105343, -253.6328125 149.625 M-253.6328125 192.375 C-253.6328125 182.13534295156978, -253.6328125 171.89568590313957, -253.6328125 149.625" stroke="#9370DB" stroke-width="1.3" fill="none" stroke-dasharray="0 0"/></g><g style="" class="row-rect-even"><path d="M-253.6328125 192.375 L253.6328125 192.375 L253.6328125 235.125 L-253.6328125 235.125" stroke="none" stroke-width="0" fill="hsl(240, 100%, 97.2745098039%)"/><path d="M-253.6328125 192.375 C-92.8005298681087 192.375, 68.0317527637826 192.375, 253.6328125 192.375 M-253.6328125 192.375 C-126.24880680624204 192.375, 1.1351988875159122 192.375, 253.6328125 192.375 M253.6328125 192.375 C253.6328125 200.98189474762046, 253.6328125 209.58878949524095, 253.6328125 235.125 M253.6328125 192.375 C253.6328125 201.9051247809555, 253.6328125 211.435249561911, 253.6328125 235.125 M253.6328125 235.125 C149.0086937479187 235.125, 44.3845749958374 235.125, -253.6328125 235.125 M253.6328125 235.125 C57.66815268821816 235.125, -138.29650712356369 235.125, -253.6328125 235.125 M-253.6328125 235.125 C-253.6328125 219.72553364802292, -253.6328125 204.32606729604586, -253.6328125 192.375 M-253.6328125 235.125 C-253.6328125 225.9034359256091, -253.6328125 216.6818718512182, -253.6328125 192.375" stroke="#9370DB" stroke-width="1.3" fill="none" stroke-dasharray="0 0"/></g><g class="label name" transform="translate(-59.515625, -225.75)" style=""><foreignObject width="119.03125" height="24"><div xmlns="http://www.w3.org/1999/xhtml" style="display: table-cell; white-space: nowrap; line-height: 1.5; max-width: 230px; text-align: start;"><span class="nodeLabel"><p>SHOW_PRODUCT</p></span></div></foreignObject></g><g class="label attribute-type" transform="translate(-241.1328125, -183)" style=""><foreignObject width="19.65625" height="24"><div xmlns="http://www.w3.org/1999/xhtml" style="display: table-cell; white-space: nowrap; line-height: 1.5; max-width: 117px; text-align: start;"><span class="nodeLabel"><p>int</p></span></div></foreignObject></g><g class="label attribute-name" transform="translate(-150.8203125, -183)" style=""><foreignObject width="13.484375" height="24"><div xmlns="http://www.w3.org/1999/xhtml" style="display: table-cell; white-space: nowrap; line-height: 1.5; max-width: 112px; text-align: start;"><span class="nodeLabel"><p>id</p></span></div></foreignObject></g><g class="label attribute-keys" transform="translate(-36.5390625, -183)" style=""><foreignObject width="18.140625" height="24"><div xmlns="http://www.w3.org/1999/xhtml" style="display: table-cell; white-space: nowrap; line-height: 1.5; max-width: 120px; text-align: start;"><span class="nodeLabel"><p>PK</p></span></div></foreignObject></g><g class="label attribute-comment" transform="translate(6.6015625, -183)" style=""><foreignObject width="0" height="0"><div xmlns="http://www.w3.org/1999/xhtml" style="display: table-cell; white-space: nowrap; line-height: 1.5; max-width: 100px; text-align: start;"><span class="nodeLabel"></span></div></foreignObject></g><g class="label attribute-type" transform="translate(-241.1328125, -140.25)" style=""><foreignObject width="19.65625" height="24"><div xmlns="http://www.w3.org/1999/xhtml" style="display: table-cell; white-space: nowrap; line-height: 1.5; max-width: 117px; text-align: start;"><span class="nodeLabel"><p>int</p></span></div></foreignObject></g><g class="label attribute-name" transform="translate(-150.8203125, -140.25)" style=""><foreignObject width="57.578125" height="24"><div xmlns="http://www.w3.org/1999/xhtml" style="display: table-cell; white-space: nowrap; line-height: 1.5; max-width: 154px; text-align: start;"><span class="nodeLabel"><p>show_id</p></span></div></foreignObject></g><g class="label attribute-keys" transform="translate(-36.5390625, -140.25)" style=""><foreignObject width="17.609375" height="24"><div xmlns="http://www.w3.org/1999/xhtml" style="display: table-cell; white-space: nowrap; line-height: 1.5; max-width: 120px; text-align: start;"><span class="nodeLabel"><p>FK</p></span></div></foreignObject></g><g class="label attribute-comment" transform="translate(6.6015625, -140.25)" style=""><foreignObject width="138.296875" height="24"><div xmlns="http://www.w3.org/1999/xhtml" style="display: table-cell; white-space: nowrap; line-height: 1.5; max-width: 229px; text-align: start;"><span class="nodeLabel"><p>UK with product_id</p></span></div></foreignObject></g><g class="label attribute-type" transform="translate(-241.1328125, -97.5)" style=""><foreignObject width="19.65625" height="24"><div xmlns="http://www.w3.org/1999/xhtml" style="display: table-cell; white-space: nowrap; line-height: 1.5; max-width: 117px; text-align: start;"><span class="nodeLabel"><p>int</p></span></div></foreignObject></g><g class="label attribute-name" transform="translate(-150.8203125, -97.5)" style=""><foreignObject width="77.515625" height="24"><div xmlns="http://www.w3.org/1999/xhtml" style="display: table-cell; white-space: nowrap; line-height: 1.5; max-width: 169px; text-align: start;"><span class="nodeLabel"><p>product_id</p></span></div></foreignObject></g><g class="label attribute-keys" transform="translate(-36.5390625, -97.5)" style=""><foreignObject width="17.609375" height="24"><div xmlns="http://www.w3.org/1999/xhtml" style="display: table-cell; white-space: nowrap; line-height: 1.5; max-width: 120px; text-align: start;"><span class="nodeLabel"><p>FK</p></span></div></foreignObject></g><g class="label attribute-comment" transform="translate(6.6015625, -97.5)" style=""><foreignObject width="118.359375" height="24"><div xmlns="http://www.w3.org/1999/xhtml" style="display: table-cell; white-space: nowrap; line-height: 1.5; max-width: 214px; text-align: start;"><span class="nodeLabel"><p>UK with show_id</p></span></div></foreignObject></g><g class="label attribute-type" transform="translate(-241.1328125, -54.75)" style=""><foreignObject width="19.65625" height="24"><div xmlns="http://www.w3.org/1999/xhtml" style="display: table-cell; white-space: nowrap; line-height: 1.5; max-width: 117px; text-align: start;"><span class="nodeLabel"><p>int</p></span></div></foreignObject></g><g class="label attribute-name" transform="translate(-150.8203125, -54.75)" style=""><foreignObject width="59.953125" height="24"><div xmlns="http://www.w3.org/1999/xhtml" style="display: table-cell; white-space: nowrap; line-height: 1.5; max-width: 152px; text-align: start;"><span class="nodeLabel"><p>quantity</p></span></div></foreignObject></g><g class="label attribute-keys" transform="translate(-36.5390625, -54.75)" style=""><foreignObject width="0" height="0"><div xmlns="http://www.w3.org/1999/xhtml" style="display: table-cell; white-space: nowrap; line-height: 1.5; max-width: 100px; text-align: start;"><span class="nodeLabel"></span></div></foreignObject></g><g class="label attribute-comment" transform="translate(6.6015625, -54.75)" style=""><foreignObject width="37.40625" height="24"><div xmlns="http://www.w3.org/1999/xhtml" style="display: table-cell; white-space: nowrap; line-height: 1.5; max-width: 134px; text-align: start;"><span class="nodeLabel"><p>stock</p></span></div></foreignObject></g><g class="label attribute-type" transform="translate(-241.1328125, -12)" style=""><foreignObject width="39.5" height="24"><div xmlns="http://www.w3.org/1999/xhtml" style="display: table-cell; white-space: nowrap; line-height: 1.5; max-width: 136px; text-align: start;"><span class="nodeLabel"><p>enum</p></span></div></foreignObject></g><g class="label attribute-name" transform="translate(-150.8203125, -12)" style=""><foreignObject width="76.609375" height="24"><div xmlns="http://www.w3.org/1999/xhtml" style="display: table-cell; white-space: nowrap; line-height: 1.5; max-width: 168px; text-align: start;"><span class="nodeLabel"><p>price_type</p></span></div></foreignObject></g><g class="label attribute-keys" transform="translate(-36.5390625, -12)" style=""><foreignObject width="0" height="0"><div xmlns="http://www.w3.org/1999/xhtml" style="display: table-cell; white-space: nowrap; line-height: 1.5; max-width: 100px; text-align: start;"><span class="nodeLabel"></span></div></foreignObject></g><g class="label attribute-comment" transform="translate(6.6015625, -12)" style=""><foreignObject width="234.53125" height="24"><div xmlns="http://www.w3.org/1999/xhtml" style="display: table-cell; white-space: nowrap; line-height: 1.5; max-width: 303px; text-align: start;"><span class="nodeLabel"><p>price_tier_based | custom_price</p></span></div></foreignObject></g><g class="label attribute-type" transform="translate(-241.1328125, 30.75)" style=""><foreignObject width="56.53125" height="24"><div xmlns="http://www.w3.org/1999/xhtml" style="display: table-cell; white-space: nowrap; line-height: 1.5; max-width: 151px; text-align: start;"><span class="nodeLabel"><p>decimal</p></span></div></foreignObject></g><g class="label attribute-name" transform="translate(-150.8203125, 30.75)" style=""><foreignObject width="79.546875" height="24"><div xmlns="http://www.w3.org/1999/xhtml" style="display: table-cell; white-space: nowrap; line-height: 1.5; max-width: 171px; text-align: start;"><span class="nodeLabel"><p>sales_price</p></span></div></foreignObject></g><g class="label attribute-keys" transform="translate(-36.5390625, 30.75)" style=""><foreignObject width="0" height="0"><div xmlns="http://www.w3.org/1999/xhtml" style="display: table-cell; white-space: nowrap; line-height: 1.5; max-width: 100px; text-align: start;"><span class="nodeLabel"></span></div></foreignObject></g><g class="label attribute-comment" transform="translate(6.6015625, 30.75)" style=""><foreignObject width="31.046875" height="24"><div xmlns="http://www.w3.org/1999/xhtml" style="display: table-cell; white-space: nowrap; line-height: 1.5; max-width: 128px; text-align: start;"><span class="nodeLabel"><p>10,2</p></span></div></foreignObject></g><g class="label attribute-type" transform="translate(-241.1328125, 73.5)" style=""><foreignObject width="56.53125" height="24"><div xmlns="http://www.w3.org/1999/xhtml" style="display: table-cell; white-space: nowrap; line-height: 1.5; max-width: 151px; text-align: start;"><span class="nodeLabel"><p>decimal</p></span></div></foreignObject></g><g class="label attribute-name" transform="translate(-150.8203125, 73.5)" style=""><foreignObject width="89.28125" height="24"><div xmlns="http://www.w3.org/1999/xhtml" style="display: table-cell; white-space: nowrap; line-height: 1.5; max-width: 178px; text-align: start;"><span class="nodeLabel"><p>actual_price</p></span></div></foreignObject></g><g class="label attribute-keys" transform="translate(-36.5390625, 73.5)" style=""><foreignObject width="0" height="0"><div xmlns="http://www.w3.org/1999/xhtml" style="display: table-cell; white-space: nowrap; line-height: 1.5; max-width: 100px; text-align: start;"><span class="nodeLabel"></span></div></foreignObject></g><g class="label attribute-comment" transform="translate(6.6015625, 73.5)" style=""><foreignObject width="211.46875" height="24"><div xmlns="http://www.w3.org/1999/xhtml" style="display: table-cell; white-space: nowrap; line-height: 1.5; max-width: 301px; text-align: start;"><span class="nodeLabel"><p>10,2; sales &lt;= actual (CHECK)</p></span></div></foreignObject></g><g class="label attribute-type" transform="translate(-241.1328125, 116.25)" style=""><foreignObject width="56.6875" height="24"><div xmlns="http://www.w3.org/1999/xhtml" style="display: table-cell; white-space: nowrap; line-height: 1.5; max-width: 151px; text-align: start;"><span class="nodeLabel"><p>boolean</p></span></div></foreignObject></g><g class="label attribute-name" transform="translate(-150.8203125, 116.25)" style=""><foreignObject width="65.234375" height="24"><div xmlns="http://www.w3.org/1999/xhtml" style="display: table-cell; white-space: nowrap; line-height: 1.5; max-width: 161px; text-align: start;"><span class="nodeLabel"><p>is_visible</p></span></div></foreignObject></g><g class="label attribute-keys" transform="translate(-36.5390625, 116.25)" style=""><foreignObject width="0" height="0"><div xmlns="http://www.w3.org/1999/xhtml" style="display: table-cell; white-space: nowrap; line-height: 1.5; max-width: 100px; text-align: start;"><span class="nodeLabel"></span></div></foreignObject></g><g class="label attribute-comment" transform="translate(6.6015625, 116.25)" style=""><foreignObject width="86.625" height="24"><div xmlns="http://www.w3.org/1999/xhtml" style="display: table-cell; white-space: nowrap; line-height: 1.5; max-width: 173px; text-align: start;"><span class="nodeLabel"><p>default true</p></span></div></foreignObject></g><g class="label attribute-type" transform="translate(-241.1328125, 159)" style=""><foreignObject width="65.3125" height="24"><div xmlns="http://www.w3.org/1999/xhtml" style="display: table-cell; white-space: nowrap; line-height: 1.5; max-width: 155px; text-align: start;"><span class="nodeLabel"><p>datetime</p></span></div></foreignObject></g><g class="label attribute-name" transform="translate(-150.8203125, 159)" style=""><foreignObject width="78.40625" height="24"><div xmlns="http://www.w3.org/1999/xhtml" style="display: table-cell; white-space: nowrap; line-height: 1.5; max-width: 166px; text-align: start;"><span class="nodeLabel"><p>created_at</p></span></div></foreignObject></g><g class="label attribute-keys" transform="translate(-36.5390625, 159)" style=""><foreignObject width="0" height="0"><div xmlns="http://www.w3.org/1999/xhtml" style="display: table-cell; white-space: nowrap; line-height: 1.5; max-width: 100px; text-align: start;"><span class="nodeLabel"></span></div></foreignObject></g><g class="label attribute-comment" transform="translate(6.6015625, 159)" style=""><foreignObject width="0" height="0"><div xmlns="http://www.w3.org/1999/xhtml" style="display: table-cell; white-space: nowrap; line-height: 1.5; max-width: 100px; text-align: start;"><span class="nodeLabel"></span></div></foreignObject></g><g class="label attribute-type" transform="translate(-241.1328125, 201.75)" style=""><foreignObject width="65.3125" height="24"><div xmlns="http://www.w3.org/1999/xhtml" style="display: table-cell; white-space: nowrap; line-height: 1.5; max-width: 155px; text-align: start;"><span class="nodeLabel"><p>datetime</p></span></div></foreignObject></g><g class="label attribute-name" transform="translate(-150.8203125, 201.75)" style=""><foreignObject width="82.109375" height="24"><div xmlns="http://www.w3.org/1999/xhtml" style="display: table-cell; white-space: nowrap; line-height: 1.5; max-width: 170px; text-align: start;"><span class="nodeLabel"><p>updated_at</p></span></div></foreignObject></g><g class="label attribute-keys" transform="translate(-36.5390625, 201.75)" style=""><foreignObject width="0" height="0"><div xmlns="http://www.w3.org/1999/xhtml" style="display: table-cell; white-space: nowrap; line-height: 1.5; max-width: 100px; text-align: start;"><span class="nodeLabel"></span></div></foreignObject></g><g class="label attribute-comment" transform="translate(6.6015625, 201.75)" style=""><foreignObject width="0" height="0"><div xmlns="http://www.w3.org/1999/xhtml" style="display: table-cell; white-space: nowrap; line-height: 1.5; max-width: 100px; text-align: start;"><span class="nodeLabel"></span></div></foreignObject></g><g class="divider"><path d="M-253.6328125 -192.37505 L-253.6328125 -192.37495 L253.6328125 -192.37495 L253.6328125 -192.37505" stroke="none" stroke-width="0" fill="#ECECFF" fill-rule="evenodd"/><path d="M-253.6328125 -192.37505 C-253.6328125 -192.37501634671125, -253.6328125 -192.3749826934225, -253.6328125 -192.37495 M-253.6328125 -192.37505 C-253.6328125 -192.37501883647718, -253.6328125 -192.37498767295435, -253.6328125 -192.37495 M-253.6328125 -192.37495 C-149.67239659516184 -192.37495, -45.71198069032371 -192.37495, 253.6328125 -192.37495 M-253.6328125 -192.37495 C-59.05083617908477 -192.37495, 135.53114014183046 -192.37495, 253.6328125 -192.37495 M253.6328125 -192.37495 C253.6328125 -192.3749773473095, 253.6328125 -192.375004694619, 253.6328125 -192.37505 M253.6328125 -192.37495 C253.6328125 -192.37498267184563, 253.6328125 -192.37501534369125, 253.6328125 -192.37505 M253.6328125 -192.37505 C148.42895225841875 -192.37505, 43.22509201683752 -192.37505, -253.6328125 -192.37505 M253.6328125 -192.37505 C93.85476180968584 -192.37505, -65.92328888062832 -192.37505, -253.6328125 -192.37505" stroke="#9370DB" stroke-width="1.3" fill="none" stroke-dasharray="0 0"/></g><g class="divider"><path d="M-163.3203625 -192.375 L-163.3202625 -192.375 L-163.3202625 235.125 L-163.3203625 235.125" stroke="none" stroke-width="0" fill="#ECECFF" fill-rule="evenodd"/><path d="M-163.3203625 -192.375 C-163.3203395155908 -192.375, -163.32031653118162 -192.375, -163.3202625 -192.375 M-163.3203625 -192.375 C-163.3203377470257 -192.375, -163.3203129940514 -192.375, -163.3202625 -192.375 M-163.3202625 -192.375 C-163.3202625 -84.9878824427946, -163.3202625 22.3992351144108, -163.3202625 235.125 M-163.3202625 -192.375 C-163.3202625 -62.76095520475147, -163.3202625 66.85308959049706, -163.3202625 235.125 M-163.3202625 235.125 C-163.32029189115644 235.125, -163.32032128231288 235.125, -163.3203625 235.125 M-163.3202625 235.125 C-163.32028862050632 235.125, -163.32031474101265 235.125, -163.3203625 235.125 M-163.3203625 235.125 C-163.3203625 85.7949193404674, -163.3203625 -63.535161319065196, -163.3203625 -192.375 M-163.3203625 235.125 C-163.3203625 90.18666958870745, -163.3203625 -54.75166082258511, -163.3203625 -192.375" stroke="#9370DB" stroke-width="1.3" fill="none" stroke-dasharray="0 0"/></g><g class="divider"><path d="M-49.0391125 -192.375 L-49.0390125 -192.375 L-49.0390125 235.125 L-49.0391125 235.125" stroke="none" stroke-width="0" fill="#ECECFF" fill-rule="evenodd"/><path d="M-49.0391125 -192.375 C-49.039086865390466 -192.375, -49.03906123078094 -192.375, -49.0390125 -192.375 M-49.0391125 -192.375 C-49.039079784468896 -192.375, -49.03904706893778 -192.375, -49.0390125 -192.375 M-49.0390125 -192.375 C-49.0390125 -65.41551950682255, -49.0390125 61.543960986354904, -49.0390125 235.125 M-49.0390125 -192.375 C-49.0390125 -50.13027561184029, -49.0390125 92.11444877631942, -49.0390125 235.125 M-49.0390125 235.125 C-49.039041996927104 235.125, -49.0390714938542 235.125, -49.0391125 235.125 M-49.0390125 235.125 C-49.03904281637073 235.125, -49.03907313274147 235.125, -49.0391125 235.125 M-49.0391125 235.125 C-49.0391125 136.61005592137457, -49.0391125 38.095111842749134, -49.0391125 -192.375 M-49.0391125 235.125 C-49.0391125 126.62092701030186, -49.0391125 18.11685402060371, -49.0391125 -192.375" stroke="#9370DB" stroke-width="1.3" fill="none" stroke-dasharray="0 0"/></g><g class="divider"><path d="M-5.8984875 -192.375 L-5.8983875 -192.375 L-5.8983875 235.125 L-5.8984875 235.125" stroke="none" stroke-width="0" fill="#ECECFF" fill-rule="evenodd"/><path d="M-5.8984875 -192.375 C-5.898458002677918 -192.375, -5.898428505355836 -192.375, -5.8983875 -192.375 M-5.8984875 -192.375 C-5.898458451142429 -192.375, -5.898429402284857 -192.375, -5.8983875 -192.375 M-5.8983875 -192.375 C-5.8983875 -76.33977217211405, -5.8983875 39.695455655771894, -5.8983875 235.125 M-5.8983875 -192.375 C-5.8983875 -86.46217103786219, -5.8983875 19.450657924275617, -5.8983875 235.125 M-5.8983875 235.125 C-5.898417869066331 235.125, -5.898448238132662 235.125, -5.8984875 235.125 M-5.8983875 235.125 C-5.898415847522046 235.125, -5.898444195044092 235.125, -5.8984875 235.125 M-5.8984875 235.125 C-5.8984875 139.9772604339418, -5.8984875 44.829520867883616, -5.8984875 -192.375 M-5.8984875 235.125 C-5.8984875 70.52107372111755, -5.8984875 -94.08285255776491, -5.8984875 -192.375" stroke="#9370DB" stroke-width="1.3" fill="none" stroke-dasharray="0 0"/></g><g class="divider"><path d="M-253.6328125 -192.37505 L-253.6328125 -192.37495 L253.6328125 -192.37495 L253.6328125 -192.37505" stroke="none" stroke-width="0" fill="#ECECFF" fill-rule="evenodd"/><path d="M-253.6328125 -192.37505 C-253.6328125 -192.3750291853909, -253.6328125 -192.3750083707818, -253.6328125 -192.37495 M-253.6328125 -192.37505 C-253.6328125 -192.37502285127928, -253.6328125 -192.37499570255858, -253.6328125 -192.37495 M-253.6328125 -192.37495 C-118.43426690634132 -192.37495, 16.764278687317358 -192.37495, 253.6328125 -192.37495 M-253.6328125 -192.37495 C-93.14024921320123 -192.37495, 67.35231407359754 -192.37495, 253.6328125 -192.37495 M253.6328125 -192.37495 C253.6328125 -192.37497726015704, 253.6328125 -192.37500452031404, 253.6328125 -192.37505 M253.6328125 -192.37495 C253.6328125 -192.37497126370005, 253.6328125 -192.37499252740008, 253.6328125 -192.37505 M253.6328125 -192.37505 C66.66802575156615 -192.37505, -120.2967609968677 -192.37505, -253.6328125 -192.37505 M253.6328125 -192.37505 C55.93266656355158 -192.37505, -141.76747937289684 -192.37505, -253.6328125 -192.37505" stroke="#9370DB" stroke-width="1.3" fill="none" stroke-dasharray="0 0"/></g></g><g class="node default" id="my-svg-entity-PRODUCT-2" data-look="classic" transform="translate(611.65234375, 50)"><rect class="basic label-container" style="" x="-54.03125" y="-42" width="108.0625" height="84"/><g class="label" style="" transform="translate(-34.03125, -12)"><rect/><foreignObject width="68.0625" height="24"><div xmlns="http://www.w3.org/1999/xhtml" style="display: table-cell; white-space: nowrap; line-height: 1.5; max-width: 200px; text-align: center;"><span class="nodeLabel markdown-node-label"><p>PRODUCT</p></span></div></foreignObject></g></g><g class="node default" id="my-svg-entity-CART_ITEM-3" data-look="classic" transform="translate(67.5078125, 806.25)"><rect class="basic label-container" style="" x="-59.5078125" y="-42" width="119.015625" height="84"/><g class="label" style="" transform="translate(-39.5078125, -12)"><rect/><foreignObject width="79.015625" height="24"><div xmlns="http://www.w3.org/1999/xhtml" style="display: table-cell; white-space: nowrap; line-height: 1.5; max-width: 200px; text-align: center;"><span class="nodeLabel markdown-node-label"><p>CART_ITEM</p></span></div></foreignObject></g></g><g class="node default" id="my-svg-entity-ORDER_ITEM-4" data-look="classic" transform="translate(331.9375, 806.25)"><rect class="basic label-container" style="" x="-64.921875" y="-42" width="129.84375" height="84"/><g class="label" style="" transform="translate(-44.921875, -12)"><rect/><foreignObject width="89.84375" height="24"><div xmlns="http://www.w3.org/1999/xhtml" style="display: table-cell; white-space: nowrap; line-height: 1.5; max-width: 200px; text-align: center;"><span class="nodeLabel markdown-node-label"><p>ORDER_ITEM</p></span></div></foreignObject></g></g><g class="node default" id="my-svg-entity-INVENTORY_RESERVATION-5" data-look="classic" transform="translate(647.3359375, 806.25)"><rect class="basic label-container" style="" x="-110.4765625" y="-42" width="220.953125" height="84"/><g class="label" style="" transform="translate(-90.4765625, -12)"><rect/><foreignObject width="180.953125" height="24"><div xmlns="http://www.w3.org/1999/xhtml" style="display: table-cell; white-space: nowrap; line-height: 1.5; max-width: 200px; text-align: center;"><span class="nodeLabel markdown-node-label"><p>INVENTORY_RESERVATION</p></span></div></foreignObject></g></g><g class="node default" id="my-svg-entity-BOOTH_SIZE_BASED_SHOW_PRODUCT_PRICES-6" data-look="classic" transform="translate(1080.609375, 806.25)"><rect class="basic label-container" style="" x="-182.796875" y="-42" width="365.59375" height="84"/><g class="label" style="" transform="translate(-162.796875, -12)"><rect/><foreignObject width="325.59375" height="24"><div xmlns="http://www.w3.org/1999/xhtml" style="display: table; white-space: break-spaces; line-height: 1.5; max-width: 200px; text-align: center; width: 200px;"><span class="nodeLabel markdown-node-label"><p>BOOTH_SIZE_BASED_SHOW_PRODUCT_PRICES</p></span></div></foreignObject></g></g></g></g></g><defs><filter id="my-svg-drop-shadow" height="130%" width="130%"><feDropShadow dx="4" dy="4" stdDeviation="0" flood-opacity="0.06" flood-color="#000000"/></filter></defs><defs><filter id="my-svg-drop-shadow-small" height="150%" width="150%"><feDropShadow dx="2" dy="2" stdDeviation="0" flood-opacity="0.06" flood-color="#000000"/></filter></defs></svg>