<svg id="my-svg" width="769.32373046875" xmlns="http://www.w3.org/2000/svg" xmlns:xlink="http://www.w3.org/1999/xlink" class="flowchart" height="174" viewBox="0 0 769.32373046875 174" role="graphics-document document" aria-roledescription="flowchart-v2" style="background-color: white;"><style>#my-svg{font-family:"trebuchet ms",verdana,arial,sans-serif;font-size:16px;fill:#333;}@keyframes edge-animation-frame{from{stroke-dashoffset:0;}}@keyframes dash{to{stroke-dashoffset:0;}}#my-svg .edge-animation-slow{stroke-dasharray:9,5!important;stroke-dashoffset:900;animation:dash 50s linear infinite;stroke-linecap:round;}#my-svg .edge-animation-fast{stroke-dasharray:9,5!important;stroke-dashoffset:900;animation:dash 20s linear infinite;stroke-linecap:round;}#my-svg .error-icon{fill:#552222;}#my-svg .error-text{fill:#552222;stroke:#552222;}#my-svg .edge-thickness-normal{stroke-width:1px;}#my-svg .edge-thickness-thick{stroke-width:3.5px;}#my-svg .edge-pattern-solid{stroke-dasharray:0;}#my-svg .edge-thickness-invisible{stroke-width:0;fill:none;}#my-svg .edge-pattern-dashed{stroke-dasharray:3;}#my-svg .edge-pattern-dotted{stroke-dasharray:2;}#my-svg .marker{fill:#333333;stroke:#333333;}#my-svg .marker.cross{stroke:#333333;}#my-svg svg{font-family:"trebuchet ms",verdana,arial,sans-serif;font-size:16px;}#my-svg p{margin:0;}#my-svg .label{font-family:"trebuchet ms",verdana,arial,sans-serif;color:#333;}#my-svg .cluster-label text{fill:#333;}#my-svg .cluster-label span{color:#333;}#my-svg .cluster-label span p{background-color:transparent;}#my-svg .label text,#my-svg span{fill:#333;color:#333;}#my-svg .node rect,#my-svg .node circle,#my-svg .node ellipse,#my-svg .node polygon,#my-svg .node path{fill:#ECECFF;stroke:#9370DB;stroke-width:1px;}#my-svg .rough-node .label text,#my-svg .node .label text,#my-svg .image-shape .label,#my-svg .icon-shape .label{text-anchor:middle;}#my-svg .node .katex path{fill:#000;stroke:#000;stroke-width:1px;}#my-svg .rough-node .label,#my-svg .node .label,#my-svg .image-shape .label,#my-svg .icon-shape .label{text-align:center;}#my-svg .node.clickable{cursor:pointer;}#my-svg .root .anchor path{fill:#333333!important;stroke-width:0;stroke:#333333;}#my-svg .arrowheadPath{fill:#333333;}#my-svg .edgePath .path{stroke:#333333;stroke-width:1px;}#my-svg .flowchart-link{stroke:#333333;fill:none;}#my-svg .edgeLabel{background-color:rgba(232,232,232, 0.8);text-align:center;}#my-svg .edgeLabel p{background-color:rgba(232,232,232, 0.8);}#my-svg .edgeLabel rect{opacity:0.5;background-color:rgba(232,232,232, 0.8);fill:rgba(232,232,232, 0.8);}#my-svg .labelBkg{background-color:rgba(232, 232, 232, 0.5);}#my-svg .cluster rect{fill:#ffffde;stroke:#aaaa33;stroke-width:1px;}#my-svg .cluster text{fill:#333;}#my-svg .cluster span{color:#333;}#my-svg div.mermaidTooltip{position:absolute;text-align:center;max-width:200px;padding:2px;font-family:"trebuchet ms",verdana,arial,sans-serif;font-size:12px;background:hsl(80, 100%, 96.2745098039%);border:1px solid #aaaa33;border-radius:2px;pointer-events:none;z-index:100;}#my-svg .flowchartTitleText{text-anchor:middle;font-size:18px;fill:#333;}#my-svg rect.text{fill:none;stroke-width:0;}#my-svg .icon-shape,#my-svg .image-shape{background-color:rgba(232,232,232, 0.8);text-align:center;}#my-svg .icon-shape p,#my-svg .image-shape p{background-color:rgba(232,232,232, 0.8);padding:2px;}#my-svg .icon-shape .label rect,#my-svg .image-shape .label rect{opacity:0.5;background-color:rgba(232,232,232, 0.8);fill:rgba(232,232,232, 0.8);}#my-svg .label-icon{display:inline-block;height:1em;overflow:visible;vertical-align:-0.125em;}#my-svg .node .label-icon path{fill:currentColor;stroke:revert;stroke-width:revert;}#my-svg .node .neo-node{stroke:#9370DB;}#my-svg [data-look="neo"].node rect,#my-svg [data-look="neo"].cluster rect,#my-svg [data-look="neo"].node polygon{stroke:#9370DB;filter:drop-shadow(1px 2px 2px rgba(185, 185, 185, 1));}#my-svg [data-look="neo"].node path{stroke:#9370DB;stroke-width:1px;}#my-svg [data-look="neo"].node .outer-path{filter:drop-shadow(1px 2px 2px rgba(185, 185, 185, 1));}#my-svg [data-look="neo"].node .neo-line path{stroke:#9370DB;filter:none;}#my-svg [data-look="neo"].node circle{stroke:#9370DB;filter:drop-shadow(1px 2px 2px rgba(185, 185, 185, 1));}#my-svg [data-look="neo"].node circle .state-start{fill:#000000;}#my-svg [data-look="neo"].icon-shape .icon{fill:#9370DB;filter:drop-shadow(1px 2px 2px rgba(185, 185, 185, 1));}#my-svg [data-look="neo"].icon-shape .icon-neo path{stroke:#9370DB;filter:drop-shadow(1px 2px 2px rgba(185, 185, 185, 1));}#my-svg :root{--mermaid-font-family:"trebuchet ms",verdana,arial,sans-serif;}#my-svg .ego&gt;*{fill:rgb(255, 224, 178)!important;stroke:rgb(230, 81, 0)!important;stroke-width:3px!important;color:rgb(0, 0, 0)!important;}#my-svg .ego span{fill:rgb(255, 224, 178)!important;stroke:rgb(230, 81, 0)!important;stroke-width:3px!important;color:rgb(0, 0, 0)!important;}#my-svg .ego tspan{fill:rgb(0, 0, 0)!important;}#my-svg .neighbor&gt;*{fill:rgb(227, 242, 253)!important;stroke:rgb(21, 101, 192)!important;color:rgb(0, 0, 0)!important;}#my-svg .neighbor span{fill:rgb(227, 242, 253)!important;stroke:rgb(21, 101, 192)!important;color:rgb(0, 0, 0)!important;}#my-svg .neighbor tspan{fill:rgb(0, 0, 0)!important;}</style><g><marker id="my-svg_flowchart-v2-pointEnd" class="marker flowchart-v2" viewBox="0 0 10 10" refX="5" refY="5" markerUnits="userSpaceOnUse" markerWidth="8" markerHeight="8" orient="auto"><path d="M 0 0 L 10 5 L 0 10 z" class="arrowMarkerPath" style="stroke-width: 1; stroke-dasharray: 1, 0;"/></marker><marker id="my-svg_flowchart-v2-pointStart" class="marker flowchart-v2" viewBox="0 0 10 10" refX="4.5" refY="5" markerUnits="userSpaceOnUse" markerWidth="8" markerHeight="8" orient="auto"><path d="M 0 5 L 10 10 L 10 0 z" class="arrowMarkerPath" style="stroke-width: 1; stroke-dasharray: 1, 0;"/></marker><marker id="my-svg_flowchart-v2-pointEnd-margin" class="marker flowchart-v2" viewBox="0 0 11.5 14" refX="11.5" refY="7" markerUnits="userSpaceOnUse" markerWidth="10.5" markerHeight="14" orient="auto"><path d="M 0 0 L 11.5 7 L 0 14 z" class="arrowMarkerPath" style="stroke-width: 0; stroke-dasharray: 1, 0;"/></marker><marker id="my-svg_flowchart-v2-pointStart-margin" class="marker flowchart-v2" viewBox="0 0 11.5 14" refX="1" refY="7" markerUnits="userSpaceOnUse" markerWidth="11.5" markerHeight="14" orient="auto"><polygon points="0,7 11.5,14 11.5,0" class="arrowMarkerPath" style="stroke-width: 0; stroke-dasharray: 1, 0;"/></marker><marker id="my-svg_flowchart-v2-circleEnd" class="marker flowchart-v2" viewBox="0 0 10 10" refX="11" refY="5" markerUnits="userSpaceOnUse" markerWidth="11" markerHeight="11" orient="auto"><circle cx="5" cy="5" r="5" class="arrowMarkerPath" style="stroke-width: 1; stroke-dasharray: 1, 0;"/></marker><marker id="my-svg_flowchart-v2-circleStart" class="marker flowchart-v2" viewBox="0 0 10 10" refX="-1" refY="5" markerUnits="userSpaceOnUse" markerWidth="11" markerHeight="11" orient="auto"><circle cx="5" cy="5" r="5" class="arrowMarkerPath" style="stroke-width: 1; stroke-dasharray: 1, 0;"/></marker><marker id="my-svg_flowchart-v2-circleEnd-margin" class="marker flowchart-v2" viewBox="0 0 10 10" refY="5" refX="12.25" markerUnits="userSpaceOnUse" markerWidth="14" markerHeight="14" orient="auto"><circle cx="5" cy="5" r="5" class="arrowMarkerPath" style="stroke-width: 0; stroke-dasharray: 1, 0;"/></marker><marker id="my-svg_flowchart-v2-circleStart-margin" class="marker flowchart-v2" viewBox="0 0 10 10" refX="-2" refY="5" markerUnits="userSpaceOnUse" markerWidth="14" markerHeight="14" orient="auto"><circle cx="5" cy="5" r="5" class="arrowMarkerPath" style="stroke-width: 0; stroke-dasharray: 1, 0;"/></marker><marker id="my-svg_flowchart-v2-crossEnd" class="marker cross flowchart-v2" viewBox="0 0 11 11" refX="12" refY="5.2" markerUnits="userSpaceOnUse" markerWidth="11" markerHeight="11" orient="auto"><path d="M 1,1 l 9,9 M 10,1 l -9,9" class="arrowMarkerPath" style="stroke-width: 2; stroke-dasharray: 1, 0;"/></marker><marker id="my-svg_flowchart-v2-crossStart" class="marker cross flowchart-v2" viewBox="0 0 11 11" refX="-1" refY="5.2" markerUnits="userSpaceOnUse" markerWidth="11" markerHeight="11" orient="auto"><path d="M 1,1 l 9,9 M 10,1 l -9,9" class="arrowMarkerPath" style="stroke-width: 2; stroke-dasharray: 1, 0;"/></marker><marker id="my-svg_flowchart-v2-crossEnd-margin" class="marker cross flowchart-v2" viewBox="0 0 15 15" refX="17.7" refY="7.5" markerUnits="userSpaceOnUse" markerWidth="12" markerHeight="12" orient="auto"><path d="M 1,1 L 14,14 M 1,14 L 14,1" class="arrowMarkerPath" style="stroke-width: 2.5;"/></marker><marker id="my-svg_flowchart-v2-crossStart-margin" class="marker cross flowchart-v2" viewBox="0 0 15 15" refX="-3.5" refY="7.5" markerUnits="userSpaceOnUse" markerWidth="12" markerHeight="12" orient="auto"><path d="M 1,1 L 14,14 M 1,14 L 14,1" class="arrowMarkerPath" style="stroke-width: 2.5; stroke-dasharray: 1, 0;"/></marker><g class="root"><g class="clusters"/><g class="edgePaths"><path d="M121.125,35L136.783,35C152.44,35,183.755,35,213.47,41.164C243.185,47.328,271.3,59.657,285.357,65.821L299.415,71.985" id="my-svg-L_ORDER_INV_0" class="edge-thickness-normal edge-pattern-dotted edge-thickness-normal edge-pattern-solid flowchart-link" style=";" data-edge="true" data-et="edge" data-id="L_ORDER_INV_0" data-points="W3sieCI6MTIxLjEyNSwieSI6MzV9LHsieCI6MjE1LjA3MDMxMjUsInkiOjM1fSx7IngiOjMwMy4wNzc3ODE0NzU2ODA3NSwieSI6NzMuNTkxNzE4MjY1NDM5Nn1d" data-look="classic" marker-end="url(#my-svg_flowchart-v2-pointEnd)"/><path d="M133.391,139L147.004,139C160.617,139,187.844,139,215.512,132.997C243.18,126.993,271.29,114.986,285.344,108.983L299.399,102.98" id="my-svg-L_COMPANY_INV_0" class="edge-thickness-normal edge-pattern-solid edge-thickness-normal edge-pattern-solid flowchart-link" style=";" data-edge="true" data-et="edge" data-id="L_COMPANY_INV_0" data-points="W3sieCI6MTMzLjM5MDYyNSwieSI6MTM5fSx7IngiOjIxNS4wNzAzMTI1LCJ5IjoxMzl9LHsieCI6MzAzLjA3Nzc4MTQ3NTY3OTg0LCJ5IjoxMDEuNDA4MjgxNzM0NTYwNzd9XQ==" data-look="classic" marker-end="url(#my-svg_flowchart-v2-pointEnd)"/><path d="M367.801,74.445L384.011,67.871C400.222,61.297,432.644,48.148,466.126,41.574C499.608,35,534.149,35,551.42,35L568.691,35" id="my-svg-L_INV_LI_0" class="edge-thickness-normal edge-pattern-solid edge-thickness-normal edge-pattern-solid flowchart-link" style=";" data-edge="true" data-et="edge" data-id="L_INV_LI_0" data-points="W3sieCI6MzY3LjgwMDUxMjY5MDA1NywieSI6NzQuNDQ1MzI0NTE4Mzc2MDF9LHsieCI6NDY1LjA2NTkwMjcwOTk2MDk0LCJ5IjozNX0seyJ4Ijo1NzIuNjkwOTAyNzA5OTYwOSwieSI6MzV9XQ==" data-look="classic" marker-end="url(#my-svg_flowchart-v2-pointEnd)"/><path d="M367.801,100.555L384.011,106.962C400.222,113.37,432.644,126.185,463.648,132.592C494.652,139,524.238,139,539.031,139L553.824,139" id="my-svg-L_INV_PT_0" class="edge-thickness-normal edge-pattern-solid edge-thickness-normal edge-pattern-solid flowchart-link" style=";" data-edge="true" data-et="edge" data-id="L_INV_PT_0" data-points="W3sieCI6MzY3LjgwMDUxMjY5MDA1OTQsInkiOjEwMC41NTQ2NzU0ODE2MjQ5N30seyJ4Ijo0NjUuMDY1OTAyNzA5OTYwOTQsInkiOjEzOX0seyJ4Ijo1NTcuODIzNzE1MjA5OTYwOSwieSI6MTM5fV0=" data-look="classic" marker-end="url(#my-svg_flowchart-v2-pointEnd)"/></g><g class="edgeLabels"><g class="edgeLabel" transform="translate(215.0703125, 35)"><g class="label" data-id="L_ORDER_INV_0" transform="translate(-56.6796875, -12)"><foreignObject width="113.359375" height="24"><div xmlns="http://www.w3.org/1999/xhtml" class="labelBkg" style="display: table-cell; white-space: nowrap; line-height: 1.5; max-width: 200px; text-align: center;"><span class="edgeLabel"><p>billed by (1→N)</p></span></div></foreignObject></g></g><g class="edgeLabel" transform="translate(215.0703125, 139)"><g class="label" data-id="L_COMPANY_INV_0" transform="translate(-55.7421875, -12)"><foreignObject width="111.484375" height="24"><div xmlns="http://www.w3.org/1999/xhtml" class="labelBkg" style="display: table-cell; white-space: nowrap; line-height: 1.5; max-width: 200px; text-align: center;"><span class="edgeLabel"><p>billed to (1→N)</p></span></div></foreignObject></g></g><g class="edgeLabel" transform="translate(465.06590270996094, 35)"><g class="label" data-id="L_INV_LI_0" transform="translate(-67.7578125, -12)"><foreignObject width="135.515625" height="24"><div xmlns="http://www.w3.org/1999/xhtml" class="labelBkg" style="display: table-cell; white-space: nowrap; line-height: 1.5; max-width: 200px; text-align: center;"><span class="edgeLabel"><p>itemized by (1→N)</p></span></div></foreignObject></g></g><g class="edgeLabel" transform="translate(465.06590270996094, 139)"><g class="label" data-id="L_INV_PT_0" transform="translate(-61.5234375, -12)"><foreignObject width="123.046875" height="24"><div xmlns="http://www.w3.org/1999/xhtml" class="labelBkg" style="display: table-cell; white-space: nowrap; line-height: 1.5; max-width: 200px; text-align: center;"><span class="edgeLabel"><p>settled by (1→N)</p></span></div></foreignObject></g></g></g><g class="nodes"><g class="node default ego" id="my-svg-flowchart-INV-0" data-look="classic" transform="translate(334.52904510498047, 87)"><g class="basic label-container outer-path"><path d="M-18.2890625 -19.5 C-4.423187757070133 -19.5, 9.442686985859734 -19.5, 18.2890625 -19.5 C18.2890625 -19.5, 18.2890625 -19.5, 18.2890625 -19.5 C18.562445925978366 -19.491233125637432, 18.835829351956736 -19.482466251274865, 19.5384317896239 -19.45993515863156 C19.820533723439677 -19.432721124353563, 20.102635657255455 -19.40550709007557, 20.782667152847864 -19.3399052695533 C21.070449861031847 -19.293378793082347, 21.358232569215826 -19.246852316611395, 22.01665575967676 -19.140403561325776 C22.45716925739073 -19.039859230091782, 22.897682755104704 -18.939314898857788, 23.23532688623539 -18.862249829261074 C23.560188195589554 -18.76583269787657, 23.88504950494372 -18.669415566492063, 24.433672751460602 -18.50658706670804 C24.859229800991645 -18.349978138674373, 25.28478685052269 -18.193369210640707, 25.606769095147794 -18.074876768247425 C25.98686969959816 -17.906617505941067, 26.366970304048525 -17.73835824363471, 26.74979541279238 -17.568892924097174 C27.18345042753827 -17.342655380673538, 27.617105442284153 -17.116417837249905, 27.858054764076783 -16.990714730406097 C28.169097849860503 -16.80215858391194, 28.480140935644222 -16.613602437417786, 28.926993073605697 -16.342718045390892 C29.258087786987875 -16.111760706194623, 29.589182500370054 -15.880803366998354, 29.952217844578712 -15.627565626425154 C30.25158121705636 -15.38883130326814, 30.550944589534005 -15.150096980111124, 30.92951620850187 -14.848196188198123 C31.13904118518452 -14.657911148102038, 31.34856616186717 -14.467626108005952, 31.854872236767985 -14.007812326905688 C32.12130119007672 -13.732702558390546, 32.387730143385454 -13.457592789875406, 32.72448344296865 -13.10986736009568 C32.90739691464848 -12.895006788189168, 33.090310386328305 -12.680146216282656, 33.53477640812658 -12.158051136245305 C33.74492299976556 -11.876473848197413, 33.95506959140454 -11.594896560149524, 34.282421464640635 -11.156274872382312 C34.45478050230439 -10.891485105648677, 34.62713953996815 -10.62669533891504, 34.96434637860425 -10.108655082055241 C35.116481674519896 -9.8385234587878, 35.268616970435545 -9.568391835520357, 35.577748974273504 -9.019496659696287 C35.69421574455539 -8.77765091921627, 35.81068251483728 -8.535805178736254, 36.12010864880834 -7.893275190886684 C36.29654944849103 -7.457463004419651, 36.472990248173716 -7.021650817952618, 36.589196729970325 -6.734618561215508 C36.69195061703005 -6.425140225000211, 36.79470450408977 -6.1156618887849135, 36.98308563421488 -5.548287939305138 C37.09191766645584 -5.133264232269212, 37.200749698696804 -4.718240525233287, 37.30015678754556 -4.339158212148133 C37.36961740417372 -3.9824926262690816, 37.439078020801865 -3.62582704039003, 37.539107276581774 -3.1121979531509023 C37.591291424951216 -2.7074680033231786, 37.64347557332066 -2.302738053495455, 37.69895520250937 -1.872449005199798 C37.71780181242208 -1.5788978430995186, 37.7366484223348 -1.2853466809992393, 37.77904371591342 -0.6250057626472757 C37.77904371591342 -0.3020306711268675, 37.77904371591342 0.02094442039354072, 37.77904371591342 0.625005762647271 C37.74804748183567 1.1077971281180419, 37.717051247757915 1.5905884935888128, 37.69895520250937 1.8724490051997846 C37.6477363073061 2.2696926420814605, 37.59651741210283 2.666936278963137, 37.539107276581774 3.1121979531508885 C37.46737274170354 3.4805396286512953, 37.39563820682531 3.8488813041517025, 37.30015678754556 4.339158212148129 C37.18399173237968 4.782145913749023, 37.067826677213795 5.225133615349917, 36.98308563421489 5.548287939305125 C36.871842569936526 5.883334324736253, 36.760599505658156 6.218380710167379, 36.589196729970325 6.734618561215495 C36.44438407612123 7.09230861598495, 36.29957142227214 7.449998670754405, 36.12010864880834 7.893275190886679 C35.90878399841228 8.332095349057267, 35.697459348016224 8.770915507227857, 35.577748974273504 9.019496659696284 C35.350275290042426 9.423399220256828, 35.122801605811354 9.827301780817374, 34.96434637860425 10.108655082055236 C34.70223078763521 10.511335017675087, 34.44011519666617 10.914014953294938, 34.28242146464064 11.156274872382301 C34.00838586799365 11.523457606732832, 33.73435027134666 11.89064034108336, 33.53477640812658 12.158051136245302 C33.289771729808535 12.445847572558813, 33.04476705149049 12.733644008872323, 32.72448344296866 13.10986736009567 C32.39140980763928 13.453793234427284, 32.05833617230989 13.797719108758898, 31.85487223676799 14.007812326905684 C31.5431835120979 14.290879779819315, 31.231494787427817 14.573947232732946, 30.929516208501887 14.848196188198111 C30.55419634572446 15.147503791082105, 30.178876482947032 15.446811393966101, 29.952217844578715 15.627565626425152 C29.563927231144664 15.898420349527001, 29.175636617710616 16.16927507262885, 28.926993073605708 16.34271804539089 C28.509406704847496 16.59586135614201, 28.091820336089288 16.84900466689313, 27.858054764076787 16.990714730406093 C27.44708766684806 17.205116001793332, 27.036120569619335 17.419517273180567, 26.749795412792388 17.56889292409717 C26.50308966187028 17.678102241764304, 26.256383910948173 17.787311559431437, 25.606769095147804 18.07487676824742 C25.179907816287052 18.231965664730584, 24.753046537426304 18.389054561213747, 24.433672751460616 18.506587066708033 C24.12017849361497 18.599630516871684, 23.806684235769318 18.692673967035333, 23.235326886235413 18.86224982926107 C22.93642085435599 18.930473180493404, 22.637514822476568 18.998696531725734, 22.016655759676766 19.140403561325773 C21.608312356091442 19.206421356067057, 21.19996895250612 19.272439150808342, 20.78266715284788 19.3399052695533 C20.44512992492803 19.37246707998282, 20.107592697008183 19.405028890412336, 19.5384317896239 19.45993515863156 C19.143419707896186 19.472602427248194, 18.748407626168472 19.485269695864826, 18.289062500000004 19.5 C18.289062500000004 19.5, 18.2890625 19.5, 18.2890625 19.5 C10.13576659963494 19.5, 1.9824706992698786 19.5, -18.289062499999996 19.5 C-18.56240069025919 19.4912345762589, -18.835738880518377 19.482469152517798, -19.538431789623893 19.45993515863156 C-19.812353458023928 19.433510264720013, -20.086275126423963 19.407085370808467, -20.78266715284787 19.3399052695533 C-21.24752123049647 19.264751267276285, -21.712375308145067 19.18959726499927, -22.01665575967676 19.140403561325773 C-22.435830262957264 19.044729716321264, -22.85500476623777 18.94905587131676, -23.235326886235388 18.862249829261074 C-23.584408675936984 18.75864418644535, -23.933490465638577 18.65503854362962, -24.43367275146059 18.506587066708043 C-24.900185690134034 18.334905992877886, -25.366698628807473 18.163224919047728, -25.606769095147797 18.074876768247425 C-25.97709020622777 17.910946597557775, -26.347411317307742 17.74701642686813, -26.74979541279238 17.568892924097174 C-27.046727162949917 17.413983820233852, -27.34365891310745 17.259074716370527, -27.85805476407678 16.990714730406097 C-28.200591862825018 16.783066728173488, -28.543128961573256 16.575418725940875, -28.926993073605686 16.3427180453909 C-29.313105597282593 16.07338266341565, -29.6992181209595 15.804047281440399, -29.952217844578712 15.627565626425156 C-30.161062021760713 15.461017952699468, -30.369906198942715 15.29447027897378, -30.92951620850187 14.848196188198125 C-31.22178657843598 14.582763971274197, -31.51405694837009 14.317331754350267, -31.854872236767974 14.007812326905697 C-32.15054564011797 13.702505262708959, -32.446219043467956 13.397198198512221, -32.724483442968655 13.109867360095677 C-33.03150128994634 12.749226727225295, -33.33851913692403 12.388586094354913, -33.534776408126575 12.158051136245307 C-33.76564896180181 11.848702947242828, -33.996521515477035 11.539354758240348, -34.282421464640635 11.156274872382316 C-34.44538105328696 10.905925183444927, -34.60834064193328 10.655575494507538, -34.96434637860425 10.108655082055249 C-35.194126310306316 9.700657545577073, -35.423906242008385 9.292660009098897, -35.577748974273504 9.019496659696289 C-35.692286981489524 8.781656036991459, -35.80682498870555 8.54381541428663, -36.12010864880834 7.893275190886686 C-36.26138860766259 7.544310961054515, -36.40266856651683 7.195346731222346, -36.589196729970325 6.73461856121551 C-36.71380419413332 6.359320732659822, -36.838411658296316 5.984022904104135, -36.98308563421488 5.5482879393051325 C-37.071585516678205 5.210799531380803, -37.16008539914152 4.873311123456474, -37.30015678754556 4.339158212148136 C-37.37469770885797 3.956406335438207, -37.44923863017038 3.573654458728278, -37.539107276581774 3.112197953150904 C-37.571680208015124 2.859568729206707, -37.604253139448474 2.6069395052625097, -37.69895520250937 1.872449005199809 C-37.71662894592861 1.5971661854561996, -37.73430268934785 1.3218833657125901, -37.77904371591342 0.6250057626472781 C-37.77904371591342 0.14032395074174603, -37.77904371591342 -0.3443578611637861, -37.77904371591342 -0.6250057626472687 C-37.75646114020869 -0.9767476075753998, -37.73387856450396 -1.328489452503531, -37.69895520250937 -1.8724490051997822 C-37.63959430846474 -2.332840377275526, -37.58023341442011 -2.7932317493512695, -37.539107276581774 -3.112197953150895 C-37.458744888743915 -3.524841830101615, -37.378382500906056 -3.9374857070523346, -37.30015678754556 -4.339158212148126 C-37.201221656295985 -4.716440746359892, -37.1022865250464 -5.093723280571657, -36.98308563421489 -5.548287939305123 C-36.85270054041133 -5.940987067797909, -36.72231544660777 -6.333686196290696, -36.58919672997033 -6.734618561215485 C-36.40683670725102 -7.185051343023372, -36.22447668453171 -7.63548412483126, -36.12010864880834 -7.893275190886676 C-36.00664562012664 -8.128883597664135, -35.89318259144493 -8.364492004441596, -35.577748974273504 -9.019496659696282 C-35.43170214182705 -9.278817599550392, -35.2856553093806 -9.5381385394045, -34.96434637860425 -10.108655082055243 C-34.78963741568758 -10.377054965020639, -34.61492845277091 -10.645454847986034, -34.28242146464064 -11.156274872382308 C-34.12909484687299 -11.36171857184873, -33.975768229105334 -11.567162271315151, -33.53477640812659 -12.158051136245302 C-33.211629073144486 -12.537638383519534, -32.88848173816239 -12.917225630793766, -32.72448344296866 -13.10986736009567 C-32.526286319852076 -13.314522161999975, -32.32808919673549 -13.519176963904279, -31.854872236767996 -14.007812326905677 C-31.650884435035945 -14.193068651217251, -31.446896633303894 -14.378324975528825, -30.929516208501887 -14.848196188198107 C-30.556500566729877 -15.145666236148179, -30.183484924957867 -15.44313628409825, -29.95221784457872 -15.627565626425149 C-29.596731096141895 -15.875537793361362, -29.24124434770507 -16.123509960297575, -28.92699307360571 -16.342718045390885 C-28.571378359015323 -16.55829377519961, -28.215763644424936 -16.77386950500833, -27.85805476407679 -16.99071473040609 C-27.605451232168143 -17.122497831202548, -27.3528477002595 -17.254280931999002, -26.749795412792388 -17.56889292409717 C-26.516911569453967 -17.671983693289327, -26.284027726115543 -17.775074462481484, -25.606769095147804 -18.07487676824742 C-25.2459500980355 -18.207661494558995, -24.8851311009232 -18.340446220870568, -24.43367275146062 -18.506587066708033 C-23.979712674481117 -18.64132003467048, -23.525752597501615 -18.776053002632924, -23.235326886235413 -18.862249829261067 C-22.74822523565272 -18.97342760237124, -22.26112358507002 -19.084605375481413, -22.016655759676766 -19.140403561325773 C-21.53273881952465 -19.218639499377648, -21.04882187937253 -19.296875437429524, -20.782667152847882 -19.3399052695533 C-20.474957733757215 -19.369589627138254, -20.16724831466655 -19.399273984723212, -19.538431789623903 -19.45993515863156 C-19.19024724633725 -19.471100759234663, -18.842062703050594 -19.482266359837766, -18.289062500000007 -19.5 C-18.289062500000004 -19.5, -18.289062500000004 -19.5, -18.2890625 -19.5" stroke="none" stroke-width="0" fill="#ffe0b2" style="fill:#ffe0b2 !important;stroke:#e65100 !important;stroke-width:3px !important"/><path d="M-18.2890625 -19.5 C-5.933953934924176 -19.5, 6.421154630151648 -19.5, 18.2890625 -19.5 M-18.2890625 -19.5 C-10.632678397204717 -19.5, -2.976294294409433 -19.5, 18.2890625 -19.5 M18.2890625 -19.5 C18.2890625 -19.5, 18.2890625 -19.5, 18.2890625 -19.5 M18.2890625 -19.5 C18.2890625 -19.5, 18.2890625 -19.5, 18.2890625 -19.5 M18.2890625 -19.5 C18.678029918172275 -19.487526571978364, 19.06699733634455 -19.475053143956732, 19.5384317896239 -19.45993515863156 M18.2890625 -19.5 C18.695311224374933 -19.486972394124468, 19.101559948749866 -19.473944788248936, 19.5384317896239 -19.45993515863156 M19.5384317896239 -19.45993515863156 C19.944423335983775 -19.420769642430493, 20.35041488234365 -19.381604126229426, 20.782667152847864 -19.3399052695533 M19.5384317896239 -19.45993515863156 C19.983754149826744 -19.416975446121285, 20.429076510029592 -19.374015733611014, 20.782667152847864 -19.3399052695533 M20.782667152847864 -19.3399052695533 C21.178264875534648 -19.27594809765546, 21.57386259822143 -19.21199092575762, 22.01665575967676 -19.140403561325776 M20.782667152847864 -19.3399052695533 C21.189426783254 -19.27414352697728, 21.59618641366014 -19.208381784401265, 22.01665575967676 -19.140403561325776 M22.01665575967676 -19.140403561325776 C22.444046681688395 -19.04285437236303, 22.87143760370003 -18.945305183400286, 23.23532688623539 -18.862249829261074 M22.01665575967676 -19.140403561325776 C22.44008633855247 -19.043758294840153, 22.863516917428182 -18.947113028354526, 23.23532688623539 -18.862249829261074 M23.23532688623539 -18.862249829261074 C23.511140247528402 -18.780389871403187, 23.78695360882141 -18.698529913545297, 24.433672751460602 -18.50658706670804 M23.23532688623539 -18.862249829261074 C23.513947168106398 -18.779556792109464, 23.792567449977405 -18.696863754957853, 24.433672751460602 -18.50658706670804 M24.433672751460602 -18.50658706670804 C24.81812888239163 -18.365103656651904, 25.20258501332266 -18.223620246595768, 25.606769095147794 -18.074876768247425 M24.433672751460602 -18.50658706670804 C24.767936455880463 -18.38357493358172, 25.102200160300324 -18.2605628004554, 25.606769095147794 -18.074876768247425 M25.606769095147794 -18.074876768247425 C25.917310974792187 -17.937409090026414, 26.227852854436577 -17.799941411805403, 26.74979541279238 -17.568892924097174 M25.606769095147794 -18.074876768247425 C26.019171661797444 -17.892318385479108, 26.43157422844709 -17.70976000271079, 26.74979541279238 -17.568892924097174 M26.74979541279238 -17.568892924097174 C26.973334664581635 -17.452272639622443, 27.196873916370894 -17.335652355147715, 27.858054764076783 -16.990714730406097 M26.74979541279238 -17.568892924097174 C27.099399763317894 -17.38650455836029, 27.449004113843408 -17.204116192623403, 27.858054764076783 -16.990714730406097 M27.858054764076783 -16.990714730406097 C28.228780975372985 -16.765978322489296, 28.599507186669186 -16.5412419145725, 28.926993073605697 -16.342718045390892 M27.858054764076783 -16.990714730406097 C28.19235019628282 -16.788062874864778, 28.526645628488858 -16.585411019323455, 28.926993073605697 -16.342718045390892 M28.926993073605697 -16.342718045390892 C29.28624145462482 -16.092121926403717, 29.645489835643946 -15.841525807416545, 29.952217844578712 -15.627565626425154 M28.926993073605697 -16.342718045390892 C29.193731654763667 -16.15665275810217, 29.46047023592164 -15.970587470813442, 29.952217844578712 -15.627565626425154 M29.952217844578712 -15.627565626425154 C30.31889816250466 -15.335147830652271, 30.685578480430607 -15.042730034879389, 30.92951620850187 -14.848196188198123 M29.952217844578712 -15.627565626425154 C30.228979510694305 -15.406855562635213, 30.505741176809895 -15.18614549884527, 30.92951620850187 -14.848196188198123 M30.92951620850187 -14.848196188198123 C31.295243018538905 -14.51605277592362, 31.66096982857594 -14.18390936364912, 31.854872236767985 -14.007812326905688 M30.92951620850187 -14.848196188198123 C31.29645694463301 -14.514950320363678, 31.663397680764152 -14.181704452529232, 31.854872236767985 -14.007812326905688 M31.854872236767985 -14.007812326905688 C32.07367986674661 -13.781875484512243, 32.292487496725236 -13.555938642118797, 32.72448344296865 -13.10986736009568 M31.854872236767985 -14.007812326905688 C32.17807607917166 -13.67407782409494, 32.50127992157533 -13.340343321284193, 32.72448344296865 -13.10986736009568 M32.72448344296865 -13.10986736009568 C32.936849389686834 -12.860410235115811, 33.149215336405014 -12.610953110135942, 33.53477640812658 -12.158051136245305 M32.72448344296865 -13.10986736009568 C32.957274046069934 -12.836418271532347, 33.19006464917122 -12.562969182969011, 33.53477640812658 -12.158051136245305 M33.53477640812658 -12.158051136245305 C33.81612343302794 -11.781071754118734, 34.097470457929305 -11.404092371992164, 34.282421464640635 -11.156274872382312 M33.53477640812658 -12.158051136245305 C33.830459365213166 -11.761862911020826, 34.12614232229974 -11.365674685796348, 34.282421464640635 -11.156274872382312 M34.282421464640635 -11.156274872382312 C34.52422790698471 -10.784795242820408, 34.76603434932879 -10.413315613258504, 34.96434637860425 -10.108655082055241 M34.282421464640635 -11.156274872382312 C34.45335720933647 -10.893671665855079, 34.624292954032306 -10.631068459327846, 34.96434637860425 -10.108655082055241 M34.96434637860425 -10.108655082055241 C35.177943547704054 -9.729391679259791, 35.39154071680386 -9.35012827646434, 35.577748974273504 -9.019496659696287 M34.96434637860425 -10.108655082055241 C35.189954164953186 -9.708065612127083, 35.415561951302124 -9.307476142198926, 35.577748974273504 -9.019496659696287 M35.577748974273504 -9.019496659696287 C35.70600365383 -8.75317307338669, 35.8342583333865 -8.486849487077095, 36.12010864880834 -7.893275190886684 M35.577748974273504 -9.019496659696287 C35.72285579571842 -8.71817924017732, 35.86796261716333 -8.416861820658355, 36.12010864880834 -7.893275190886684 M36.12010864880834 -7.893275190886684 C36.24732546789077 -7.579047188183218, 36.374542286973195 -7.264819185479752, 36.589196729970325 -6.734618561215508 M36.12010864880834 -7.893275190886684 C36.21549720394827 -7.657663615478814, 36.310885759088194 -7.422052040070945, 36.589196729970325 -6.734618561215508 M36.589196729970325 -6.734618561215508 C36.67797207077211 -6.467241379150253, 36.76674741157388 -6.199864197084998, 36.98308563421488 -5.548287939305138 M36.589196729970325 -6.734618561215508 C36.719286277914215 -6.342809569763192, 36.84937582585811 -5.951000578310875, 36.98308563421488 -5.548287939305138 M36.98308563421488 -5.548287939305138 C37.060853095020036 -5.251726906624353, 37.1386205558252 -4.955165873943567, 37.30015678754556 -4.339158212148133 M36.98308563421488 -5.548287939305138 C37.07645147460961 -5.192243524868843, 37.16981731500434 -4.836199110432549, 37.30015678754556 -4.339158212148133 M37.30015678754556 -4.339158212148133 C37.381400374124546 -3.921989565903126, 37.46264396070354 -3.504820919658119, 37.539107276581774 -3.1121979531509023 M37.30015678754556 -4.339158212148133 C37.39433591838774 -3.8555682800398827, 37.488515049229925 -3.371978347931632, 37.539107276581774 -3.1121979531509023 M37.539107276581774 -3.1121979531509023 C37.595884065318245 -2.6718483915559528, 37.65266085405471 -2.231498829961003, 37.69895520250937 -1.872449005199798 M37.539107276581774 -3.1121979531509023 C37.578870178707376 -2.8038047363378986, 37.61863308083298 -2.4954115195248954, 37.69895520250937 -1.872449005199798 M37.69895520250937 -1.872449005199798 C37.72279122195728 -1.5011837622099828, 37.74662724140519 -1.129918519220168, 37.77904371591342 -0.6250057626472757 M37.69895520250937 -1.872449005199798 C37.71584482302039 -1.6093795326843487, 37.73273444353141 -1.3463100601688998, 37.77904371591342 -0.6250057626472757 M37.77904371591342 -0.6250057626472757 C37.77904371591342 -0.3669621239136327, 37.77904371591342 -0.1089184851799897, 37.77904371591342 0.625005762647271 M37.77904371591342 -0.6250057626472757 C37.77904371591342 -0.25705534078443226, 37.77904371591342 0.11089508107841117, 37.77904371591342 0.625005762647271 M37.77904371591342 0.625005762647271 C37.75984135882895 0.9240979741014839, 37.74063900174448 1.2231901855556968, 37.69895520250937 1.8724490051997846 M37.77904371591342 0.625005762647271 C37.758436654700894 0.9459773747527715, 37.737829593488364 1.2669489868582722, 37.69895520250937 1.8724490051997846 M37.69895520250937 1.8724490051997846 C37.654986216372286 2.2134637790205938, 37.611017230235205 2.5544785528414025, 37.539107276581774 3.1121979531508885 M37.69895520250937 1.8724490051997846 C37.654685431478484 2.215796607260239, 37.61041566044759 2.559144209320694, 37.539107276581774 3.1121979531508885 M37.539107276581774 3.1121979531508885 C37.45629870785703 3.5374024519552645, 37.37349013913229 3.96260695075964, 37.30015678754556 4.339158212148129 M37.539107276581774 3.1121979531508885 C37.465983009749536 3.487675608515185, 37.39285874291729 3.8631532638794814, 37.30015678754556 4.339158212148129 M37.30015678754556 4.339158212148129 C37.23121677730086 4.602056350000627, 37.162276767056156 4.864954487853125, 36.98308563421489 5.548287939305125 M37.30015678754556 4.339158212148129 C37.17808605776845 4.804666810577185, 37.056015327991354 5.270175409006241, 36.98308563421489 5.548287939305125 M36.98308563421489 5.548287939305125 C36.85469398063942 5.934983143442468, 36.726302327063955 6.321678347579809, 36.589196729970325 6.734618561215495 M36.98308563421489 5.548287939305125 C36.845948730445855 5.961322443659092, 36.70881182667682 6.374356948013058, 36.589196729970325 6.734618561215495 M36.589196729970325 6.734618561215495 C36.45121075620093 7.0754465842032275, 36.313224782431526 7.41627460719096, 36.12010864880834 7.893275190886679 M36.589196729970325 6.734618561215495 C36.484349905893396 6.993592243760956, 36.379503081816466 7.252565926306417, 36.12010864880834 7.893275190886679 M36.12010864880834 7.893275190886679 C35.92270626810422 8.303185458153104, 35.7253038874001 8.713095725419528, 35.577748974273504 9.019496659696284 M36.12010864880834 7.893275190886679 C35.97236011659776 8.200078179334096, 35.82461158438719 8.506881167781513, 35.577748974273504 9.019496659696284 M35.577748974273504 9.019496659696284 C35.395172613980854 9.34367947525711, 35.21259625368821 9.667862290817938, 34.96434637860425 10.108655082055236 M35.577748974273504 9.019496659696284 C35.45095687616052 9.244628868988041, 35.32416477804754 9.469761078279797, 34.96434637860425 10.108655082055236 M34.96434637860425 10.108655082055236 C34.779174011848426 10.393129563134918, 34.5940016450926 10.677604044214599, 34.28242146464064 11.156274872382301 M34.96434637860425 10.108655082055236 C34.72119357448373 10.48220308485452, 34.4780407703632 10.855751087653806, 34.28242146464064 11.156274872382301 M34.28242146464064 11.156274872382301 C34.01835007115855 11.51010648224945, 33.75427867767646 11.8639380921166, 33.53477640812658 12.158051136245302 M34.28242146464064 11.156274872382301 C34.13191201954057 11.357943817123868, 33.98140257444051 11.559612761865434, 33.53477640812658 12.158051136245302 M33.53477640812658 12.158051136245302 C33.367301737126795 12.354776414380392, 33.199827066127014 12.551501692515483, 32.72448344296866 13.10986736009567 M33.53477640812658 12.158051136245302 C33.30073381316178 12.43297088569188, 33.06669121819697 12.707890635138458, 32.72448344296866 13.10986736009567 M32.72448344296866 13.10986736009567 C32.48971250991974 13.352287623520754, 32.25494157687081 13.594707886945837, 31.85487223676799 14.007812326905684 M32.72448344296866 13.10986736009567 C32.41026853420809 13.434320050914732, 32.09605362544753 13.758772741733795, 31.85487223676799 14.007812326905684 M31.85487223676799 14.007812326905684 C31.659455499348663 14.185284637386376, 31.464038761929338 14.362756947867066, 30.929516208501887 14.848196188198111 M31.85487223676799 14.007812326905684 C31.636059860275097 14.2065319377783, 31.417247483782205 14.405251548650915, 30.929516208501887 14.848196188198111 M30.929516208501887 14.848196188198111 C30.618094858701607 15.096546427393674, 30.306673508901323 15.344896666589237, 29.952217844578715 15.627565626425152 M30.929516208501887 14.848196188198111 C30.588070710494247 15.120489886612903, 30.24662521248661 15.392783585027695, 29.952217844578715 15.627565626425152 M29.952217844578715 15.627565626425152 C29.588572030157447 15.88122920459184, 29.22492621573618 16.134892782758527, 28.926993073605708 16.34271804539089 M29.952217844578715 15.627565626425152 C29.64122256286188 15.844502472182054, 29.330227281145042 16.061439317938955, 28.926993073605708 16.34271804539089 M28.926993073605708 16.34271804539089 C28.524628302188873 16.58663393438163, 28.12226353077204 16.830549823372376, 27.858054764076787 16.990714730406093 M28.926993073605708 16.34271804539089 C28.63018630466838 16.522644052950877, 28.333379535731055 16.702570060510865, 27.858054764076787 16.990714730406093 M27.858054764076787 16.990714730406093 C27.452443926667954 17.20232164447614, 27.04683308925912 17.41392855854619, 26.749795412792388 17.56889292409717 M27.858054764076787 16.990714730406093 C27.61160725747714 17.119286236741967, 27.365159750877496 17.24785774307784, 26.749795412792388 17.56889292409717 M26.749795412792388 17.56889292409717 C26.482265157064592 17.687320632304797, 26.214734901336797 17.805748340512423, 25.606769095147804 18.07487676824742 M26.749795412792388 17.56889292409717 C26.330069872269604 17.754692970170822, 25.91034433174682 17.940493016244474, 25.606769095147804 18.07487676824742 M25.606769095147804 18.07487676824742 C25.17343653470761 18.23434715617169, 24.74010397426741 18.39381754409596, 24.433672751460616 18.506587066708033 M25.606769095147804 18.07487676824742 C25.355157022005194 18.167472337040408, 25.103544948862584 18.260067905833395, 24.433672751460616 18.506587066708033 M24.433672751460616 18.506587066708033 C24.10384344097673 18.604478674750272, 23.77401413049284 18.70237028279251, 23.235326886235413 18.86224982926107 M24.433672751460616 18.506587066708033 C24.162041633270842 18.587205756765922, 23.890410515081072 18.667824446823815, 23.235326886235413 18.86224982926107 M23.235326886235413 18.86224982926107 C22.775290937636246 18.96725003251371, 22.31525498903708 19.072250235766354, 22.016655759676766 19.140403561325773 M23.235326886235413 18.86224982926107 C22.983466706901698 18.919735271652723, 22.731606527567983 18.97722071404438, 22.016655759676766 19.140403561325773 M22.016655759676766 19.140403561325773 C21.532821219161104 19.218626177643443, 21.048986678645445 19.296848793961118, 20.78266715284788 19.3399052695533 M22.016655759676766 19.140403561325773 C21.623495531558504 19.203966658004827, 21.230335303440242 19.26752975468388, 20.78266715284788 19.3399052695533 M20.78266715284788 19.3399052695533 C20.533223030585088 19.363968844027543, 20.283778908322297 19.388032418501783, 19.5384317896239 19.45993515863156 M20.78266715284788 19.3399052695533 C20.470764451525667 19.36999414803197, 20.158861750203457 19.400083026510647, 19.5384317896239 19.45993515863156 M19.5384317896239 19.45993515863156 C19.144958098518483 19.472553094055232, 18.751484407413066 19.485171029478902, 18.289062500000004 19.5 M19.5384317896239 19.45993515863156 C19.22099339437061 19.47011479011098, 18.903554999117315 19.480294421590397, 18.289062500000004 19.5 M18.289062500000004 19.5 C18.289062500000004 19.5, 18.2890625 19.5, 18.2890625 19.5 M18.289062500000004 19.5 C18.289062500000004 19.5, 18.2890625 19.5, 18.2890625 19.5 M18.2890625 19.5 C7.977872762615062 19.5, -2.3333169747698754 19.5, -18.289062499999996 19.5 M18.2890625 19.5 C7.097750653623741 19.5, -4.093561192752517 19.5, -18.289062499999996 19.5 M-18.289062499999996 19.5 C-18.645513076638597 19.48856932379616, -19.001963653277198 19.477138647592316, -19.538431789623893 19.45993515863156 M-18.289062499999996 19.5 C-18.734552013307386 19.485714018400966, -19.180041526614772 19.47142803680193, -19.538431789623893 19.45993515863156 M-19.538431789623893 19.45993515863156 C-19.81094623956224 19.433646017392583, -20.083460689500594 19.407356876153607, -20.78266715284787 19.3399052695533 M-19.538431789623893 19.45993515863156 C-19.91145973972351 19.423949600917197, -20.284487689823134 19.38796404320283, -20.78266715284787 19.3399052695533 M-20.78266715284787 19.3399052695533 C-21.180242526937946 19.27562836631349, -21.57781790102802 19.21135146307368, -22.01665575967676 19.140403561325773 M-20.78266715284787 19.3399052695533 C-21.11834167704563 19.28563601567582, -21.454016201243387 19.231366761798338, -22.01665575967676 19.140403561325773 M-22.01665575967676 19.140403561325773 C-22.31584123398773 19.07211642918197, -22.6150267082987 19.003829297038173, -23.235326886235388 18.862249829261074 M-22.01665575967676 19.140403561325773 C-22.271349853290815 19.08227129649265, -22.52604394690487 19.02413903165953, -23.235326886235388 18.862249829261074 M-23.235326886235388 18.862249829261074 C-23.552709693526573 18.7680522780334, -23.870092500817762 18.67385472680573, -24.43367275146059 18.506587066708043 M-23.235326886235388 18.862249829261074 C-23.65895225345262 18.73652004392593, -24.082577620669852 18.610790258590786, -24.43367275146059 18.506587066708043 M-24.43367275146059 18.506587066708043 C-24.88400312036828 18.340861328141717, -25.33433348927597 18.17513558957539, -25.606769095147797 18.074876768247425 M-24.43367275146059 18.506587066708043 C-24.696344486189883 18.409921440216767, -24.95901622091917 18.31325581372549, -25.606769095147797 18.074876768247425 M-25.606769095147797 18.074876768247425 C-25.955060203331605 17.92069862634309, -26.303351311515417 17.766520484438757, -26.74979541279238 17.568892924097174 M-25.606769095147797 18.074876768247425 C-25.962541481225188 17.917386886543827, -26.318313867302578 17.759897004840226, -26.74979541279238 17.568892924097174 M-26.74979541279238 17.568892924097174 C-26.985841956095054 17.445747593651195, -27.221888499397725 17.32260226320522, -27.85805476407678 16.990714730406097 M-26.74979541279238 17.568892924097174 C-27.09600079282344 17.3882777990901, -27.442206172854497 17.207662674083025, -27.85805476407678 16.990714730406097 M-27.85805476407678 16.990714730406097 C-28.21794621570448 16.77254641747246, -28.57783766733218 16.55437810453882, -28.926993073605686 16.3427180453909 M-27.85805476407678 16.990714730406097 C-28.262351833475844 16.74562747102308, -28.66664890287491 16.500540211640065, -28.926993073605686 16.3427180453909 M-28.926993073605686 16.3427180453909 C-29.217191093805102 16.14028846896961, -29.50738911400452 15.937858892548322, -29.952217844578712 15.627565626425156 M-28.926993073605686 16.3427180453909 C-29.296319129446545 16.085092176703597, -29.665645185287403 15.827466308016293, -29.952217844578712 15.627565626425156 M-29.952217844578712 15.627565626425156 C-30.154076862074927 15.466588431665977, -30.35593587957114 15.305611236906799, -30.92951620850187 14.848196188198125 M-29.952217844578712 15.627565626425156 C-30.14921210689229 15.470467944467558, -30.346206369205866 15.313370262509961, -30.92951620850187 14.848196188198125 M-30.92951620850187 14.848196188198125 C-31.118629885772698 14.676448150174465, -31.30774356304353 14.504700112150806, -31.854872236767974 14.007812326905697 M-30.92951620850187 14.848196188198125 C-31.256440322880024 14.551292357457948, -31.583364437258183 14.25438852671777, -31.854872236767974 14.007812326905697 M-31.854872236767974 14.007812326905697 C-32.11996316277581 13.73408418143282, -32.38505408878365 13.460356035959943, -32.724483442968655 13.109867360095677 M-31.854872236767974 14.007812326905697 C-32.12150723005799 13.732489805193683, -32.38814222334801 13.45716728348167, -32.724483442968655 13.109867360095677 M-32.724483442968655 13.109867360095677 C-32.8919964356235 12.91309706716399, -33.059509428278346 12.716326774232305, -33.534776408126575 12.158051136245307 M-32.724483442968655 13.109867360095677 C-32.88705241328626 12.91890459712415, -33.04962138360387 12.727941834152624, -33.534776408126575 12.158051136245307 M-33.534776408126575 12.158051136245307 C-33.74967309997129 11.870109146664763, -33.964569791816004 11.582167157084221, -34.282421464640635 11.156274872382316 M-33.534776408126575 12.158051136245307 C-33.72495332584961 11.903231391970065, -33.91513024357264 11.648411647694825, -34.282421464640635 11.156274872382316 M-34.282421464640635 11.156274872382316 C-34.55013873096276 10.744989259159684, -34.81785599728487 10.333703645937053, -34.96434637860425 10.108655082055249 M-34.282421464640635 11.156274872382316 C-34.51131552800543 10.804632124391825, -34.74020959137024 10.452989376401334, -34.96434637860425 10.108655082055249 M-34.96434637860425 10.108655082055249 C-35.14198493440722 9.793239838372761, -35.31962349021019 9.477824594690272, -35.577748974273504 9.019496659696289 M-34.96434637860425 10.108655082055249 C-35.158493844174465 9.763926597372624, -35.35264130974469 9.419198112689998, -35.577748974273504 9.019496659696289 M-35.577748974273504 9.019496659696289 C-35.76782166339369 8.624806653834183, -35.95789435251387 8.230116647972078, -36.12010864880834 7.893275190886686 M-35.577748974273504 9.019496659696289 C-35.72130032584303 8.721409206655277, -35.86485167741257 8.423321753614267, -36.12010864880834 7.893275190886686 M-36.12010864880834 7.893275190886686 C-36.27880265789812 7.501297920294992, -36.4374966669879 7.109320649703298, -36.589196729970325 6.73461856121551 M-36.12010864880834 7.893275190886686 C-36.25236149986701 7.566608091836858, -36.384614350925666 7.239940992787029, -36.589196729970325 6.73461856121551 M-36.589196729970325 6.73461856121551 C-36.70629245969176 6.381944879965461, -36.82338818941319 6.029271198715412, -36.98308563421488 5.5482879393051325 M-36.589196729970325 6.73461856121551 C-36.70603035900058 6.382734285487221, -36.822863988030825 6.030850009758932, -36.98308563421488 5.5482879393051325 M-36.98308563421488 5.5482879393051325 C-37.07933054420808 5.1812643846932405, -37.175575454201265 4.8142408300813475, -37.30015678754556 4.339158212148136 M-36.98308563421488 5.5482879393051325 C-37.107499451489744 5.073844132746579, -37.231913268764615 4.599400326188026, -37.30015678754556 4.339158212148136 M-37.30015678754556 4.339158212148136 C-37.365876237306495 4.001702727436378, -37.43159568706742 3.66424724272462, -37.539107276581774 3.112197953150904 M-37.30015678754556 4.339158212148136 C-37.38089166827813 3.924601662909449, -37.46162654901071 3.510045113670763, -37.539107276581774 3.112197953150904 M-37.539107276581774 3.112197953150904 C-37.57685442884801 2.819438494192309, -37.61460158111424 2.5266790352337143, -37.69895520250937 1.872449005199809 M-37.539107276581774 3.112197953150904 C-37.580180779785046 2.7936399731869455, -37.62125428298832 2.4750819932229873, -37.69895520250937 1.872449005199809 M-37.69895520250937 1.872449005199809 C-37.72639724596681 1.445017027531392, -37.75383928942425 1.017585049862975, -37.77904371591342 0.6250057626472781 M-37.69895520250937 1.872449005199809 C-37.727571969763886 1.4267197561718896, -37.756188737018405 0.9809905071439702, -37.77904371591342 0.6250057626472781 M-37.77904371591342 0.6250057626472781 C-37.77904371591342 0.21771546176131773, -37.77904371591342 -0.18957483912464268, -37.77904371591342 -0.6250057626472687 M-37.77904371591342 0.6250057626472781 C-37.77904371591342 0.16254921368729514, -37.77904371591342 -0.29990733527268787, -37.77904371591342 -0.6250057626472687 M-37.77904371591342 -0.6250057626472687 C-37.7479954545072 -1.1086074957546963, -37.71694719310097 -1.592209228862124, -37.69895520250937 -1.8724490051997822 M-37.77904371591342 -0.6250057626472687 C-37.74932380792297 -1.0879173190764244, -37.71960389993252 -1.5508288755055801, -37.69895520250937 -1.8724490051997822 M-37.69895520250937 -1.8724490051997822 C-37.64063419342215 -2.32477523489433, -37.582313184334936 -2.7771014645888776, -37.539107276581774 -3.112197953150895 M-37.69895520250937 -1.8724490051997822 C-37.66561691634532 -2.131014169298889, -37.632278630181276 -2.389579333397996, -37.539107276581774 -3.112197953150895 M-37.539107276581774 -3.112197953150895 C-37.48095291804414 -3.4108082933136115, -37.42279855950651 -3.7094186334763273, -37.30015678754556 -4.339158212148126 M-37.539107276581774 -3.112197953150895 C-37.48537064213686 -3.388124213783837, -37.43163400769194 -3.6640504744167797, -37.30015678754556 -4.339158212148126 M-37.30015678754556 -4.339158212148126 C-37.229628784757196 -4.60811205380994, -37.159100781968824 -4.877065895471754, -36.98308563421489 -5.548287939305123 M-37.30015678754556 -4.339158212148126 C-37.21668954801378 -4.657454971413233, -37.13322230848201 -4.975751730678341, -36.98308563421489 -5.548287939305123 M-36.98308563421489 -5.548287939305123 C-36.86369004448838 -5.90788843245752, -36.74429445476188 -6.267488925609917, -36.58919672997033 -6.734618561215485 M-36.98308563421489 -5.548287939305123 C-36.86606291117203 -5.9007417360713355, -36.74904018812917 -6.253195532837547, -36.58919672997033 -6.734618561215485 M-36.58919672997033 -6.734618561215485 C-36.4145126457178 -7.166091626606246, -36.23982856146527 -7.597564691997006, -36.12010864880834 -7.893275190886676 M-36.58919672997033 -6.734618561215485 C-36.4927389032023 -6.972871258217726, -36.39628107643428 -7.211123955219968, -36.12010864880834 -7.893275190886676 M-36.12010864880834 -7.893275190886676 C-35.921744747219044 -8.305182076844424, -35.72338084562975 -8.717088962802173, -35.577748974273504 -9.019496659696282 M-36.12010864880834 -7.893275190886676 C-35.92279068743499 -8.303010159606483, -35.72547272606163 -8.71274512832629, -35.577748974273504 -9.019496659696282 M-35.577748974273504 -9.019496659696282 C-35.41893137392252 -9.301493391145366, -35.26011377357153 -9.58349012259445, -34.96434637860425 -10.108655082055243 M-35.577748974273504 -9.019496659696282 C-35.36779840548452 -9.392285154381545, -35.15784783669554 -9.76507364906681, -34.96434637860425 -10.108655082055243 M-34.96434637860425 -10.108655082055243 C-34.742599229159744 -10.449318251049057, -34.52085207971524 -10.789981420042873, -34.28242146464064 -11.156274872382308 M-34.96434637860425 -10.108655082055243 C-34.7316995140458 -10.466063140447394, -34.49905264948736 -10.823471198839547, -34.28242146464064 -11.156274872382308 M-34.28242146464064 -11.156274872382308 C-34.11645459650221 -11.378655355795075, -33.950487728363775 -11.601035839207842, -33.53477640812659 -12.158051136245302 M-34.28242146464064 -11.156274872382308 C-34.11717976077715 -11.377683701730485, -33.951938056913654 -11.599092531078659, -33.53477640812659 -12.158051136245302 M-33.53477640812659 -12.158051136245302 C-33.292412909696424 -12.442745092375109, -33.050049411266265 -12.727439048504918, -32.72448344296866 -13.10986736009567 M-33.53477640812659 -12.158051136245302 C-33.34905778625876 -12.376206797180206, -33.16333916439093 -12.59436245811511, -32.72448344296866 -13.10986736009567 M-32.72448344296866 -13.10986736009567 C-32.50577349518767 -13.335703337600203, -32.287063547406675 -13.561539315104733, -31.854872236767996 -14.007812326905677 M-32.72448344296866 -13.10986736009567 C-32.44863852345278 -13.39469988678489, -32.1727936039369 -13.67953241347411, -31.854872236767996 -14.007812326905677 M-31.854872236767996 -14.007812326905677 C-31.644180340911298 -14.199157132120646, -31.433488445054596 -14.390501937335614, -30.929516208501887 -14.848196188198107 M-31.854872236767996 -14.007812326905677 C-31.61717608787845 -14.223681680231696, -31.3794799389889 -14.439551033557715, -30.929516208501887 -14.848196188198107 M-30.929516208501887 -14.848196188198107 C-30.64714342593125 -15.073380968042867, -30.364770643360618 -15.298565747887627, -29.95221784457872 -15.627565626425149 M-30.929516208501887 -14.848196188198107 C-30.68502301863016 -15.043173000883783, -30.440529828758436 -15.238149813569459, -29.95221784457872 -15.627565626425149 M-29.95221784457872 -15.627565626425149 C-29.64032406180677 -15.845129227622612, -29.328430279034823 -16.062692828820076, -28.92699307360571 -16.342718045390885 M-29.95221784457872 -15.627565626425149 C-29.682816071716285 -15.815488640959197, -29.41341429885385 -16.003411655493245, -28.92699307360571 -16.342718045390885 M-28.92699307360571 -16.342718045390885 C-28.653456434610757 -16.508537563429346, -28.379919795615802 -16.674357081467804, -27.85805476407679 -16.99071473040609 M-28.92699307360571 -16.342718045390885 C-28.608316045226832 -16.535901932748253, -28.28963901684795 -16.72908582010562, -27.85805476407679 -16.99071473040609 M-27.85805476407679 -16.99071473040609 C-27.62688080170154 -17.11131803850327, -27.395706839326284 -17.23192134660045, -26.749795412792388 -17.56889292409717 M-27.85805476407679 -16.99071473040609 C-27.44482021690541 -17.20629892897604, -27.031585669734028 -17.42188312754599, -26.749795412792388 -17.56889292409717 M-26.749795412792388 -17.56889292409717 C-26.446726756051905 -17.703052428223902, -26.143658099311423 -17.837211932350634, -25.606769095147804 -18.07487676824742 M-26.749795412792388 -17.56889292409717 C-26.322001494937254 -17.758264601475943, -25.89420757708212 -17.947636278854716, -25.606769095147804 -18.07487676824742 M-25.606769095147804 -18.07487676824742 C-25.19423150621081 -18.226694414431904, -24.78169391727381 -18.378512060616387, -24.43367275146062 -18.506587066708033 M-25.606769095147804 -18.07487676824742 C-25.3498971843363 -18.16940800592397, -25.09302527352479 -18.263939243600518, -24.43367275146062 -18.506587066708033 M-24.43367275146062 -18.506587066708033 C-24.157777455442872 -18.58847134236214, -23.88188215942512 -18.670355618016245, -23.235326886235413 -18.862249829261067 M-24.43367275146062 -18.506587066708033 C-24.00903719710423 -18.6326166702835, -23.584401642747846 -18.758646273858965, -23.235326886235413 -18.862249829261067 M-23.235326886235413 -18.862249829261067 C-22.96277715046824 -18.924457527896685, -22.69022741470107 -18.9866652265323, -22.016655759676766 -19.140403561325773 M-23.235326886235413 -18.862249829261067 C-22.88153083687539 -18.94300146879251, -22.527734787515364 -19.02375310832395, -22.016655759676766 -19.140403561325773 M-22.016655759676766 -19.140403561325773 C-21.735214813059375 -19.185904750967733, -21.453773866441985 -19.231405940609697, -20.782667152847882 -19.3399052695533 M-22.016655759676766 -19.140403561325773 C-21.564741229734555 -19.21346559787731, -21.112826699792343 -19.286527634428843, -20.782667152847882 -19.3399052695533 M-20.782667152847882 -19.3399052695533 C-20.329937842666418 -19.383579521619847, -19.877208532484953 -19.4272537736864, -19.538431789623903 -19.45993515863156 M-20.782667152847882 -19.3399052695533 C-20.360769825009662 -19.38060519736408, -19.93887249717144 -19.42130512517486, -19.538431789623903 -19.45993515863156 M-19.538431789623903 -19.45993515863156 C-19.081066117739145 -19.47460198552063, -18.623700445854386 -19.489268812409698, -18.289062500000007 -19.5 M-19.538431789623903 -19.45993515863156 C-19.210797607074245 -19.470441749164678, -18.88316342452459 -19.480948339697797, -18.289062500000007 -19.5 M-18.289062500000007 -19.5 C-18.289062500000004 -19.5, -18.289062500000004 -19.5, -18.2890625 -19.5 M-18.289062500000007 -19.5 C-18.289062500000004 -19.5, -18.289062500000004 -19.5, -18.2890625 -19.5" stroke="#e65100" stroke-width="3" fill="none" stroke-dasharray="0 0" style="fill:#ffe0b2 !important;stroke:#e65100 !important;stroke-width:3px !important"/></g><g class="label" style="color:#000 !important" transform="translate(-25.4140625, -12)"><rect/><foreignObject width="50.828125" height="24"><div style="color: rgb(0, 0, 0) !important; display: table-cell; white-space: nowrap; line-height: 1.5; max-width: 200px; text-align: center;" xmlns="http://www.w3.org/1999/xhtml"><span style="color:#000 !important" class="nodeLabel"><p>Invoice</p></span></div></foreignObject></g></g><g class="node default neighbor" id="my-svg-flowchart-ORDER-1" data-look="classic" transform="translate(70.6953125, 35)"><rect class="basic label-container" style="fill:#e3f2fd !important;stroke:#1565c0 !important" x="-50.4296875" y="-27" width="100.859375" height="54"/><g class="label" style="color:#000 !important" transform="translate(-20.4296875, -12)"><rect/><foreignObject width="40.859375" height="24"><div style="color: rgb(0, 0, 0) !important; display: table-cell; white-space: nowrap; line-height: 1.5; max-width: 200px; text-align: center;" xmlns="http://www.w3.org/1999/xhtml"><span style="color:#000 !important" class="nodeLabel"><p>Order</p></span></div></foreignObject></g></g><g class="node default neighbor" id="my-svg-flowchart-COMPANY-2" data-look="classic" transform="translate(70.6953125, 139)"><rect class="basic label-container" style="fill:#e3f2fd !important;stroke:#1565c0 !important" x="-62.6953125" y="-27" width="125.390625" height="54"/><g class="label" style="color:#000 !important" transform="translate(-32.6953125, -12)"><rect/><foreignObject width="65.390625" height="24"><div style="color: rgb(0, 0, 0) !important; display: table-cell; white-space: nowrap; line-height: 1.5; max-width: 200px; text-align: center;" xmlns="http://www.w3.org/1999/xhtml"><span style="color:#000 !important" class="nodeLabel"><p>Company</p></span></div></foreignObject></g></g><g class="node default neighbor" id="my-svg-flowchart-LI-3" data-look="classic" transform="translate(659.5737152099609, 35)"><rect class="basic label-container" style="fill:#e3f2fd !important;stroke:#1565c0 !important" x="-86.8828125" y="-27" width="173.765625" height="54"/><g class="label" style="color:#000 !important" transform="translate(-56.8828125, -12)"><rect/><foreignObject width="113.765625" height="24"><div style="color: rgb(0, 0, 0) !important; display: table-cell; white-space: nowrap; line-height: 1.5; max-width: 200px; text-align: center;" xmlns="http://www.w3.org/1999/xhtml"><span style="color:#000 !important" class="nodeLabel"><p>InvoiceLineItem</p></span></div></foreignObject></g></g><g class="node default neighbor" id="my-svg-flowchart-PT-4" data-look="classic" transform="translate(659.5737152099609, 139)"><rect class="basic label-container" style="fill:#e3f2fd !important;stroke:#1565c0 !important" x="-101.75" y="-27" width="203.5" height="54"/><g class="label" style="color:#000 !important" transform="translate(-71.75, -12)"><rect/><foreignObject width="143.5" height="24"><div style="color: rgb(0, 0, 0) !important; display: table-cell; white-space: nowrap; line-height: 1.5; max-width: 200px; text-align: center;" xmlns="http://www.w3.org/1999/xhtml"><span style="color:#000 !important" class="nodeLabel"><p>PaymentTransaction</p></span></div></foreignObject></g></g></g></g></g><defs><filter id="my-svg-drop-shadow" height="130%" width="130%"><feDropShadow dx="4" dy="4" stdDeviation="0" flood-opacity="0.06" flood-color="#000000"/></filter></defs><defs><filter id="my-svg-drop-shadow-small" height="150%" width="150%"><feDropShadow dx="2" dy="2" stdDeviation="0" flood-opacity="0.06" flood-color="#000000"/></filter></defs></svg>