<svg id="my-svg" width="848.55810546875" xmlns="http://www.w3.org/2000/svg" xmlns:xlink="http://www.w3.org/1999/xlink" class="flowchart" height="382" viewBox="0 0 848.55810546875 382" role="graphics-document document" aria-roledescription="flowchart-v2" style="background-color: white;"><style>#my-svg{font-family:"trebuchet ms",verdana,arial,sans-serif;font-size:16px;fill:#333;}@keyframes edge-animation-frame{from{stroke-dashoffset:0;}}@keyframes dash{to{stroke-dashoffset:0;}}#my-svg .edge-animation-slow{stroke-dasharray:9,5!important;stroke-dashoffset:900;animation:dash 50s linear infinite;stroke-linecap:round;}#my-svg .edge-animation-fast{stroke-dasharray:9,5!important;stroke-dashoffset:900;animation:dash 20s linear infinite;stroke-linecap:round;}#my-svg .error-icon{fill:#552222;}#my-svg .error-text{fill:#552222;stroke:#552222;}#my-svg .edge-thickness-normal{stroke-width:1px;}#my-svg .edge-thickness-thick{stroke-width:3.5px;}#my-svg .edge-pattern-solid{stroke-dasharray:0;}#my-svg .edge-thickness-invisible{stroke-width:0;fill:none;}#my-svg .edge-pattern-dashed{stroke-dasharray:3;}#my-svg .edge-pattern-dotted{stroke-dasharray:2;}#my-svg .marker{fill:#333333;stroke:#333333;}#my-svg .marker.cross{stroke:#333333;}#my-svg svg{font-family:"trebuchet ms",verdana,arial,sans-serif;font-size:16px;}#my-svg p{margin:0;}#my-svg .label{font-family:"trebuchet ms",verdana,arial,sans-serif;color:#333;}#my-svg .cluster-label text{fill:#333;}#my-svg .cluster-label span{color:#333;}#my-svg .cluster-label span p{background-color:transparent;}#my-svg .label text,#my-svg span{fill:#333;color:#333;}#my-svg .node rect,#my-svg .node circle,#my-svg .node ellipse,#my-svg .node polygon,#my-svg .node path{fill:#ECECFF;stroke:#9370DB;stroke-width:1px;}#my-svg .rough-node .label text,#my-svg .node .label text,#my-svg .image-shape .label,#my-svg .icon-shape .label{text-anchor:middle;}#my-svg .node .katex path{fill:#000;stroke:#000;stroke-width:1px;}#my-svg .rough-node .label,#my-svg .node .label,#my-svg .image-shape .label,#my-svg .icon-shape .label{text-align:center;}#my-svg .node.clickable{cursor:pointer;}#my-svg .root .anchor path{fill:#333333!important;stroke-width:0;stroke:#333333;}#my-svg .arrowheadPath{fill:#333333;}#my-svg .edgePath .path{stroke:#333333;stroke-width:1px;}#my-svg .flowchart-link{stroke:#333333;fill:none;}#my-svg .edgeLabel{background-color:rgba(232,232,232, 0.8);text-align:center;}#my-svg .edgeLabel p{background-color:rgba(232,232,232, 0.8);}#my-svg .edgeLabel rect{opacity:0.5;background-color:rgba(232,232,232, 0.8);fill:rgba(232,232,232, 0.8);}#my-svg .labelBkg{background-color:rgba(232, 232, 232, 0.5);}#my-svg .cluster rect{fill:#ffffde;stroke:#aaaa33;stroke-width:1px;}#my-svg .cluster text{fill:#333;}#my-svg .cluster span{color:#333;}#my-svg div.mermaidTooltip{position:absolute;text-align:center;max-width:200px;padding:2px;font-family:"trebuchet ms",verdana,arial,sans-serif;font-size:12px;background:hsl(80, 100%, 96.2745098039%);border:1px solid #aaaa33;border-radius:2px;pointer-events:none;z-index:100;}#my-svg .flowchartTitleText{text-anchor:middle;font-size:18px;fill:#333;}#my-svg rect.text{fill:none;stroke-width:0;}#my-svg .icon-shape,#my-svg .image-shape{background-color:rgba(232,232,232, 0.8);text-align:center;}#my-svg .icon-shape p,#my-svg .image-shape p{background-color:rgba(232,232,232, 0.8);padding:2px;}#my-svg .icon-shape .label rect,#my-svg .image-shape .label rect{opacity:0.5;background-color:rgba(232,232,232, 0.8);fill:rgba(232,232,232, 0.8);}#my-svg .label-icon{display:inline-block;height:1em;overflow:visible;vertical-align:-0.125em;}#my-svg .node .label-icon path{fill:currentColor;stroke:revert;stroke-width:revert;}#my-svg .node .neo-node{stroke:#9370DB;}#my-svg [data-look="neo"].node rect,#my-svg [data-look="neo"].cluster rect,#my-svg [data-look="neo"].node polygon{stroke:#9370DB;filter:drop-shadow(1px 2px 2px rgba(185, 185, 185, 1));}#my-svg [data-look="neo"].node path{stroke:#9370DB;stroke-width:1px;}#my-svg [data-look="neo"].node .outer-path{filter:drop-shadow(1px 2px 2px rgba(185, 185, 185, 1));}#my-svg [data-look="neo"].node .neo-line path{stroke:#9370DB;filter:none;}#my-svg [data-look="neo"].node circle{stroke:#9370DB;filter:drop-shadow(1px 2px 2px rgba(185, 185, 185, 1));}#my-svg [data-look="neo"].node circle .state-start{fill:#000000;}#my-svg [data-look="neo"].icon-shape .icon{fill:#9370DB;filter:drop-shadow(1px 2px 2px rgba(185, 185, 185, 1));}#my-svg [data-look="neo"].icon-shape .icon-neo path{stroke:#9370DB;filter:drop-shadow(1px 2px 2px rgba(185, 185, 185, 1));}#my-svg :root{--mermaid-font-family:"trebuchet ms",verdana,arial,sans-serif;}#my-svg .ego&gt;*{fill:rgb(255, 224, 178)!important;stroke:rgb(230, 81, 0)!important;stroke-width:3px!important;color:rgb(0, 0, 0)!important;}#my-svg .ego span{fill:rgb(255, 224, 178)!important;stroke:rgb(230, 81, 0)!important;stroke-width:3px!important;color:rgb(0, 0, 0)!important;}#my-svg .ego tspan{fill:rgb(0, 0, 0)!important;}#my-svg .neighbor&gt;*{fill:rgb(227, 242, 253)!important;stroke:rgb(21, 101, 192)!important;color:rgb(0, 0, 0)!important;}#my-svg .neighbor span{fill:rgb(227, 242, 253)!important;stroke:rgb(21, 101, 192)!important;color:rgb(0, 0, 0)!important;}#my-svg .neighbor tspan{fill:rgb(0, 0, 0)!important;}</style><g><marker id="my-svg_flowchart-v2-pointEnd" class="marker flowchart-v2" viewBox="0 0 10 10" refX="5" refY="5" markerUnits="userSpaceOnUse" markerWidth="8" markerHeight="8" orient="auto"><path d="M 0 0 L 10 5 L 0 10 z" class="arrowMarkerPath" style="stroke-width: 1; stroke-dasharray: 1, 0;"/></marker><marker id="my-svg_flowchart-v2-pointStart" class="marker flowchart-v2" viewBox="0 0 10 10" refX="4.5" refY="5" markerUnits="userSpaceOnUse" markerWidth="8" markerHeight="8" orient="auto"><path d="M 0 5 L 10 10 L 10 0 z" class="arrowMarkerPath" style="stroke-width: 1; stroke-dasharray: 1, 0;"/></marker><marker id="my-svg_flowchart-v2-pointEnd-margin" class="marker flowchart-v2" viewBox="0 0 11.5 14" refX="11.5" refY="7" markerUnits="userSpaceOnUse" markerWidth="10.5" markerHeight="14" orient="auto"><path d="M 0 0 L 11.5 7 L 0 14 z" class="arrowMarkerPath" style="stroke-width: 0; stroke-dasharray: 1, 0;"/></marker><marker id="my-svg_flowchart-v2-pointStart-margin" class="marker flowchart-v2" viewBox="0 0 11.5 14" refX="1" refY="7" markerUnits="userSpaceOnUse" markerWidth="11.5" markerHeight="14" orient="auto"><polygon points="0,7 11.5,14 11.5,0" class="arrowMarkerPath" style="stroke-width: 0; stroke-dasharray: 1, 0;"/></marker><marker id="my-svg_flowchart-v2-circleEnd" class="marker flowchart-v2" viewBox="0 0 10 10" refX="11" refY="5" markerUnits="userSpaceOnUse" markerWidth="11" markerHeight="11" orient="auto"><circle cx="5" cy="5" r="5" class="arrowMarkerPath" style="stroke-width: 1; stroke-dasharray: 1, 0;"/></marker><marker id="my-svg_flowchart-v2-circleStart" class="marker flowchart-v2" viewBox="0 0 10 10" refX="-1" refY="5" markerUnits="userSpaceOnUse" markerWidth="11" markerHeight="11" orient="auto"><circle cx="5" cy="5" r="5" class="arrowMarkerPath" style="stroke-width: 1; stroke-dasharray: 1, 0;"/></marker><marker id="my-svg_flowchart-v2-circleEnd-margin" class="marker flowchart-v2" viewBox="0 0 10 10" refY="5" refX="12.25" markerUnits="userSpaceOnUse" markerWidth="14" markerHeight="14" orient="auto"><circle cx="5" cy="5" r="5" class="arrowMarkerPath" style="stroke-width: 0; stroke-dasharray: 1, 0;"/></marker><marker id="my-svg_flowchart-v2-circleStart-margin" class="marker flowchart-v2" viewBox="0 0 10 10" refX="-2" refY="5" markerUnits="userSpaceOnUse" markerWidth="14" markerHeight="14" orient="auto"><circle cx="5" cy="5" r="5" class="arrowMarkerPath" style="stroke-width: 0; stroke-dasharray: 1, 0;"/></marker><marker id="my-svg_flowchart-v2-crossEnd" class="marker cross flowchart-v2" viewBox="0 0 11 11" refX="12" refY="5.2" markerUnits="userSpaceOnUse" markerWidth="11" markerHeight="11" orient="auto"><path d="M 1,1 l 9,9 M 10,1 l -9,9" class="arrowMarkerPath" style="stroke-width: 2; stroke-dasharray: 1, 0;"/></marker><marker id="my-svg_flowchart-v2-crossStart" class="marker cross flowchart-v2" viewBox="0 0 11 11" refX="-1" refY="5.2" markerUnits="userSpaceOnUse" markerWidth="11" markerHeight="11" orient="auto"><path d="M 1,1 l 9,9 M 10,1 l -9,9" class="arrowMarkerPath" style="stroke-width: 2; stroke-dasharray: 1, 0;"/></marker><marker id="my-svg_flowchart-v2-crossEnd-margin" class="marker cross flowchart-v2" viewBox="0 0 15 15" refX="17.7" refY="7.5" markerUnits="userSpaceOnUse" markerWidth="12" markerHeight="12" orient="auto"><path d="M 1,1 L 14,14 M 1,14 L 14,1" class="arrowMarkerPath" style="stroke-width: 2.5;"/></marker><marker id="my-svg_flowchart-v2-crossStart-margin" class="marker cross flowchart-v2" viewBox="0 0 15 15" refX="-3.5" refY="7.5" markerUnits="userSpaceOnUse" markerWidth="12" markerHeight="12" orient="auto"><path d="M 1,1 L 14,14 M 1,14 L 14,1" class="arrowMarkerPath" style="stroke-width: 2.5; stroke-dasharray: 1, 0;"/></marker><g class="root"><g class="clusters"/><g class="edgePaths"><path d="M177.234,87L199.538,87C221.841,87,266.448,87,305.273,101.008C344.097,115.015,377.14,143.031,393.662,157.038L410.183,171.046" id="my-svg-L_COMPANY_ORDER_0" class="edge-thickness-normal edge-pattern-solid edge-thickness-normal edge-pattern-solid flowchart-link" style=";" data-edge="true" data-et="edge" data-id="L_COMPANY_ORDER_0" data-points="W3sieCI6MTc3LjIzNDM3NSwieSI6ODd9LHsieCI6MzExLjA1NDY4NzUsInkiOjg3fSx7IngiOjQxMy4yMzQwMTM0NTk1OTMsInkiOjE3My42MzI5NjE4OTUyNTAwOH1d" data-look="classic" marker-end="url(#my-svg_flowchart-v2-pointEnd)"/><path d="M159.813,191L185.02,191C210.227,191,260.641,191,300.26,191.08C339.88,191.159,368.706,191.319,383.119,191.398L397.531,191.478" id="my-svg-L_CART_ORDER_0" class="edge-thickness-normal edge-pattern-solid edge-thickness-normal edge-pattern-solid flowchart-link" style=";" data-edge="true" data-et="edge" data-id="L_CART_ORDER_0" data-points="W3sieCI6MTU5LjgxMjUsInkiOjE5MX0seyJ4IjozMTEuMDU0Njg3NSwieSI6MTkxfSx7IngiOjQwMS41MzEyNDk5OTk5ODg3NSwieSI6MTkxLjV9XQ==" data-look="classic" marker-end="url(#my-svg_flowchart-v2-pointEnd)"/><path d="M221.078,295L236.074,295C251.07,295,281.063,295,312.578,281.156C344.093,267.312,377.13,239.624,393.649,225.78L410.168,211.936" id="my-svg-L_SUB_ORDER_0" class="edge-thickness-normal edge-pattern-dotted edge-thickness-normal edge-pattern-solid flowchart-link" style=";" data-edge="true" data-et="edge" data-id="L_SUB_ORDER_0" data-points="W3sieCI6MjIxLjA3ODEyNSwieSI6Mjk1fSx7IngiOjMxMS4wNTQ2ODc1LCJ5IjoyOTV9LHsieCI6NDEzLjIzNDAxMzQ1OTU4Nzg2LCJ5IjoyMDkuMzY3MDM4MTA0NzU0M31d" data-look="classic" marker-end="url(#my-svg_flowchart-v2-pointEnd)"/><path d="M449.036,172.055L466.17,149.213C483.304,126.37,517.572,80.685,554.061,57.843C590.55,35,629.261,35,648.617,35L667.972,35" id="my-svg-L_ORDER_OI_0" class="edge-thickness-normal edge-pattern-solid edge-thickness-normal edge-pattern-solid flowchart-link" style=";" data-edge="true" data-et="edge" data-id="L_ORDER_OI_0" data-points="W3sieCI6NDQ5LjAzNTkwODk1ODMzODA0LCJ5IjoxNzIuMDU1MTA3NTU0MDE4NX0seyJ4Ijo1NTEuODM5MzQwMjA5OTYwOSwieSI6MzV9LHsieCI6NjcxLjk3MjE1MjcwOTk2MDksInkiOjM1fV0=" data-look="classic" marker-end="url(#my-svg_flowchart-v2-pointEnd)"/><path d="M462.615,179.035L477.486,172.363C492.356,165.69,522.098,152.345,552.539,145.673C582.98,139,614.121,139,629.691,139L645.261,139" id="my-svg-L_ORDER_OA_0" class="edge-thickness-normal edge-pattern-solid edge-thickness-normal edge-pattern-solid flowchart-link" style=";" data-edge="true" data-et="edge" data-id="L_ORDER_OA_0" data-points="W3sieCI6NDYyLjYxNTAzNDcxMTA4MDEsInkiOjE3OS4wMzUwMjgxNTAxMTU0N30seyJ4Ijo1NTEuODM5MzQwMjA5OTYwOSwieSI6MTM5fSx7IngiOjY0OS4yNjEyMTUyMDk5NjA5LCJ5IjoxMzl9XQ==" data-look="classic" marker-end="url(#my-svg_flowchart-v2-pointEnd)"/><path d="M462.615,203.965L477.486,210.471C492.356,216.977,522.098,229.988,558.228,236.494C594.358,243,636.876,243,658.135,243L679.394,243" id="my-svg-L_ORDER_INV_0" class="edge-thickness-normal edge-pattern-solid edge-thickness-normal edge-pattern-solid flowchart-link" style=";" data-edge="true" data-et="edge" data-id="L_ORDER_INV_0" data-points="W3sieCI6NDYyLjYxNTAzNDcxMTA3NTksInkiOjIwMy45NjQ5NzE4NDk4ODI3fSx7IngiOjU1MS44MzkzNDAyMDk5NjA5LCJ5IjoyNDN9LHsieCI6NjgzLjM5NDAyNzcwOTk2MDksInkiOjI0M31d" data-look="classic" marker-end="url(#my-svg_flowchart-v2-pointEnd)"/><path d="M449.036,210.945L466.17,233.621C483.304,256.297,517.572,301.648,548.242,324.324C578.912,347,605.985,347,619.522,347L633.058,347" id="my-svg-L_ORDER_PT_0" class="edge-thickness-normal edge-pattern-solid edge-thickness-normal edge-pattern-solid flowchart-link" style=";" data-edge="true" data-et="edge" data-id="L_ORDER_PT_0" data-points="W3sieCI6NDQ5LjAzNTkwODk1ODMzNjgsInkiOjIxMC45NDQ4OTI0NDU5Nzk4Nn0seyJ4Ijo1NTEuODM5MzQwMjA5OTYwOSwieSI6MzQ3fSx7IngiOjYzNy4wNTgwOTAyMDk5NjA5LCJ5IjozNDd9XQ==" data-look="classic" marker-end="url(#my-svg_flowchart-v2-pointEnd)"/></g><g class="edgeLabels"><g class="edgeLabel" transform="translate(311.0546875, 87)"><g class="label" data-id="L_COMPANY_ORDER_0" transform="translate(-48.171875, -12)"><foreignObject width="96.34375" height="24"><div xmlns="http://www.w3.org/1999/xhtml" class="labelBkg" style="display: table-cell; white-space: nowrap; line-height: 1.5; max-width: 200px; text-align: center;"><span class="edgeLabel"><p>places (1→N)</p></span></div></foreignObject></g></g><g class="edgeLabel" transform="translate(311.0546875, 191)"><g class="label" data-id="L_CART_ORDER_0" transform="translate(-64.9765625, -12)"><foreignObject width="129.953125" height="24"><div xmlns="http://www.w3.org/1999/xhtml" class="labelBkg" style="display: table-cell; white-space: nowrap; line-height: 1.5; max-width: 200px; text-align: center;"><span class="edgeLabel"><p>converts to (1→1)</p></span></div></foreignObject></g></g><g class="edgeLabel" transform="translate(311.0546875, 295)"><g class="label" data-id="L_SUB_ORDER_0" transform="translate(-63.796875, -12)"><foreignObject width="127.59375" height="24"><div xmlns="http://www.w3.org/1999/xhtml" class="labelBkg" style="display: table-cell; white-space: nowrap; line-height: 1.5; max-width: 200px; text-align: center;"><span class="edgeLabel"><p>renews via (1→N)</p></span></div></foreignObject></g></g><g class="edgeLabel" transform="translate(551.8393402099609, 35)"><g class="label" data-id="L_ORDER_OI_0" transform="translate(-55.4765625, -12)"><foreignObject width="110.953125" height="24"><div xmlns="http://www.w3.org/1999/xhtml" class="labelBkg" style="display: table-cell; white-space: nowrap; line-height: 1.5; max-width: 200px; text-align: center;"><span class="edgeLabel"><p>contains (1→N)</p></span></div></foreignObject></g></g><g class="edgeLabel" transform="translate(551.8393402099609, 139)"><g class="label" data-id="L_ORDER_OA_0" transform="translate(-60.21875, -12)"><foreignObject width="120.4375" height="24"><div xmlns="http://www.w3.org/1999/xhtml" class="labelBkg" style="display: table-cell; white-space: nowrap; line-height: 1.5; max-width: 200px; text-align: center;"><span class="edgeLabel"><p>signed via (1→1)</p></span></div></foreignObject></g></g><g class="edgeLabel" transform="translate(551.8393402099609, 243)"><g class="label" data-id="L_ORDER_INV_0" transform="translate(-56.6796875, -12)"><foreignObject width="113.359375" height="24"><div xmlns="http://www.w3.org/1999/xhtml" class="labelBkg" style="display: table-cell; white-space: nowrap; line-height: 1.5; max-width: 200px; text-align: center;"><span class="edgeLabel"><p>billed by (1→N)</p></span></div></foreignObject></g></g><g class="edgeLabel" transform="translate(551.8393402099609, 347)"><g class="label" data-id="L_ORDER_PT_0" transform="translate(-51.796875, -12)"><foreignObject width="103.59375" height="24"><div xmlns="http://www.w3.org/1999/xhtml" class="labelBkg" style="display: table-cell; white-space: nowrap; line-height: 1.5; max-width: 200px; text-align: center;"><span class="edgeLabel"><p>paid by (1→N)</p></span></div></foreignObject></g></g></g><g class="nodes"><g class="node default ego" id="my-svg-flowchart-ORDER-0" data-look="classic" transform="translate(433.82592010498047, 191)"><g class="basic label-container outer-path"><path d="M-13.3046875 -19.5 C-6.094956105706525 -19.5, 1.1147752885869497 -19.5, 13.3046875 -19.5 C13.3046875 -19.5, 13.304687499999998 -19.5, 13.304687499999998 -19.5 C13.730707332283718 -19.48633837317596, 14.156727164567437 -19.472676746351922, 14.5540567896239 -19.45993515863156 C14.864617748017364 -19.42997571647954, 15.175178706410831 -19.40001627432752, 15.798292152847864 -19.3399052695533 C16.283612824395448 -19.261442387095506, 16.768933495943028 -19.182979504637714, 17.03228075967676 -19.140403561325776 C17.38396072107629 -19.060134905062554, 17.735640682475818 -18.97986624879933, 18.25095188623539 -18.862249829261074 C18.52852459799378 -18.77986770542008, 18.80609730975217 -18.697485581579087, 19.449297751460602 -18.50658706670804 C19.827239042878837 -18.36750117781513, 20.20518033429707 -18.228415288922218, 20.622394095147794 -18.074876768247425 C21.06712850917448 -17.87800603573547, 21.511862923201164 -17.681135303223517, 21.76542041279238 -17.568892924097174 C22.08769386164071 -17.400763072258997, 22.409967310489037 -17.23263322042082, 22.873679764076783 -16.990714730406097 C23.26160964989932 -16.755549353891418, 23.649539535721857 -16.520383977376742, 23.942618073605697 -16.342718045390892 C24.31233739985907 -16.08481784828822, 24.682056726112442 -15.826917651185548, 24.967842844578712 -15.627565626425154 C25.331257899245244 -15.33775179120935, 25.69467295391178 -15.047937955993545, 25.94514120850187 -14.848196188198123 C26.132327656219314 -14.67819840906315, 26.319514103936758 -14.508200629928176, 26.870497236767985 -14.007812326905688 C27.214435511071965 -13.652667820829354, 27.558373785375945 -13.297523314753022, 27.740108442968648 -13.10986736009568 C28.020491947372374 -12.7805129415497, 28.3008754517761 -12.451158523003722, 28.550401408126582 -12.158051136245305 C28.70739931464968 -11.947688244307873, 28.864397221172776 -11.737325352370442, 29.298046464640635 -11.156274872382312 C29.49408189659467 -10.85511180601674, 29.690117328548702 -10.553948739651167, 29.979971378604247 -10.108655082055241 C30.15162985003412 -9.803858083726402, 30.323288321463988 -9.499061085397562, 30.5933739742735 -9.019496659696287 C30.751187600040332 -8.691793289120806, 30.90900122580716 -8.364089918545325, 31.13573364880834 -7.893275190886684 C31.235390064601447 -7.647121917151989, 31.335046480394553 -7.400968643417294, 31.604821729970325 -6.734618561215508 C31.72304663992726 -6.3785439690065635, 31.841271549884194 -6.02246937679762, 31.99871063421488 -5.548287939305138 C32.07731391196906 -5.248539574352391, 32.15591718972323 -4.948791209399644, 32.31578178754556 -4.339158212148133 C32.377466545521315 -4.02242001702084, 32.43915130349707 -3.7056818218935463, 32.554732276581774 -3.1121979531509023 C32.61060904325988 -2.678828784911147, 32.66648580993799 -2.245459616671391, 32.71458020250937 -1.872449005199798 C32.744887950096576 -1.4003813725554939, 32.775195697683785 -0.9283137399111896, 32.79466871591342 -0.6250057626472757 C32.79466871591342 -0.29811330449445256, 32.79466871591342 0.028779153658370582, 32.79466871591342 0.625005762647271 C32.774491163004605 0.9392874362295689, 32.75431361009579 1.2535691098118666, 32.71458020250937 1.8724490051997846 C32.66438965564358 2.2617169754463022, 32.6141991087778 2.65098494569282, 32.554732276581774 3.1121979531508885 C32.47660056195179 3.513387794632125, 32.39846884732181 3.9145776361133615, 32.31578178754556 4.339158212148129 C32.199063728894494 4.784254755711255, 32.08234567024343 5.229351299274382, 31.998710634214884 5.548287939305125 C31.849867934597203 5.996578435689934, 31.701025234979525 6.444868932074744, 31.60482172997033 6.734618561215495 C31.472683795066892 7.061001815140161, 31.340545860163456 7.387385069064827, 31.135733648808344 7.893275190886679 C30.999056814924707 8.177087560861812, 30.862379981041073 8.460899930836945, 30.593373974273504 9.019496659696284 C30.416834018212352 9.33296122829188, 30.240294062151204 9.646425796887478, 29.97997137860425 10.108655082055236 C29.84136204727606 10.321596236792342, 29.70275271594787 10.53453739152945, 29.29804646464064 11.156274872382301 C29.05060083891016 11.487829468100896, 28.803155213179675 11.819384063819491, 28.550401408126582 12.158051136245302 C28.37269936310775 12.366790069857231, 28.194997318088916 12.57552900346916, 27.74010844296866 13.10986736009567 C27.468098729028547 13.390739722151675, 27.19608901508844 13.67161208420768, 26.87049723676799 14.007812326905684 C26.53099015187246 14.316143678542584, 26.19148306697693 14.624475030179486, 25.945141208501887 14.848196188198111 C25.67611864874885 15.062734520610183, 25.407096088995814 15.277272853022257, 24.967842844578715 15.627565626425152 C24.725691625411702 15.796479834358733, 24.48354040624469 15.965394042292314, 23.942618073605708 16.34271804539089 C23.690432323789118 16.495594528937673, 23.438246573972528 16.648471012484453, 22.873679764076787 16.990714730406093 C22.643092591315998 17.111011910737265, 22.41250541855521 17.231309091068432, 21.765420412792388 17.56889292409717 C21.471098007749887 17.699180722045543, 21.176775602707384 17.82946851999392, 20.622394095147804 18.07487676824742 C20.156763196328342 18.246233243257826, 19.691132297508876 18.417589718268236, 19.449297751460616 18.506587066708033 C19.033538231522733 18.629982309859344, 18.617778711584855 18.753377553010655, 18.250951886235413 18.86224982926107 C17.935605999870063 18.93422546999974, 17.620260113504713 19.00620111073841, 17.032280759676766 19.140403561325773 C16.754814746865605 19.185262114496016, 16.47734873405445 19.230120667666256, 15.798292152847878 19.3399052695533 C15.431005347353715 19.37533698595231, 15.063718541859553 19.410768702351323, 14.5540567896239 19.45993515863156 C14.146711926490068 19.472997915543584, 13.739367063356235 19.486060672455608, 13.304687500000004 19.5 C13.304687500000004 19.5, 13.304687500000002 19.5, 13.3046875 19.5 C4.853865076423096 19.5, -3.5969573471538077 19.5, -13.304687499999996 19.5 C-13.631589450323204 19.48951689072918, -13.95849140064641 19.479033781458362, -14.554056789623893 19.45993515863156 C-14.977112087870584 19.419123522808135, -15.400167386117277 19.378311886984715, -15.798292152847871 19.3399052695533 C-16.208108480971674 19.273649343795334, -16.617924809095477 19.207393418037366, -17.03228075967676 19.140403561325773 C-17.51508988227676 19.030205529716287, -17.997899004876764 18.920007498106806, -18.250951886235388 18.862249829261074 C-18.67834582785746 18.735401550824225, -19.105739769479534 18.608553272387372, -19.44929775146059 18.506587066708043 C-19.712138961971057 18.40985907156268, -19.974980172481523 18.31313107641731, -20.622394095147797 18.074876768247425 C-20.921113939637486 17.94264235430119, -21.21983378412717 17.81040794035495, -21.76542041279238 17.568892924097174 C-22.00526369357813 17.443766838138203, -22.245106974363882 17.318640752179228, -22.87367976407678 16.990714730406097 C-23.095026721193953 16.85653290422256, -23.316373678311127 16.722351078039026, -23.942618073605686 16.3427180453909 C-24.337156087381622 16.067505406256153, -24.731694101157558 15.79229276712141, -24.967842844578712 15.627565626425156 C-25.233282496058997 15.415884568015409, -25.49872214753928 15.204203509605662, -25.94514120850187 14.848196188198125 C-26.29632326099772 14.529261939889329, -26.64750531349357 14.210327691580533, -26.870497236767974 14.007812326905697 C-27.180321018492933 13.687893835269136, -27.49014480021789 13.367975343632574, -27.740108442968655 13.109867360095677 C-27.935566452869008 12.880271259790891, -28.131024462769357 12.650675159486106, -28.55040140812658 12.158051136245307 C-28.716014869236115 11.93614418605522, -28.88162833034565 11.714237235865134, -29.298046464640635 11.156274872382316 C-29.543044944330777 10.779891416274811, -29.788043424020916 10.403507960167307, -29.979971378604244 10.108655082055249 C-30.172470882384534 9.766852720404868, -30.364970386164828 9.425050358754488, -30.5933739742735 9.019496659696289 C-30.79534302761314 8.600103598991067, -30.99731208095278 8.180710538285847, -31.13573364880834 7.893275190886686 C-31.23451336863279 7.649287373144335, -31.33329308845724 7.405299555401984, -31.604821729970325 6.73461856121551 C-31.73188464987709 6.351925291183329, -31.858947569783858 5.9692320211511465, -31.99871063421488 5.5482879393051325 C-32.123706111829925 5.071626009776286, -32.24870158944497 4.59496408024744, -32.31578178754556 4.339158212148136 C-32.40313932557002 3.890595717414731, -32.49049686359448 3.442033222681326, -32.554732276581774 3.112197953150904 C-32.611757240884245 2.6699235908738497, -32.668782205186716 2.2276492285967953, -32.71458020250937 1.872449005199809 C-32.73142615419205 1.6100597099345606, -32.74827210587473 1.3476704146693121, -32.79466871591342 0.6250057626472781 C-32.79466871591342 0.3349138717731422, -32.79466871591342 0.04482198089900624, -32.79466871591342 -0.6250057626472687 C-32.772204032705346 -0.9749113367788329, -32.74973934949728 -1.324816910910397, -32.71458020250937 -1.8724490051997822 C-32.66046009128852 -2.2921939006039027, -32.60633998006767 -2.711938796008023, -32.554732276581774 -3.112197953150895 C-32.48581340105276 -3.4660818129828885, -32.416894525523745 -3.819965672814882, -32.31578178754556 -4.339158212148126 C-32.19208792025605 -4.810856537384234, -32.06839405296654 -5.282554862620343, -31.998710634214884 -5.548287939305123 C-31.90810031083022 -5.82119179654525, -31.81748998744556 -6.094095653785377, -31.604821729970332 -6.734618561215485 C-31.47195538202486 -7.062801009436889, -31.339089034079386 -7.390983457658292, -31.135733648808344 -7.893275190886676 C-30.984236387120482 -8.207862496303639, -30.83273912543262 -8.522449801720601, -30.593373974273504 -9.019496659696282 C-30.40465182270805 -9.35459194999083, -30.215929671142597 -9.689687240285378, -29.979971378604247 -10.108655082055243 C-29.740128299865233 -10.477118457882824, -29.500285221126223 -10.845581833710405, -29.29804646464064 -11.156274872382308 C-29.00707176682352 -11.546154459116956, -28.716097069006395 -11.936034045851601, -28.550401408126586 -12.158051136245302 C-28.388073257447363 -12.348731018766554, -28.22574510676814 -12.539410901287807, -27.740108442968662 -13.10986736009567 C-27.505694220592375 -13.351919290464767, -27.271279998216084 -13.593971220833865, -26.870497236767996 -14.007812326905677 C-26.54889751079996 -14.29988068896738, -26.227297784831926 -14.591949051029083, -25.945141208501887 -14.848196188198107 C-25.700436136825065 -15.043341970984935, -25.455731065148242 -15.238487753771762, -24.96784284457872 -15.627565626425149 C-24.686691634223124 -15.823684539929475, -24.405540423867528 -16.019803453433802, -23.94261807360571 -16.342718045390885 C-23.539289884565534 -16.58721796380657, -23.135961695525353 -16.831717882222257, -22.87367976407679 -16.99071473040609 C-22.50892255661829 -17.181008331899047, -22.14416534915979 -17.371301933392008, -21.765420412792388 -17.56889292409717 C-21.51805489529952 -17.6783943008539, -21.270689377806654 -17.78789567761063, -20.622394095147804 -18.07487676824742 C-20.37742097057467 -18.165029142597074, -20.132447846001533 -18.255181516946728, -19.44929775146062 -18.506587066708033 C-19.11272327823439 -18.606480603646116, -18.776148805008162 -18.7063741405842, -18.250951886235413 -18.862249829261067 C-17.96095607180032 -18.928439481506334, -17.67096025736523 -18.9946291337516, -17.032280759676766 -19.140403561325773 C-16.74630718834424 -19.18663755058065, -16.460333617011717 -19.23287153983552, -15.79829215284788 -19.3399052695533 C-15.323217799435893 -19.38573512106645, -14.848143446023904 -19.4315649725796, -14.554056789623903 -19.45993515863156 C-14.141637307227944 -19.473160648706173, -13.729217824831984 -19.486386138780787, -13.304687500000005 -19.5 C-13.304687500000004 -19.5, -13.304687500000002 -19.5, -13.3046875 -19.5" stroke="none" stroke-width="0" fill="#ffe0b2" style="fill:#ffe0b2 !important;stroke:#e65100 !important;stroke-width:3px !important"/><path d="M-13.3046875 -19.5 C-3.8697532509308417 -19.5, 5.565180998138317 -19.5, 13.3046875 -19.5 M-13.3046875 -19.5 C-4.6509686871159115 -19.5, 4.002750125768177 -19.5, 13.3046875 -19.5 M13.3046875 -19.5 C13.3046875 -19.5, 13.304687499999998 -19.5, 13.304687499999998 -19.5 M13.3046875 -19.5 C13.3046875 -19.5, 13.304687499999998 -19.5, 13.304687499999998 -19.5 M13.304687499999998 -19.5 C13.791990798804902 -19.484373131685658, 14.279294097609803 -19.468746263371315, 14.5540567896239 -19.45993515863156 M13.304687499999998 -19.5 C13.62662869883708 -19.489675972373824, 13.948569897674165 -19.47935194474765, 14.5540567896239 -19.45993515863156 M14.5540567896239 -19.45993515863156 C14.94101559016434 -19.422605708529467, 15.327974390704783 -19.38527625842738, 15.798292152847864 -19.3399052695533 M14.5540567896239 -19.45993515863156 C14.82802626621512 -19.433505652721305, 15.101995742806343 -19.407076146811054, 15.798292152847864 -19.3399052695533 M15.798292152847864 -19.3399052695533 C16.08120810481391 -19.294165612485404, 16.364124056779954 -19.24842595541751, 17.03228075967676 -19.140403561325776 M15.798292152847864 -19.3399052695533 C16.116397769015276 -19.28847642047725, 16.43450338518269 -19.2370475714012, 17.03228075967676 -19.140403561325776 M17.03228075967676 -19.140403561325776 C17.432045831008075 -19.04915979250529, 17.83181090233939 -18.957916023684803, 18.25095188623539 -18.862249829261074 M17.03228075967676 -19.140403561325776 C17.312394131533395 -19.076469512110076, 17.59250750339003 -19.012535462894377, 18.25095188623539 -18.862249829261074 M18.25095188623539 -18.862249829261074 C18.64067340649193 -18.746582527738937, 19.030394926748468 -18.630915226216803, 19.449297751460602 -18.50658706670804 M18.25095188623539 -18.862249829261074 C18.494271614528063 -18.790033811115126, 18.737591342820732 -18.71781779296918, 19.449297751460602 -18.50658706670804 M19.449297751460602 -18.50658706670804 C19.8690111133222 -18.352128669755185, 20.2887244751838 -18.19767027280233, 20.622394095147794 -18.074876768247425 M19.449297751460602 -18.50658706670804 C19.831286110646104 -18.366011819466088, 20.21327446983161 -18.22543657222414, 20.622394095147794 -18.074876768247425 M20.622394095147794 -18.074876768247425 C21.051598836065974 -17.88488056134922, 21.480803576984158 -17.694884354451016, 21.76542041279238 -17.568892924097174 M20.622394095147794 -18.074876768247425 C21.073928119685714 -17.874996049865427, 21.52546214422364 -17.675115331483426, 21.76542041279238 -17.568892924097174 M21.76542041279238 -17.568892924097174 C22.20709583112762 -17.338471141258285, 22.648771249462865 -17.1080493584194, 22.873679764076783 -16.990714730406097 M21.76542041279238 -17.568892924097174 C22.06770106897226 -17.411193299388135, 22.369981725152133 -17.253493674679092, 22.873679764076783 -16.990714730406097 M22.873679764076783 -16.990714730406097 C23.12162791482243 -16.840407104319016, 23.369576065568072 -16.690099478231936, 23.942618073605697 -16.342718045390892 M22.873679764076783 -16.990714730406097 C23.201694436056187 -16.791870308624006, 23.52970910803559 -16.593025886841914, 23.942618073605697 -16.342718045390892 M23.942618073605697 -16.342718045390892 C24.2558011755496 -16.124255070952803, 24.568984277493502 -15.905792096514713, 24.967842844578712 -15.627565626425154 M23.942618073605697 -16.342718045390892 C24.31309245928556 -16.084291151518297, 24.683566844965423 -15.8258642576457, 24.967842844578712 -15.627565626425154 M24.967842844578712 -15.627565626425154 C25.18305455471713 -15.455940014613892, 25.39826626485555 -15.284314402802629, 25.94514120850187 -14.848196188198123 M24.967842844578712 -15.627565626425154 C25.29911335760015 -15.363386207769135, 25.63038387062159 -15.099206789113115, 25.94514120850187 -14.848196188198123 M25.94514120850187 -14.848196188198123 C26.19084927914983 -14.625050619514946, 26.436557349797795 -14.401905050831767, 26.870497236767985 -14.007812326905688 M25.94514120850187 -14.848196188198123 C26.21379018722272 -14.604216293786315, 26.482439165943568 -14.360236399374507, 26.870497236767985 -14.007812326905688 M26.870497236767985 -14.007812326905688 C27.215986352845565 -13.651066449371633, 27.56147546892315 -13.29432057183758, 27.740108442968648 -13.10986736009568 M26.870497236767985 -14.007812326905688 C27.173329499560353 -13.695113152581403, 27.476161762352724 -13.382413978257116, 27.740108442968648 -13.10986736009568 M27.740108442968648 -13.10986736009568 C28.01701318746388 -12.784599290885263, 28.293917931959115 -12.459331221674846, 28.550401408126582 -12.158051136245305 M27.740108442968648 -13.10986736009568 C27.97957857476629 -12.828572117049658, 28.21904870656393 -12.547276874003636, 28.550401408126582 -12.158051136245305 M28.550401408126582 -12.158051136245305 C28.712997942073937 -11.94018659360482, 28.875594476021295 -11.722322050964333, 29.298046464640635 -11.156274872382312 M28.550401408126582 -12.158051136245305 C28.70380046327351 -11.952510377289839, 28.857199518420433 -11.746969618334374, 29.298046464640635 -11.156274872382312 M29.298046464640635 -11.156274872382312 C29.55653146712732 -10.759172495620868, 29.815016469614008 -10.362070118859423, 29.979971378604247 -10.108655082055241 M29.298046464640635 -11.156274872382312 C29.45648198412461 -10.912875368560954, 29.61491750360859 -10.669475864739596, 29.979971378604247 -10.108655082055241 M29.979971378604247 -10.108655082055241 C30.103107955147067 -9.890013621473008, 30.226244531689883 -9.671372160890776, 30.5933739742735 -9.019496659696287 M29.979971378604247 -10.108655082055241 C30.20216115433016 -9.714134636099368, 30.42435093005607 -9.319614190143495, 30.5933739742735 -9.019496659696287 M30.5933739742735 -9.019496659696287 C30.73297930281951 -8.729603207894995, 30.872584631365513 -8.439709756093702, 31.13573364880834 -7.893275190886684 M30.5933739742735 -9.019496659696287 C30.794883629865353 -8.601057548243881, 30.996393285457206 -8.182618436791476, 31.13573364880834 -7.893275190886684 M31.13573364880834 -7.893275190886684 C31.250598822914004 -7.609555990078631, 31.365463997019667 -7.325836789270578, 31.604821729970325 -6.734618561215508 M31.13573364880834 -7.893275190886684 C31.235658139839526 -7.646459766131053, 31.335582630870707 -7.399644341375422, 31.604821729970325 -6.734618561215508 M31.604821729970325 -6.734618561215508 C31.700153518296982 -6.447494403833368, 31.795485306623643 -6.160370246451229, 31.99871063421488 -5.548287939305138 M31.604821729970325 -6.734618561215508 C31.76225035895931 -6.260468613546393, 31.9196789879483 -5.786318665877277, 31.99871063421488 -5.548287939305138 M31.99871063421488 -5.548287939305138 C32.0814044459454 -5.232940595451953, 32.16409825767592 -4.917593251598769, 32.31578178754556 -4.339158212148133 M31.99871063421488 -5.548287939305138 C32.11786358022139 -5.09390611496885, 32.237016526227904 -4.639524290632562, 32.31578178754556 -4.339158212148133 M32.31578178754556 -4.339158212148133 C32.38413371565814 -3.988185507475184, 32.45248564377071 -3.6372128028022352, 32.554732276581774 -3.1121979531509023 M32.31578178754556 -4.339158212148133 C32.37883650010982 -4.015385589748886, 32.44189121267407 -3.6916129673496405, 32.554732276581774 -3.1121979531509023 M32.554732276581774 -3.1121979531509023 C32.59482523778265 -2.8012448633275784, 32.634918198983534 -2.4902917735042545, 32.71458020250937 -1.872449005199798 M32.554732276581774 -3.1121979531509023 C32.58985448562814 -2.839797035451981, 32.624976694674494 -2.567396117753059, 32.71458020250937 -1.872449005199798 M32.71458020250937 -1.872449005199798 C32.7417158810258 -1.4497889087809697, 32.76885155954223 -1.0271288123621414, 32.79466871591342 -0.6250057626472757 M32.71458020250937 -1.872449005199798 C32.74292616360299 -1.4309377807187063, 32.77127212469661 -0.9894265562376148, 32.79466871591342 -0.6250057626472757 M32.79466871591342 -0.6250057626472757 C32.79466871591342 -0.37143406350747316, 32.79466871591342 -0.11786236436767061, 32.79466871591342 0.625005762647271 M32.79466871591342 -0.6250057626472757 C32.79466871591342 -0.3120957658916834, 32.79466871591342 0.0008142308639088602, 32.79466871591342 0.625005762647271 M32.79466871591342 0.625005762647271 C32.76927646064974 1.0205106346385153, 32.743884205386074 1.4160155066297597, 32.71458020250937 1.8724490051997846 M32.79466871591342 0.625005762647271 C32.76822119901118 1.036947186450964, 32.74177368210895 1.4488886102546572, 32.71458020250937 1.8724490051997846 M32.71458020250937 1.8724490051997846 C32.67292666846815 2.1955055898027918, 32.631273134426934 2.518562174405799, 32.554732276581774 3.1121979531508885 M32.71458020250937 1.8724490051997846 C32.677409137711855 2.160740443512311, 32.64023807291434 2.449031881824837, 32.554732276581774 3.1121979531508885 M32.554732276581774 3.1121979531508885 C32.49444281203881 3.421771611396172, 32.434153347495844 3.7313452696414555, 32.31578178754556 4.339158212148129 M32.554732276581774 3.1121979531508885 C32.48330376903403 3.478968242988132, 32.411875261486294 3.8457385328253757, 32.31578178754556 4.339158212148129 M32.31578178754556 4.339158212148129 C32.19121636105185 4.814180170366005, 32.06665093455813 5.289202128583882, 31.998710634214884 5.548287939305125 M32.31578178754556 4.339158212148129 C32.19111257842239 4.814575938511799, 32.06644336929922 5.28999366487547, 31.998710634214884 5.548287939305125 M31.998710634214884 5.548287939305125 C31.851347594800313 5.992121934910005, 31.703984555385745 6.4359559305148855, 31.60482172997033 6.734618561215495 M31.998710634214884 5.548287939305125 C31.893618986608356 5.864807237815836, 31.788527339001824 6.181326536326547, 31.60482172997033 6.734618561215495 M31.60482172997033 6.734618561215495 C31.499939761535174 6.993679051005242, 31.39505779310002 7.252739540794989, 31.135733648808344 7.893275190886679 M31.60482172997033 6.734618561215495 C31.42486262641564 7.1791210262681595, 31.244903522860945 7.623623491320825, 31.135733648808344 7.893275190886679 M31.135733648808344 7.893275190886679 C30.959257730272494 8.259731211706129, 30.782781811736644 8.626187232525579, 30.593373974273504 9.019496659696284 M31.135733648808344 7.893275190886679 C31.025624101137208 8.121920022592693, 30.915514553466075 8.350564854298707, 30.593373974273504 9.019496659696284 M30.593373974273504 9.019496659696284 C30.416799411649883 9.33302267574784, 30.240224849026262 9.646548691799397, 29.97997137860425 10.108655082055236 M30.593373974273504 9.019496659696284 C30.44314369707879 9.286245729320648, 30.292913419884076 9.552994798945011, 29.97997137860425 10.108655082055236 M29.97997137860425 10.108655082055236 C29.79049756299645 10.399737743672299, 29.60102374738865 10.690820405289363, 29.29804646464064 11.156274872382301 M29.97997137860425 10.108655082055236 C29.746052295362425 10.468017609983606, 29.512133212120602 10.827380137911979, 29.29804646464064 11.156274872382301 M29.29804646464064 11.156274872382301 C29.009828650840895 11.542460485690963, 28.72161083704115 11.928646098999625, 28.550401408126582 12.158051136245302 M29.29804646464064 11.156274872382301 C29.148182432252092 11.357079022888744, 28.99831839986354 11.557883173395185, 28.550401408126582 12.158051136245302 M28.550401408126582 12.158051136245302 C28.2822044248257 12.473090573671186, 28.01400744152482 12.788130011097072, 27.74010844296866 13.10986736009567 M28.550401408126582 12.158051136245302 C28.279169197605185 12.476655924273729, 28.007936987083784 12.795260712302154, 27.74010844296866 13.10986736009567 M27.74010844296866 13.10986736009567 C27.529713633090818 13.327117275029678, 27.319318823212978 13.544367189963689, 26.87049723676799 14.007812326905684 M27.74010844296866 13.10986736009567 C27.487340870624493 13.370870631144657, 27.234573298280324 13.631873902193645, 26.87049723676799 14.007812326905684 M26.87049723676799 14.007812326905684 C26.55215084782011 14.296926094364261, 26.233804458872232 14.58603986182284, 25.945141208501887 14.848196188198111 M26.87049723676799 14.007812326905684 C26.64681792214526 14.21095196221569, 26.42313860752253 14.414091597525697, 25.945141208501887 14.848196188198111 M25.945141208501887 14.848196188198111 C25.690472018727625 15.051288090011328, 25.435802828953364 15.254379991824546, 24.967842844578715 15.627565626425152 M25.945141208501887 14.848196188198111 C25.56791543892567 15.149023701035832, 25.19068966934945 15.44985121387355, 24.967842844578715 15.627565626425152 M24.967842844578715 15.627565626425152 C24.7428548529402 15.784507509818996, 24.517866861301687 15.941449393212839, 23.942618073605708 16.34271804539089 M24.967842844578715 15.627565626425152 C24.627775944707853 15.864781574516236, 24.287709044836987 16.10199752260732, 23.942618073605708 16.34271804539089 M23.942618073605708 16.34271804539089 C23.642697217489484 16.524531830899132, 23.342776361373257 16.706345616407376, 22.873679764076787 16.990714730406093 M23.942618073605708 16.34271804539089 C23.72877882475751 16.47234865470158, 23.51493957590931 16.60197926401227, 22.873679764076787 16.990714730406093 M22.873679764076787 16.990714730406093 C22.552901460177633 17.158064566081972, 22.232123156278476 17.32541440175785, 21.765420412792388 17.56889292409717 M22.873679764076787 16.990714730406093 C22.47689308660528 17.197718085888983, 22.08010640913377 17.404721441371873, 21.765420412792388 17.56889292409717 M21.765420412792388 17.56889292409717 C21.37440377139462 17.741984392147412, 20.98338712999685 17.915075860197653, 20.622394095147804 18.07487676824742 M21.765420412792388 17.56889292409717 C21.385408843404228 17.73711277322262, 21.00539727401607 17.90533262234807, 20.622394095147804 18.07487676824742 M20.622394095147804 18.07487676824742 C20.28609919905105 18.19863639868697, 19.949804302954302 18.322396029126512, 19.449297751460616 18.506587066708033 M20.622394095147804 18.07487676824742 C20.223785538811978 18.22156840167611, 19.82517698247615 18.368260035104793, 19.449297751460616 18.506587066708033 M19.449297751460616 18.506587066708033 C19.019289444773605 18.634211274973076, 18.589281138086594 18.761835483238123, 18.250951886235413 18.86224982926107 M19.449297751460616 18.506587066708033 C19.089012301851366 18.613517896975143, 18.72872685224212 18.720448727242253, 18.250951886235413 18.86224982926107 M18.250951886235413 18.86224982926107 C17.837024111386153 18.95672614273925, 17.423096336536894 19.05120245621743, 17.032280759676766 19.140403561325773 M18.250951886235413 18.86224982926107 C17.80903302461837 18.963114925635082, 17.36711416300133 19.063980022009098, 17.032280759676766 19.140403561325773 M17.032280759676766 19.140403561325773 C16.658952085231302 19.200760446203006, 16.28562341078584 19.26111733108024, 15.798292152847878 19.3399052695533 M17.032280759676766 19.140403561325773 C16.77156500498694 19.18255406266315, 16.510849250297113 19.224704564000525, 15.798292152847878 19.3399052695533 M15.798292152847878 19.3399052695533 C15.480041193828049 19.370606556817165, 15.161790234808219 19.401307844081032, 14.5540567896239 19.45993515863156 M15.798292152847878 19.3399052695533 C15.430669767608547 19.375369358926733, 15.063047382369218 19.410833448300167, 14.5540567896239 19.45993515863156 M14.5540567896239 19.45993515863156 C14.239650440063413 19.47001755830713, 13.925244090502924 19.4800999579827, 13.304687500000004 19.5 M14.5540567896239 19.45993515863156 C14.1099071340224 19.47417817360184, 13.6657574784209 19.48842118857212, 13.304687500000004 19.5 M13.304687500000004 19.5 C13.304687500000002 19.5, 13.304687500000002 19.5, 13.3046875 19.5 M13.304687500000004 19.5 C13.304687500000002 19.5, 13.304687500000002 19.5, 13.3046875 19.5 M13.3046875 19.5 C6.603688985184647 19.5, -0.09730952963070649 19.5, -13.304687499999996 19.5 M13.3046875 19.5 C3.356053822338163 19.5, -6.592579855323674 19.5, -13.304687499999996 19.5 M-13.304687499999996 19.5 C-13.703010266336921 19.487226564171806, -14.101333032673846 19.47445312834361, -14.554056789623893 19.45993515863156 M-13.304687499999996 19.5 C-13.79072260672033 19.484413800137425, -14.276757713440661 19.468827600274846, -14.554056789623893 19.45993515863156 M-14.554056789623893 19.45993515863156 C-15.002206534143005 19.416702691756722, -15.450356278662115 19.37347022488189, -15.798292152847871 19.3399052695533 M-14.554056789623893 19.45993515863156 C-14.976593749171666 19.419173526319028, -15.399130708719442 19.378411894006497, -15.798292152847871 19.3399052695533 M-15.798292152847871 19.3399052695533 C-16.203731024392518 19.274357057027366, -16.609169895937168 19.208808844501437, -17.03228075967676 19.140403561325773 M-15.798292152847871 19.3399052695533 C-16.247760739080164 19.267238674212205, -16.697229325312456 19.194572078871115, -17.03228075967676 19.140403561325773 M-17.03228075967676 19.140403561325773 C-17.341097453789054 19.0699181661119, -17.649914147901352 18.999432770898032, -18.250951886235388 18.862249829261074 M-17.03228075967676 19.140403561325773 C-17.502434282471416 19.033094087786353, -17.972587805266073 18.925784614246933, -18.250951886235388 18.862249829261074 M-18.250951886235388 18.862249829261074 C-18.692061203817502 18.731330899232763, -19.133170521399613 18.600411969204448, -19.44929775146059 18.506587066708043 M-18.250951886235388 18.862249829261074 C-18.529578680784258 18.77955485918086, -18.808205475333125 18.696859889100647, -19.44929775146059 18.506587066708043 M-19.44929775146059 18.506587066708043 C-19.74562149467791 18.397537190017417, -20.041945237895227 18.288487313326787, -20.622394095147797 18.074876768247425 M-19.44929775146059 18.506587066708043 C-19.68544018890789 18.419684466850676, -19.921582626355185 18.332781866993308, -20.622394095147797 18.074876768247425 M-20.622394095147797 18.074876768247425 C-20.88273304237228 17.959632438991626, -21.143071989596766 17.84438810973583, -21.76542041279238 17.568892924097174 M-20.622394095147797 18.074876768247425 C-20.886490226539163 17.957969245013857, -21.150586357930532 17.84106172178029, -21.76542041279238 17.568892924097174 M-21.76542041279238 17.568892924097174 C-22.15498714611532 17.365656208852, -22.544553879438258 17.162419493606823, -22.87367976407678 16.990714730406097 M-21.76542041279238 17.568892924097174 C-22.132831472384584 17.37721480964594, -22.500242531976788 17.1855366951947, -22.87367976407678 16.990714730406097 M-22.87367976407678 16.990714730406097 C-23.300237517952173 16.73213291327523, -23.726795271827566 16.47355109614436, -23.942618073605686 16.3427180453909 M-22.87367976407678 16.990714730406097 C-23.2037043456106 16.79065188964058, -23.533728927144423 16.59058904887506, -23.942618073605686 16.3427180453909 M-23.942618073605686 16.3427180453909 C-24.32451222724077 16.07632521574653, -24.706406380875855 15.80993238610216, -24.967842844578712 15.627565626425156 M-23.942618073605686 16.3427180453909 C-24.276673488477464 16.10969544900219, -24.61072890334924 15.876672852613478, -24.967842844578712 15.627565626425156 M-24.967842844578712 15.627565626425156 C-25.184984338715736 15.454401063228715, -25.402125832852757 15.281236500032275, -25.94514120850187 14.848196188198125 M-24.967842844578712 15.627565626425156 C-25.218243989639827 15.427877376693234, -25.468645134700946 15.22818912696131, -25.94514120850187 14.848196188198125 M-25.94514120850187 14.848196188198125 C-26.230577736992466 14.58897028525966, -26.51601426548306 14.329744382321193, -26.870497236767974 14.007812326905697 M-25.94514120850187 14.848196188198125 C-26.204639436405 14.61252676356337, -26.46413766430813 14.376857338928614, -26.870497236767974 14.007812326905697 M-26.870497236767974 14.007812326905697 C-27.09785364639639 13.773048167655983, -27.325210056024805 13.538284008406269, -27.740108442968655 13.109867360095677 M-26.870497236767974 14.007812326905697 C-27.215904436268303 13.651151034963133, -27.561311635768632 13.29448974302057, -27.740108442968655 13.109867360095677 M-27.740108442968655 13.109867360095677 C-27.95803779844111 12.853875138626112, -28.175967153913568 12.597882917156547, -28.55040140812658 12.158051136245307 M-27.740108442968655 13.109867360095677 C-27.935982185030998 12.879782917137586, -28.13185592709334 12.649698474179496, -28.55040140812658 12.158051136245307 M-28.55040140812658 12.158051136245307 C-28.732471949556558 11.914093197696687, -28.914542490986534 11.670135259148067, -29.298046464640635 11.156274872382316 M-28.55040140812658 12.158051136245307 C-28.77700607358037 11.854421528646936, -29.003610739034166 11.550791921048567, -29.298046464640635 11.156274872382316 M-29.298046464640635 11.156274872382316 C-29.52955997479846 10.800607950697787, -29.761073484956285 10.444941029013258, -29.979971378604244 10.108655082055249 M-29.298046464640635 11.156274872382316 C-29.528915471013004 10.801598081585746, -29.759784477385374 10.446921290789177, -29.979971378604244 10.108655082055249 M-29.979971378604244 10.108655082055249 C-30.145233102522365 9.815216156674445, -30.310494826440486 9.52177723129364, -30.5933739742735 9.019496659696289 M-29.979971378604244 10.108655082055249 C-30.192257680954295 9.731719255913635, -30.40454398330435 9.354783429772024, -30.5933739742735 9.019496659696289 M-30.5933739742735 9.019496659696289 C-30.730607883495576 8.734527510861382, -30.867841792717655 8.449558362026472, -31.13573364880834 7.893275190886686 M-30.5933739742735 9.019496659696289 C-30.747909218254193 8.698600919045855, -30.902444462234886 8.377705178395422, -31.13573364880834 7.893275190886686 M-31.13573364880834 7.893275190886686 C-31.313226268775153 7.454864987982298, -31.490718888741966 7.0164547850779115, -31.604821729970325 6.73461856121551 M-31.13573364880834 7.893275190886686 C-31.280234820337256 7.536354503470167, -31.424735991866175 7.179433816053648, -31.604821729970325 6.73461856121551 M-31.604821729970325 6.73461856121551 C-31.710650062670325 6.415880484578088, -31.81647839537033 6.097142407940666, -31.99871063421488 5.5482879393051325 M-31.604821729970325 6.73461856121551 C-31.738899195597966 6.330798597088135, -31.872976661225607 5.926978632960759, -31.99871063421488 5.5482879393051325 M-31.99871063421488 5.5482879393051325 C-32.10709840747755 5.134958384296501, -32.215486180740214 4.721628829287869, -32.31578178754556 4.339158212148136 M-31.99871063421488 5.5482879393051325 C-32.11171583089415 5.117350147605029, -32.22472102757342 4.686412355904925, -32.31578178754556 4.339158212148136 M-32.31578178754556 4.339158212148136 C-32.38251317885913 3.9965066214375082, -32.449244570172695 3.6538550307268807, -32.554732276581774 3.112197953150904 M-32.31578178754556 4.339158212148136 C-32.40758360854966 3.867775263613829, -32.499385429553755 3.396392315079522, -32.554732276581774 3.112197953150904 M-32.554732276581774 3.112197953150904 C-32.59740544706338 2.7812332696662168, -32.64007861754499 2.45026858618153, -32.71458020250937 1.872449005199809 M-32.554732276581774 3.112197953150904 C-32.5975349499782 2.7802288706321514, -32.64033762337462 2.4482597881133987, -32.71458020250937 1.872449005199809 M-32.71458020250937 1.872449005199809 C-32.731704243953544 1.6057282374293245, -32.748828285397714 1.3390074696588399, -32.79466871591342 0.6250057626472781 M-32.71458020250937 1.872449005199809 C-32.73927447741815 1.4878157406355812, -32.76396875232693 1.1031824760713533, -32.79466871591342 0.6250057626472781 M-32.79466871591342 0.6250057626472781 C-32.79466871591342 0.18217708930452148, -32.79466871591342 -0.2606515840382352, -32.79466871591342 -0.6250057626472687 M-32.79466871591342 0.6250057626472781 C-32.79466871591342 0.1830706188140921, -32.79466871591342 -0.25886452501909396, -32.79466871591342 -0.6250057626472687 M-32.79466871591342 -0.6250057626472687 C-32.76889246818228 -1.0264916272723872, -32.74311622045114 -1.4279774918975057, -32.71458020250937 -1.8724490051997822 M-32.79466871591342 -0.6250057626472687 C-32.77758600878648 -0.8910827150623102, -32.76050330165955 -1.1571596674773517, -32.71458020250937 -1.8724490051997822 M-32.71458020250937 -1.8724490051997822 C-32.67652806757706 -2.167573849490775, -32.63847593264476 -2.462698693781768, -32.554732276581774 -3.112197953150895 M-32.71458020250937 -1.8724490051997822 C-32.67254534879953 -2.198463029852526, -32.630510495089695 -2.52447705450527, -32.554732276581774 -3.112197953150895 M-32.554732276581774 -3.112197953150895 C-32.49590700944539 -3.4142532671716115, -32.43708174230901 -3.7163085811923278, -32.31578178754556 -4.339158212148126 M-32.554732276581774 -3.112197953150895 C-32.49472575792079 -3.420318744092824, -32.43471923925981 -3.7284395350347532, -32.31578178754556 -4.339158212148126 M-32.31578178754556 -4.339158212148126 C-32.235391573967114 -4.645720937861718, -32.15500136038866 -4.95228366357531, -31.998710634214884 -5.548287939305123 M-32.31578178754556 -4.339158212148126 C-32.19250098044141 -4.809281359876029, -32.069220173337264 -5.279404507603933, -31.998710634214884 -5.548287939305123 M-31.998710634214884 -5.548287939305123 C-31.91818299085209 -5.790824370776274, -31.837655347489303 -6.033360802247425, -31.604821729970332 -6.734618561215485 M-31.998710634214884 -5.548287939305123 C-31.879719749071533 -5.906669526733983, -31.760728863928183 -6.265051114162842, -31.604821729970332 -6.734618561215485 M-31.604821729970332 -6.734618561215485 C-31.42086825727585 -7.1889871952693065, -31.236914784581366 -7.643355829323128, -31.135733648808344 -7.893275190886676 M-31.604821729970332 -6.734618561215485 C-31.45376975742451 -7.107719853794884, -31.302717784878688 -7.480821146374283, -31.135733648808344 -7.893275190886676 M-31.135733648808344 -7.893275190886676 C-30.939973247624177 -8.299775852547187, -30.744212846440007 -8.706276514207698, -30.593373974273504 -9.019496659696282 M-31.135733648808344 -7.893275190886676 C-30.93617011908687 -8.307673130328812, -30.7366065893654 -8.722071069770948, -30.593373974273504 -9.019496659696282 M-30.593373974273504 -9.019496659696282 C-30.348049125306133 -9.455095770872566, -30.10272427633876 -9.890694882048852, -29.979971378604247 -10.108655082055243 M-30.593373974273504 -9.019496659696282 C-30.467090348468535 -9.243726024916755, -30.34080672266357 -9.46795539013723, -29.979971378604247 -10.108655082055243 M-29.979971378604247 -10.108655082055243 C-29.84323394741493 -10.318720495503475, -29.706496516225613 -10.528785908951708, -29.29804646464064 -11.156274872382308 M-29.979971378604247 -10.108655082055243 C-29.772161513656606 -10.427906839376963, -29.564351648708964 -10.747158596698682, -29.29804646464064 -11.156274872382308 M-29.29804646464064 -11.156274872382308 C-29.104207347990243 -11.416001629587033, -28.910368231339845 -11.675728386791757, -28.550401408126586 -12.158051136245302 M-29.29804646464064 -11.156274872382308 C-29.14301662538957 -11.364000733469839, -28.987986786138503 -11.571726594557369, -28.550401408126586 -12.158051136245302 M-28.550401408126586 -12.158051136245302 C-28.335491554162466 -12.410496479428671, -28.120581700198347 -12.66294182261204, -27.740108442968662 -13.10986736009567 M-28.550401408126586 -12.158051136245302 C-28.340649332446844 -12.404437859569942, -28.130897256767103 -12.650824582894582, -27.740108442968662 -13.10986736009567 M-27.740108442968662 -13.10986736009567 C-27.404908557435288 -13.455988762331291, -27.069708671901914 -13.802110164566912, -26.870497236767996 -14.007812326905677 M-27.740108442968662 -13.10986736009567 C-27.45843721960093 -13.400716023860367, -27.176765996233204 -13.691564687625064, -26.870497236767996 -14.007812326905677 M-26.870497236767996 -14.007812326905677 C-26.506846396234156 -14.33807039860452, -26.14319555570032 -14.668328470303363, -25.945141208501887 -14.848196188198107 M-26.870497236767996 -14.007812326905677 C-26.539614261005152 -14.308311490809695, -26.208731285242308 -14.60881065471371, -25.945141208501887 -14.848196188198107 M-25.945141208501887 -14.848196188198107 C-25.703844539572938 -15.040623860494913, -25.462547870643988 -15.233051532791718, -24.96784284457872 -15.627565626425149 M-25.945141208501887 -14.848196188198107 C-25.563307461931252 -15.152698440065457, -25.181473715360617 -15.457200691932808, -24.96784284457872 -15.627565626425149 M-24.96784284457872 -15.627565626425149 C-24.673776283428644 -15.832693729547179, -24.37970972227857 -16.03782183266921, -23.94261807360571 -16.342718045390885 M-24.96784284457872 -15.627565626425149 C-24.721605484341968 -15.799330149482783, -24.475368124105216 -15.971094672540417, -23.94261807360571 -16.342718045390885 M-23.94261807360571 -16.342718045390885 C-23.71440202261369 -16.48106395664863, -23.486185971621673 -16.61940986790637, -22.87367976407679 -16.99071473040609 M-23.94261807360571 -16.342718045390885 C-23.550069927821685 -16.580683038234124, -23.15752178203766 -16.818648031077363, -22.87367976407679 -16.99071473040609 M-22.87367976407679 -16.99071473040609 C-22.517532859919093 -17.176516342182182, -22.161385955761396 -17.36231795395827, -21.765420412792388 -17.56889292409717 M-22.87367976407679 -16.99071473040609 C-22.505053987857906 -17.183026561743404, -22.136428211639025 -17.375338393080717, -21.765420412792388 -17.56889292409717 M-21.765420412792388 -17.56889292409717 C-21.420341491998425 -17.72164912593017, -21.075262571204462 -17.874405327763174, -20.622394095147804 -18.07487676824742 M-21.765420412792388 -17.56889292409717 C-21.528141146011144 -17.67392941686186, -21.290861879229904 -17.77896590962655, -20.622394095147804 -18.07487676824742 M-20.622394095147804 -18.07487676824742 C-20.155404433482783 -18.24673328054526, -19.68841477181776 -18.418589792843097, -19.44929775146062 -18.506587066708033 M-20.622394095147804 -18.07487676824742 C-20.324809844287984 -18.184390523402495, -20.027225593428163 -18.29390427855757, -19.44929775146062 -18.506587066708033 M-19.44929775146062 -18.506587066708033 C-19.072233534161697 -18.61849774715189, -18.695169316862774 -18.73040842759574, -18.250951886235413 -18.862249829261067 M-19.44929775146062 -18.506587066708033 C-19.05457782191996 -18.62373786986851, -18.659857892379303 -18.740888673028987, -18.250951886235413 -18.862249829261067 M-18.250951886235413 -18.862249829261067 C-17.878359856366234 -18.94729152868849, -17.505767826497056 -19.032333228115906, -17.032280759676766 -19.140403561325773 M-18.250951886235413 -18.862249829261067 C-17.94278597756375 -18.932586686944884, -17.63462006889209 -19.002923544628704, -17.032280759676766 -19.140403561325773 M-17.032280759676766 -19.140403561325773 C-16.643674844652935 -19.203230351982945, -16.255068929629104 -19.26605714264012, -15.79829215284788 -19.3399052695533 M-17.032280759676766 -19.140403561325773 C-16.672702037552245 -19.198537460544227, -16.313123315427724 -19.256671359762684, -15.79829215284788 -19.3399052695533 M-15.79829215284788 -19.3399052695533 C-15.413402128508993 -19.377035147303292, -15.028512104170105 -19.414165025053286, -14.554056789623903 -19.45993515863156 M-15.79829215284788 -19.3399052695533 C-15.500989138458072 -19.368585733792298, -15.203686124068263 -19.397266198031293, -14.554056789623903 -19.45993515863156 M-14.554056789623903 -19.45993515863156 C-14.220413146536053 -19.47063446086743, -13.886769503448205 -19.481333763103304, -13.304687500000005 -19.5 M-14.554056789623903 -19.45993515863156 C-14.10914066837465 -19.474202752663327, -13.664224547125396 -19.488470346695095, -13.304687500000005 -19.5 M-13.304687500000005 -19.5 C-13.304687500000004 -19.5, -13.304687500000002 -19.5, -13.3046875 -19.5 M-13.304687500000005 -19.5 C-13.304687500000004 -19.5, -13.304687500000004 -19.5, -13.3046875 -19.5" stroke="#e65100" stroke-width="3" fill="none" stroke-dasharray="0 0" style="fill:#ffe0b2 !important;stroke:#e65100 !important;stroke-width:3px !important"/></g><g class="label" style="color:#000 !important" transform="translate(-20.4296875, -12)"><rect/><foreignObject width="40.859375" height="24"><div style="color: rgb(0, 0, 0) !important; display: table-cell; white-space: nowrap; line-height: 1.5; max-width: 200px; text-align: center;" xmlns="http://www.w3.org/1999/xhtml"><span style="color:#000 !important" class="nodeLabel"><p>Order</p></span></div></foreignObject></g></g><g class="node default neighbor" id="my-svg-flowchart-COMPANY-1" data-look="classic" transform="translate(114.5390625, 87)"><rect class="basic label-container" style="fill:#e3f2fd !important;stroke:#1565c0 !important" x="-62.6953125" y="-27" width="125.390625" height="54"/><g class="label" style="color:#000 !important" transform="translate(-32.6953125, -12)"><rect/><foreignObject width="65.390625" height="24"><div style="color: rgb(0, 0, 0) !important; display: table-cell; white-space: nowrap; line-height: 1.5; max-width: 200px; text-align: center;" xmlns="http://www.w3.org/1999/xhtml"><span style="color:#000 !important" class="nodeLabel"><p>Company</p></span></div></foreignObject></g></g><g class="node default neighbor" id="my-svg-flowchart-CART-2" data-look="classic" transform="translate(114.5390625, 191)"><rect class="basic label-container" style="fill:#e3f2fd !important;stroke:#1565c0 !important" x="-45.2734375" y="-27" width="90.546875" height="54"/><g class="label" style="color:#000 !important" transform="translate(-15.2734375, -12)"><rect/><foreignObject width="30.546875" height="24"><div style="color: rgb(0, 0, 0) !important; display: table-cell; white-space: nowrap; line-height: 1.5; max-width: 200px; text-align: center;" xmlns="http://www.w3.org/1999/xhtml"><span style="color:#000 !important" class="nodeLabel"><p>Cart</p></span></div></foreignObject></g></g><g class="node default neighbor" id="my-svg-flowchart-SUB-3" data-look="classic" transform="translate(114.5390625, 295)"><rect class="basic label-container" style="fill:#e3f2fd !important;stroke:#1565c0 !important" x="-106.5390625" y="-27" width="213.078125" height="54"/><g class="label" style="color:#000 !important" transform="translate(-76.5390625, -12)"><rect/><foreignObject width="153.078125" height="24"><div style="color: rgb(0, 0, 0) !important; display: table-cell; white-space: nowrap; line-height: 1.5; max-width: 200px; text-align: center;" xmlns="http://www.w3.org/1999/xhtml"><span style="color:#000 !important" class="nodeLabel"><p>CompanySubscription</p></span></div></foreignObject></g></g><g class="node default neighbor" id="my-svg-flowchart-OI-4" data-look="classic" transform="translate(738.8080902099609, 35)"><rect class="basic label-container" style="fill:#e3f2fd !important;stroke:#1565c0 !important" x="-66.8359375" y="-27" width="133.671875" height="54"/><g class="label" style="color:#000 !important" transform="translate(-36.8359375, -12)"><rect/><foreignObject width="73.671875" height="24"><div style="color: rgb(0, 0, 0) !important; display: table-cell; white-space: nowrap; line-height: 1.5; max-width: 200px; text-align: center;" xmlns="http://www.w3.org/1999/xhtml"><span style="color:#000 !important" class="nodeLabel"><p>OrderItem</p></span></div></foreignObject></g></g><g class="node default neighbor" id="my-svg-flowchart-OA-5" data-look="classic" transform="translate(738.8080902099609, 139)"><rect class="basic label-container" style="fill:#e3f2fd !important;stroke:#1565c0 !important" x="-89.546875" y="-27" width="179.09375" height="54"/><g class="label" style="color:#000 !important" transform="translate(-59.546875, -12)"><rect/><foreignObject width="119.09375" height="24"><div style="color: rgb(0, 0, 0) !important; display: table-cell; white-space: nowrap; line-height: 1.5; max-width: 200px; text-align: center;" xmlns="http://www.w3.org/1999/xhtml"><span style="color:#000 !important" class="nodeLabel"><p>OrderAgreement</p></span></div></foreignObject></g></g><g class="node default neighbor" id="my-svg-flowchart-INV-6" data-look="classic" transform="translate(738.8080902099609, 243)"><rect class="basic label-container" style="fill:#e3f2fd !important;stroke:#1565c0 !important" x="-55.4140625" y="-27" width="110.828125" height="54"/><g class="label" style="color:#000 !important" transform="translate(-25.4140625, -12)"><rect/><foreignObject width="50.828125" height="24"><div style="color: rgb(0, 0, 0) !important; display: table-cell; white-space: nowrap; line-height: 1.5; max-width: 200px; text-align: center;" xmlns="http://www.w3.org/1999/xhtml"><span style="color:#000 !important" class="nodeLabel"><p>Invoice</p></span></div></foreignObject></g></g><g class="node default neighbor" id="my-svg-flowchart-PT-7" data-look="classic" transform="translate(738.8080902099609, 347)"><rect class="basic label-container" style="fill:#e3f2fd !important;stroke:#1565c0 !important" x="-101.75" y="-27" width="203.5" height="54"/><g class="label" style="color:#000 !important" transform="translate(-71.75, -12)"><rect/><foreignObject width="143.5" height="24"><div style="color: rgb(0, 0, 0) !important; display: table-cell; white-space: nowrap; line-height: 1.5; max-width: 200px; text-align: center;" xmlns="http://www.w3.org/1999/xhtml"><span style="color:#000 !important" class="nodeLabel"><p>PaymentTransaction</p></span></div></foreignObject></g></g></g></g></g><defs><filter id="my-svg-drop-shadow" height="130%" width="130%"><feDropShadow dx="4" dy="4" stdDeviation="0" flood-opacity="0.06" flood-color="#000000"/></filter></defs><defs><filter id="my-svg-drop-shadow-small" height="150%" width="150%"><feDropShadow dx="2" dy="2" stdDeviation="0" flood-opacity="0.06" flood-color="#000000"/></filter></defs></svg>