<svg id="my-svg" width="100%" xmlns="http://www.w3.org/2000/svg" xmlns:xlink="http://www.w3.org/1999/xlink" class="flowchart" style="max-width: 2015.06px; background-color: white;" viewBox="0 0 2015.0614013671875 350" role="graphics-document document" aria-roledescription="flowchart-v2"><style>#my-svg{font-family:"trebuchet ms",verdana,arial,sans-serif;font-size:16px;fill:#333;}@keyframes edge-animation-frame{from{stroke-dashoffset:0;}}@keyframes dash{to{stroke-dashoffset:0;}}#my-svg .edge-animation-slow{stroke-dasharray:9,5!important;stroke-dashoffset:900;animation:dash 50s linear infinite;stroke-linecap:round;}#my-svg .edge-animation-fast{stroke-dasharray:9,5!important;stroke-dashoffset:900;animation:dash 20s linear infinite;stroke-linecap:round;}#my-svg .error-icon{fill:#552222;}#my-svg .error-text{fill:#552222;stroke:#552222;}#my-svg .edge-thickness-normal{stroke-width:1px;}#my-svg .edge-thickness-thick{stroke-width:3.5px;}#my-svg .edge-pattern-solid{stroke-dasharray:0;}#my-svg .edge-thickness-invisible{stroke-width:0;fill:none;}#my-svg .edge-pattern-dashed{stroke-dasharray:3;}#my-svg .edge-pattern-dotted{stroke-dasharray:2;}#my-svg .marker{fill:#333333;stroke:#333333;}#my-svg .marker.cross{stroke:#333333;}#my-svg svg{font-family:"trebuchet ms",verdana,arial,sans-serif;font-size:16px;}#my-svg p{margin:0;}#my-svg .label{font-family:"trebuchet ms",verdana,arial,sans-serif;color:#333;}#my-svg .cluster-label text{fill:#333;}#my-svg .cluster-label span{color:#333;}#my-svg .cluster-label span p{background-color:transparent;}#my-svg .label text,#my-svg span{fill:#333;color:#333;}#my-svg .node rect,#my-svg .node circle,#my-svg .node ellipse,#my-svg .node polygon,#my-svg .node path{fill:#ECECFF;stroke:#9370DB;stroke-width:1px;}#my-svg .rough-node .label text,#my-svg .node .label text,#my-svg .image-shape .label,#my-svg .icon-shape .label{text-anchor:middle;}#my-svg .node .katex path{fill:#000;stroke:#000;stroke-width:1px;}#my-svg .rough-node .label,#my-svg .node .label,#my-svg .image-shape .label,#my-svg .icon-shape .label{text-align:center;}#my-svg .node.clickable{cursor:pointer;}#my-svg .root .anchor path{fill:#333333!important;stroke-width:0;stroke:#333333;}#my-svg .arrowheadPath{fill:#333333;}#my-svg .edgePath .path{stroke:#333333;stroke-width:1px;}#my-svg .flowchart-link{stroke:#333333;fill:none;}#my-svg .edgeLabel{background-color:rgba(232,232,232, 0.8);text-align:center;}#my-svg .edgeLabel p{background-color:rgba(232,232,232, 0.8);}#my-svg .edgeLabel rect{opacity:0.5;background-color:rgba(232,232,232, 0.8);fill:rgba(232,232,232, 0.8);}#my-svg .labelBkg{background-color:rgba(232, 232, 232, 0.5);}#my-svg .cluster rect{fill:#ffffde;stroke:#aaaa33;stroke-width:1px;}#my-svg .cluster text{fill:#333;}#my-svg .cluster span{color:#333;}#my-svg div.mermaidTooltip{position:absolute;text-align:center;max-width:200px;padding:2px;font-family:"trebuchet ms",verdana,arial,sans-serif;font-size:12px;background:hsl(80, 100%, 96.2745098039%);border:1px solid #aaaa33;border-radius:2px;pointer-events:none;z-index:100;}#my-svg .flowchartTitleText{text-anchor:middle;font-size:18px;fill:#333;}#my-svg rect.text{fill:none;stroke-width:0;}#my-svg .icon-shape,#my-svg .image-shape{background-color:rgba(232,232,232, 0.8);text-align:center;}#my-svg .icon-shape p,#my-svg .image-shape p{background-color:rgba(232,232,232, 0.8);padding:2px;}#my-svg .icon-shape .label rect,#my-svg .image-shape .label rect{opacity:0.5;background-color:rgba(232,232,232, 0.8);fill:rgba(232,232,232, 0.8);}#my-svg .label-icon{display:inline-block;height:1em;overflow:visible;vertical-align:-0.125em;}#my-svg .node .label-icon path{fill:currentColor;stroke:revert;stroke-width:revert;}#my-svg .node .neo-node{stroke:#9370DB;}#my-svg [data-look="neo"].node rect,#my-svg [data-look="neo"].cluster rect,#my-svg [data-look="neo"].node polygon{stroke:#9370DB;filter:drop-shadow(1px 2px 2px rgba(185, 185, 185, 1));}#my-svg [data-look="neo"].swimlane.cluster rect{filter:none;}#my-svg [data-look="neo"].node path{stroke:#9370DB;stroke-width:1px;}#my-svg [data-look="neo"].node .outer-path{filter:drop-shadow(1px 2px 2px rgba(185, 185, 185, 1));}#my-svg [data-look="neo"].node .neo-line path{stroke:#9370DB;filter:none;}#my-svg [data-look="neo"].node circle{stroke:#9370DB;filter:drop-shadow(1px 2px 2px rgba(185, 185, 185, 1));}#my-svg [data-look="neo"].node circle .state-start{fill:#000000;}#my-svg [data-look="neo"].icon-shape .icon{fill:#9370DB;filter:drop-shadow(1px 2px 2px rgba(185, 185, 185, 1));}#my-svg [data-look="neo"].icon-shape .icon-neo path{stroke:#9370DB;filter:drop-shadow(1px 2px 2px rgba(185, 185, 185, 1));}#my-svg :root{--mermaid-font-family:"trebuchet ms",verdana,arial,sans-serif;}#my-svg .ego&gt;*{fill:rgb(255, 224, 178)!important;stroke:rgb(230, 81, 0)!important;stroke-width:3px!important;color:rgb(0, 0, 0)!important;}#my-svg .ego span{fill:rgb(255, 224, 178)!important;stroke:rgb(230, 81, 0)!important;stroke-width:3px!important;color:rgb(0, 0, 0)!important;}#my-svg .ego tspan{fill:rgb(0, 0, 0)!important;}#my-svg .neighbor&gt;*{fill:rgb(227, 242, 253)!important;stroke:rgb(21, 101, 192)!important;color:rgb(0, 0, 0)!important;}#my-svg .neighbor span{fill:rgb(227, 242, 253)!important;stroke:rgb(21, 101, 192)!important;color:rgb(0, 0, 0)!important;}#my-svg .neighbor tspan{fill:rgb(0, 0, 0)!important;}</style><g><marker id="my-svg_flowchart-v2-pointEnd" class="marker flowchart-v2" viewBox="0 0 10 10" refX="5" refY="5" markerUnits="userSpaceOnUse" markerWidth="8" markerHeight="8" orient="auto"><path d="M 0 0 L 10 5 L 0 10 z" class="arrowMarkerPath" style="stroke-width: 1; stroke-dasharray: 1, 0;"/></marker><marker id="my-svg_flowchart-v2-pointStart" class="marker flowchart-v2" viewBox="0 0 10 10" refX="4.5" refY="5" markerUnits="userSpaceOnUse" markerWidth="8" markerHeight="8" orient="auto"><path d="M 0 5 L 10 10 L 10 0 z" class="arrowMarkerPath" style="stroke-width: 1; stroke-dasharray: 1, 0;"/></marker><marker id="my-svg_flowchart-v2-pointEnd-margin" class="marker flowchart-v2" viewBox="0 0 11.5 14" refX="11.5" refY="7" markerUnits="userSpaceOnUse" markerWidth="10.5" markerHeight="14" orient="auto"><path d="M 0 0 L 11.5 7 L 0 14 z" class="arrowMarkerPath" style="stroke-width: 0; stroke-dasharray: 1, 0;"/></marker><marker id="my-svg_flowchart-v2-pointStart-margin" class="marker flowchart-v2" viewBox="0 0 11.5 14" refX="1" refY="7" markerUnits="userSpaceOnUse" markerWidth="11.5" markerHeight="14" orient="auto"><polygon points="0,7 11.5,14 11.5,0" class="arrowMarkerPath" style="stroke-width: 0; stroke-dasharray: 1, 0;"/></marker><marker id="my-svg_flowchart-v2-circleEnd" class="marker flowchart-v2" viewBox="0 0 10 10" refX="11" refY="5" markerUnits="userSpaceOnUse" markerWidth="11" markerHeight="11" orient="auto"><circle cx="5" cy="5" r="5" class="arrowMarkerPath" style="stroke-width: 1; stroke-dasharray: 1, 0;"/></marker><marker id="my-svg_flowchart-v2-circleStart" class="marker flowchart-v2" viewBox="0 0 10 10" refX="-1" refY="5" markerUnits="userSpaceOnUse" markerWidth="11" markerHeight="11" orient="auto"><circle cx="5" cy="5" r="5" class="arrowMarkerPath" style="stroke-width: 1; stroke-dasharray: 1, 0;"/></marker><marker id="my-svg_flowchart-v2-circleEnd-margin" class="marker flowchart-v2" viewBox="0 0 10 10" refY="5" refX="12.25" markerUnits="userSpaceOnUse" markerWidth="14" markerHeight="14" orient="auto"><circle cx="5" cy="5" r="5" class="arrowMarkerPath" style="stroke-width: 0; stroke-dasharray: 1, 0;"/></marker><marker id="my-svg_flowchart-v2-circleStart-margin" class="marker flowchart-v2" viewBox="0 0 10 10" refX="-2" refY="5" markerUnits="userSpaceOnUse" markerWidth="14" markerHeight="14" orient="auto"><circle cx="5" cy="5" r="5" class="arrowMarkerPath" style="stroke-width: 0; stroke-dasharray: 1, 0;"/></marker><marker id="my-svg_flowchart-v2-crossEnd" class="marker cross flowchart-v2" viewBox="0 0 11 11" refX="12" refY="5.2" markerUnits="userSpaceOnUse" markerWidth="11" markerHeight="11" orient="auto"><path d="M 1,1 l 9,9 M 10,1 l -9,9" class="arrowMarkerPath" style="stroke-width: 2; stroke-dasharray: 1, 0;"/></marker><marker id="my-svg_flowchart-v2-crossStart" class="marker cross flowchart-v2" viewBox="0 0 11 11" refX="-1" refY="5.2" markerUnits="userSpaceOnUse" markerWidth="11" markerHeight="11" orient="auto"><path d="M 1,1 l 9,9 M 10,1 l -9,9" class="arrowMarkerPath" style="stroke-width: 2; stroke-dasharray: 1, 0;"/></marker><marker id="my-svg_flowchart-v2-crossEnd-margin" class="marker cross flowchart-v2" viewBox="0 0 15 15" refX="17.7" refY="7.5" markerUnits="userSpaceOnUse" markerWidth="12" markerHeight="12" orient="auto"><path d="M 1,1 L 14,14 M 1,14 L 14,1" class="arrowMarkerPath" style="stroke-width: 2.5;"/></marker><marker id="my-svg_flowchart-v2-crossStart-margin" class="marker cross flowchart-v2" viewBox="0 0 15 15" refX="-3.5" refY="7.5" markerUnits="userSpaceOnUse" markerWidth="12" markerHeight="12" orient="auto"><path d="M 1,1 L 14,14 M 1,14 L 14,1" class="arrowMarkerPath" style="stroke-width: 2.5; stroke-dasharray: 1, 0;"/></marker><g class="root"><g class="clusters"/><g class="edgePaths"><path d="M176.142,144L202.754,127.833C229.365,111.667,282.588,79.333,332.364,63.167C382.14,47,428.468,47,451.632,47L474.796,47" id="my-svg-L_CAP_READ_0" class="edge-thickness-normal edge-pattern-solid edge-thickness-normal edge-pattern-solid flowchart-link" style=";" data-edge="true" data-et="edge" data-id="L_CAP_READ_0" data-points="W3sieCI6MTc2LjE0MjA2NzIyMzc4NzMsInkiOjE0NH0seyJ4IjozMzUuODExMzg2MTA4Mzk4NDQsInkiOjQ3fSx7IngiOjQ3OC43OTU3NjExMDgzOTg0NCwieSI6NDd9XQ==" data-look="classic" marker-end="url(#my-svg_flowchart-v2-pointEnd)"/><path d="M239.218,175.5L255.317,175.417C271.416,175.333,303.613,175.167,339.537,175.083C375.46,175,415.108,175,434.932,175L454.757,175" id="my-svg-L_CAP_WRITE_0" class="edge-thickness-normal edge-pattern-solid edge-thickness-normal edge-pattern-solid flowchart-link" style=";" data-edge="true" data-et="edge" data-id="L_CAP_WRITE_0" data-points="W3sieCI6MjM5LjIxNzYzMTYyMDY0NTQyLCJ5IjoxNzUuNX0seyJ4IjozMzUuODExMzg2MTA4Mzk4NDQsInkiOjE3NX0seyJ4Ijo0NTguNzU2Njk4NjA4Mzk4NDQsInkiOjE3NX1d" data-look="classic" marker-end="url(#my-svg_flowchart-v2-pointEnd)"/><path d="M176.142,207L202.754,223C229.365,239,282.588,271,324.715,287C366.843,303,397.874,303,413.39,303L428.905,303" id="my-svg-L_CAP_VOID_0" class="edge-thickness-normal edge-pattern-solid edge-thickness-normal edge-pattern-solid flowchart-link" style=";" data-edge="true" data-et="edge" data-id="L_CAP_VOID_0" data-points="W3sieCI6MTc2LjE0MjA2NzIyMzc4NzMsInkiOjIwN30seyJ4IjozMzUuODExMzg2MTA4Mzk4NDQsInkiOjMwM30seyJ4Ijo0MzIuOTA1MTM2MTA4Mzk4NDQsInkiOjMwM31d" data-look="classic" marker-end="url(#my-svg_flowchart-v2-pointEnd)"/><path d="M698.718,47L717.099,47C735.481,47,772.244,47,800.725,50.341C829.207,53.683,849.407,60.366,859.507,63.707L869.608,67.049" id="my-svg-L_READ_SVC_0" class="edge-thickness-normal edge-pattern-solid edge-thickness-normal edge-pattern-solid flowchart-link" style=";" data-edge="true" data-et="edge" data-id="L_READ_SVC_0" data-points="W3sieCI6Njk4LjcxNzYzNjEwODM5ODQsInkiOjQ3fSx7IngiOjgwOS4wMDY2OTg2MDgzOTg0LCJ5Ijo0N30seyJ4Ijo4NzMuNDA1MTM2MTA4Mzk4NCwieSI6NjguMzA0OTAyNjczNDUxMjd9XQ==" data-look="classic" marker-end="url(#my-svg_flowchart-v2-pointEnd)"/><path d="M718.757,175L733.798,175C748.84,175,778.923,175,804.065,171.659C829.207,168.317,849.407,161.634,859.507,158.293L869.608,154.951" id="my-svg-L_WRITE_SVC_0" class="edge-thickness-normal edge-pattern-solid edge-thickness-normal edge-pattern-solid flowchart-link" style=";" data-edge="true" data-et="edge" data-id="L_WRITE_SVC_0" data-points="W3sieCI6NzE4Ljc1NjY5ODYwODM5ODQsInkiOjE3NX0seyJ4Ijo4MDkuMDA2Njk4NjA4Mzk4NCwieSI6MTc1fSx7IngiOjg3My40MDUxMzYxMDgzOTg0LCJ5IjoxNTMuNjk1MDk3MzI2NTQ4NzN9XQ==" data-look="classic" marker-end="url(#my-svg_flowchart-v2-pointEnd)"/><path d="M1131.515,71.621L1144.962,67.517C1158.41,63.414,1185.306,55.207,1211.535,51.103C1237.765,47,1263.327,47,1276.108,47L1288.89,47" id="my-svg-L_SVC_PT_0" class="edge-thickness-normal edge-pattern-solid edge-thickness-normal edge-pattern-solid flowchart-link" style=";" data-edge="true" data-et="edge" data-id="L_SVC_PT_0" data-points="W3sieCI6MTEzMS41MTQ1MTExMDgzOTg0LCJ5Ijo3MS42MjA3MDI0OTkzNDgxNn0seyJ4IjoxMjEyLjIwMjAxMTEwODM5ODQsInkiOjQ3fSx7IngiOjEyOTIuODg5NTExMTA4Mzk4NCwieSI6NDd9XQ==" data-look="classic" marker-end="url(#my-svg_flowchart-v2-pointEnd)"/><path d="M1131.515,150.379L1144.962,154.483C1158.41,158.586,1185.306,166.793,1211.535,170.897C1237.765,175,1263.327,175,1276.108,175L1288.89,175" id="my-svg-L_SVC_MAPPER_0" class="edge-thickness-normal edge-pattern-solid edge-thickness-normal edge-pattern-solid flowchart-link" style=";" data-edge="true" data-et="edge" data-id="L_SVC_MAPPER_0" data-points="W3sieCI6MTEzMS41MTQ1MTExMDgzOTg0LCJ5IjoxNTAuMzc5Mjk3NTAwNjUxODN9LHsieCI6MTIxMi4yMDIwMTExMDgzOTg0LCJ5IjoxNzV9LHsieCI6MTI5Mi44ODk1MTExMDgzOTg0LCJ5IjoxNzV9XQ==" data-look="classic" marker-end="url(#my-svg_flowchart-v2-pointEnd)"/><path d="M1552.89,47L1570.326,47C1587.762,47,1622.634,47,1656.84,47C1691.046,47,1724.585,47,1741.354,47L1758.124,47" id="my-svg-L_PT_STRIPE_0" class="edge-thickness-normal edge-pattern-dotted edge-thickness-normal edge-pattern-solid flowchart-link" style=";" data-edge="true" data-et="edge" data-id="L_PT_STRIPE_0" data-points="W3sieCI6MTU1Mi44ODk1MTExMDgzOTg0LCJ5Ijo0N30seyJ4IjoxNjU3LjUwNjY5ODYwODM5ODQsInkiOjQ3fSx7IngiOjE3NjIuMTIzODg2MTA4Mzk4NCwieSI6NDd9XQ==" data-look="classic" marker-end="url(#my-svg_flowchart-v2-pointEnd)"/></g><g class="edgeLabels"><g class="edgeLabel" transform="translate(335.81138610839844, 47)"><g class="label" data-id="L_CAP_READ_0" transform="translate(-56.3046875, -12)"><foreignObject width="112.609375" height="24"><div xmlns="http://www.w3.org/1999/xhtml" class="labelBkg" style="display: table-cell; white-space: nowrap; line-height: 1.5; max-width: 200px; text-align: center;"><span class="edgeLabel"><p>two read lenses</p></span></div></foreignObject></g></g><g class="edgeLabel" transform="translate(335.81138610839844, 175)"><g class="label" data-id="L_CAP_WRITE_0" transform="translate(-37.3359375, -12)"><foreignObject width="74.671875" height="24"><div xmlns="http://www.w3.org/1999/xhtml" class="labelBkg" style="display: table-cell; white-space: nowrap; line-height: 1.5; max-width: 200px; text-align: center;"><span class="edgeLabel"><p>plan CRUD</p></span></div></foreignObject></g></g><g class="edgeLabel" transform="translate(335.81138610839844, 303)"><g class="label" data-id="L_CAP_VOID_0" transform="translate(-72.09375, -12)"><foreignObject width="144.1875" height="24"><div xmlns="http://www.w3.org/1999/xhtml" class="labelBkg" style="display: table-cell; white-space: nowrap; line-height: 1.5; max-width: 200px; text-align: center;"><span class="edgeLabel"><p>terminal cancel-one</p></span></div></foreignObject></g></g><g class="edgeLabel" transform="translate(809.0066986083984, 47)"><g class="label" data-id="L_READ_SVC_0" transform="translate(-39.3984375, -12)"><foreignObject width="78.796875" height="24"><div xmlns="http://www.w3.org/1999/xhtml" class="labelBkg" style="display: table-cell; white-space: nowrap; line-height: 1.5; max-width: 200px; text-align: center;"><span class="edgeLabel"><p>handled by</p></span></div></foreignObject></g></g><g class="edgeLabel" transform="translate(809.0066986083984, 175)"><g class="label" data-id="L_WRITE_SVC_0" transform="translate(-39.3984375, -12)"><foreignObject width="78.796875" height="24"><div xmlns="http://www.w3.org/1999/xhtml" class="labelBkg" style="display: table-cell; white-space: nowrap; line-height: 1.5; max-width: 200px; text-align: center;"><span class="edgeLabel"><p>handled by</p></span></div></foreignObject></g></g><g class="edgeLabel" transform="translate(1212.2020111083984, 47)"><g class="label" data-id="L_SVC_PT_0" transform="translate(-45.6875, -12)"><foreignObject width="91.375" height="24"><div xmlns="http://www.w3.org/1999/xhtml" class="labelBkg" style="display: table-cell; white-space: nowrap; line-height: 1.5; max-width: 200px; text-align: center;"><span class="edgeLabel"><p>reads/writes</p></span></div></foreignObject></g></g><g class="edgeLabel" transform="translate(1212.2020111083984, 175)"><g class="label" data-id="L_SVC_MAPPER_0" transform="translate(-55.6875, -12)"><foreignObject width="111.375" height="24"><div xmlns="http://www.w3.org/1999/xhtml" class="labelBkg" style="display: table-cell; white-space: nowrap; line-height: 1.5; max-width: 200px; text-align: center;"><span class="edgeLabel"><p>shapes rows via</p></span></div></foreignObject></g></g><g class="edgeLabel" transform="translate(1657.5066986083984, 47)"><g class="label" data-id="L_PT_STRIPE_0" transform="translate(-79.6171875, -12)"><foreignObject width="159.234375" height="24"><div xmlns="http://www.w3.org/1999/xhtml" class="labelBkg" style="display: table-cell; white-space: nowrap; line-height: 1.5; max-width: 200px; text-align: center;"><span class="edgeLabel"><p>credit_card settled by</p></span></div></foreignObject></g></g></g><g class="nodes"><g class="node default ego" id="my-svg-flowchart-CAP-0" data-look="classic" transform="translate(123.35881805419922, 175)"><g class="basic label-container outer-path"><path d="M-83.875 -31.5 C-36.248786506049335 -31.5, 11.37742698790133 -31.5, 83.875 -31.5 C83.875 -31.5, 83.875 -31.5, 83.875 -31.5 C84.5346340001803 -31.47884682151391, 85.19426800036062 -31.457693643027817, 85.89321192939245 -31.435279871635593 C86.4697102968864 -31.37966576746418, 87.04620866438036 -31.324051663292764, 87.90313059306193 -31.241385435432253 C88.41973788698354 -31.157864374500406, 88.93634518090515 -31.07434331356856, 89.89649680409322 -30.91911344521856 C90.48359104347581 -30.785113016227434, 91.07068528285839 -30.651112587236312, 91.86511939314947 -30.469788185729428 C92.44096274242948 -30.298880902326545, 93.01680609170948 -30.127973618923665, 93.80090886774406 -29.895256030836062 C94.19032057275321 -29.75194892371035, 94.57973227776236 -29.608641816584644, 95.69591065370028 -29.197877856399685 C96.18150605185487 -28.982919178312336, 96.66710145000945 -28.76796050022499, 97.54233778220308 -28.380519338926202 C98.23571741092734 -28.018783630751606, 98.9290970396516 -27.657047922577007, 99.33260288812403 -27.44653917988677 C100.0091296656291 -27.03642467165055, 100.68565644313419 -26.626310163414328, 101.05934938813228 -26.399775304092984 C101.61930203095396 -26.009176580419805, 102.17925467377565 -25.618577856746622, 102.7154817104733 -25.244529088840633 C103.20612132951854 -24.85325704912065, 103.69676094856379 -24.461985009400664, 104.29419445219533 -23.985547688627737 C104.88593014044876 -23.44814899302433, 105.4776658287022 -22.91075029742092, 105.78900034400982 -22.62800452807842 C106.32096114936041 -22.07871132175957, 106.85292195471101 -21.529418115440723, 107.19375690787243 -21.177478043231485 C107.53239558241577 -20.779693787026424, 107.87103425695912 -20.38190953082136, 108.50269169774293 -19.63992875855011 C108.93795868634545 -19.056710647461145, 109.37322567494797 -18.473492536372184, 109.7104260198041 -18.02167479384835 C110.07379866718185 -17.463436828257922, 110.4371713145596 -16.905198862667497, 110.8119970346684 -16.329365901781543 C111.07018760023342 -15.870922407991046, 111.32837816579845 -15.412478914200546, 111.8028781507495 -14.56995614258631 C112.12740641116409 -13.896066266043034, 112.45193467157867 -13.222176389499756, 112.67899762499809 -12.750675308355413 C112.95580624269773 -12.066952670906751, 113.23261486039738 -11.38323003345809, 113.43675529456745 -10.878999214271206 C113.62608730828524 -10.308761354913019, 113.81541932200301 -9.738523495554833, 114.07303737065482 -8.962618978877531 C114.19546583903904 -8.49574616809462, 114.31789430742327 -8.028873357311708, 114.58522923372745 -7.009409419623907 C114.6997078521505 -6.421585909086096, 114.81418647057356 -5.833762398548284, 114.97122617755518 -5.027396693551458 C115.04600586459317 -4.447420207804254, 115.12078555163116 -3.8674437220570503, 115.22944205789975 -3.024725316091981 C115.26724906125654 -2.4358507215461582, 115.30505606461332 -1.8469761270003355, 115.35881581032167 -1.0096246935071378 C115.35881581032167 -0.3349015356010919, 115.35881581032167 0.33982162230495394, 115.35881581032167 1.00962469350713 C115.30932552356339 1.7804758576078326, 115.2598352368051 2.551327021708535, 115.22944205789975 3.02472531609196 C115.14224918121337 3.700976049490433, 115.05505630452701 4.377226782888906, 114.97122617755518 5.027396693551435 C114.87117406565929 5.541143142115503, 114.7711219537634 6.054889590679571, 114.58522923372745 7.0094094196239 C114.4222673195054 7.630853826692971, 114.25930540528334 8.252298233762042, 114.07303737065482 8.96261897887751 C113.91218471341884 9.447081554081745, 113.75133205618286 9.93154412928598, 113.43675529456746 10.878999214271184 C113.23056469681643 11.388293977140249, 113.0243740990654 11.897588740009311, 112.67899762499809 12.750675308355405 C112.49606421588001 13.130540446537031, 112.31313080676192 13.510405584718658, 111.8028781507495 14.569956142586303 C111.53730240010954 15.041512780308448, 111.27172664946956 15.513069418030593, 110.81199703466841 16.329365901781536 C110.37303540071335 17.003728849239664, 109.93407376675829 17.678091796697792, 109.71042601980412 18.021674793848334 C109.23839941296336 18.654147444506428, 108.76637280612259 19.286620095164523, 108.50269169774295 19.639928758550102 C108.07932947203358 20.137234118861418, 107.6559672463242 20.63453947917273, 107.19375690787246 21.177478043231467 C106.75788399689803 21.62755260964408, 106.32201108592359 22.077627176056694, 105.78900034400982 22.628004528078414 C105.364794140643 23.01325737809507, 104.94058793727618 23.398510228111725, 104.29419445219536 23.985547688627715 C103.68740731677451 24.469444281842023, 103.08062018135368 24.953340875056327, 102.71548171047331 25.24452908884063 C102.18067210001574 25.617589121560933, 101.64586248955816 25.99064915428124, 101.05934938813229 26.399775304092973 C100.59455247364586 26.681537925104507, 100.12975555915942 26.963300546116038, 99.33260288812404 27.446539179886766 C98.9270687840005 27.658106062251033, 98.52153467987695 27.869672944615296, 97.54233778220309 28.3805193389262 C97.11540581110293 28.56950945804529, 96.68847384000276 28.75849957716438, 95.6959106537003 29.197877856399682 C95.04427818450633 29.437684628687574, 94.39264571531236 29.67749140097547, 93.80090886774407 29.895256030836055 C93.06051915100143 30.114999812380344, 92.32012943425879 30.334743593924628, 91.86511939314951 30.46978818572942 C91.35965389402276 30.585157387434464, 90.85418839489598 30.700526589139507, 89.89649680409323 30.919113445218557 C89.36137276738881 31.005628149524043, 88.82624873068438 31.09214285382953, 87.90313059306196 31.24138543543225 C87.28873240978551 31.300655689251005, 86.67433422650906 31.35992594306976, 85.89321192939245 31.435279871635593 C85.38394401640205 31.451611102375338, 84.87467610341166 31.467942333115083, 83.875 31.5 C83.875 31.5, 83.875 31.5, 83.875 31.5 C30.566205849995676 31.5, -22.74258830000865 31.5, -83.875 31.5 C-84.4953362315475 31.480107024465497, -85.11567246309501 31.460214048930993, -85.89321192939244 31.435279871635593 C-86.42843128353333 31.38364790423707, -86.96365063767422 31.33201593683855, -87.90313059306195 31.24138543543225 C-88.35066446208613 31.16903163016541, -88.79819833111031 31.096677824898567, -89.89649680409323 30.919113445218557 C-90.37702213115533 30.80943667503744, -90.85754745821743 30.69975990485632, -91.86511939314947 30.469788185729428 C-92.4274698757561 30.3028855143297, -92.98982035836273 30.135982842929973, -93.80090886774403 29.89525603083607 C-94.42293172791585 29.666345868376553, -95.04495458808766 29.437435705917036, -95.69591065370028 29.197877856399685 C-96.24881526000858 28.95312338851941, -96.80171986631687 28.70836892063913, -97.54233778220308 28.380519338926206 C-98.02561656288842 28.128393108597496, -98.50889534357377 27.876266878268783, -99.33260288812403 27.446539179886773 C-99.80768842302365 27.158539536718123, -100.28277395792327 26.870539893549473, -101.05934938813226 26.399775304092994 C-101.66679759843103 25.97604572859778, -102.2742458087298 25.552316153102566, -102.7154817104733 25.244529088840636 C-103.0328567349721 24.99143095250694, -103.3502317594709 24.738332816173244, -104.29419445219533 23.98554768862774 C-104.76860520921348 23.554700391324648, -105.24301596623162 23.12385309402156, -105.7890003440098 22.628004528078435 C-106.11156911817581 22.29492578536315, -106.43413789234182 21.961847042647868, -107.19375690787244 21.177478043231478 C-107.61489301998184 20.682787602624153, -108.03602913209123 20.188097162016827, -108.50269169774293 19.639928758550113 C-108.97457772606909 19.007644470294636, -109.44646375439524 18.375360182039156, -109.7104260198041 18.021674793848355 C-110.0010328887578 17.57522460426468, -110.29163975771151 17.128774414681, -110.8119970346684 16.329365901781557 C-111.10866655613873 15.802599125364381, -111.40533607760908 15.275832348947205, -111.8028781507495 14.569956142586314 C-111.99539378501996 14.170193308849015, -112.18790941929042 13.770430475111715, -112.67899762499809 12.750675308355417 C-112.83219634230416 12.37227151471371, -112.98539505961024 11.993867721072, -113.43675529456745 10.878999214271209 C-113.579502704534 10.449066759163092, -113.72225011450054 10.019134304054973, -114.07303737065482 8.962618978877522 C-114.17555829360145 8.571662266832897, -114.2780792165481 8.180705554788272, -114.58522923372743 7.009409419623911 C-114.677540280856 6.535411702565494, -114.76985132798455 6.061413985507075, -114.97122617755518 5.027396693551461 C-115.0566804873887 4.364629941344832, -115.14213479722223 3.7018631891382023, -115.22944205789975 3.024725316091999 C-115.25980341007612 2.5518227487027025, -115.29016476225249 2.078920181313406, -115.35881581032167 1.0096246935071416 C-115.35881581032167 0.44767023299629194, -115.35881581032167 -0.11428422751455769, -115.35881581032167 -1.0096246935071262 C-115.32206156695533 -1.5821017014293042, -115.28530732358897 -2.1545787093514823, -115.22944205789975 -3.024725316091956 C-115.14015628367817 -3.7172081494841898, -115.05087050945659 -4.409690982876424, -114.97122617755518 -5.027396693551446 C-114.83294536607877 -5.737439434822941, -114.69466455460237 -6.447482176094438, -114.58522923372745 -7.009409419623896 C-114.41634360657345 -7.6534435114558885, -114.24745797941947 -8.29747760328788, -114.07303737065482 -8.962618978877506 C-113.84733173228352 -9.642408400342028, -113.62162609391221 -10.322197821806547, -113.43675529456746 -10.878999214271168 C-113.28164017994581 -11.262136546333362, -113.12652506532416 -11.645273878395558, -112.67899762499809 -12.750675308355401 C-112.40471984842667 -13.320218980010246, -112.13044207185524 -13.88976265166509, -111.8028781507495 -14.5699561425863 C-111.5055144644309 -15.097955478983392, -111.20815077811228 -15.625954815380483, -110.8119970346684 -16.329365901781546 C-110.41424643612326 -16.940417632137542, -110.01649583757812 -17.55146936249354, -109.71042601980412 -18.021674793848344 C-109.38547439906793 -18.45708036193318, -109.06052277833174 -18.892485930018015, -108.50269169774295 -19.639928758550102 C-108.01111731443032 -20.21736000056391, -107.51954293111771 -20.794791242577723, -107.19375690787246 -21.177478043231467 C-106.78740166377291 -21.597073195150234, -106.38104641967338 -22.016668347069, -105.78900034400984 -22.628004528078403 C-105.2566354470235 -23.111484241918085, -104.72427055003716 -23.59496395575777, -104.29419445219536 -23.98554768862771 C-103.92343305718353 -24.281220034774556, -103.55267166217172 -24.5768923809214, -102.71548171047331 -25.244529088840626 C-102.20369848969361 -25.601526908917997, -101.6919152689139 -25.958524728995364, -101.0593493881323 -26.39977530409297 C-100.37896508708945 -26.812228265767107, -99.6985807860466 -27.22468122744125, -99.33260288812404 -27.446539179886763 C-98.87342845463132 -27.686090187724655, -98.4142540211386 -27.925641195562545, -97.54233778220309 -28.3805193389262 C-96.99539215108094 -28.622635945258292, -96.44844651995876 -28.86475255159038, -95.6959106537003 -29.19787785639968 C-95.19329685918409 -29.382844378892628, -94.69068306466788 -29.56781090138558, -93.80090886774407 -29.895256030836055 C-93.24460945064558 -30.060362777755657, -92.6883100335471 -30.225469524675262, -91.86511939314951 -30.469788185729417 C-91.25406524982267 -30.60925730644283, -90.64301110649582 -30.74872642715625, -89.89649680409325 -30.919113445218553 C-89.19788087750919 -31.03206025038124, -88.49926495092514 -31.14500705554392, -87.90313059306196 -31.24138543543225 C-87.12080275236517 -31.316855661337385, -86.33847491166836 -31.39232588724252, -85.89321192939246 -31.435279871635593 C-85.24614088875316 -31.45603018046152, -84.59906984811386 -31.47678048928745, -83.87500000000001 -31.5 C-83.87500000000001 -31.5, -83.875 -31.5, -83.875 -31.5" stroke="none" stroke-width="0" fill="#ffe0b2" style="fill:#ffe0b2 !important;stroke:#e65100 !important;stroke-width:3px !important"/><path d="M-83.875 -31.5 C-34.294530097410934 -31.5, 15.285939805178131 -31.5, 83.875 -31.5 M-83.875 -31.5 C-24.498474050177492 -31.5, 34.878051899645016 -31.5, 83.875 -31.5 M83.875 -31.5 C83.875 -31.5, 83.875 -31.5, 83.875 -31.5 M83.875 -31.5 C83.875 -31.5, 83.875 -31.5, 83.875 -31.5 M83.875 -31.5 C84.60496440127211 -31.476591462440716, 85.33492880254423 -31.453182924881432, 85.89321192939245 -31.435279871635593 M83.875 -31.5 C84.62236354846159 -31.476033505655735, 85.36972709692319 -31.45206701131147, 85.89321192939245 -31.435279871635593 M85.89321192939245 -31.435279871635593 C86.3505313502189 -31.39116281711554, 86.80785077104537 -31.34704576259548, 87.90313059306193 -31.241385435432253 M85.89321192939245 -31.435279871635593 C86.54031381690429 -31.37285473080121, 87.18741570441611 -31.310429589966827, 87.90313059306193 -31.241385435432253 M87.90313059306193 -31.241385435432253 C88.36785181442384 -31.166252912329355, 88.83257303578576 -31.09112038922646, 89.89649680409322 -30.91911344521856 M87.90313059306193 -31.241385435432253 C88.69826275364201 -31.112834634051666, 89.4933949142221 -30.98428383267108, 89.89649680409322 -30.91911344521856 M89.89649680409322 -30.91911344521856 C90.30880373477405 -30.82500707884483, 90.72111066545486 -30.7309007124711, 91.86511939314947 -30.469788185729428 M89.89649680409322 -30.91911344521856 C90.52278427587817 -30.77616741669134, 91.14907174766313 -30.633221388164117, 91.86511939314947 -30.469788185729428 M91.86511939314947 -30.469788185729428 C92.51903595607995 -30.275709182329745, 93.17295251901044 -30.081630178930062, 93.80090886774406 -29.895256030836062 M91.86511939314947 -30.469788185729428 C92.44411325626423 -30.297945846357774, 93.02310711937899 -30.12610350698612, 93.80090886774406 -29.895256030836062 M93.80090886774406 -29.895256030836062 C94.41323312992473 -29.669915042090143, 95.02555739210541 -29.44457405334422, 95.69591065370028 -29.197877856399685 M93.80090886774406 -29.895256030836062 C94.48245831062175 -29.644439535683084, 95.16400775349943 -29.39362304053011, 95.69591065370028 -29.197877856399685 M95.69591065370028 -29.197877856399685 C96.3212889726586 -28.921041425785543, 96.94666729161693 -28.6442049951714, 97.54233778220308 -28.380519338926202 M95.69591065370028 -29.197877856399685 C96.12098375872571 -29.009710602150577, 96.54605686375115 -28.821543347901464, 97.54233778220308 -28.380519338926202 M97.54233778220308 -28.380519338926202 C98.22656974251606 -28.023555963502407, 98.91080170282903 -27.66659258807861, 99.33260288812403 -27.44653917988677 M97.54233778220308 -28.380519338926202 C98.01982737982017 -28.131413321696044, 98.49731697743728 -27.882307304465886, 99.33260288812403 -27.44653917988677 M99.33260288812403 -27.44653917988677 C99.9632066685272 -27.06426346236721, 100.59381044893038 -26.68198774484765, 101.05934938813228 -26.399775304092984 M99.33260288812403 -27.44653917988677 C99.93288486054804 -27.082644720554903, 100.53316683297204 -26.718750261223036, 101.05934938813228 -26.399775304092984 M101.05934938813228 -26.399775304092984 C101.53812019772519 -26.065805512975274, 102.01689100731811 -25.731835721857564, 102.7154817104733 -25.244529088840633 M101.05934938813228 -26.399775304092984 C101.52414501272615 -26.07555399705459, 101.98894063732004 -25.751332690016202, 102.7154817104733 -25.244529088840633 M102.7154817104733 -25.244529088840633 C103.31001272958956 -24.770406422230277, 103.90454374870583 -24.296283755619918, 104.29419445219533 -23.985547688627737 M102.7154817104733 -25.244529088840633 C103.04235944789053 -24.98385279183229, 103.36923718530778 -24.723176494823953, 104.29419445219533 -23.985547688627737 M104.29419445219533 -23.985547688627737 C104.70294266255694 -23.614333378862334, 105.11169087291854 -23.243119069096927, 105.78900034400982 -22.62800452807842 M104.29419445219533 -23.985547688627737 C104.77440991432819 -23.54942871172354, 105.25462537646106 -23.113309734819342, 105.78900034400982 -22.62800452807842 M105.78900034400982 -22.62800452807842 C106.24851028473783 -22.153522787809003, 106.70802022546583 -21.679041047539584, 107.19375690787243 -21.177478043231485 M105.78900034400982 -22.62800452807842 C106.31385743200896 -22.086046493150995, 106.83871452000808 -21.544088458223573, 107.19375690787243 -21.177478043231485 M107.19375690787243 -21.177478043231485 C107.62747937890751 -20.66800294924594, 108.06120184994259 -20.15852785526039, 108.50269169774293 -19.63992875855011 M107.19375690787243 -21.177478043231485 C107.68076138655468 -20.605414871231456, 108.16776586523692 -20.033351699231424, 108.50269169774293 -19.63992875855011 M108.50269169774293 -19.63992875855011 C108.9576289365609 -19.030354304169112, 109.41256617537886 -18.420779849788115, 109.7104260198041 -18.02167479384835 M108.50269169774293 -19.63992875855011 C108.80370548551238 -19.236597705859264, 109.10471927328182 -18.83326665316842, 109.7104260198041 -18.02167479384835 M109.7104260198041 -18.02167479384835 C110.03518641674341 -17.522755613772386, 110.35994681368273 -17.023836433696417, 110.8119970346684 -16.329365901781543 M109.7104260198041 -18.02167479384835 C110.09366887086543 -17.432910859503163, 110.47691172192677 -16.844146925157972, 110.8119970346684 -16.329365901781543 M110.8119970346684 -16.329365901781543 C111.09278412150759 -15.830799996322861, 111.3735712083468 -15.332234090864178, 111.8028781507495 -14.56995614258631 M110.8119970346684 -16.329365901781543 C111.1507389852183 -15.727895267238205, 111.48948093576819 -15.126424632694867, 111.8028781507495 -14.56995614258631 M111.8028781507495 -14.56995614258631 C112.06205013546047 -14.031779970941876, 112.32122212017143 -13.493603799297443, 112.67899762499809 -12.750675308355413 M111.8028781507495 -14.56995614258631 C112.06505260088106 -14.025545287253548, 112.32722705101261 -13.481134431920784, 112.67899762499809 -12.750675308355413 M112.67899762499809 -12.750675308355413 C112.88284629915692 -12.247165142037082, 113.08669497331577 -11.743654975718748, 113.43675529456745 -10.878999214271206 M112.67899762499809 -12.750675308355413 C112.85311057681544 -12.320612951121644, 113.02722352863279 -11.890550593887875, 113.43675529456745 -10.878999214271206 M113.43675529456745 -10.878999214271206 C113.56545197593836 -10.491385315013554, 113.69414865730928 -10.1037714157559, 114.07303737065482 -8.962618978877531 M113.43675529456745 -10.878999214271206 C113.6752757768416 -10.160613524739386, 113.91379625911576 -9.442227835207564, 114.07303737065482 -8.962618978877531 M114.07303737065482 -8.962618978877531 C114.25790926750705 -8.257622312193025, 114.44278116435927 -7.5526256455085194, 114.58522923372745 -7.009409419623907 M114.07303737065482 -8.962618978877531 C114.25685927604076 -8.261626384723156, 114.44068118142671 -7.560633790568782, 114.58522923372745 -7.009409419623907 M114.58522923372745 -7.009409419623907 C114.674983631279 -6.548539557795314, 114.76473802883055 -6.087669695966721, 114.97122617755518 -5.027396693551458 M114.58522923372745 -7.009409419623907 C114.66873704901725 -6.580614437493764, 114.75224486430706 -6.151819455363621, 114.97122617755518 -5.027396693551458 M114.97122617755518 -5.027396693551458 C115.05287940261245 -4.394110404260315, 115.13453262766973 -3.7608241149691723, 115.22944205789975 -3.024725316091981 M114.97122617755518 -5.027396693551458 C115.03855645772968 -4.505196336385731, 115.10588673790417 -3.982995979220004, 115.22944205789975 -3.024725316091981 M115.22944205789975 -3.024725316091981 C115.26210654250814 -2.515949602019006, 115.29477102711651 -2.0071738879460312, 115.35881581032167 -1.0096246935071378 M115.22944205789975 -3.024725316091981 C115.27870269047048 -2.2574512013358587, 115.32796332304122 -1.4901770865797366, 115.35881581032167 -1.0096246935071378 M115.35881581032167 -1.0096246935071378 C115.35881581032167 -0.5825839451375154, 115.35881581032167 -0.15554319676789297, 115.35881581032167 1.00962469350713 M115.35881581032167 -1.0096246935071378 C115.35881581032167 -0.22091259171850341, 115.35881581032167 0.567799510070131, 115.35881581032167 1.00962469350713 M115.35881581032167 1.00962469350713 C115.31834122187038 1.6400490791356626, 115.2778666334191 2.270473464764195, 115.22944205789975 3.02472531609196 M115.35881581032167 1.00962469350713 C115.32688199499762 1.5070196436910634, 115.29494817967357 2.004414593874997, 115.22944205789975 3.02472531609196 M115.22944205789975 3.02472531609196 C115.17378637901437 3.4563797710699706, 115.11813070012902 3.8880342260479814, 114.97122617755518 5.027396693551435 M115.22944205789975 3.02472531609196 C115.16219198186712 3.5463036257713867, 115.0949419058345 4.067881935450814, 114.97122617755518 5.027396693551435 M114.97122617755518 5.027396693551435 C114.82750641054218 5.765367321979647, 114.68378664352919 6.5033379504078574, 114.58522923372745 7.0094094196239 M114.97122617755518 5.027396693551435 C114.81997084175572 5.804060875055127, 114.66871550595626 6.580725056558818, 114.58522923372745 7.0094094196239 M114.58522923372745 7.0094094196239 C114.3960819782966 7.730709881520731, 114.20693472286578 8.452010343417562, 114.07303737065482 8.96261897887751 M114.58522923372745 7.0094094196239 C114.43480293072886 7.58305010812964, 114.28437662773027 8.156690796635381, 114.07303737065482 8.96261897887751 M114.07303737065482 8.96261897887751 C113.89881910166712 9.487336647156894, 113.72460083267941 10.012054315436279, 113.43675529456746 10.878999214271184 M114.07303737065482 8.96261897887751 C113.84134176720715 9.660449220780718, 113.60964616375949 10.358279462683928, 113.43675529456746 10.878999214271184 M113.43675529456746 10.878999214271184 C113.23021171366842 11.389165852340279, 113.02366813276939 11.899332490409375, 112.67899762499809 12.750675308355405 M113.43675529456746 10.878999214271184 C113.17882324312806 11.516096368103463, 112.92089119168865 12.153193521935744, 112.67899762499809 12.750675308355405 M112.67899762499809 12.750675308355405 C112.47489198501167 13.174505036948315, 112.27078634502523 13.598334765541223, 111.8028781507495 14.569956142586303 M112.67899762499809 12.750675308355405 C112.33031065494637 13.474731262373782, 111.98162368489466 14.198787216392159, 111.8028781507495 14.569956142586303 M111.8028781507495 14.569956142586303 C111.51702717745529 15.07751349121997, 111.23117620416109 15.585070839853637, 110.81199703466841 16.329365901781536 M111.8028781507495 14.569956142586303 C111.52610988270469 15.06138622832603, 111.24934161465987 15.552816314065756, 110.81199703466841 16.329365901781536 M110.81199703466841 16.329365901781536 C110.51973528650412 16.778358430229975, 110.22747353833981 17.22735095867841, 109.71042601980412 18.021674793848334 M110.81199703466841 16.329365901781536 C110.54394030569145 16.74117302080048, 110.27588357671449 17.152980139819427, 109.71042601980412 18.021674793848334 M109.71042601980412 18.021674793848334 C109.29175782440456 18.582652034226495, 108.87308962900501 19.143629274604656, 108.50269169774295 19.639928758550102 M109.71042601980412 18.021674793848334 C109.3025393431165 18.568205781369045, 108.89465266642891 19.114736768889752, 108.50269169774295 19.639928758550102 M108.50269169774295 19.639928758550102 C108.20845011225632 19.98556166768321, 107.9142085267697 20.331194576816323, 107.19375690787246 21.177478043231467 M108.50269169774295 19.639928758550102 C108.02726460478561 20.198392474505745, 107.55183751182827 20.756856190461388, 107.19375690787246 21.177478043231467 M107.19375690787246 21.177478043231467 C106.80231819865118 21.58167064821814, 106.4108794894299 21.985863253204812, 105.78900034400982 22.628004528078414 M107.19375690787246 21.177478043231467 C106.73572564852157 21.65043292357701, 106.27769438917068 22.123387803922554, 105.78900034400982 22.628004528078414 M105.78900034400982 22.628004528078414 C105.26210499258494 23.106516945355438, 104.73520964116005 23.58502936263246, 104.29419445219536 23.985547688627715 M105.78900034400982 22.628004528078414 C105.35048236883743 23.026254950580153, 104.91196439366504 23.424505373081892, 104.29419445219536 23.985547688627715 M104.29419445219536 23.985547688627715 C103.69164089634762 24.466068114792755, 103.08908734049987 24.946588540957798, 102.71548171047331 25.24452908884063 M104.29419445219536 23.985547688627715 C103.83732688352495 24.349887416885768, 103.38045931485455 24.71422714514382, 102.71548171047331 25.24452908884063 M102.71548171047331 25.24452908884063 C102.15714668567236 25.6339994322081, 101.5988116608714 26.02346977557557, 101.05934938813229 26.399775304092973 M102.71548171047331 25.24452908884063 C102.24993213205973 25.569276321425505, 101.78438255364615 25.894023554010385, 101.05934938813229 26.399775304092973 M101.05934938813229 26.399775304092973 C100.4721638707222 26.755730615432093, 99.8849783533121 27.111685926771212, 99.33260288812404 27.446539179886766 M101.05934938813229 26.399775304092973 C100.6817142708272 26.628699931433598, 100.30407915352211 26.857624558774226, 99.33260288812404 27.446539179886766 M99.33260288812404 27.446539179886766 C98.97271230983056 27.634293864061565, 98.61282173153705 27.822048548236364, 97.54233778220309 28.3805193389262 M99.33260288812404 27.446539179886766 C98.66520062548491 27.79472251281405, 97.99779836284577 28.142905845741335, 97.54233778220309 28.3805193389262 M97.54233778220309 28.3805193389262 C96.93313825321232 28.65019389914846, 96.32393872422155 28.91986845937072, 95.6959106537003 29.197877856399682 M97.54233778220309 28.3805193389262 C97.13119035286579 28.562522109638667, 96.72004292352848 28.744524880351133, 95.6959106537003 29.197877856399682 M95.6959106537003 29.197877856399682 C95.08888340491579 29.421269495250755, 94.48185615613129 29.644661134101828, 93.80090886774407 29.895256030836055 M95.6959106537003 29.197877856399682 C94.94892774403712 29.472774472190054, 94.20194483437395 29.74767108798042, 93.80090886774407 29.895256030836055 M93.80090886774407 29.895256030836055 C93.22838147729901 30.065179155062552, 92.65585408685394 30.235102279289052, 91.86511939314951 30.46978818572942 M93.80090886774407 29.895256030836055 C93.22652974146287 30.06572874053876, 92.65215061518165 30.236201450241467, 91.86511939314951 30.46978818572942 M91.86511939314951 30.46978818572942 C91.3932108773491 30.577498224970004, 90.9213023615487 30.685208264210587, 89.89649680409323 30.919113445218557 M91.86511939314951 30.46978818572942 C91.23081716070776 30.614563531075355, 90.59651492826602 30.759338876421285, 89.89649680409323 30.919113445218557 M89.89649680409323 30.919113445218557 C89.36448221705392 31.005125437816332, 88.8324676300146 31.091137430414104, 87.90313059306196 31.24138543543225 M89.89649680409323 30.919113445218557 C89.35618834075926 31.00646632741568, 88.81587987742527 31.093819209612803, 87.90313059306196 31.24138543543225 M87.90313059306196 31.24138543543225 C87.31486018967075 31.29813517374873, 86.72658978627955 31.354884912065206, 85.89321192939245 31.435279871635593 M87.90313059306196 31.24138543543225 C87.26329022304323 31.303110066407328, 86.62344985302448 31.364834697382406, 85.89321192939245 31.435279871635593 M85.89321192939245 31.435279871635593 C85.40398207643915 31.450968520791665, 84.91475222348583 31.466657169947737, 83.875 31.5 M85.89321192939245 31.435279871635593 C85.15418124954235 31.458979147102433, 84.41515056969224 31.482678422569272, 83.875 31.5 M83.875 31.5 C83.875 31.5, 83.875 31.5, 83.875 31.5 M83.875 31.5 C83.875 31.5, 83.875 31.5, 83.875 31.5 M83.875 31.5 C23.070434539136343 31.5, -37.73413092172731 31.5, -83.875 31.5 M83.875 31.5 C25.245493027657425 31.5, -33.38401394468515 31.5, -83.875 31.5 M-83.875 31.5 C-84.28330914588987 31.48690632041685, -84.69161829177975 31.473812640833703, -85.89321192939244 31.435279871635593 M-83.875 31.5 C-84.6050266314065 31.47658946684143, -85.33505326281302 31.45317893368286, -85.89321192939244 31.435279871635593 M-85.89321192939244 31.435279871635593 C-86.336052002003 31.39255962242396, -86.77889207461358 31.349839373212326, -87.90313059306195 31.24138543543225 M-85.89321192939244 31.435279871635593 C-86.61113629909424 31.36602257112084, -87.32906066879606 31.296765270606084, -87.90313059306195 31.24138543543225 M-87.90313059306195 31.24138543543225 C-88.50247507961734 31.144488066831883, -89.10181956617274 31.04759069823152, -89.89649680409323 30.919113445218557 M-87.90313059306195 31.24138543543225 C-88.46315725877147 31.15084466719199, -89.02318392448099 31.06030389895173, -89.89649680409323 30.919113445218557 M-89.89649680409323 30.919113445218557 C-90.6229212780241 30.75331179940654, -91.34934575195494 30.587510153594526, -91.86511939314947 30.469788185729428 M-89.89649680409323 30.919113445218557 C-90.40299253269113 30.8035091003596, -90.90948826128904 30.687904755500643, -91.86511939314947 30.469788185729428 M-91.86511939314947 30.469788185729428 C-92.45681341116581 30.29417650704746, -93.04850742918215 30.11856482836549, -93.80090886774403 29.89525603083607 M-91.86511939314947 30.469788185729428 C-92.26253267020667 30.35183801116371, -92.65994594726386 30.233887836597994, -93.80090886774403 29.89525603083607 M-93.80090886774403 29.89525603083607 C-94.2268409990495 29.738509069242195, -94.65277313035497 29.58176210764832, -95.69591065370028 29.197877856399685 M-93.80090886774403 29.89525603083607 C-94.30037217290567 29.711448917548406, -94.7998354780673 29.527641804260746, -95.69591065370028 29.197877856399685 M-95.69591065370028 29.197877856399685 C-96.16196761939068 28.991568262777225, -96.62802458508109 28.785258669154768, -97.54233778220308 28.380519338926206 M-95.69591065370028 29.197877856399685 C-96.12220903773877 29.009168207478105, -96.54850742177726 28.820458558556528, -97.54233778220308 28.380519338926206 M-97.54233778220308 28.380519338926206 C-98.08272250962426 28.098600972763514, -98.62310723704545 27.81668260660082, -99.33260288812403 27.446539179886773 M-97.54233778220308 28.380519338926206 C-98.18222665190781 28.046689725469626, -98.82211552161256 27.712860112013043, -99.33260288812403 27.446539179886773 M-99.33260288812403 27.446539179886773 C-99.72588246140849 27.208130791394428, -100.11916203469293 26.969722402902082, -101.05934938813226 26.399775304092994 M-99.33260288812403 27.446539179886773 C-99.70214977774418 27.22251768370046, -100.07169666736434 26.998496187514146, -101.05934938813226 26.399775304092994 M-101.05934938813226 26.399775304092994 C-101.66684042579782 25.97601585408068, -102.27433146346337 25.552256404068363, -102.7154817104733 25.244529088840636 M-101.05934938813226 26.399775304092994 C-101.70096825800017 25.952209755706356, -102.34258712786809 25.50464420731972, -102.7154817104733 25.244529088840636 M-102.7154817104733 25.244529088840636 C-103.32371201362352 24.759481607766453, -103.93194231677376 24.27443412669227, -104.29419445219533 23.98554768862774 M-102.7154817104733 25.244529088840636 C-103.3039563635048 24.775236213016214, -103.89243101653629 24.30594333719179, -104.29419445219533 23.98554768862774 M-104.29419445219533 23.98554768862774 C-104.60943450612558 23.69925501244305, -104.92467456005583 23.41296233625836, -105.7890003440098 22.628004528078435 M-104.29419445219533 23.98554768862774 C-104.61778474575135 23.691671545750154, -104.94137503930739 23.39779540287257, -105.7890003440098 22.628004528078435 M-105.7890003440098 22.628004528078435 C-106.29136774736222 22.109268938986204, -106.79373515071462 21.590533349893978, -107.19375690787244 21.177478043231478 M-105.7890003440098 22.628004528078435 C-106.14838459460583 22.256910783342335, -106.50776884520185 21.88581703860623, -107.19375690787244 21.177478043231478 M-107.19375690787244 21.177478043231478 C-107.65227500540028 20.638876595456424, -108.11079310292811 20.100275147681366, -108.50269169774293 19.639928758550113 M-107.19375690787244 21.177478043231478 C-107.65309133609857 20.637917686967672, -108.1124257643247 20.098357330703866, -108.50269169774293 19.639928758550113 M-108.50269169774293 19.639928758550113 C-108.8557143001637 19.166910632326985, -109.20873690258446 18.69389250610386, -109.7104260198041 18.021674793848355 M-108.50269169774293 19.639928758550113 C-108.93291762651434 19.06346520838484, -109.36314355528576 18.487001658219565, -109.7104260198041 18.021674793848355 M-109.7104260198041 18.021674793848355 C-109.93125920442426 17.682415720258653, -110.15209238904443 17.34315664666895, -110.8119970346684 16.329365901781557 M-109.7104260198041 18.021674793848355 C-110.06932239776175 17.47031358013384, -110.42821877571942 16.918952366419322, -110.8119970346684 16.329365901781557 M-110.8119970346684 16.329365901781557 C-111.19260493460696 15.653558034711562, -111.57321283454552 14.977750167641567, -111.8028781507495 14.569956142586314 M-110.8119970346684 16.329365901781557 C-111.11030765835525 15.799685182199326, -111.40861828204213 15.270004462617095, -111.8028781507495 14.569956142586314 M-111.8028781507495 14.569956142586314 C-112.05246056594699 14.05169291722055, -112.30204298114447 13.533429691854785, -112.67899762499809 12.750675308355417 M-111.8028781507495 14.569956142586314 C-112.05559939220358 14.045175077338602, -112.30832063365766 13.52039401209089, -112.67899762499809 12.750675308355417 M-112.67899762499809 12.750675308355417 C-112.84593621239596 12.338333769944686, -113.0128747997938 11.925992231533955, -113.43675529456745 10.878999214271209 M-112.67899762499809 12.750675308355417 C-112.95837108159833 12.060617469234497, -113.23774453819857 11.37055963011358, -113.43675529456745 10.878999214271209 M-113.43675529456745 10.878999214271209 C-113.58704585216425 10.42634800033811, -113.73733640976107 9.97369678640501, -114.07303737065482 8.962618978877522 M-113.43675529456745 10.878999214271209 C-113.57890221240447 10.450875345781787, -113.7210491302415 10.022751477292367, -114.07303737065482 8.962618978877522 M-114.07303737065482 8.962618978877522 C-114.19165901218547 8.510263248776502, -114.3102806537161 8.057907518675481, -114.58522923372743 7.009409419623911 M-114.07303737065482 8.962618978877522 C-114.23363906386288 8.350175117460987, -114.39424075707096 7.737731256044453, -114.58522923372743 7.009409419623911 M-114.58522923372743 7.009409419623911 C-114.67849321270747 6.530518598910373, -114.77175719168751 6.051627778196833, -114.97122617755518 5.027396693551461 M-114.58522923372743 7.009409419623911 C-114.6946152179091 6.4477355095869715, -114.80400120209079 5.8860615995500325, -114.97122617755518 5.027396693551461 M-114.97122617755518 5.027396693551461 C-115.04220385079688 4.476907876015741, -115.11318152403858 3.92641905848002, -115.22944205789975 3.024725316091999 M-114.97122617755518 5.027396693551461 C-115.0600437280589 4.338545310853706, -115.14886127856263 3.6496939281559513, -115.22944205789975 3.024725316091999 M-115.22944205789975 3.024725316091999 C-115.27787037862203 2.2704151302055453, -115.3262986993443 1.516104944319092, -115.35881581032167 1.0096246935071416 M-115.22944205789975 3.024725316091999 C-115.28117105338794 2.21900445646979, -115.33290004887613 1.4132835968475808, -115.35881581032167 1.0096246935071416 M-115.35881581032167 1.0096246935071416 C-115.35881581032167 0.25518905511587764, -115.35881581032167 -0.4992465832753863, -115.35881581032167 -1.0096246935071262 M-115.35881581032167 1.0096246935071416 C-115.35881581032167 0.46694424201886153, -115.35881581032167 -0.0757362094694185, -115.35881581032167 -1.0096246935071262 M-115.35881581032167 -1.0096246935071262 C-115.3328791285729 -1.4136094474570067, -115.30694244682412 -1.817594201406887, -115.22944205789975 -3.024725316091956 M-115.35881581032167 -1.0096246935071262 C-115.3217202474222 -1.5874180286656514, -115.28462468452275 -2.1652113638241763, -115.22944205789975 -3.024725316091956 M-115.22944205789975 -3.024725316091956 C-115.12844271784944 -3.8080562529466304, -115.02744337779912 -4.591387189801305, -114.97122617755518 -5.027396693551446 M-115.22944205789975 -3.024725316091956 C-115.13926283957099 -3.7241375255489304, -115.04908362124223 -4.4235497350059045, -114.97122617755518 -5.027396693551446 M-114.97122617755518 -5.027396693551446 C-114.89166394138545 -5.435931960798462, -114.81210170521571 -5.844467228045478, -114.58522923372745 -7.009409419623896 M-114.97122617755518 -5.027396693551446 C-114.88883555910449 -5.4504551060323205, -114.80644494065382 -5.873513518513196, -114.58522923372745 -7.009409419623896 M-114.58522923372745 -7.009409419623896 C-114.48039340099174 -7.409193885982432, -114.37555756825606 -7.808978352340966, -114.07303737065482 -8.962618978877506 M-114.58522923372745 -7.009409419623896 C-114.45233621048146 -7.516188113461467, -114.31944318723546 -8.022966807299039, -114.07303737065482 -8.962618978877506 M-114.07303737065482 -8.962618978877506 C-113.8374789564421 -9.672083391349737, -113.60192054222938 -10.381547803821968, -113.43675529456746 -10.878999214271168 M-114.07303737065482 -8.962618978877506 C-113.83881245434351 -9.668067108134721, -113.6045875380322 -10.373515237391937, -113.43675529456746 -10.878999214271168 M-113.43675529456746 -10.878999214271168 C-113.1463916560797 -11.596203015134988, -112.85602801759194 -12.313406815998807, -112.67899762499809 -12.750675308355401 M-113.43675529456746 -10.878999214271168 C-113.22586129037178 -11.399911481992698, -113.01496728617609 -11.920823749714227, -112.67899762499809 -12.750675308355401 M-112.67899762499809 -12.750675308355401 C-112.4191194344569 -13.290317931516666, -112.15924124391573 -13.829960554677932, -111.8028781507495 -14.5699561425863 M-112.67899762499809 -12.750675308355401 C-112.39510638826631 -13.340181535728325, -112.11121515153454 -13.92968776310125, -111.8028781507495 -14.5699561425863 M-111.8028781507495 -14.5699561425863 C-111.57854422874878 -14.968283737371463, -111.35421030674804 -15.366611332156628, -110.8119970346684 -16.329365901781546 M-111.8028781507495 -14.5699561425863 C-111.4938714485215 -15.11862883271373, -111.1848647462935 -15.667301522841159, -110.8119970346684 -16.329365901781546 M-110.8119970346684 -16.329365901781546 C-110.40105738730136 -16.960679552883466, -109.99011773993435 -17.591993203985382, -109.71042601980412 -18.021674793848344 M-110.8119970346684 -16.329365901781546 C-110.42590633632227 -16.922504894310265, -110.03981563797613 -17.515643886838983, -109.71042601980412 -18.021674793848344 M-109.71042601980412 -18.021674793848344 C-109.32289036019003 -18.540937272506323, -108.93535470057596 -19.0601997511643, -108.50269169774295 -19.639928758550102 M-109.71042601980412 -18.021674793848344 C-109.43725374367177 -18.387700757359358, -109.16408146753945 -18.753726720870368, -108.50269169774295 -19.639928758550102 M-108.50269169774295 -19.639928758550102 C-107.98595995167283 -20.24691127035337, -107.4692282056027 -20.853893782156632, -107.19375690787246 -21.177478043231467 M-108.50269169774295 -19.639928758550102 C-108.20914503721093 -19.984745369289175, -107.91559837667891 -20.329561980028252, -107.19375690787246 -21.177478043231467 M-107.19375690787246 -21.177478043231467 C-106.8059572247651 -21.577913054985917, -106.41815754165775 -21.978348066740367, -105.78900034400984 -22.628004528078403 M-107.19375690787246 -21.177478043231467 C-106.8317908078668 -21.551237759456804, -106.46982470786112 -21.92499747568214, -105.78900034400984 -22.628004528078403 M-105.78900034400984 -22.628004528078403 C-105.23900172150971 -23.1274987248669, -104.68900309900958 -23.626992921655397, -104.29419445219536 -23.98554768862771 M-105.78900034400984 -22.628004528078403 C-105.36827523707572 -23.010095938419646, -104.9475501301416 -23.392187348760885, -104.29419445219536 -23.98554768862771 M-104.29419445219536 -23.98554768862771 C-103.87264520502276 -24.321721995351268, -103.45109595785017 -24.65789630207482, -102.71548171047331 -25.244529088840626 M-104.29419445219536 -23.98554768862771 C-103.87317351541613 -24.32130068187149, -103.4521525786369 -24.65705367511527, -102.71548171047331 -25.244529088840626 M-102.71548171047331 -25.244529088840626 C-102.12680843041507 -25.655162085753684, -101.53813515035682 -26.065795082666746, -101.0593493881323 -26.39977530409297 M-102.71548171047331 -25.244529088840626 C-102.22155132464793 -25.589073544090624, -101.72762093882255 -25.933617999340623, -101.0593493881323 -26.39977530409297 M-101.0593493881323 -26.39977530409297 C-100.61086570069389 -26.671648751000827, -100.16238201325548 -26.94352219790869, -99.33260288812404 -27.446539179886763 M-101.0593493881323 -26.39977530409297 C-100.5900028199162 -26.684295951932167, -100.12065625170007 -26.968816599771365, -99.33260288812404 -27.446539179886763 M-99.33260288812404 -27.446539179886763 C-98.68352526868055 -27.785162558196376, -98.03444764923707 -28.12378593650599, -97.54233778220309 -28.3805193389262 M-99.33260288812404 -27.446539179886763 C-98.74520372821863 -27.7529849453623, -98.15780456831321 -28.05943071083784, -97.54233778220309 -28.3805193389262 M-97.54233778220309 -28.3805193389262 C-97.12329338523477 -28.566017862953693, -96.70424898826644 -28.75151638698119, -95.6959106537003 -29.19787785639968 M-97.54233778220309 -28.3805193389262 C-97.07893291489809 -28.585654927265143, -96.61552804759309 -28.790790515604087, -95.6959106537003 -29.19787785639968 M-95.6959106537003 -29.19787785639968 C-95.10117430193412 -29.4167463315322, -94.50643795016796 -29.63561480666472, -93.80090886774407 -29.895256030836055 M-95.6959106537003 -29.19787785639968 C-95.01215036037223 -29.44950796495527, -94.32839006704418 -29.701138073510858, -93.80090886774407 -29.895256030836055 M-93.80090886774407 -29.895256030836055 C-93.31122827029891 -30.040590661771873, -92.82154767285375 -30.185925292707687, -91.86511939314951 -30.469788185729417 M-93.80090886774407 -29.895256030836055 C-93.16448228502229 -30.084144099916575, -92.52805570230052 -30.273032168997094, -91.86511939314951 -30.469788185729417 M-91.86511939314951 -30.469788185729417 C-91.32841777905496 -30.59228682684116, -90.7917161649604 -30.714785467952904, -89.89649680409325 -30.919113445218553 M-91.86511939314951 -30.469788185729417 C-91.08199039113346 -30.64853227004525, -90.29886138911742 -30.827276354361086, -89.89649680409325 -30.919113445218553 M-89.89649680409325 -30.919113445218553 C-89.11782100625197 -31.04500370949253, -88.3391452084107 -31.170893973766507, -87.90313059306196 -31.24138543543225 M-89.89649680409325 -30.919113445218553 C-89.47953540379557 -30.98652453083473, -89.0625740034979 -31.053935616450904, -87.90313059306196 -31.24138543543225 M-87.90313059306196 -31.24138543543225 C-87.40943572089013 -31.289011585995713, -86.9157408487183 -31.336637736559176, -85.89321192939246 -31.435279871635593 M-87.90313059306196 -31.24138543543225 C-87.17399547231798 -31.31172422361714, -86.444860351574 -31.382063011802035, -85.89321192939246 -31.435279871635593 M-85.89321192939246 -31.435279871635593 C-85.30695262464928 -31.454080066454196, -84.7206933199061 -31.4728802612728, -83.87500000000001 -31.5 M-85.89321192939246 -31.435279871635593 C-85.26835318810659 -31.455317875254874, -84.64349444682072 -31.475355878874158, -83.87500000000001 -31.5 M-83.87500000000001 -31.5 C-83.87500000000001 -31.5, -83.87500000000001 -31.5, -83.875 -31.5 M-83.87500000000001 -31.5 C-83.87500000000001 -31.5, -83.87500000000001 -31.5, -83.875 -31.5" stroke="#e65100" stroke-width="3" fill="none" stroke-dasharray="0 0" style="fill:#ffe0b2 !important;stroke:#e65100 !important;stroke-width:3px !important"/></g><g class="label" style="color:#000 !important" transform="translate(-100, -24)"><rect/><foreignObject width="200" height="48"><div style="color: rgb(0, 0, 0) !important; display: table; white-space: break-spaces; line-height: 1.5; max-width: 200px; text-align: center; width: 200px;" xmlns="http://www.w3.org/1999/xhtml"><span style="color:#000 !important" class="nodeLabel"><p>Admin Payments &amp; Payment Plans</p></span></div></foreignObject></g></g><g class="node default neighbor" id="my-svg-flowchart-READ-1" data-look="classic" transform="translate(588.7566986083984, 47)"><rect class="basic label-container" style="fill:#e3f2fd !important;stroke:#1565c0 !important" x="-109.9609375" y="-39" width="219.921875" height="78"/><g class="label" style="color:#000 !important" transform="translate(-79.9609375, -24)"><rect/><foreignObject width="159.921875" height="48"><div style="color: rgb(0, 0, 0) !important; display: table-cell; white-space: nowrap; line-height: 1.5; max-width: 200px; text-align: center;" xmlns="http://www.w3.org/1999/xhtml"><span style="color:#000 !important" class="nodeLabel"><p>GET :id/payments<br />GET :id/payment-plan</p></span></div></foreignObject></g></g><g class="node default neighbor" id="my-svg-flowchart-WRITE-2" data-look="classic" transform="translate(588.7566986083984, 175)"><rect class="basic label-container" style="fill:#e3f2fd !important;stroke:#1565c0 !important" x="-130" y="-39" width="260" height="78"/><g class="label" style="color:#000 !important" transform="translate(-100, -24)"><rect/><foreignObject width="200" height="48"><div style="color: rgb(0, 0, 0) !important; display: table; white-space: break-spaces; line-height: 1.5; max-width: 200px; text-align: center; width: 200px;" xmlns="http://www.w3.org/1999/xhtml"><span style="color:#000 !important" class="nodeLabel"><p>POST/PATCH/DELETE .../installments</p></span></div></foreignObject></g></g><g class="node default neighbor" id="my-svg-flowchart-VOID-3" data-look="classic" transform="translate(588.7566986083984, 303)"><rect class="basic label-container" style="fill:#e3f2fd !important;stroke:#1565c0 !important" x="-155.8515625" y="-39" width="311.703125" height="78"/><g class="label" style="color:#000 !important" transform="translate(-125.8515625, -24)"><rect/><foreignObject width="251.703125" height="48"><div style="color: rgb(0, 0, 0) !important; display: table; white-space: break-spaces; line-height: 1.5; max-width: 200px; text-align: center; width: 200px;" xmlns="http://www.w3.org/1999/xhtml"><span style="color:#000 !important" class="nodeLabel"><p>POST :id/payments/:transaction_id/void</p></span></div></foreignObject></g></g><g class="node default neighbor" id="my-svg-flowchart-SVC-4" data-look="classic" transform="translate(1002.4598236083984, 111)"><rect class="basic label-container" style="fill:#e3f2fd !important;stroke:#1565c0 !important" x="-129.0546875" y="-51" width="258.109375" height="102"/><g class="label" style="color:#000 !important" transform="translate(-99.0546875, -36)"><rect/><foreignObject width="198.109375" height="72"><div style="color: rgb(0, 0, 0) !important; display: table-cell; white-space: nowrap; line-height: 1.5; max-width: 200px; text-align: center;" xmlns="http://www.w3.org/1999/xhtml"><span style="color:#000 !important" class="nodeLabel"><p>OrderPaymentsService /<br />OrderPaymentPlanService /<br />OrderPaymentVoidService</p></span></div></foreignObject></g></g><g class="node default neighbor" id="my-svg-flowchart-PT-5" data-look="classic" transform="translate(1422.8895111083984, 47)"><rect class="basic label-container" style="fill:#e3f2fd !important;stroke:#1565c0 !important" x="-130" y="-39" width="260" height="78"/><g class="label" style="color:#000 !important" transform="translate(-100, -24)"><rect/><foreignObject width="200" height="48"><div style="color: rgb(0, 0, 0) !important; display: table; white-space: break-spaces; line-height: 1.5; max-width: 200px; text-align: center; width: 200px;" xmlns="http://www.w3.org/1999/xhtml"><span style="color:#000 !important" class="nodeLabel"><p>PaymentTransaction (installments)</p></span></div></foreignObject></g></g><g class="node default neighbor" id="my-svg-flowchart-MAPPER-6" data-look="classic" transform="translate(1422.8895111083984, 175)"><rect class="basic label-container" style="fill:#e3f2fd !important;stroke:#1565c0 !important" x="-130" y="-39" width="260" height="78"/><g class="label" style="color:#000 !important" transform="translate(-100, -24)"><rect/><foreignObject width="200" height="48"><div style="color: rgb(0, 0, 0) !important; display: table; white-space: break-spaces; line-height: 1.5; max-width: 200px; text-align: center; width: 200px;" xmlns="http://www.w3.org/1999/xhtml"><span style="color:#000 !important" class="nodeLabel"><p>C13 installment-row mapper</p></span></div></foreignObject></g></g><g class="node default neighbor" id="my-svg-flowchart-STRIPE-7" data-look="classic" transform="translate(1884.5926361083984, 47)"><rect class="basic label-container" style="fill:#e3f2fd !important;stroke:#1565c0 !important" x="-122.46875" y="-27" width="244.9375" height="54"/><g class="label" style="color:#000 !important" transform="translate(-92.46875, -12)"><rect/><foreignObject width="184.9375" height="24"><div style="color: rgb(0, 0, 0) !important; display: table-cell; white-space: nowrap; line-height: 1.5; max-width: 200px; text-align: center;" xmlns="http://www.w3.org/1999/xhtml"><span style="color:#000 !important" class="nodeLabel"><p>Stripe identity / webhook</p></span></div></foreignObject></g></g></g></g></g><defs><filter id="my-svg-drop-shadow" height="130%" width="130%"><feDropShadow dx="4" dy="4" stdDeviation="0" flood-opacity="0.06" flood-color="#000000"/></filter></defs><defs><filter id="my-svg-drop-shadow-small" height="150%" width="150%"><feDropShadow dx="2" dy="2" stdDeviation="0" flood-opacity="0.06" flood-color="#000000"/></filter></defs></svg>