<svg id="my-svg" width="100%" xmlns="http://www.w3.org/2000/svg" xmlns:xlink="http://www.w3.org/1999/xlink" class="flowchart" style="max-width: 1458.03px; background-color: white;" viewBox="0 0 1458.02685546875 342" role="graphics-document document" aria-roledescription="flowchart-v2"><style>#my-svg{font-family:"trebuchet ms",verdana,arial,sans-serif;font-size:16px;fill:#333;}@keyframes edge-animation-frame{from{stroke-dashoffset:0;}}@keyframes dash{to{stroke-dashoffset:0;}}#my-svg .edge-animation-slow{stroke-dasharray:9,5!important;stroke-dashoffset:900;animation:dash 50s linear infinite;stroke-linecap:round;}#my-svg .edge-animation-fast{stroke-dasharray:9,5!important;stroke-dashoffset:900;animation:dash 20s linear infinite;stroke-linecap:round;}#my-svg .error-icon{fill:#552222;}#my-svg .error-text{fill:#552222;stroke:#552222;}#my-svg .edge-thickness-normal{stroke-width:1px;}#my-svg .edge-thickness-thick{stroke-width:3.5px;}#my-svg .edge-pattern-solid{stroke-dasharray:0;}#my-svg .edge-thickness-invisible{stroke-width:0;fill:none;}#my-svg .edge-pattern-dashed{stroke-dasharray:3;}#my-svg .edge-pattern-dotted{stroke-dasharray:2;}#my-svg .marker{fill:#333333;stroke:#333333;}#my-svg .marker.cross{stroke:#333333;}#my-svg svg{font-family:"trebuchet ms",verdana,arial,sans-serif;font-size:16px;}#my-svg p{margin:0;}#my-svg .label{font-family:"trebuchet ms",verdana,arial,sans-serif;color:#333;}#my-svg .cluster-label text{fill:#333;}#my-svg .cluster-label span{color:#333;}#my-svg .cluster-label span p{background-color:transparent;}#my-svg .label text,#my-svg span{fill:#333;color:#333;}#my-svg .node rect,#my-svg .node circle,#my-svg .node ellipse,#my-svg .node polygon,#my-svg .node path{fill:#ECECFF;stroke:#9370DB;stroke-width:1px;}#my-svg .rough-node .label text,#my-svg .node .label text,#my-svg .image-shape .label,#my-svg .icon-shape .label{text-anchor:middle;}#my-svg .node .katex path{fill:#000;stroke:#000;stroke-width:1px;}#my-svg .rough-node .label,#my-svg .node .label,#my-svg .image-shape .label,#my-svg .icon-shape .label{text-align:center;}#my-svg .node.clickable{cursor:pointer;}#my-svg .root .anchor path{fill:#333333!important;stroke-width:0;stroke:#333333;}#my-svg .arrowheadPath{fill:#333333;}#my-svg .edgePath .path{stroke:#333333;stroke-width:1px;}#my-svg .flowchart-link{stroke:#333333;fill:none;}#my-svg .edgeLabel{background-color:rgba(232,232,232, 0.8);text-align:center;}#my-svg .edgeLabel p{background-color:rgba(232,232,232, 0.8);}#my-svg .edgeLabel rect{opacity:0.5;background-color:rgba(232,232,232, 0.8);fill:rgba(232,232,232, 0.8);}#my-svg .labelBkg{background-color:rgba(232, 232, 232, 0.5);}#my-svg .cluster rect{fill:#ffffde;stroke:#aaaa33;stroke-width:1px;}#my-svg .cluster text{fill:#333;}#my-svg .cluster span{color:#333;}#my-svg div.mermaidTooltip{position:absolute;text-align:center;max-width:200px;padding:2px;font-family:"trebuchet ms",verdana,arial,sans-serif;font-size:12px;background:hsl(80, 100%, 96.2745098039%);border:1px solid #aaaa33;border-radius:2px;pointer-events:none;z-index:100;}#my-svg .flowchartTitleText{text-anchor:middle;font-size:18px;fill:#333;}#my-svg rect.text{fill:none;stroke-width:0;}#my-svg .icon-shape,#my-svg .image-shape{background-color:rgba(232,232,232, 0.8);text-align:center;}#my-svg .icon-shape p,#my-svg .image-shape p{background-color:rgba(232,232,232, 0.8);padding:2px;}#my-svg .icon-shape .label rect,#my-svg .image-shape .label rect{opacity:0.5;background-color:rgba(232,232,232, 0.8);fill:rgba(232,232,232, 0.8);}#my-svg .label-icon{display:inline-block;height:1em;overflow:visible;vertical-align:-0.125em;}#my-svg .node .label-icon path{fill:currentColor;stroke:revert;stroke-width:revert;}#my-svg .node .neo-node{stroke:#9370DB;}#my-svg [data-look="neo"].node rect,#my-svg [data-look="neo"].cluster rect,#my-svg [data-look="neo"].node polygon{stroke:#9370DB;filter:drop-shadow(1px 2px 2px rgba(185, 185, 185, 1));}#my-svg [data-look="neo"].swimlane.cluster rect{filter:none;}#my-svg [data-look="neo"].node path{stroke:#9370DB;stroke-width:1px;}#my-svg [data-look="neo"].node .outer-path{filter:drop-shadow(1px 2px 2px rgba(185, 185, 185, 1));}#my-svg [data-look="neo"].node .neo-line path{stroke:#9370DB;filter:none;}#my-svg [data-look="neo"].node circle{stroke:#9370DB;filter:drop-shadow(1px 2px 2px rgba(185, 185, 185, 1));}#my-svg [data-look="neo"].node circle .state-start{fill:#000000;}#my-svg [data-look="neo"].icon-shape .icon{fill:#9370DB;filter:drop-shadow(1px 2px 2px rgba(185, 185, 185, 1));}#my-svg [data-look="neo"].icon-shape .icon-neo path{stroke:#9370DB;filter:drop-shadow(1px 2px 2px rgba(185, 185, 185, 1));}#my-svg :root{--mermaid-font-family:"trebuchet ms",verdana,arial,sans-serif;}#my-svg .ego&gt;*{fill:rgb(255, 224, 178)!important;stroke:rgb(230, 81, 0)!important;stroke-width:3px!important;color:rgb(0, 0, 0)!important;}#my-svg .ego span{fill:rgb(255, 224, 178)!important;stroke:rgb(230, 81, 0)!important;stroke-width:3px!important;color:rgb(0, 0, 0)!important;}#my-svg .ego tspan{fill:rgb(0, 0, 0)!important;}#my-svg .neighbor&gt;*{fill:rgb(227, 242, 253)!important;stroke:rgb(21, 101, 192)!important;color:rgb(0, 0, 0)!important;}#my-svg .neighbor span{fill:rgb(227, 242, 253)!important;stroke:rgb(21, 101, 192)!important;color:rgb(0, 0, 0)!important;}#my-svg .neighbor tspan{fill:rgb(0, 0, 0)!important;}</style><g><marker id="my-svg_flowchart-v2-pointEnd" class="marker flowchart-v2" viewBox="0 0 10 10" refX="5" refY="5" markerUnits="userSpaceOnUse" markerWidth="8" markerHeight="8" orient="auto"><path d="M 0 0 L 10 5 L 0 10 z" class="arrowMarkerPath" style="stroke-width: 1; stroke-dasharray: 1, 0;"/></marker><marker id="my-svg_flowchart-v2-pointStart" class="marker flowchart-v2" viewBox="0 0 10 10" refX="4.5" refY="5" markerUnits="userSpaceOnUse" markerWidth="8" markerHeight="8" orient="auto"><path d="M 0 5 L 10 10 L 10 0 z" class="arrowMarkerPath" style="stroke-width: 1; stroke-dasharray: 1, 0;"/></marker><marker id="my-svg_flowchart-v2-pointEnd-margin" class="marker flowchart-v2" viewBox="0 0 11.5 14" refX="11.5" refY="7" markerUnits="userSpaceOnUse" markerWidth="10.5" markerHeight="14" orient="auto"><path d="M 0 0 L 11.5 7 L 0 14 z" class="arrowMarkerPath" style="stroke-width: 0; stroke-dasharray: 1, 0;"/></marker><marker id="my-svg_flowchart-v2-pointStart-margin" class="marker flowchart-v2" viewBox="0 0 11.5 14" refX="1" refY="7" markerUnits="userSpaceOnUse" markerWidth="11.5" markerHeight="14" orient="auto"><polygon points="0,7 11.5,14 11.5,0" class="arrowMarkerPath" style="stroke-width: 0; stroke-dasharray: 1, 0;"/></marker><marker id="my-svg_flowchart-v2-circleEnd" class="marker flowchart-v2" viewBox="0 0 10 10" refX="11" refY="5" markerUnits="userSpaceOnUse" markerWidth="11" markerHeight="11" orient="auto"><circle cx="5" cy="5" r="5" class="arrowMarkerPath" style="stroke-width: 1; stroke-dasharray: 1, 0;"/></marker><marker id="my-svg_flowchart-v2-circleStart" class="marker flowchart-v2" viewBox="0 0 10 10" refX="-1" refY="5" markerUnits="userSpaceOnUse" markerWidth="11" markerHeight="11" orient="auto"><circle cx="5" cy="5" r="5" class="arrowMarkerPath" style="stroke-width: 1; stroke-dasharray: 1, 0;"/></marker><marker id="my-svg_flowchart-v2-circleEnd-margin" class="marker flowchart-v2" viewBox="0 0 10 10" refY="5" refX="12.25" markerUnits="userSpaceOnUse" markerWidth="14" markerHeight="14" orient="auto"><circle cx="5" cy="5" r="5" class="arrowMarkerPath" style="stroke-width: 0; stroke-dasharray: 1, 0;"/></marker><marker id="my-svg_flowchart-v2-circleStart-margin" class="marker flowchart-v2" viewBox="0 0 10 10" refX="-2" refY="5" markerUnits="userSpaceOnUse" markerWidth="14" markerHeight="14" orient="auto"><circle cx="5" cy="5" r="5" class="arrowMarkerPath" style="stroke-width: 0; stroke-dasharray: 1, 0;"/></marker><marker id="my-svg_flowchart-v2-crossEnd" class="marker cross flowchart-v2" viewBox="0 0 11 11" refX="12" refY="5.2" markerUnits="userSpaceOnUse" markerWidth="11" markerHeight="11" orient="auto"><path d="M 1,1 l 9,9 M 10,1 l -9,9" class="arrowMarkerPath" style="stroke-width: 2; stroke-dasharray: 1, 0;"/></marker><marker id="my-svg_flowchart-v2-crossStart" class="marker cross flowchart-v2" viewBox="0 0 11 11" refX="-1" refY="5.2" markerUnits="userSpaceOnUse" markerWidth="11" markerHeight="11" orient="auto"><path d="M 1,1 l 9,9 M 10,1 l -9,9" class="arrowMarkerPath" style="stroke-width: 2; stroke-dasharray: 1, 0;"/></marker><marker id="my-svg_flowchart-v2-crossEnd-margin" class="marker cross flowchart-v2" viewBox="0 0 15 15" refX="17.7" refY="7.5" markerUnits="userSpaceOnUse" markerWidth="12" markerHeight="12" orient="auto"><path d="M 1,1 L 14,14 M 1,14 L 14,1" class="arrowMarkerPath" style="stroke-width: 2.5;"/></marker><marker id="my-svg_flowchart-v2-crossStart-margin" class="marker cross flowchart-v2" viewBox="0 0 15 15" refX="-3.5" refY="7.5" markerUnits="userSpaceOnUse" markerWidth="12" markerHeight="12" orient="auto"><path d="M 1,1 L 14,14 M 1,14 L 14,1" class="arrowMarkerPath" style="stroke-width: 2.5; stroke-dasharray: 1, 0;"/></marker><g class="root"><g class="clusters"/><g class="edgePaths"><path d="M134.526,236L161.776,211.167C189.026,186.333,243.526,136.667,283.618,111.833C323.709,87,349.391,87,362.233,87L375.074,87" id="my-svg-L_CAP_EP_LIST_0" class="edge-thickness-normal edge-pattern-solid edge-thickness-normal edge-pattern-solid flowchart-link" style=";" data-edge="true" data-et="edge" data-id="L_CAP_EP_LIST_0" data-points="W3sieCI6MTM0LjUyNTUxMDcxOTg0NDI4LCJ5IjoyMzZ9LHsieCI6Mjk4LjAyNjg0MDIwOTk2MDk0LCJ5Ijo4N30seyJ4IjozNzkuMDczNzE1MjA5OTYwOTQsInkiOjg3fV0=" data-look="classic" marker-end="url(#my-svg_flowchart-v2-pointEnd)"/><path d="M182.566,236L201.81,230.5C221.053,225,259.54,214,301.246,208.5C342.951,203,387.876,203,410.338,203L432.8,203" id="my-svg-L_CAP_EP_CITY_0" class="edge-thickness-normal edge-pattern-dotted edge-thickness-normal edge-pattern-solid flowchart-link" style=";" data-edge="true" data-et="edge" data-id="L_CAP_EP_CITY_0" data-points="W3sieCI6MTgyLjU2NjMwNDIwNjg0ODE0LCJ5IjoyMzZ9LHsieCI6Mjk4LjAyNjg0MDIwOTk2MDk0LCJ5IjoyMDN9LHsieCI6NDM2LjgwMDI3NzcwOTk2MDk0LCJ5IjoyMDN9XQ==" data-look="classic" marker-end="url(#my-svg_flowchart-v2-pointEnd)"/><path d="M634.73,87L645.463,87C656.196,87,677.662,87,698.462,87C719.261,87,739.394,87,749.46,87L759.527,87" id="my-svg-L_EP_LIST_SVC_0" class="edge-thickness-normal edge-pattern-solid edge-thickness-normal edge-pattern-solid flowchart-link" style=";" data-edge="true" data-et="edge" data-id="L_EP_LIST_SVC_0" data-points="W3sieCI6NjM0LjcyOTk2NTIwOTk2MDksInkiOjg3fSx7IngiOjY5OS4xMjg0MDI3MDk5NjA5LCJ5Ijo4N30seyJ4Ijo3NjMuNTI2ODQwMjA5OTYwOSwieSI6ODd9XQ==" data-look="classic" marker-end="url(#my-svg_flowchart-v2-pointEnd)"/><path d="M997.871,60.652L1016.884,56.377C1035.897,52.101,1073.923,43.551,1111.282,39.275C1148.641,35,1185.334,35,1203.68,35L1222.027,35" id="my-svg-L_SVC_ORDER_0" class="edge-thickness-normal edge-pattern-solid edge-thickness-normal edge-pattern-solid flowchart-link" style=";" data-edge="true" data-et="edge" data-id="L_SVC_ORDER_0" data-points="W3sieCI6OTk3Ljg3MDU5MDIwOTk2MDksInkiOjYwLjY1MjE2MjE2MjE2MjE2fSx7IngiOjExMTEuOTQ4NzE1MjA5OTYxLCJ5IjozNX0seyJ4IjoxMjI2LjAyNjg0MDIwOTk2MSwieSI6MzV9XQ==" data-look="classic" marker-end="url(#my-svg_flowchart-v2-pointEnd)"/><path d="M997.871,113.348L1016.884,117.623C1035.897,121.899,1073.923,130.449,1115.632,134.725C1157.342,139,1202.735,139,1225.432,139L1248.128,139" id="my-svg-L_SVC_COMPANY_0" class="edge-thickness-normal edge-pattern-solid edge-thickness-normal edge-pattern-solid flowchart-link" style=";" data-edge="true" data-et="edge" data-id="L_SVC_COMPANY_0" data-points="W3sieCI6OTk3Ljg3MDU5MDIwOTk2MDksInkiOjExMy4zNDc4Mzc4Mzc4Mzc4M30seyJ4IjoxMTExLjk0ODcxNTIwOTk2MSwieSI6MTM5fSx7IngiOjEyNTIuMTI4NDAyNzA5OTYxLCJ5IjoxMzl9XQ==" data-look="classic" marker-end="url(#my-svg_flowchart-v2-pointEnd)"/><path d="M920.723,114L952.594,135.5C984.465,157,1048.207,200,1099.057,221.5C1149.907,243,1187.865,243,1206.845,243L1225.824,243" id="my-svg-L_SVC_DTO_0" class="edge-thickness-normal edge-pattern-solid edge-thickness-normal edge-pattern-solid flowchart-link" style=";" data-edge="true" data-et="edge" data-id="L_SVC_DTO_0" data-points="W3sieCI6OTIwLjcyMjc1MzY3MTQ5OTQsInkiOjExNH0seyJ4IjoxMTExLjk0ODcxNTIwOTk2MSwieSI6MjQzfSx7IngiOjEyMjkuODIzNzE1MjA5OTYxLCJ5IjoyNDN9XQ==" data-look="classic" marker-end="url(#my-svg_flowchart-v2-pointEnd)"/><path d="M182.566,275L201.81,280.333C221.053,285.667,259.54,296.333,295.889,301.667C332.238,307,366.449,307,383.554,307L400.66,307" id="my-svg-L_CAP_DETAILS_0" class="edge-thickness-normal edge-pattern-dotted edge-thickness-normal edge-pattern-solid flowchart-link" style=";" data-edge="true" data-et="edge" data-id="L_CAP_DETAILS_0" data-points="W3sieCI6MTgyLjU2NjMwNDIwNjg0ODE0LCJ5IjoyNzV9LHsieCI6Mjk4LjAyNjg0MDIwOTk2MDk0LCJ5IjozMDd9LHsieCI6NDA0LjY1OTY1MjcwOTk2MDk0LCJ5IjozMDd9XQ==" data-look="classic" marker-end="url(#my-svg_flowchart-v2-pointEnd)"/></g><g class="edgeLabels"><g class="edgeLabel" transform="translate(298.02684020996094, 87)"><g class="label" data-id="L_CAP_EP_LIST_0" transform="translate(-27.9609375, -12)"><foreignObject width="55.921875" height="24"><div xmlns="http://www.w3.org/1999/xhtml" class="labelBkg" style="display: table-cell; white-space: nowrap; line-height: 1.5; max-width: 200px; text-align: center;"><span class="edgeLabel"><p>exposes</p></span></div></foreignObject></g></g><g class="edgeLabel" transform="translate(298.02684020996094, 203)"><g class="label" data-id="L_CAP_EP_CITY_0" transform="translate(-56.046875, -12)"><foreignObject width="112.09375" height="24"><div xmlns="http://www.w3.org/1999/xhtml" class="labelBkg" style="display: table-cell; white-space: nowrap; line-height: 1.5; max-width: 200px; text-align: center;"><span class="edgeLabel"><p>filter dropdown</p></span></div></foreignObject></g></g><g class="edgeLabel" transform="translate(699.1284027099609, 87)"><g class="label" data-id="L_EP_LIST_SVC_0" transform="translate(-39.3984375, -12)"><foreignObject width="78.796875" height="24"><div xmlns="http://www.w3.org/1999/xhtml" class="labelBkg" style="display: table-cell; white-space: nowrap; line-height: 1.5; max-width: 200px; text-align: center;"><span class="edgeLabel"><p>handled by</p></span></div></foreignObject></g></g><g class="edgeLabel" transform="translate(1111.948715209961, 35)"><g class="label" data-id="L_SVC_ORDER_0" transform="translate(-89.078125, -12)"><foreignObject width="178.15625" height="24"><div xmlns="http://www.w3.org/1999/xhtml" class="labelBkg" style="display: table-cell; white-space: nowrap; line-height: 1.5; max-width: 200px; text-align: center;"><span class="edgeLabel"><p>reads (permission-gated)</p></span></div></foreignObject></g></g><g class="edgeLabel" transform="translate(1111.948715209961, 139)"><g class="label" data-id="L_SVC_COMPANY_0" transform="translate(-72.4765625, -12)"><foreignObject width="144.953125" height="24"><div xmlns="http://www.w3.org/1999/xhtml" class="labelBkg" style="display: table-cell; white-space: nowrap; line-height: 1.5; max-width: 200px; text-align: center;"><span class="edgeLabel"><p>joins for filter/label</p></span></div></foreignObject></g></g><g class="edgeLabel" transform="translate(1111.948715209961, 243)"><g class="label" data-id="L_SVC_DTO_0" transform="translate(-25.734375, -12)"><foreignObject width="51.46875" height="24"><div xmlns="http://www.w3.org/1999/xhtml" class="labelBkg" style="display: table-cell; white-space: nowrap; line-height: 1.5; max-width: 200px; text-align: center;"><span class="edgeLabel"><p>returns</p></span></div></foreignObject></g></g><g class="edgeLabel" transform="translate(298.02684020996094, 307)"><g class="label" data-id="L_CAP_DETAILS_0" transform="translate(-43.328125, -12)"><foreignObject width="86.65625" height="24"><div xmlns="http://www.w3.org/1999/xhtml" class="labelBkg" style="display: table-cell; white-space: nowrap; line-height: 1.5; max-width: 200px; text-align: center;"><span class="edgeLabel"><p>row View →</p></span></div></foreignObject></g></g></g><g class="nodes"><g class="node default ego" id="my-svg-flowchart-CAP-0" data-look="classic" transform="translate(112.48998260498047, 255)"><g class="basic label-container outer-path"><path d="M-85 -19.5 C-38.3635460386117 -19.5, 8.272907922776596 -19.5, 85 -19.5 C85 -19.5, 85 -19.5, 85 -19.5 C85.27775517344638 -19.491092932205223, 85.55551034689275 -19.482185864410447, 86.2493692896239 -19.45993515863156 C86.70416340199003 -19.41606171758154, 87.15895751435615 -19.372188276531528, 87.49360465284786 -19.3399052695533 C87.84372923931969 -19.283299841669255, 88.1938538257915 -19.226694413785214, 88.72759325967675 -19.140403561325776 C89.02946862333714 -19.07150247949114, 89.33134398699751 -19.002601397656505, 89.94626438623538 -18.862249829261074 C90.27770567392236 -18.763879794846407, 90.60914696160931 -18.665509760431735, 91.1446102514606 -18.50658706670804 C91.42456115485943 -18.403562546419487, 91.70451205825826 -18.300538026130937, 92.3177065951478 -18.074876768247425 C92.64590612068805 -17.92959257398377, 92.97410564622831 -17.78430837972011, 93.46073291279238 -17.568892924097174 C93.89995989524837 -17.33974848868819, 94.33918687770438 -17.110604053279207, 94.56899226407678 -16.990714730406097 C94.91304130069905 -16.782150182549117, 95.25709033732132 -16.573585634692137, 95.6379305736057 -16.342718045390892 C95.97916490868761 -16.10468774503404, 96.3203992437695 -15.866657444677195, 96.66315534457871 -15.627565626425154 C96.90558556670592 -15.434233975617854, 97.14801578883313 -15.240902324810554, 97.64045370850187 -14.848196188198123 C97.97394190971879 -14.545331027467206, 98.3074301109357 -14.24246586673629, 98.56580973676799 -14.007812326905688 C98.82760694691203 -13.737485213481285, 99.08940415705605 -13.467158100056881, 99.43542094296865 -13.10986736009568 C99.64070332303717 -12.868730995568866, 99.84598570310568 -12.62759463104205, 100.24571390812658 -12.158051136245305 C100.50348013142658 -11.81266788000933, 100.7612463547266 -11.467284623773358, 100.99335896464063 -11.156274872382312 C101.17865594702045 -10.871608948240217, 101.36395292940024 -10.58694302409812, 101.67528387860425 -10.108655082055241 C101.85405598537338 -9.791227103847866, 102.0328280921425 -9.473799125640493, 102.2886864742735 -9.019496659696287 C102.41640271544895 -8.754291152205687, 102.54411895662439 -8.489085644715086, 102.83104614880834 -7.893275190886684 C102.98363137237493 -7.516386738642595, 103.13621659594152 -7.1394982863985055, 103.30013422997033 -6.734618561215508 C103.39034674100913 -6.462912851378335, 103.48055925204793 -6.191207141541161, 103.69402313421489 -5.548287939305138 C103.76731027864514 -5.2688122947432605, 103.8405974230754 -4.989336650181383, 104.01109428754556 -4.339158212148133 C104.08918770516114 -3.93816501774178, 104.16728112277673 -3.5371718233354272, 104.25004477658177 -3.1121979531509023 C104.2862970276069 -2.8310326530166776, 104.32254927863204 -2.5498673528824525, 104.40989270250937 -1.872449005199798 C104.4356802893978 -1.4707865240470515, 104.46146787628622 -1.069124042894305, 104.48998121591342 -0.6250057626472757 C104.48998121591342 -0.16280228776697886, 104.48998121591342 0.299401187113318, 104.48998121591342 0.625005762647271 C104.46385113984265 1.0320027892671915, 104.43772106377189 1.438999815887112, 104.40989270250937 1.8724490051997846 C104.3771457555864 2.1264278589182024, 104.34439880866344 2.3804067126366197, 104.25004477658177 3.1121979531508885 C104.18653676677577 3.438298161082096, 104.12302875696977 3.7643983690133043, 104.01109428754556 4.339158212148129 C103.89687165893275 4.774738599449182, 103.78264903031993 5.210318986750236, 103.69402313421489 5.548287939305125 C103.56594460686064 5.934040057154033, 103.43786607950639 6.31979217500294, 103.30013422997033 6.734618561215495 C103.127930007623 7.1599663197555445, 102.95572578527567 7.5853140782955935, 102.83104614880834 7.893275190886679 C102.66946429203449 8.228803373775456, 102.50788243526065 8.564331556664234, 102.2886864742735 9.019496659696284 C102.05177652019388 9.440154272898846, 101.81486656611428 9.860811886101407, 101.67528387860425 10.108655082055236 C101.41435446439046 10.509512731645986, 101.15342505017665 10.910370381236735, 100.99335896464065 11.156274872382301 C100.77999340878321 11.442165279229249, 100.56662785292578 11.728055686076198, 100.24571390812659 12.158051136245302 C99.95286463064237 12.502048561174222, 99.66001535315813 12.846045986103142, 99.43542094296866 13.10986736009567 C99.2388004868172 13.312894123911718, 99.04218003066575 13.515920887727765, 98.56580973676799 14.007812326905684 C98.2790610977283 14.268229853928293, 97.99231245868862 14.528647380950904, 97.6404537085019 14.848196188198111 C97.40967884284909 15.032233002379137, 97.17890397719627 15.21626981656016, 96.66315534457871 15.627565626425152 C96.37464073340622 15.82882092958286, 96.08612612223372 16.03007623274057, 95.6379305736057 16.34271804539089 C95.39938909423914 16.487323292008234, 95.16084761487257 16.63192853862558, 94.56899226407678 16.990714730406093 C94.19969625618276 17.18337622117902, 93.83040024828874 17.37603771195195, 93.46073291279238 17.56889292409717 C93.09510680590063 17.730744755705043, 92.72948069900887 17.89259658731292, 92.3177065951478 18.07487676824742 C91.94361288742121 18.212546710775133, 91.56951917969462 18.35021665330284, 91.14461025146062 18.506587066708033 C90.68361754664313 18.643407281697776, 90.22262484182565 18.78022749668752, 89.94626438623541 18.86224982926107 C89.60200660586214 18.940824421139308, 89.25774882548887 19.019399013017544, 88.72759325967677 19.140403561325773 C88.24151546451925 19.21898884965724, 87.75543766936174 19.297574137988708, 87.49360465284788 19.3399052695533 C87.0209271506975 19.385503899707878, 86.54824964854713 19.431102529862457, 86.2493692896239 19.45993515863156 C85.8564976013618 19.472533788995772, 85.46362591309969 19.48513241935999, 85 19.5 C85 19.5, 85 19.5, 85 19.5 C40.93241711720487 19.5, -3.1351657655902585 19.5, -85 19.5 C-85.31187791546952 19.48999868228443, -85.62375583093905 19.479997364568856, -86.2493692896239 19.45993515863156 C-86.56384151555277 19.429598401204387, -86.87831374148163 19.399261643777212, -87.49360465284786 19.3399052695533 C-87.75476879608935 19.297682276232194, -88.01593293933085 19.25545928291109, -88.72759325967675 19.140403561325773 C-89.13576593751095 19.047240811185766, -89.54393861534516 18.954078061045756, -89.94626438623538 18.862249829261074 C-90.40781727149192 18.72526335565747, -90.86937015674845 18.58827688205387, -91.14461025146059 18.506587066708043 C-91.51869791770157 18.36891934750288, -91.89278558394255 18.231251628297723, -92.3177065951478 18.074876768247425 C-92.61211990427994 17.94454872975514, -92.90653321341208 17.814220691262857, -93.46073291279238 17.568892924097174 C-93.73555172103144 17.425520127868705, -94.0103705292705 17.282147331640232, -94.56899226407678 16.990714730406097 C-94.94703942518836 16.761540319688535, -95.32508658629996 16.53236590897097, -95.63793057360569 16.3427180453909 C-95.99733060308066 16.092016143005687, -96.35673063255562 15.84131424062047, -96.66315534457871 15.627565626425156 C-96.94503222131935 15.40277631828321, -97.22690909805999 15.177987010141266, -97.64045370850187 14.848196188198125 C-97.90780270100424 14.605396906874178, -98.17515169350663 14.362597625550231, -98.56580973676797 14.007812326905697 C-98.80161796682003 13.764320969161204, -99.03742619687209 13.520829611416712, -99.43542094296865 13.109867360095677 C-99.72545964542746 12.769171396517853, -100.01549834788628 12.42847543294003, -100.24571390812658 12.158051136245307 C-100.51449202724116 11.797912942822144, -100.78327014635575 11.437774749398983, -100.99335896464063 11.156274872382316 C-101.22787107089933 10.796001301851055, -101.46238317715803 10.435727731319792, -101.67528387860425 10.108655082055249 C-101.81745254139881 9.856220225125345, -101.95962120419335 9.60378536819544, -102.2886864742735 9.019496659696289 C-102.39974504649035 8.788881158215231, -102.5108036187072 8.558265656734173, -102.83104614880834 7.893275190886686 C-102.98250299380405 7.5191738555284156, -103.13395983879974 7.145072520170145, -103.30013422997033 6.73461856121551 C-103.38412585172966 6.481649178723959, -103.468117473489 6.228679796232408, -103.69402313421489 5.5482879393051325 C-103.80317255801499 5.132053880695793, -103.91232198181511 4.715819822086452, -104.01109428754556 4.339158212148136 C-104.09027116525598 3.9326016791441427, -104.16944804296641 3.5260451461401496, -104.25004477658177 3.112197953150904 C-104.28320789539579 2.8549913524279242, -104.3163710142098 2.5977847517049444, -104.40989270250937 1.872449005199809 C-104.43371996245857 1.5013201984730185, -104.45754722240775 1.1301913917462278, -104.48998121591342 0.6250057626472781 C-104.48998121591342 0.26117662198778957, -104.48998121591342 -0.102652518671699, -104.48998121591342 -0.6250057626472687 C-104.4683459393831 -0.9619926582879448, -104.44671066285277 -1.2989795539286209, -104.40989270250937 -1.8724490051997822 C-104.35221916737017 -2.319753554811709, -104.29454563223096 -2.767058104423636, -104.25004477658177 -3.112197953150895 C-104.19667835973655 -3.386223224654949, -104.14331194289132 -3.660248496159003, -104.01109428754556 -4.339158212148126 C-103.9444920956224 -4.593141235523752, -103.87788990369923 -4.847124258899377, -103.69402313421489 -5.548287939305123 C-103.5801868081375 -5.891144816094744, -103.46635048206011 -6.234001692884365, -103.30013422997033 -6.734618561215485 C-103.2019726511511 -6.977079558724014, -103.10381107233185 -7.219540556232543, -102.83104614880834 -7.893275190886676 C-102.6557954742005 -8.257186966473583, -102.48054479959268 -8.621098742060488, -102.2886864742735 -9.019496659696282 C-102.10567570413633 -9.344450813924825, -101.92266493399917 -9.669404968153367, -101.67528387860425 -10.108655082055243 C-101.49890064957349 -10.379627087375285, -101.32251742054272 -10.650599092695327, -100.99335896464063 -11.156274872382308 C-100.79635139715057 -11.42024706506038, -100.59934382966051 -11.684219257738452, -100.24571390812659 -12.158051136245302 C-100.05883243462146 -12.37757274888151, -99.87195096111634 -12.597094361517719, -99.43542094296866 -13.10986736009567 C-99.17764465843051 -13.376042537707866, -98.91986837389236 -13.642217715320061, -98.56580973676799 -14.007812326905677 C-98.33567010953126 -14.21681904720121, -98.10553048229455 -14.42582576749674, -97.6404537085019 -14.848196188198107 C-97.32832656574861 -15.09710927849175, -97.01619942299531 -15.346022368785395, -96.66315534457871 -15.627565626425149 C-96.29957903472611 -15.881180721213545, -95.93600272487349 -16.13479581600194, -95.63793057360571 -16.342718045390885 C-95.22930278793363 -16.590430610428715, -94.82067500226155 -16.838143175466545, -94.56899226407678 -16.99071473040609 C-94.26398325199027 -17.14983773664403, -93.95897423990375 -17.308960742881975, -93.4607329127924 -17.56889292409717 C-93.04982879557647 -17.7507879877511, -92.63892467836054 -17.932683051405032, -92.31770659514781 -18.07487676824742 C-91.91100383124765 -18.224547144881814, -91.50430106734751 -18.374217521516204, -91.14461025146062 -18.506587066708033 C-90.89874149945773 -18.579559621711077, -90.65287274745482 -18.65253217671412, -89.94626438623541 -18.862249829261067 C-89.52141952531079 -18.959217896395305, -89.09657466438615 -19.056185963529543, -88.72759325967677 -19.140403561325773 C-88.41300513563597 -19.19126372955335, -88.09841701159519 -19.242123897780925, -87.49360465284788 -19.3399052695533 C-87.22247073231931 -19.366061232780442, -86.95133681179072 -19.392217196007586, -86.2493692896239 -19.45993515863156 C-85.7889897997583 -19.474698632797235, -85.32861030989268 -19.489462106962907, -85 -19.5 C-85 -19.5, -85 -19.5, -85 -19.5" stroke="none" stroke-width="0" fill="#ffe0b2" style="fill:#ffe0b2 !important;stroke:#e65100 !important;stroke-width:3px !important"/><path d="M-85 -19.5 C-29.84466187431314 -19.5, 25.31067625137372 -19.5, 85 -19.5 M-85 -19.5 C-19.000525137667736 -19.5, 46.99894972466453 -19.5, 85 -19.5 M85 -19.5 C85 -19.5, 85 -19.5, 85 -19.5 M85 -19.5 C85 -19.5, 85 -19.5, 85 -19.5 M85 -19.5 C85.41646166786528 -19.486644884905022, 85.83292333573054 -19.473289769810044, 86.2493692896239 -19.45993515863156 M85 -19.5 C85.39688967443001 -19.487272520639916, 85.79377934886003 -19.474545041279832, 86.2493692896239 -19.45993515863156 M86.2493692896239 -19.45993515863156 C86.60114119970059 -19.42600014553408, 86.95291310977728 -19.3920651324366, 87.49360465284786 -19.3399052695533 M86.2493692896239 -19.45993515863156 C86.64689884736427 -19.421585960295587, 87.04442840510463 -19.383236761959616, 87.49360465284786 -19.3399052695533 M87.49360465284786 -19.3399052695533 C87.98471741060096 -19.260505967516096, 88.47583016835408 -19.181106665478893, 88.72759325967675 -19.140403561325776 M87.49360465284786 -19.3399052695533 C87.92624760456667 -19.269958912315605, 88.35889055628546 -19.200012555077908, 88.72759325967675 -19.140403561325776 M88.72759325967675 -19.140403561325776 C89.08834949156123 -19.058063305552565, 89.44910572344571 -18.97572304977935, 89.94626438623538 -18.862249829261074 M88.72759325967675 -19.140403561325776 C89.03764641623627 -19.069635951627, 89.34769957279578 -18.998868341928222, 89.94626438623538 -18.862249829261074 M89.94626438623538 -18.862249829261074 C90.18676660358025 -18.790870033575022, 90.42726882092511 -18.719490237888966, 91.1446102514606 -18.50658706670804 M89.94626438623538 -18.862249829261074 C90.24341854280118 -18.774056035386344, 90.54057269936699 -18.68586224151161, 91.1446102514606 -18.50658706670804 M91.1446102514606 -18.50658706670804 C91.38073587415187 -18.419690654836327, 91.61686149684313 -18.33279424296461, 92.3177065951478 -18.074876768247425 M91.1446102514606 -18.50658706670804 C91.53159612094646 -18.36417268947908, 91.91858199043232 -18.221758312250124, 92.3177065951478 -18.074876768247425 M92.3177065951478 -18.074876768247425 C92.6824495402072 -17.913415886184666, 93.04719248526662 -17.751955004121903, 93.46073291279238 -17.568892924097174 M92.3177065951478 -18.074876768247425 C92.75030948990978 -17.883376299445217, 93.18291238467178 -17.69187583064301, 93.46073291279238 -17.568892924097174 M93.46073291279238 -17.568892924097174 C93.72634159446136 -17.430325045000945, 93.99195027613035 -17.291757165904716, 94.56899226407678 -16.990714730406097 M93.46073291279238 -17.568892924097174 C93.8957517153482 -17.341943893446647, 94.33077051790401 -17.11499486279612, 94.56899226407678 -16.990714730406097 M94.56899226407678 -16.990714730406097 C94.85313081028825 -16.818468273909268, 95.13726935649971 -16.646221817412435, 95.6379305736057 -16.342718045390892 M94.56899226407678 -16.990714730406097 C94.78381419004158 -16.860488416452473, 94.99863611600638 -16.73026210249885, 95.6379305736057 -16.342718045390892 M95.6379305736057 -16.342718045390892 C95.9197053371847 -16.14616416815111, 96.20148010076367 -15.94961029091133, 96.66315534457871 -15.627565626425154 M95.6379305736057 -16.342718045390892 C95.88504049105633 -16.170344864193254, 96.13215040850694 -15.997971682995619, 96.66315534457871 -15.627565626425154 M96.66315534457871 -15.627565626425154 C96.9551365445667 -15.39471838938078, 97.24711774455469 -15.161871152336404, 97.64045370850187 -14.848196188198123 M96.66315534457871 -15.627565626425154 C96.91373970180965 -15.427731269863276, 97.1643240590406 -15.227896913301397, 97.64045370850187 -14.848196188198123 M97.64045370850187 -14.848196188198123 C97.86132077401051 -14.647610563125502, 98.08218783951914 -14.44702493805288, 98.56580973676799 -14.007812326905688 M97.64045370850187 -14.848196188198123 C97.96062993330231 -14.557420612233045, 98.28080615810276 -14.266645036267969, 98.56580973676799 -14.007812326905688 M98.56580973676799 -14.007812326905688 C98.81138433978835 -13.754236387237292, 99.05695894280872 -13.500660447568894, 99.43542094296865 -13.10986736009568 M98.56580973676799 -14.007812326905688 C98.82932613526147 -13.735710010362501, 99.09284253375493 -13.463607693819316, 99.43542094296865 -13.10986736009568 M99.43542094296865 -13.10986736009568 C99.64221117009106 -12.86695979262044, 99.84900139721347 -12.6240522251452, 100.24571390812658 -12.158051136245305 M99.43542094296865 -13.10986736009568 C99.6502134762071 -12.857559828512416, 99.86500600944555 -12.605252296929152, 100.24571390812658 -12.158051136245305 M100.24571390812658 -12.158051136245305 C100.41076052804938 -11.936903701605136, 100.5758071479722 -11.715756266964968, 100.99335896464063 -11.156274872382312 M100.24571390812658 -12.158051136245305 C100.51500356538251 -11.79722752831481, 100.78429322263845 -11.436403920384315, 100.99335896464063 -11.156274872382312 M100.99335896464063 -11.156274872382312 C101.24581214770407 -10.768438990025283, 101.49826533076751 -10.380603107668254, 101.67528387860425 -10.108655082055241 M100.99335896464063 -11.156274872382312 C101.19443193658091 -10.847372791828974, 101.39550490852119 -10.538470711275634, 101.67528387860425 -10.108655082055241 M101.67528387860425 -10.108655082055241 C101.92038443204108 -9.673454230305826, 102.1654849854779 -9.23825337855641, 102.2886864742735 -9.019496659696287 M101.67528387860425 -10.108655082055241 C101.86199444714515 -9.777131561115658, 102.04870501568605 -9.445608040176072, 102.2886864742735 -9.019496659696287 M102.2886864742735 -9.019496659696287 C102.41089723397404 -8.765723402286756, 102.53310799367458 -8.511950144877225, 102.83104614880834 -7.893275190886684 M102.2886864742735 -9.019496659696287 C102.42924446678327 -8.727624980790504, 102.56980245929303 -8.435753301884718, 102.83104614880834 -7.893275190886684 M102.83104614880834 -7.893275190886684 C102.93123718348 -7.645801398185836, 103.03142821815163 -7.3983276054849885, 103.30013422997033 -6.734618561215508 M102.83104614880834 -7.893275190886684 C102.9258652732254 -7.659070120373494, 103.02068439764246 -7.424865049860304, 103.30013422997033 -6.734618561215508 M103.30013422997033 -6.734618561215508 C103.41130419378956 -6.399792342720319, 103.52247415760878 -6.064966124225131, 103.69402313421489 -5.548287939305138 M103.30013422997033 -6.734618561215508 C103.39129965756749 -6.460042818531201, 103.48246508516463 -6.185467075846893, 103.69402313421489 -5.548287939305138 M103.69402313421489 -5.548287939305138 C103.77064390936867 -5.256099715989725, 103.84726468452246 -4.9639114926743115, 104.01109428754556 -4.339158212148133 M103.69402313421489 -5.548287939305138 C103.79588002778608 -5.159863459061258, 103.89773692135726 -4.771438978817378, 104.01109428754556 -4.339158212148133 M104.01109428754556 -4.339158212148133 C104.09019217965987 -3.933007253486587, 104.16929007177417 -3.5268562948250417, 104.25004477658177 -3.1121979531509023 M104.01109428754556 -4.339158212148133 C104.08259649418373 -3.972009493057839, 104.1540987008219 -3.6048607739675447, 104.25004477658177 -3.1121979531509023 M104.25004477658177 -3.1121979531509023 C104.3041033317161 -2.6929304745981235, 104.35816188685045 -2.2736629960453447, 104.40989270250937 -1.872449005199798 M104.25004477658177 -3.1121979531509023 C104.3112038792246 -2.6378600302838966, 104.37236298186745 -2.1635221074168913, 104.40989270250937 -1.872449005199798 M104.40989270250937 -1.872449005199798 C104.4359255315986 -1.466966678813688, 104.46195836068782 -1.0614843524275779, 104.48998121591342 -0.6250057626472757 M104.40989270250937 -1.872449005199798 C104.42928082302183 -1.5704633784090825, 104.44866894353429 -1.2684777516183672, 104.48998121591342 -0.6250057626472757 M104.48998121591342 -0.6250057626472757 C104.48998121591342 -0.1521218579141444, 104.48998121591342 0.3207620468189869, 104.48998121591342 0.625005762647271 M104.48998121591342 -0.6250057626472757 C104.48998121591342 -0.25719196204984024, 104.48998121591342 0.11062183854759522, 104.48998121591342 0.625005762647271 M104.48998121591342 0.625005762647271 C104.45915284060173 1.1051825923433647, 104.42832446529006 1.5853594220394582, 104.40989270250937 1.8724490051997846 M104.48998121591342 0.625005762647271 C104.46076377460379 1.0800909949387254, 104.43154633329418 1.5351762272301794, 104.40989270250937 1.8724490051997846 M104.40989270250937 1.8724490051997846 C104.35486674976954 2.2992194285464342, 104.29984079702972 2.7259898518930843, 104.25004477658177 3.1121979531508885 M104.40989270250937 1.8724490051997846 C104.3765897298261 2.1307402849154906, 104.3432867571428 2.3890315646311966, 104.25004477658177 3.1121979531508885 M104.25004477658177 3.1121979531508885 C104.17585575738032 3.4931428868956065, 104.10166673817886 3.874087820640325, 104.01109428754556 4.339158212148129 M104.25004477658177 3.1121979531508885 C104.19587110133428 3.3903683259364605, 104.14169742608678 3.668538698722033, 104.01109428754556 4.339158212148129 M104.01109428754556 4.339158212148129 C103.92544200365127 4.665787492571727, 103.83978971975698 4.992416772995326, 103.69402313421489 5.548287939305125 M104.01109428754556 4.339158212148129 C103.92516113703397 4.666858558711886, 103.83922798652236 4.994558905275644, 103.69402313421489 5.548287939305125 M103.69402313421489 5.548287939305125 C103.54552601023434 5.99553761693087, 103.3970288862538 6.442787294556615, 103.30013422997033 6.734618561215495 M103.69402313421489 5.548287939305125 C103.54851648450993 5.986530784880186, 103.40300983480496 6.424773630455246, 103.30013422997033 6.734618561215495 M103.30013422997033 6.734618561215495 C103.11271133181067 7.19755674324507, 102.92528843365102 7.660494925274646, 102.83104614880834 7.893275190886679 M103.30013422997033 6.734618561215495 C103.20448934678824 6.970863271843275, 103.10884446360615 7.207107982471055, 102.83104614880834 7.893275190886679 M102.83104614880834 7.893275190886679 C102.71159326507284 8.14132165984573, 102.59214038133733 8.389368128804781, 102.2886864742735 9.019496659696284 M102.83104614880834 7.893275190886679 C102.62126474317309 8.328890768291316, 102.41148333753783 8.764506345695953, 102.2886864742735 9.019496659696284 M102.2886864742735 9.019496659696284 C102.09217849190581 9.368416480981052, 101.89567050953814 9.717336302265819, 101.67528387860425 10.108655082055236 M102.2886864742735 9.019496659696284 C102.13344639828908 9.295141134368908, 101.97820632230466 9.570785609041534, 101.67528387860425 10.108655082055236 M101.67528387860425 10.108655082055236 C101.41484096021719 10.508765343413694, 101.15439804183013 10.90887560477215, 100.99335896464065 11.156274872382301 M101.67528387860425 10.108655082055236 C101.53112970981618 10.33011459612804, 101.38697554102814 10.551574110200844, 100.99335896464065 11.156274872382301 M100.99335896464065 11.156274872382301 C100.70692896338245 11.540064979758366, 100.42049896212424 11.923855087134433, 100.24571390812659 12.158051136245302 M100.99335896464065 11.156274872382301 C100.74259816057092 11.492271505056523, 100.4918373565012 11.828268137730744, 100.24571390812659 12.158051136245302 M100.24571390812659 12.158051136245302 C99.95144451984005 12.503716704129209, 99.65717513155352 12.849382272013118, 99.43542094296866 13.10986736009567 M100.24571390812659 12.158051136245302 C99.99343438686357 12.454393017032272, 99.74115486560054 12.750734897819243, 99.43542094296866 13.10986736009567 M99.43542094296866 13.10986736009567 C99.23322642184063 13.318649803639278, 99.03103190071259 13.527432247182887, 98.56580973676799 14.007812326905684 M99.43542094296866 13.10986736009567 C99.22418139012507 13.327989541496505, 99.01294183728147 13.546111722897342, 98.56580973676799 14.007812326905684 M98.56580973676799 14.007812326905684 C98.37023252135882 14.185430379250745, 98.17465530594964 14.363048431595805, 97.6404537085019 14.848196188198111 M98.56580973676799 14.007812326905684 C98.28934271020016 14.258892365517914, 98.01287568363232 14.509972404130146, 97.6404537085019 14.848196188198111 M97.6404537085019 14.848196188198111 C97.30810101785478 15.113238614712646, 96.97574832720767 15.378281041227183, 96.66315534457871 15.627565626425152 M97.6404537085019 14.848196188198111 C97.33025516362105 15.09557127301063, 97.0200566187402 15.34294635782315, 96.66315534457871 15.627565626425152 M96.66315534457871 15.627565626425152 C96.27842089074771 15.895939726531576, 95.89368643691672 16.164313826638, 95.6379305736057 16.34271804539089 M96.66315534457871 15.627565626425152 C96.26149570909952 15.907746000570054, 95.85983607362033 16.187926374714955, 95.6379305736057 16.34271804539089 M95.6379305736057 16.34271804539089 C95.27905353666888 16.560271414177556, 94.92017649973205 16.77782478296422, 94.56899226407678 16.990714730406093 M95.6379305736057 16.34271804539089 C95.23965504394677 16.584155011996938, 94.84137951428785 16.825591978602986, 94.56899226407678 16.990714730406093 M94.56899226407678 16.990714730406093 C94.33161438338385 17.114554618715808, 94.0942365026909 17.238394507025525, 93.46073291279238 17.56889292409717 M94.56899226407678 16.990714730406093 C94.13886300296632 17.21511289041648, 93.70873374185585 17.439511050426873, 93.46073291279238 17.56889292409717 M93.46073291279238 17.56889292409717 C93.20063843620623 17.68402903345334, 92.9405439596201 17.799165142809503, 92.3177065951478 18.07487676824742 M93.46073291279238 17.56889292409717 C93.02625129243229 17.76122504899124, 92.5917696720722 17.95355717388531, 92.3177065951478 18.07487676824742 M92.3177065951478 18.07487676824742 C92.02275485104528 18.183421736581185, 91.72780310694274 18.291966704914948, 91.14461025146062 18.506587066708033 M92.3177065951478 18.07487676824742 C92.03949057504815 18.177262835444786, 91.76127455494851 18.279648902642155, 91.14461025146062 18.506587066708033 M91.14461025146062 18.506587066708033 C90.70378012553554 18.637423134118045, 90.26294999961047 18.768259201528057, 89.94626438623541 18.86224982926107 M91.14461025146062 18.506587066708033 C90.89858475210633 18.579606143502186, 90.65255925275206 18.65262522029634, 89.94626438623541 18.86224982926107 M89.94626438623541 18.86224982926107 C89.5807408354783 18.945678194457297, 89.21521728472119 19.029106559653524, 88.72759325967677 19.140403561325773 M89.94626438623541 18.86224982926107 C89.63661465233297 18.93292536037095, 89.32696491843052 19.00360089148083, 88.72759325967677 19.140403561325773 M88.72759325967677 19.140403561325773 C88.34237446748347 19.202682748231233, 87.95715567529018 19.264961935136697, 87.49360465284788 19.3399052695533 M88.72759325967677 19.140403561325773 C88.34487475023907 19.202278521905292, 87.96215624080136 19.26415348248481, 87.49360465284788 19.3399052695533 M87.49360465284788 19.3399052695533 C87.06282403335616 19.38146215782617, 86.63204341386444 19.423019046099043, 86.2493692896239 19.45993515863156 M87.49360465284788 19.3399052695533 C87.19721351010332 19.368497766631364, 86.90082236735876 19.39709026370943, 86.2493692896239 19.45993515863156 M86.2493692896239 19.45993515863156 C85.81870608336808 19.473745689421104, 85.38804287711227 19.48755622021065, 85 19.5 M86.2493692896239 19.45993515863156 C85.8223206072559 19.473629778675267, 85.39527192488792 19.48732439871897, 85 19.5 M85 19.5 C85 19.5, 85 19.5, 85 19.5 M85 19.5 C85 19.5, 85 19.5, 85 19.5 M85 19.5 C32.37456699678905 19.5, -20.2508660064219 19.5, -85 19.5 M85 19.5 C36.590589705879935 19.5, -11.81882058824013 19.5, -85 19.5 M-85 19.5 C-85.3250046257412 19.489577734235606, -85.65000925148239 19.479155468471216, -86.2493692896239 19.45993515863156 M-85 19.5 C-85.27199123850909 19.491277770379842, -85.54398247701819 19.482555540759684, -86.2493692896239 19.45993515863156 M-86.2493692896239 19.45993515863156 C-86.63472002170214 19.42276083696003, -87.02007075378037 19.385586515288505, -87.49360465284786 19.3399052695533 M-86.2493692896239 19.45993515863156 C-86.50485622374676 19.43528864136472, -86.76034315786961 19.41064212409788, -87.49360465284786 19.3399052695533 M-87.49360465284786 19.3399052695533 C-87.88765471024004 19.276198312177964, -88.28170476763223 19.212491354802633, -88.72759325967675 19.140403561325773 M-87.49360465284786 19.3399052695533 C-87.76442152928713 19.29612169718684, -88.03523840572639 19.252338124820383, -88.72759325967675 19.140403561325773 M-88.72759325967675 19.140403561325773 C-89.20056366586876 19.03245115253279, -89.67353407206078 18.924498743739804, -89.94626438623538 18.862249829261074 M-88.72759325967675 19.140403561325773 C-89.01502138274843 19.07479996787845, -89.30244950582012 19.009196374431134, -89.94626438623538 18.862249829261074 M-89.94626438623538 18.862249829261074 C-90.31140042970492 18.753879368197524, -90.67653647317445 18.64550890713397, -91.14461025146059 18.506587066708043 M-89.94626438623538 18.862249829261074 C-90.22827410757577 18.778550824266485, -90.51028382891614 18.694851819271893, -91.14461025146059 18.506587066708043 M-91.14461025146059 18.506587066708043 C-91.47571635334948 18.384736960501677, -91.80682245523839 18.262886854295306, -92.3177065951478 18.074876768247425 M-91.14461025146059 18.506587066708043 C-91.59121254350073 18.34223329489094, -92.03781483554089 18.177879523073834, -92.3177065951478 18.074876768247425 M-92.3177065951478 18.074876768247425 C-92.55677508021346 17.969048241623497, -92.79584356527913 17.863219714999566, -93.46073291279238 17.568892924097174 M-92.3177065951478 18.074876768247425 C-92.56699437767529 17.964524461781835, -92.81628216020276 17.854172155316245, -93.46073291279238 17.568892924097174 M-93.46073291279238 17.568892924097174 C-93.79664186883215 17.39364943689118, -94.13255082487193 17.218405949685188, -94.56899226407678 16.990714730406097 M-93.46073291279238 17.568892924097174 C-93.68857619305632 17.45002723072406, -93.91641947332027 17.331161537350944, -94.56899226407678 16.990714730406097 M-94.56899226407678 16.990714730406097 C-94.92124571716039 16.777176617075753, -95.273499170244 16.563638503745405, -95.63793057360569 16.3427180453909 M-94.56899226407678 16.990714730406097 C-94.9314564852587 16.770986789449417, -95.29392070644062 16.55125884849274, -95.63793057360569 16.3427180453909 M-95.63793057360569 16.3427180453909 C-96.02507871775641 16.072660259404397, -96.41222686190716 15.802602473417894, -96.66315534457871 15.627565626425156 M-95.63793057360569 16.3427180453909 C-95.85017447519297 16.194665887534025, -96.06241837678026 16.046613729677155, -96.66315534457871 15.627565626425156 M-96.66315534457871 15.627565626425156 C-96.9893534447623 15.367431322024744, -97.31555154494589 15.107297017624331, -97.64045370850187 14.848196188198125 M-96.66315534457871 15.627565626425156 C-97.0230823629968 15.340533407296936, -97.38300938141491 15.053501188168717, -97.64045370850187 14.848196188198125 M-97.64045370850187 14.848196188198125 C-97.84755408808896 14.660113103032907, -98.05465446767603 14.472030017867691, -98.56580973676797 14.007812326905697 M-97.64045370850187 14.848196188198125 C-97.9364399208585 14.579389341501859, -98.23242613321514 14.31058249480559, -98.56580973676797 14.007812326905697 M-98.56580973676797 14.007812326905697 C-98.80473339235415 13.761104036516036, -99.04365704794033 13.514395746126377, -99.43542094296865 13.109867360095677 M-98.56580973676797 14.007812326905697 C-98.85045783588284 13.71388979452604, -99.1351059349977 13.419967262146383, -99.43542094296865 13.109867360095677 M-99.43542094296865 13.109867360095677 C-99.73444606069738 12.75861544180029, -100.03347117842613 12.407363523504904, -100.24571390812658 12.158051136245307 M-99.43542094296865 13.109867360095677 C-99.66952174083691 12.834879242206858, -99.90362253870518 12.559891124318039, -100.24571390812658 12.158051136245307 M-100.24571390812658 12.158051136245307 C-100.44477877516609 11.891322349594825, -100.6438436422056 11.624593562944343, -100.99335896464063 11.156274872382316 M-100.24571390812658 12.158051136245307 C-100.39698719741511 11.955358709878823, -100.54826048670365 11.752666283512339, -100.99335896464063 11.156274872382316 M-100.99335896464063 11.156274872382316 C-101.17842154721897 10.871969049280422, -101.36348412979733 10.58766322617853, -101.67528387860425 10.108655082055249 M-100.99335896464063 11.156274872382316 C-101.12997110916368 10.94640193289767, -101.26658325368672 10.736528993413023, -101.67528387860425 10.108655082055249 M-101.67528387860425 10.108655082055249 C-101.90575467753828 9.69943084084882, -102.13622547647232 9.290206599642392, -102.2886864742735 9.019496659696289 M-101.67528387860425 10.108655082055249 C-101.89184189168799 9.724134400948355, -102.10839990477173 9.339613719841461, -102.2886864742735 9.019496659696289 M-102.2886864742735 9.019496659696289 C-102.45445933515381 8.675265767107318, -102.62023219603412 8.331034874518346, -102.83104614880834 7.893275190886686 M-102.2886864742735 9.019496659696289 C-102.4802906428032 8.621626504071914, -102.6718948113329 8.22375634844754, -102.83104614880834 7.893275190886686 M-102.83104614880834 7.893275190886686 C-102.9928852246517 7.493529544607932, -103.15472430049505 7.0937838983291766, -103.30013422997033 6.73461856121551 M-102.83104614880834 7.893275190886686 C-102.9362895831022 7.63332187343748, -103.04153301739605 7.373368555988275, -103.30013422997033 6.73461856121551 M-103.30013422997033 6.73461856121551 C-103.42128051871313 6.369745241562032, -103.54242680745594 6.004871921908554, -103.69402313421489 5.5482879393051325 M-103.30013422997033 6.73461856121551 C-103.38737298298999 6.471869336727983, -103.47461173600965 6.2091201122404565, -103.69402313421489 5.5482879393051325 M-103.69402313421489 5.5482879393051325 C-103.78263523030914 5.210371612172358, -103.87124732640339 4.872455285039582, -104.01109428754556 4.339158212148136 M-103.69402313421489 5.5482879393051325 C-103.76588911693686 5.274231800272303, -103.83775509965884 5.000175661239474, -104.01109428754556 4.339158212148136 M-104.01109428754556 4.339158212148136 C-104.07664310952912 4.002578865010989, -104.14219193151268 3.6659995178738423, -104.25004477658177 3.112197953150904 M-104.01109428754556 4.339158212148136 C-104.06031418292588 4.086424451998738, -104.10953407830621 3.8336906918493403, -104.25004477658177 3.112197953150904 M-104.25004477658177 3.112197953150904 C-104.30798135159971 2.662853318182596, -104.36591792661764 2.2135086832142883, -104.40989270250937 1.872449005199809 M-104.25004477658177 3.112197953150904 C-104.28917973256722 2.8086749625989387, -104.32831468855267 2.5051519720469737, -104.40989270250937 1.872449005199809 M-104.40989270250937 1.872449005199809 C-104.43936941468031 1.4133254199635517, -104.46884612685126 0.9542018347272944, -104.48998121591342 0.6250057626472781 M-104.40989270250937 1.872449005199809 C-104.42722777248522 1.6024412977091347, -104.4445628424611 1.3324335902184603, -104.48998121591342 0.6250057626472781 M-104.48998121591342 0.6250057626472781 C-104.48998121591342 0.21289035055837024, -104.48998121591342 -0.19922506153053765, -104.48998121591342 -0.6250057626472687 M-104.48998121591342 0.6250057626472781 C-104.48998121591342 0.17411812328954734, -104.48998121591342 -0.27676951606818345, -104.48998121591342 -0.6250057626472687 M-104.48998121591342 -0.6250057626472687 C-104.4699396442531 -0.937169418522078, -104.4498980725928 -1.2493330743968873, -104.40989270250937 -1.8724490051997822 M-104.48998121591342 -0.6250057626472687 C-104.46678590687237 -0.9862914238780798, -104.44359059783132 -1.3475770851088908, -104.40989270250937 -1.8724490051997822 M-104.40989270250937 -1.8724490051997822 C-104.35013201199098 -2.3359411197773032, -104.29037132147258 -2.799433234354824, -104.25004477658177 -3.112197953150895 M-104.40989270250937 -1.8724490051997822 C-104.37448967372383 -2.1470279053415875, -104.3390866449383 -2.4216068054833926, -104.25004477658177 -3.112197953150895 M-104.25004477658177 -3.112197953150895 C-104.19899680214716 -3.374318512879378, -104.14794882771257 -3.6364390726078604, -104.01109428754556 -4.339158212148126 M-104.25004477658177 -3.112197953150895 C-104.1916910820683 -3.4118318414198963, -104.13333738755482 -3.7114657296888973, -104.01109428754556 -4.339158212148126 M-104.01109428754556 -4.339158212148126 C-103.93650824199489 -4.6235871296294855, -103.86192219644421 -4.908016047110845, -103.69402313421489 -5.548287939305123 M-104.01109428754556 -4.339158212148126 C-103.89681487779426 -4.774955130539331, -103.78253546804297 -5.210752048930535, -103.69402313421489 -5.548287939305123 M-103.69402313421489 -5.548287939305123 C-103.54269203099498 -6.004073110866545, -103.39136092777508 -6.459858282427968, -103.30013422997033 -6.734618561215485 M-103.69402313421489 -5.548287939305123 C-103.60152396884203 -5.826880687667586, -103.50902480346917 -6.10547343603005, -103.30013422997033 -6.734618561215485 M-103.30013422997033 -6.734618561215485 C-103.17272311302972 -7.049326483385163, -103.04531199608911 -7.3640344055548415, -102.83104614880834 -7.893275190886676 M-103.30013422997033 -6.734618561215485 C-103.11355020304029 -7.195484715089416, -102.92696617611027 -7.6563508689633455, -102.83104614880834 -7.893275190886676 M-102.83104614880834 -7.893275190886676 C-102.65415127693076 -8.260601177284405, -102.47725640505317 -8.627927163682134, -102.2886864742735 -9.019496659696282 M-102.83104614880834 -7.893275190886676 C-102.6943913697591 -8.177041763526288, -102.55773659070987 -8.460808336165902, -102.2886864742735 -9.019496659696282 M-102.2886864742735 -9.019496659696282 C-102.13761452375954 -9.28774020552765, -101.98654257324556 -9.555983751359019, -101.67528387860425 -10.108655082055243 M-102.2886864742735 -9.019496659696282 C-102.05681581438313 -9.431206495781977, -101.82494515449275 -9.842916331867674, -101.67528387860425 -10.108655082055243 M-101.67528387860425 -10.108655082055243 C-101.43542994512723 -10.477135133675304, -101.1955760116502 -10.845615185295364, -100.99335896464063 -11.156274872382308 M-101.67528387860425 -10.108655082055243 C-101.42527595360072 -10.492734391388526, -101.17526802859719 -10.876813700721806, -100.99335896464063 -11.156274872382308 M-100.99335896464063 -11.156274872382308 C-100.82661090074463 -11.379702086941835, -100.65986283684862 -11.603129301501362, -100.24571390812659 -12.158051136245302 M-100.99335896464063 -11.156274872382308 C-100.8007297287438 -11.41438049959966, -100.60810049284697 -11.672486126817013, -100.24571390812659 -12.158051136245302 M-100.24571390812659 -12.158051136245302 C-100.03002229886941 -12.41141477367904, -99.81433068961222 -12.66477841111278, -99.43542094296866 -13.10986736009567 M-100.24571390812659 -12.158051136245302 C-99.98927502045848 -12.459278845486336, -99.73283613279037 -12.760506554727371, -99.43542094296866 -13.10986736009567 M-99.43542094296866 -13.10986736009567 C-99.14079499557603 -13.414092840018693, -98.84616904818341 -13.718318319941718, -98.56580973676799 -14.007812326905677 M-99.43542094296866 -13.10986736009567 C-99.10610470368566 -13.449913414521443, -98.77678846440264 -13.789959468947218, -98.56580973676799 -14.007812326905677 M-98.56580973676799 -14.007812326905677 C-98.2126203613374 -14.32856957279295, -97.85943098590681 -14.649326818680226, -97.6404537085019 -14.848196188198107 M-98.56580973676799 -14.007812326905677 C-98.37734165578892 -14.178974051458704, -98.18887357480985 -14.35013577601173, -97.6404537085019 -14.848196188198107 M-97.6404537085019 -14.848196188198107 C-97.35555166214648 -15.075397988604683, -97.07064961579108 -15.302599789011259, -96.66315534457871 -15.627565626425149 M-97.6404537085019 -14.848196188198107 C-97.29420487533584 -15.124320418579625, -96.94795604216976 -15.400444648961141, -96.66315534457871 -15.627565626425149 M-96.66315534457871 -15.627565626425149 C-96.37124114508576 -15.831192335229407, -96.07932694559281 -16.034819044033664, -95.63793057360571 -16.342718045390885 M-96.66315534457871 -15.627565626425149 C-96.3838667684698 -15.822385246911127, -96.10457819236089 -16.017204867397105, -95.63793057360571 -16.342718045390885 M-95.63793057360571 -16.342718045390885 C-95.29114179735717 -16.552943439509814, -94.94435302110861 -16.76316883362874, -94.56899226407678 -16.99071473040609 M-95.63793057360571 -16.342718045390885 C-95.42138147731396 -16.473991380146696, -95.20483238102219 -16.605264714902507, -94.56899226407678 -16.99071473040609 M-94.56899226407678 -16.99071473040609 C-94.2215523571905 -17.171973907282787, -93.87411245030421 -17.353233084159484, -93.4607329127924 -17.56889292409717 M-94.56899226407678 -16.99071473040609 C-94.1904675907376 -17.18819081003052, -93.81194291739843 -17.385666889654946, -93.4607329127924 -17.56889292409717 M-93.4607329127924 -17.56889292409717 C-93.2144899628812 -17.677897373485276, -92.96824701297001 -17.786901822873386, -92.31770659514781 -18.07487676824742 M-93.4607329127924 -17.56889292409717 C-93.03269675508739 -17.758371833871692, -92.60466059738238 -17.947850743646214, -92.31770659514781 -18.07487676824742 M-92.31770659514781 -18.07487676824742 C-91.9818453915921 -18.198476795822852, -91.6459841880364 -18.322076823398287, -91.14461025146062 -18.506587066708033 M-92.31770659514781 -18.07487676824742 C-91.90764790510657 -18.225782156723575, -91.49758921506533 -18.37668754519973, -91.14461025146062 -18.506587066708033 M-91.14461025146062 -18.506587066708033 C-90.84683155685921 -18.594966220193466, -90.5490528622578 -18.6833453736789, -89.94626438623541 -18.862249829261067 M-91.14461025146062 -18.506587066708033 C-90.80094218573817 -18.608585944663968, -90.45727412001573 -18.7105848226199, -89.94626438623541 -18.862249829261067 M-89.94626438623541 -18.862249829261067 C-89.68562356223701 -18.921739396498374, -89.42498273823861 -18.981228963735678, -88.72759325967677 -19.140403561325773 M-89.94626438623541 -18.862249829261067 C-89.50490436336561 -18.96298737433779, -89.06354434049581 -19.063724919414508, -88.72759325967677 -19.140403561325773 M-88.72759325967677 -19.140403561325773 C-88.36132809674105 -19.19961847244046, -87.99506293380531 -19.25883338355515, -87.49360465284788 -19.3399052695533 M-88.72759325967677 -19.140403561325773 C-88.47152859667997 -19.181802110227974, -88.21546393368318 -19.22320065913018, -87.49360465284788 -19.3399052695533 M-87.49360465284788 -19.3399052695533 C-87.03729771509789 -19.383924651048655, -86.5809907773479 -19.427944032544016, -86.2493692896239 -19.45993515863156 M-87.49360465284788 -19.3399052695533 C-87.13144898456957 -19.374841991316192, -86.76929331629127 -19.409778713079085, -86.2493692896239 -19.45993515863156 M-86.2493692896239 -19.45993515863156 C-85.85837177507679 -19.47247368789259, -85.46737426052968 -19.485012217153624, -85 -19.5 M-86.2493692896239 -19.45993515863156 C-85.82591998358892 -19.473514353682027, -85.40247067755395 -19.487093548732496, -85 -19.5 M-85 -19.5 C-85 -19.5, -85 -19.5, -85 -19.5 M-85 -19.5 C-85 -19.5, -85 -19.5, -85 -19.5" stroke="#e65100" stroke-width="3" fill="none" stroke-dasharray="0 0" style="fill:#ffe0b2 !important;stroke:#e65100 !important;stroke-width:3px !important"/></g><g class="label" style="color:#000 !important" transform="translate(-92.125, -12)"><rect/><foreignObject width="184.25" height="24"><div style="color: rgb(0, 0, 0) !important; display: table-cell; white-space: nowrap; line-height: 1.5; max-width: 200px; text-align: center;" xmlns="http://www.w3.org/1999/xhtml"><span style="color:#000 !important" class="nodeLabel"><p>Admin Order List &amp; Query</p></span></div></foreignObject></g></g><g class="node default neighbor" id="my-svg-flowchart-EP_LIST-1" data-look="classic" transform="translate(506.90184020996094, 87)"><rect class="basic label-container" style="fill:#e3f2fd !important;stroke:#1565c0 !important" x="-127.828125" y="-39" width="255.65625" height="78"/><g class="label" style="color:#000 !important" transform="translate(-97.828125, -24)"><rect/><foreignObject width="195.65625" height="48"><div style="color: rgb(0, 0, 0) !important; display: table-cell; white-space: nowrap; line-height: 1.5; max-width: 200px; text-align: center;" xmlns="http://www.w3.org/1999/xhtml"><span style="color:#000 !important" class="nodeLabel"><p>GET /orders<br />(filter/search/sort params)</p></span></div></foreignObject></g></g><g class="node default neighbor" id="my-svg-flowchart-EP_CITY-2" data-look="classic" transform="translate(506.90184020996094, 203)"><rect class="basic label-container" style="fill:#e3f2fd !important;stroke:#1565c0 !important" x="-70.1015625" y="-27" width="140.203125" height="54"/><g class="label" style="color:#000 !important" transform="translate(-40.1015625, -12)"><rect/><foreignObject width="80.203125" height="24"><div style="color: rgb(0, 0, 0) !important; display: table-cell; white-space: nowrap; line-height: 1.5; max-width: 200px; text-align: center;" xmlns="http://www.w3.org/1999/xhtml"><span style="color:#000 !important" class="nodeLabel"><p>GET /cities</p></span></div></foreignObject></g></g><g class="node default neighbor" id="my-svg-flowchart-SVC-3" data-look="classic" transform="translate(880.6987152099609, 87)"><rect class="basic label-container" style="fill:#e3f2fd !important;stroke:#1565c0 !important" x="-117.171875" y="-27" width="234.34375" height="54"/><g class="label" style="color:#000 !important" transform="translate(-87.171875, -12)"><rect/><foreignObject width="174.34375" height="24"><div style="color: rgb(0, 0, 0) !important; display: table-cell; white-space: nowrap; line-height: 1.5; max-width: 200px; text-align: center;" xmlns="http://www.w3.org/1999/xhtml"><span style="color:#000 !important" class="nodeLabel"><p>OrdersService.listOrders</p></span></div></foreignObject></g></g><g class="node default neighbor" id="my-svg-flowchart-ORDER-4" data-look="classic" transform="translate(1338.026840209961, 35)"><rect class="basic label-container" style="fill:#e3f2fd !important;stroke:#1565c0 !important" x="-112" y="-27" width="224" height="54"/><g class="label" style="color:#000 !important" transform="translate(-82, -12)"><rect/><foreignObject width="164" height="24"><div style="color: rgb(0, 0, 0) !important; display: table-cell; white-space: nowrap; line-height: 1.5; max-width: 200px; text-align: center;" xmlns="http://www.w3.org/1999/xhtml"><span style="color:#000 !important" class="nodeLabel"><p>Order (all, not scoped)</p></span></div></foreignObject></g></g><g class="node default neighbor" id="my-svg-flowchart-COMPANY-5" data-look="classic" transform="translate(1338.026840209961, 139)"><rect class="basic label-container" style="fill:#e3f2fd !important;stroke:#1565c0 !important" x="-85.8984375" y="-27" width="171.796875" height="54"/><g class="label" style="color:#000 !important" transform="translate(-55.8984375, -12)"><rect/><foreignObject width="111.796875" height="24"><div style="color: rgb(0, 0, 0) !important; display: table-cell; white-space: nowrap; line-height: 1.5; max-width: 200px; text-align: center;" xmlns="http://www.w3.org/1999/xhtml"><span style="color:#000 !important" class="nodeLabel"><p>Company / City</p></span></div></foreignObject></g></g><g class="node default neighbor" id="my-svg-flowchart-DTO-6" data-look="classic" transform="translate(1338.026840209961, 243)"><rect class="basic label-container" style="fill:#e3f2fd !important;stroke:#1565c0 !important" x="-108.203125" y="-27" width="216.40625" height="54"/><g class="label" style="color:#000 !important" transform="translate(-78.203125, -12)"><rect/><foreignObject width="156.40625" height="24"><div style="color: rgb(0, 0, 0) !important; display: table-cell; white-space: nowrap; line-height: 1.5; max-width: 200px; text-align: center;" xmlns="http://www.w3.org/1999/xhtml"><span style="color:#000 !important" class="nodeLabel"><p>OrderListResponseDto</p></span></div></foreignObject></g></g><g class="node default neighbor" id="my-svg-flowchart-DETAILS-7" data-look="classic" transform="translate(506.90184020996094, 307)"><rect class="basic label-container" style="fill:#e3f2fd !important;stroke:#1565c0 !important" x="-102.2421875" y="-27" width="204.484375" height="54"/><g class="label" style="color:#000 !important" transform="translate(-72.2421875, -12)"><rect/><foreignObject width="144.484375" height="24"><div style="color: rgb(0, 0, 0) !important; display: table-cell; white-space: nowrap; line-height: 1.5; max-width: 200px; text-align: center;" xmlns="http://www.w3.org/1999/xhtml"><span style="color:#000 !important" class="nodeLabel"><p>Admin Order Details</p></span></div></foreignObject></g></g></g></g></g><defs><filter id="my-svg-drop-shadow" height="130%" width="130%"><feDropShadow dx="4" dy="4" stdDeviation="0" flood-opacity="0.06" flood-color="#000000"/></filter></defs><defs><filter id="my-svg-drop-shadow-small" height="150%" width="150%"><feDropShadow dx="2" dy="2" stdDeviation="0" flood-opacity="0.06" flood-color="#000000"/></filter></defs></svg>