<svg id="my-svg" width="100%" xmlns="http://www.w3.org/2000/svg" xmlns:xlink="http://www.w3.org/1999/xlink" class="flowchart" style="max-width: 1270.5px; background-color: white;" viewBox="0 0 1270.49560546875 414" role="graphics-document document" aria-roledescription="flowchart-v2"><style>#my-svg{font-family:"trebuchet ms",verdana,arial,sans-serif;font-size:16px;fill:#333;}@keyframes edge-animation-frame{from{stroke-dashoffset:0;}}@keyframes dash{to{stroke-dashoffset:0;}}#my-svg .edge-animation-slow{stroke-dasharray:9,5!important;stroke-dashoffset:900;animation:dash 50s linear infinite;stroke-linecap:round;}#my-svg .edge-animation-fast{stroke-dasharray:9,5!important;stroke-dashoffset:900;animation:dash 20s linear infinite;stroke-linecap:round;}#my-svg .error-icon{fill:#552222;}#my-svg .error-text{fill:#552222;stroke:#552222;}#my-svg .edge-thickness-normal{stroke-width:1px;}#my-svg .edge-thickness-thick{stroke-width:3.5px;}#my-svg .edge-pattern-solid{stroke-dasharray:0;}#my-svg .edge-thickness-invisible{stroke-width:0;fill:none;}#my-svg .edge-pattern-dashed{stroke-dasharray:3;}#my-svg .edge-pattern-dotted{stroke-dasharray:2;}#my-svg .marker{fill:#333333;stroke:#333333;}#my-svg .marker.cross{stroke:#333333;}#my-svg svg{font-family:"trebuchet ms",verdana,arial,sans-serif;font-size:16px;}#my-svg p{margin:0;}#my-svg .label{font-family:"trebuchet ms",verdana,arial,sans-serif;color:#333;}#my-svg .cluster-label text{fill:#333;}#my-svg .cluster-label span{color:#333;}#my-svg .cluster-label span p{background-color:transparent;}#my-svg .label text,#my-svg span{fill:#333;color:#333;}#my-svg .node rect,#my-svg .node circle,#my-svg .node ellipse,#my-svg .node polygon,#my-svg .node path{fill:#ECECFF;stroke:#9370DB;stroke-width:1px;}#my-svg .rough-node .label text,#my-svg .node .label text,#my-svg .image-shape .label,#my-svg .icon-shape .label{text-anchor:middle;}#my-svg .node .katex path{fill:#000;stroke:#000;stroke-width:1px;}#my-svg .rough-node .label,#my-svg .node .label,#my-svg .image-shape .label,#my-svg .icon-shape .label{text-align:center;}#my-svg .node.clickable{cursor:pointer;}#my-svg .root .anchor path{fill:#333333!important;stroke-width:0;stroke:#333333;}#my-svg .arrowheadPath{fill:#333333;}#my-svg .edgePath .path{stroke:#333333;stroke-width:1px;}#my-svg .flowchart-link{stroke:#333333;fill:none;}#my-svg .edgeLabel{background-color:rgba(232,232,232, 0.8);text-align:center;}#my-svg .edgeLabel p{background-color:rgba(232,232,232, 0.8);}#my-svg .edgeLabel rect{opacity:0.5;background-color:rgba(232,232,232, 0.8);fill:rgba(232,232,232, 0.8);}#my-svg .labelBkg{background-color:rgba(232, 232, 232, 0.5);}#my-svg .cluster rect{fill:#ffffde;stroke:#aaaa33;stroke-width:1px;}#my-svg .cluster text{fill:#333;}#my-svg .cluster span{color:#333;}#my-svg div.mermaidTooltip{position:absolute;text-align:center;max-width:200px;padding:2px;font-family:"trebuchet ms",verdana,arial,sans-serif;font-size:12px;background:hsl(80, 100%, 96.2745098039%);border:1px solid #aaaa33;border-radius:2px;pointer-events:none;z-index:100;}#my-svg .flowchartTitleText{text-anchor:middle;font-size:18px;fill:#333;}#my-svg rect.text{fill:none;stroke-width:0;}#my-svg .icon-shape,#my-svg .image-shape{background-color:rgba(232,232,232, 0.8);text-align:center;}#my-svg .icon-shape p,#my-svg .image-shape p{background-color:rgba(232,232,232, 0.8);padding:2px;}#my-svg .icon-shape .label rect,#my-svg .image-shape .label rect{opacity:0.5;background-color:rgba(232,232,232, 0.8);fill:rgba(232,232,232, 0.8);}#my-svg .label-icon{display:inline-block;height:1em;overflow:visible;vertical-align:-0.125em;}#my-svg .node .label-icon path{fill:currentColor;stroke:revert;stroke-width:revert;}#my-svg .node .neo-node{stroke:#9370DB;}#my-svg [data-look="neo"].node rect,#my-svg [data-look="neo"].cluster rect,#my-svg [data-look="neo"].node polygon{stroke:#9370DB;filter:drop-shadow(1px 2px 2px rgba(185, 185, 185, 1));}#my-svg [data-look="neo"].swimlane.cluster rect{filter:none;}#my-svg [data-look="neo"].node path{stroke:#9370DB;stroke-width:1px;}#my-svg [data-look="neo"].node .outer-path{filter:drop-shadow(1px 2px 2px rgba(185, 185, 185, 1));}#my-svg [data-look="neo"].node .neo-line path{stroke:#9370DB;filter:none;}#my-svg [data-look="neo"].node circle{stroke:#9370DB;filter:drop-shadow(1px 2px 2px rgba(185, 185, 185, 1));}#my-svg [data-look="neo"].node circle .state-start{fill:#000000;}#my-svg [data-look="neo"].icon-shape .icon{fill:#9370DB;filter:drop-shadow(1px 2px 2px rgba(185, 185, 185, 1));}#my-svg [data-look="neo"].icon-shape .icon-neo path{stroke:#9370DB;filter:drop-shadow(1px 2px 2px rgba(185, 185, 185, 1));}#my-svg :root{--mermaid-font-family:"trebuchet ms",verdana,arial,sans-serif;}#my-svg .ego&gt;*{fill:rgb(255, 224, 178)!important;stroke:rgb(230, 81, 0)!important;stroke-width:3px!important;color:rgb(0, 0, 0)!important;}#my-svg .ego span{fill:rgb(255, 224, 178)!important;stroke:rgb(230, 81, 0)!important;stroke-width:3px!important;color:rgb(0, 0, 0)!important;}#my-svg .ego tspan{fill:rgb(0, 0, 0)!important;}#my-svg .neighbor&gt;*{fill:rgb(227, 242, 253)!important;stroke:rgb(21, 101, 192)!important;color:rgb(0, 0, 0)!important;}#my-svg .neighbor span{fill:rgb(227, 242, 253)!important;stroke:rgb(21, 101, 192)!important;color:rgb(0, 0, 0)!important;}#my-svg .neighbor tspan{fill:rgb(0, 0, 0)!important;}</style><g><marker id="my-svg_flowchart-v2-pointEnd" class="marker flowchart-v2" viewBox="0 0 10 10" refX="5" refY="5" markerUnits="userSpaceOnUse" markerWidth="8" markerHeight="8" orient="auto"><path d="M 0 0 L 10 5 L 0 10 z" class="arrowMarkerPath" style="stroke-width: 1; stroke-dasharray: 1, 0;"/></marker><marker id="my-svg_flowchart-v2-pointStart" class="marker flowchart-v2" viewBox="0 0 10 10" refX="4.5" refY="5" markerUnits="userSpaceOnUse" markerWidth="8" markerHeight="8" orient="auto"><path d="M 0 5 L 10 10 L 10 0 z" class="arrowMarkerPath" style="stroke-width: 1; stroke-dasharray: 1, 0;"/></marker><marker id="my-svg_flowchart-v2-pointEnd-margin" class="marker flowchart-v2" viewBox="0 0 11.5 14" refX="11.5" refY="7" markerUnits="userSpaceOnUse" markerWidth="10.5" markerHeight="14" orient="auto"><path d="M 0 0 L 11.5 7 L 0 14 z" class="arrowMarkerPath" style="stroke-width: 0; stroke-dasharray: 1, 0;"/></marker><marker id="my-svg_flowchart-v2-pointStart-margin" class="marker flowchart-v2" viewBox="0 0 11.5 14" refX="1" refY="7" markerUnits="userSpaceOnUse" markerWidth="11.5" markerHeight="14" orient="auto"><polygon points="0,7 11.5,14 11.5,0" class="arrowMarkerPath" style="stroke-width: 0; stroke-dasharray: 1, 0;"/></marker><marker id="my-svg_flowchart-v2-circleEnd" class="marker flowchart-v2" viewBox="0 0 10 10" refX="11" refY="5" markerUnits="userSpaceOnUse" markerWidth="11" markerHeight="11" orient="auto"><circle cx="5" cy="5" r="5" class="arrowMarkerPath" style="stroke-width: 1; stroke-dasharray: 1, 0;"/></marker><marker id="my-svg_flowchart-v2-circleStart" class="marker flowchart-v2" viewBox="0 0 10 10" refX="-1" refY="5" markerUnits="userSpaceOnUse" markerWidth="11" markerHeight="11" orient="auto"><circle cx="5" cy="5" r="5" class="arrowMarkerPath" style="stroke-width: 1; stroke-dasharray: 1, 0;"/></marker><marker id="my-svg_flowchart-v2-circleEnd-margin" class="marker flowchart-v2" viewBox="0 0 10 10" refY="5" refX="12.25" markerUnits="userSpaceOnUse" markerWidth="14" markerHeight="14" orient="auto"><circle cx="5" cy="5" r="5" class="arrowMarkerPath" style="stroke-width: 0; stroke-dasharray: 1, 0;"/></marker><marker id="my-svg_flowchart-v2-circleStart-margin" class="marker flowchart-v2" viewBox="0 0 10 10" refX="-2" refY="5" markerUnits="userSpaceOnUse" markerWidth="14" markerHeight="14" orient="auto"><circle cx="5" cy="5" r="5" class="arrowMarkerPath" style="stroke-width: 0; stroke-dasharray: 1, 0;"/></marker><marker id="my-svg_flowchart-v2-crossEnd" class="marker cross flowchart-v2" viewBox="0 0 11 11" refX="12" refY="5.2" markerUnits="userSpaceOnUse" markerWidth="11" markerHeight="11" orient="auto"><path d="M 1,1 l 9,9 M 10,1 l -9,9" class="arrowMarkerPath" style="stroke-width: 2; stroke-dasharray: 1, 0;"/></marker><marker id="my-svg_flowchart-v2-crossStart" class="marker cross flowchart-v2" viewBox="0 0 11 11" refX="-1" refY="5.2" markerUnits="userSpaceOnUse" markerWidth="11" markerHeight="11" orient="auto"><path d="M 1,1 l 9,9 M 10,1 l -9,9" class="arrowMarkerPath" style="stroke-width: 2; stroke-dasharray: 1, 0;"/></marker><marker id="my-svg_flowchart-v2-crossEnd-margin" class="marker cross flowchart-v2" viewBox="0 0 15 15" refX="17.7" refY="7.5" markerUnits="userSpaceOnUse" markerWidth="12" markerHeight="12" orient="auto"><path d="M 1,1 L 14,14 M 1,14 L 14,1" class="arrowMarkerPath" style="stroke-width: 2.5;"/></marker><marker id="my-svg_flowchart-v2-crossStart-margin" class="marker cross flowchart-v2" viewBox="0 0 15 15" refX="-3.5" refY="7.5" markerUnits="userSpaceOnUse" markerWidth="12" markerHeight="12" orient="auto"><path d="M 1,1 L 14,14 M 1,14 L 14,1" class="arrowMarkerPath" style="stroke-width: 2.5; stroke-dasharray: 1, 0;"/></marker><g class="root"><g class="clusters"/><g class="edgePaths"><path d="M112.369,180L132.615,157.167C152.861,134.333,193.354,88.667,224.948,65.833C256.542,43,279.238,43,290.585,43L301.933,43" id="my-svg-L_CAP_EP_GET_0" class="edge-thickness-normal edge-pattern-solid edge-thickness-normal edge-pattern-solid flowchart-link" style=";" data-edge="true" data-et="edge" data-id="L_CAP_EP_GET_0" data-points="W3sieCI6MTEyLjM2ODYxMzI0MzEwMzAzLCJ5IjoxODB9LHsieCI6MjMzLjg0NzE1MjcwOTk2MDk0LCJ5Ijo0M30seyJ4IjozMDUuOTMzMDkwMjA5OTYwOTQsInkiOjQzfV0=" data-look="classic" marker-end="url(#my-svg_flowchart-v2-pointEnd)"/><path d="M147.22,180L161.658,174.5C176.095,169,204.971,158,229.426,152.5C253.881,147,273.915,147,283.932,147L293.949,147" id="my-svg-L_CAP_EP_PATCH_0" class="edge-thickness-normal edge-pattern-solid edge-thickness-normal edge-pattern-solid flowchart-link" style=";" data-edge="true" data-et="edge" data-id="L_CAP_EP_PATCH_0" data-points="W3sieCI6MTQ3LjIxOTYyNDUxOTM0ODE0LCJ5IjoxODB9LHsieCI6MjMzLjg0NzE1MjcwOTk2MDk0LCJ5IjoxNDd9LHsieCI6Mjk3Ljk0ODcxNTIwOTk2MDk0LCJ5IjoxNDd9XQ==" data-look="classic" marker-end="url(#my-svg_flowchart-v2-pointEnd)"/><path d="M147.22,219L161.658,224.333C176.095,229.667,204.971,240.333,230.523,245.667C256.074,251,278.3,251,289.414,251L300.527,251" id="my-svg-L_CAP_EP_LOG_0" class="edge-thickness-normal edge-pattern-dotted edge-thickness-normal edge-pattern-solid flowchart-link" style=";" data-edge="true" data-et="edge" data-id="L_CAP_EP_LOG_0" data-points="W3sieCI6MTQ3LjIxOTYyNDUxOTM0ODE0LCJ5IjoyMTl9LHsieCI6MjMzLjg0NzE1MjcwOTk2MDk0LCJ5IjoyNTF9LHsieCI6MzA0LjUyNjg0MDIwOTk2MDk0LCJ5IjoyNTF9XQ==" data-look="classic" marker-end="url(#my-svg_flowchart-v2-pointEnd)"/><path d="M535.667,147L548.257,147C560.847,147,586.027,147,608.683,147C631.339,147,651.472,147,661.539,147L671.605,147" id="my-svg-L_EP_PATCH_SVC_0" class="edge-thickness-normal edge-pattern-solid edge-thickness-normal edge-pattern-solid flowchart-link" style=";" data-edge="true" data-et="edge" data-id="L_EP_PATCH_SVC_0" data-points="W3sieCI6NTM1LjY2NzQ2NTIwOTk2MDksInkiOjE0N30seyJ4Ijo2MTEuMjA2NTI3NzA5OTYwOSwieSI6MTQ3fSx7IngiOjY3NS42MDQ5NjUyMDk5NjA5LCJ5IjoxNDd9XQ==" data-look="classic" marker-end="url(#my-svg_flowchart-v2-pointEnd)"/><path d="M830.116,120L847.68,111.833C865.243,103.667,900.369,87.333,928.432,79.167C956.496,71,977.496,71,987.996,71L998.496,71" id="my-svg-L_SVC_COLS_0" class="edge-thickness-normal edge-pattern-solid edge-thickness-normal edge-pattern-solid flowchart-link" style=";" data-edge="true" data-et="edge" data-id="L_SVC_COLS_0" data-points="W3sieCI6ODMwLjExNjM3NTU3MTgwMywieSI6MTIwfSx7IngiOjkzNS40OTU1OTAyMDk5NjA5LCJ5Ijo3MX0seyJ4IjoxMDAyLjQ5NTU5MDIwOTk2MDksInkiOjcxfV0=" data-look="classic" marker-end="url(#my-svg_flowchart-v2-pointEnd)"/><path d="M830.116,174L847.68,182.167C865.243,190.333,900.369,206.667,928.434,214.833C956.498,223,977.501,223,988.002,223L998.503,223" id="my-svg-L_SVC_AUDIT_0" class="edge-thickness-normal edge-pattern-solid edge-thickness-normal edge-pattern-solid flowchart-link" style=";" data-edge="true" data-et="edge" data-id="L_SVC_AUDIT_0" data-points="W3sieCI6ODMwLjExNjM3NTU3MTgwMywieSI6MTc0fSx7IngiOjkzNS40OTU1OTAyMDk5NjA5LCJ5IjoyMjN9LHsieCI6MTAwMi41MDM0MDI3MDk5NjA5LCJ5IjoyMjN9XQ==" data-look="classic" marker-end="url(#my-svg_flowchart-v2-pointEnd)"/><path d="M111.124,219L131.578,243.667C152.032,268.333,192.939,317.667,221.553,342.333C250.167,367,266.488,367,274.648,367L282.808,367" id="my-svg-L_CAP_DETAILS_0" class="edge-thickness-normal edge-pattern-dotted edge-thickness-normal edge-pattern-solid flowchart-link" style=";" data-edge="true" data-et="edge" data-id="L_CAP_DETAILS_0" data-points="W3sieCI6MTExLjEyMzkzNDI2ODk1MTQyLCJ5IjoyMTl9LHsieCI6MjMzLjg0NzE1MjcwOTk2MDk0LCJ5IjozNjd9LHsieCI6Mjg2LjgwODA5MDIwOTk2MDk0LCJ5IjozNjd9XQ==" data-look="classic" marker-end="url(#my-svg_flowchart-v2-pointEnd)"/></g><g class="edgeLabels"><g class="edgeLabel" transform="translate(233.84715270996094, 43)"><g class="label" data-id="L_CAP_EP_GET_0" transform="translate(-27.9609375, -12)"><foreignObject width="55.921875" height="24"><div xmlns="http://www.w3.org/1999/xhtml" class="labelBkg" style="display: table-cell; white-space: nowrap; line-height: 1.5; max-width: 200px; text-align: center;"><span class="edgeLabel"><p>exposes</p></span></div></foreignObject></g></g><g class="edgeLabel" transform="translate(233.84715270996094, 147)"><g class="label" data-id="L_CAP_EP_PATCH_0" transform="translate(-27.9609375, -12)"><foreignObject width="55.921875" height="24"><div xmlns="http://www.w3.org/1999/xhtml" class="labelBkg" style="display: table-cell; white-space: nowrap; line-height: 1.5; max-width: 200px; text-align: center;"><span class="edgeLabel"><p>exposes</p></span></div></foreignObject></g></g><g class="edgeLabel" transform="translate(233.84715270996094, 251)"><g class="label" data-id="L_CAP_EP_LOG_0" transform="translate(-27.9375, -12)"><foreignObject width="55.875" height="24"><div xmlns="http://www.w3.org/1999/xhtml" class="labelBkg" style="display: table-cell; white-space: nowrap; line-height: 1.5; max-width: 200px; text-align: center;"><span class="edgeLabel"><p>trail via</p></span></div></foreignObject></g></g><g class="edgeLabel" transform="translate(611.2065277099609, 147)"><g class="label" data-id="L_EP_PATCH_SVC_0" transform="translate(-39.3984375, -12)"><foreignObject width="78.796875" height="24"><div xmlns="http://www.w3.org/1999/xhtml" class="labelBkg" style="display: table-cell; white-space: nowrap; line-height: 1.5; max-width: 200px; text-align: center;"><span class="edgeLabel"><p>handled by</p></span></div></foreignObject></g></g><g class="edgeLabel" transform="translate(935.4955902099609, 71)"><g class="label" data-id="L_SVC_COLS_0" transform="translate(-37.5859375, -12)"><foreignObject width="75.171875" height="24"><div xmlns="http://www.w3.org/1999/xhtml" class="labelBkg" style="display: table-cell; white-space: nowrap; line-height: 1.5; max-width: 200px; text-align: center;"><span class="edgeLabel"><p>writes (tx)</p></span></div></foreignObject></g></g><g class="edgeLabel" transform="translate(935.4955902099609, 223)"><g class="label" data-id="L_SVC_AUDIT_0" transform="translate(-42, -12)"><foreignObject width="84" height="24"><div xmlns="http://www.w3.org/1999/xhtml" class="labelBkg" style="display: table-cell; white-space: nowrap; line-height: 1.5; max-width: 200px; text-align: center;"><span class="edgeLabel"><p>records (tx)</p></span></div></foreignObject></g></g><g class="edgeLabel" transform="translate(233.84715270996094, 367)"><g class="label" data-id="L_CAP_DETAILS_0" transform="translate(-26.9453125, -12)"><foreignObject width="53.890625" height="24"><div xmlns="http://www.w3.org/1999/xhtml" class="labelBkg" style="display: table-cell; white-space: nowrap; line-height: 1.5; max-width: 200px; text-align: center;"><span class="edgeLabel"><p>read by</p></span></div></foreignObject></g></g></g><g class="nodes"><g class="node default ego" id="my-svg-flowchart-CAP-0" data-look="classic" transform="translate(94.44310760498047, 199)"><g class="basic label-container outer-path"><path d="M-66.953125 -19.5 C-14.874805458960807 -19.5, 37.203514082078385 -19.5, 66.953125 -19.5 C66.953125 -19.5, 66.953125 -19.5, 66.953125 -19.5 C67.38530895449249 -19.48614070177446, 67.81749290898499 -19.472281403548923, 68.2024942896239 -19.45993515863156 C68.522398121416 -19.42907442071922, 68.84230195320809 -19.398213682806887, 69.44672965284786 -19.3399052695533 C69.74279836420854 -19.292039176347654, 70.03886707556921 -19.24417308314201, 70.68071825967675 -19.140403561325776 C70.92969295379774 -19.083576712104378, 71.17866764791873 -19.02674986288298, 71.89938938623538 -18.862249829261074 C72.22729457424039 -18.764929290670647, 72.55519976224538 -18.66760875208022, 73.0977352514606 -18.50658706670804 C73.34805889059865 -18.414465653538883, 73.59838252973671 -18.322344240369723, 74.2708315951478 -18.074876768247425 C74.63251750250768 -17.914769146090446, 74.99420340986755 -17.754661523933464, 75.41385791279238 -17.568892924097174 C75.69781995086734 -17.420750110719833, 75.9817819889423 -17.272607297342493, 76.52211726407678 -16.990714730406097 C76.82573164831604 -16.80666190644409, 77.12934603255529 -16.622609082482086, 77.5910555736057 -16.342718045390892 C77.94669105333088 -16.094642129946394, 78.30232653305607 -15.846566214501895, 78.61628034457871 -15.627565626425154 C78.92506686999202 -15.381316589562573, 79.23385339540535 -15.135067552699994, 79.59357870850187 -14.848196188198123 C79.95735328745315 -14.517825740542499, 80.32112786640444 -14.187455292886874, 80.51893473676799 -14.007812326905688 C80.75694728328082 -13.762044831437706, 80.99495982979364 -13.516277335969724, 81.38854594296865 -13.10986736009568 C81.56021880703337 -12.908210645502564, 81.7318916710981 -12.706553930909449, 82.19883890812658 -12.158051136245305 C82.38335895244322 -11.910811086982863, 82.56787899675986 -11.663571037720422, 82.94648396464063 -11.156274872382312 C83.19972621748369 -10.767226766948886, 83.45296847032674 -10.378178661515458, 83.62840887860425 -10.108655082055241 C83.77849119047475 -9.842168739847116, 83.92857350234527 -9.57568239763899, 84.2418114742735 -9.019496659696287 C84.36434525976848 -8.765052632312953, 84.48687904526346 -8.510608604929619, 84.78417114880834 -7.893275190886684 C84.88366828542833 -7.647515339789057, 84.9831654220483 -7.401755488691429, 85.25325922997033 -6.734618561215508 C85.38699882526176 -6.331816208708503, 85.52073842055317 -5.929013856201498, 85.64714813421489 -5.548287939305138 C85.7608343202584 -5.1147532400165225, 85.8745205063019 -4.681218540727906, 85.96421928754556 -4.339158212148133 C86.03373101828633 -3.9822301661037613, 86.1032427490271 -3.625302120059389, 86.20316977658177 -3.1121979531509023 C86.2551565126729 -2.7089990939703843, 86.307143248764 -2.3058002347898663, 86.36301770250937 -1.872449005199798 C86.38714133931998 -1.4967038896253892, 86.41126497613058 -1.1209587740509805, 86.44310621591342 -0.6250057626472757 C86.44310621591342 -0.2701870052662782, 86.44310621591342 0.0846317521147193, 86.44310621591342 0.625005762647271 C86.41279629094673 1.0971073097344202, 86.38248636598006 1.5692088568215692, 86.36301770250937 1.8724490051997846 C86.31682316191213 2.2307247399281076, 86.2706286213149 2.58900047465643, 86.20316977658177 3.1121979531508885 C86.13330157492813 3.4709564019927326, 86.06343337327448 3.829714850834577, 85.96421928754556 4.339158212148129 C85.8820451664014 4.652523750560202, 85.79987104525725 4.965889288972276, 85.64714813421489 5.548287939305125 C85.50172505796526 5.986279074948336, 85.35630198171565 6.424270210591548, 85.25325922997033 6.734618561215495 C85.10934607968235 7.0900868247982505, 84.9654329293944 7.445555088381005, 84.78417114880834 7.893275190886679 C84.65070112665009 8.170428547699272, 84.51723110449184 8.447581904511866, 84.2418114742735 9.019496659696284 C84.08004213652309 9.30673449979388, 83.91827279877268 9.593972339891478, 83.62840887860425 10.108655082055236 C83.38026019340951 10.489878099766434, 83.13211150821476 10.871101117477632, 82.94648396464065 11.156274872382301 C82.79504220810743 11.35919302950896, 82.64360045157423 11.562111186635619, 82.19883890812659 12.158051136245302 C82.01316267442046 12.376157005633528, 81.82748644071431 12.594262875021757, 81.38854594296866 13.10986736009567 C81.07253925365046 13.436170211448404, 80.75653256433228 13.762473062801138, 80.51893473676799 14.007812326905684 C80.28953501646215 14.216147083303444, 80.06013529615633 14.424481839701203, 79.5935787085019 14.848196188198111 C79.24388183625658 15.127070137989156, 78.89418496401127 15.4059440877802, 78.61628034457871 15.627565626425152 C78.3803966879353 15.792107854060678, 78.14451303129188 15.956650081696203, 77.5910555736057 16.34271804539089 C77.31425101138825 16.510518597691274, 77.0374464491708 16.67831914999166, 76.52211726407678 16.990714730406093 C76.1945966187597 17.161582041281026, 75.86707597344262 17.332449352155958, 75.41385791279238 17.56889292409717 C74.97598509926911 17.762726229608408, 74.53811228574585 17.956559535119645, 74.2708315951478 18.07487676824742 C73.96314106313011 18.18810972829003, 73.65545053111242 18.30134268833264, 73.09773525146062 18.506587066708033 C72.78329589743551 18.599911016456833, 72.46885654341041 18.693234966205637, 71.89938938623541 18.86224982926107 C71.59167045822822 18.932484666525042, 71.28395153022105 19.002719503789013, 70.68071825967677 19.140403561325773 C70.32466948091792 19.197966766675986, 69.96862070215907 19.2555299720262, 69.44672965284788 19.3399052695533 C68.98494161063942 19.38445340660377, 68.52315356843098 19.429001543654245, 68.2024942896239 19.45993515863156 C67.85478813486901 19.471085418245575, 67.50708198011414 19.48223567785959, 66.953125 19.5 C66.953125 19.5, 66.953125 19.5, 66.953125 19.5 C22.02644684470303 19.5, -22.900231310593938 19.5, -66.953125 19.5 C-67.45216033127622 19.48399690823932, -67.95119566255245 19.467993816478636, -68.2024942896239 19.45993515863156 C-68.59494262407426 19.42207613979531, -68.98739095852464 19.384217120959057, -69.44672965284786 19.3399052695533 C-69.75673405472119 19.289786161978462, -70.06673845659452 19.239667054403622, -70.68071825967675 19.140403561325773 C-71.11133713096453 19.042117614005086, -71.5419560022523 18.9438316666844, -71.89938938623538 18.862249829261074 C-72.25457090624921 18.756833818506813, -72.60975242626304 18.651417807752555, -73.09773525146059 18.506587066708043 C-73.54921306038463 18.340439059608883, -74.00069086930867 18.17429105250972, -74.2708315951478 18.074876768247425 C-74.52547876847417 17.962152018455843, -74.78012594180056 17.84942726866426, -75.41385791279238 17.568892924097174 C-75.66421595205071 17.438281295378083, -75.91457399130904 17.30766966665899, -76.52211726407678 16.990714730406097 C-76.82969827763104 16.80425731244284, -77.13727929118528 16.617799894479585, -77.59105557360569 16.3427180453909 C-77.94382583899123 16.096640779436605, -78.29659610437677 15.850563513482312, -78.61628034457871 15.627565626425156 C-78.96577178961522 15.348855499366481, -79.31526323465172 15.070145372307806, -79.59357870850187 14.848196188198125 C-79.9447412342715 14.529279673545426, -80.29590376004114 14.21036315889273, -80.51893473676797 14.007812326905697 C-80.86276543502005 13.652778901935115, -81.20659613327211 13.297745476964533, -81.38854594296865 13.109867360095677 C-81.60618823860848 12.854212335439678, -81.82383053424832 12.59855731078368, -82.19883890812658 12.158051136245307 C-82.4863919979072 11.77275619256466, -82.77394508768784 11.387461248884012, -82.94648396464063 11.156274872382316 C-83.15895067246468 10.82986895386503, -83.37141738028873 10.503463035347746, -83.62840887860425 10.108655082055249 C-83.76034568366131 9.874387924626209, -83.89228248871837 9.640120767197171, -84.2418114742735 9.019496659696289 C-84.43413811931256 8.620126266141693, -84.62646476435164 8.220755872587098, -84.78417114880834 7.893275190886686 C-84.91273488206059 7.575720284142927, -85.04129861531285 7.258165377399168, -85.25325922997033 6.73461856121551 C-85.3908641195166 6.320174558263894, -85.52846900906287 5.905730555312279, -85.64714813421489 5.5482879393051325 C-85.73669639984487 5.206801591994189, -85.82624466547485 4.865315244683245, -85.96421928754556 4.339158212148136 C-86.05807799326973 3.8572135952990028, -86.1519366989939 3.3752689784498697, -86.20316977658177 3.112197953150904 C-86.2625008128865 2.6520381518098057, -86.32183184919121 2.191878350468708, -86.36301770250937 1.872449005199809 C-86.38843794390962 1.4765082265412013, -86.41385818530989 1.0805674478825935, -86.44310621591342 0.6250057626472781 C-86.44310621591342 0.1254881531278546, -86.44310621591342 -0.3740294563915689, -86.44310621591342 -0.6250057626472687 C-86.42655159310827 -0.8828573754883107, -86.40999697030314 -1.1407089883293526, -86.36301770250937 -1.8724490051997822 C-86.31096245583818 -2.276179218910393, -86.25890720916698 -2.6799094326210033, -86.20316977658177 -3.112197953150895 C-86.15141102819736 -3.377968186889494, -86.09965227981296 -3.6437384206280927, -85.96421928754556 -4.339158212148126 C-85.87767945940816 -4.669172083434817, -85.79113963127075 -4.999185954721507, -85.64714813421489 -5.548287939305123 C-85.54747828362316 -5.848477649053294, -85.44780843303143 -6.1486673588014655, -85.25325922997033 -6.734618561215485 C-85.14160168125048 -7.010414865305364, -85.02994413253063 -7.286211169395243, -84.78417114880834 -7.893275190886676 C-84.58456279439332 -8.307766209764074, -84.38495443997829 -8.722257228641473, -84.2418114742735 -9.019496659696282 C-84.06188115473681 -9.338981161954232, -83.88195083520012 -9.658465664212184, -83.62840887860425 -10.108655082055243 C-83.46600030771174 -10.358158259753797, -83.30359173681921 -10.607661437452348, -82.94648396464063 -11.156274872382308 C-82.67910848206014 -11.514533660632603, -82.41173299947967 -11.872792448882898, -82.19883890812659 -12.158051136245302 C-81.89936183858816 -12.509833942853142, -81.59988476904972 -12.861616749460984, -81.38854594296866 -13.10986736009567 C-81.07991891494069 -13.42855010528478, -80.77129188691273 -13.747232850473889, -80.51893473676799 -14.007812326905677 C-80.24045135713028 -14.26072356402619, -79.96196797749258 -14.513634801146702, -79.5935787085019 -14.848196188198107 C-79.3718045284016 -15.025055195169305, -79.1500303483013 -15.2019142021405, -78.61628034457871 -15.627565626425149 C-78.27260092695438 -15.867301510517684, -77.92892150933004 -16.10703739461022, -77.59105557360571 -16.342718045390885 C-77.21715113857933 -16.56938111121024, -76.84324670355294 -16.796044177029593, -76.52211726407678 -16.99071473040609 C-76.08146894454957 -17.22060067645472, -75.64082062502236 -17.45048662250335, -75.4138579127924 -17.56889292409717 C-74.99603214276841 -17.75385199812569, -74.57820637274445 -17.93881107215421, -74.27083159514781 -18.07487676824742 C-73.99719780310834 -18.175576533160992, -73.72356401106886 -18.276276298074563, -73.09773525146062 -18.506587066708033 C-72.67210090008598 -18.632913107995723, -72.24646654871134 -18.759239149283417, -71.89938938623541 -18.862249829261067 C-71.48290120208415 -18.9573105394542, -71.06641301793287 -19.05237124964733, -70.68071825967677 -19.140403561325773 C-70.42785801487662 -19.181284044744576, -70.17499777007647 -19.22216452816338, -69.44672965284788 -19.3399052695533 C-69.01669137027002 -19.381390545476883, -68.58665308769216 -19.422875821400464, -68.2024942896239 -19.45993515863156 C-67.9119766327961 -19.469251494427713, -67.62145897596831 -19.478567830223863, -66.953125 -19.5 C-66.953125 -19.5, -66.953125 -19.5, -66.953125 -19.5" stroke="none" stroke-width="0" fill="#ffe0b2" style="fill:#ffe0b2 !important;stroke:#e65100 !important;stroke-width:3px !important"/><path d="M-66.953125 -19.5 C-17.23622482191893 -19.5, 32.48067535616214 -19.5, 66.953125 -19.5 M-66.953125 -19.5 C-14.909873905406855 -19.5, 37.13337718918629 -19.5, 66.953125 -19.5 M66.953125 -19.5 C66.953125 -19.5, 66.953125 -19.5, 66.953125 -19.5 M66.953125 -19.5 C66.953125 -19.5, 66.953125 -19.5, 66.953125 -19.5 M66.953125 -19.5 C67.3637423361309 -19.48683230124844, 67.77435967226181 -19.473664602496882, 68.2024942896239 -19.45993515863156 M66.953125 -19.5 C67.26216399589843 -19.490089720909452, 67.57120299179687 -19.480179441818905, 68.2024942896239 -19.45993515863156 M68.2024942896239 -19.45993515863156 C68.51175834465509 -19.430100827187143, 68.82102239968627 -19.400266495742727, 69.44672965284786 -19.3399052695533 M68.2024942896239 -19.45993515863156 C68.6645972660328 -19.41535664025753, 69.1267002424417 -19.370778121883504, 69.44672965284786 -19.3399052695533 M69.44672965284786 -19.3399052695533 C69.71018245740557 -19.29731226321942, 69.97363526196327 -19.254719256885547, 70.68071825967675 -19.140403561325776 M69.44672965284786 -19.3399052695533 C69.69856064702049 -19.299191187393998, 69.9503916411931 -19.258477105234697, 70.68071825967675 -19.140403561325776 M70.68071825967675 -19.140403561325776 C71.10117313562142 -19.044437479615887, 71.52162801156608 -18.948471397905994, 71.89938938623538 -18.862249829261074 M70.68071825967675 -19.140403561325776 C71.0337312111224 -19.0598306587831, 71.38674416256804 -18.979257756240425, 71.89938938623538 -18.862249829261074 M71.89938938623538 -18.862249829261074 C72.37518830402806 -18.721035207979696, 72.85098722182072 -18.579820586698318, 73.0977352514606 -18.50658706670804 M71.89938938623538 -18.862249829261074 C72.18236525842609 -18.778264075765538, 72.46534113061679 -18.69427832227, 73.0977352514606 -18.50658706670804 M73.0977352514606 -18.50658706670804 C73.35763058348627 -18.41094318207648, 73.61752591551195 -18.31529929744492, 74.2708315951478 -18.074876768247425 M73.0977352514606 -18.50658706670804 C73.4739295092481 -18.368144102340647, 73.85012376703558 -18.229701137973255, 74.2708315951478 -18.074876768247425 M74.2708315951478 -18.074876768247425 C74.70412101650247 -17.883072394487726, 75.13741043785714 -17.691268020728025, 75.41385791279238 -17.568892924097174 M74.2708315951478 -18.074876768247425 C74.57935432132545 -17.938302909370076, 74.88787704750311 -17.80172905049273, 75.41385791279238 -17.568892924097174 M75.41385791279238 -17.568892924097174 C75.78035381916918 -17.377692244492234, 76.14684972554598 -17.18649156488729, 76.52211726407678 -16.990714730406097 M75.41385791279238 -17.568892924097174 C75.73388355659262 -17.4019357507128, 76.05390920039287 -17.23497857732842, 76.52211726407678 -16.990714730406097 M76.52211726407678 -16.990714730406097 C76.82916977125167 -16.804577696115857, 77.13622227842656 -16.618440661825616, 77.5910555736057 -16.342718045390892 M76.52211726407678 -16.990714730406097 C76.89139301903951 -16.766857597642478, 77.26066877400224 -16.54300046487886, 77.5910555736057 -16.342718045390892 M77.5910555736057 -16.342718045390892 C77.92822107096417 -16.107525990092764, 78.26538656832264 -15.872333934794636, 78.61628034457871 -15.627565626425154 M77.5910555736057 -16.342718045390892 C77.9822949592055 -16.069806386476504, 78.37353434480531 -15.796894727562119, 78.61628034457871 -15.627565626425154 M78.61628034457871 -15.627565626425154 C78.8118892375302 -15.471572739667597, 79.00749813048168 -15.315579852910037, 79.59357870850187 -14.848196188198123 M78.61628034457871 -15.627565626425154 C78.95901326778683 -15.354245240672801, 79.30174619099495 -15.080924854920449, 79.59357870850187 -14.848196188198123 M79.59357870850187 -14.848196188198123 C79.86233630802576 -14.604117647246941, 80.13109390754965 -14.360039106295758, 80.51893473676799 -14.007812326905688 M79.59357870850187 -14.848196188198123 C79.83533391090039 -14.62864050987193, 80.0770891132989 -14.409084831545737, 80.51893473676799 -14.007812326905688 M80.51893473676799 -14.007812326905688 C80.78367311883805 -13.73444821199295, 81.04841150090812 -13.461084097080214, 81.38854594296865 -13.10986736009568 M80.51893473676799 -14.007812326905688 C80.78879974184093 -13.729154552838903, 81.05866474691388 -13.450496778772118, 81.38854594296865 -13.10986736009568 M81.38854594296865 -13.10986736009568 C81.69236034384419 -12.75298967729813, 81.99617474471972 -12.39611199450058, 82.19883890812658 -12.158051136245305 M81.38854594296865 -13.10986736009568 C81.6558041575225 -12.795930653857512, 81.92306237207634 -12.481993947619344, 82.19883890812658 -12.158051136245305 M82.19883890812658 -12.158051136245305 C82.49409086158786 -11.762440416613494, 82.78934281504914 -11.36682969698168, 82.94648396464063 -11.156274872382312 M82.19883890812658 -12.158051136245305 C82.39008638941549 -11.901796934322132, 82.5813338707044 -11.64554273239896, 82.94648396464063 -11.156274872382312 M82.94648396464063 -11.156274872382312 C83.21000696883456 -10.751432772105659, 83.47352997302849 -10.346590671829006, 83.62840887860425 -10.108655082055241 M82.94648396464063 -11.156274872382312 C83.16267341431801 -10.824149822682157, 83.3788628639954 -10.492024772982003, 83.62840887860425 -10.108655082055241 M83.62840887860425 -10.108655082055241 C83.78429174534143 -9.83186926731147, 83.94017461207861 -9.555083452567699, 84.2418114742735 -9.019496659696287 M83.62840887860425 -10.108655082055241 C83.76186027753614 -9.871698609832176, 83.89531167646804 -9.634742137609113, 84.2418114742735 -9.019496659696287 M84.2418114742735 -9.019496659696287 C84.38031878258765 -8.731883270400305, 84.51882609090181 -8.444269881104322, 84.78417114880834 -7.893275190886684 M84.2418114742735 -9.019496659696287 C84.43429115387542 -8.61980848659752, 84.62677083347734 -8.220120313498755, 84.78417114880834 -7.893275190886684 M84.78417114880834 -7.893275190886684 C84.93552290230745 -7.519433433556797, 85.08687465580655 -7.1455916762269105, 85.25325922997033 -6.734618561215508 M84.78417114880834 -7.893275190886684 C84.87885346430112 -7.659408041061477, 84.9735357797939 -7.4255408912362695, 85.25325922997033 -6.734618561215508 M85.25325922997033 -6.734618561215508 C85.36416579154712 -6.400585668307087, 85.47507235312392 -6.066552775398667, 85.64714813421489 -5.548287939305138 M85.25325922997033 -6.734618561215508 C85.40238306647596 -6.2854813253172415, 85.55150690298161 -5.836344089418975, 85.64714813421489 -5.548287939305138 M85.64714813421489 -5.548287939305138 C85.76428034858102 -5.101612040504243, 85.88141256294715 -4.654936141703349, 85.96421928754556 -4.339158212148133 M85.64714813421489 -5.548287939305138 C85.75097277654943 -5.152359580198874, 85.85479741888398 -4.75643122109261, 85.96421928754556 -4.339158212148133 M85.96421928754556 -4.339158212148133 C86.02897334973578 -4.006659788577269, 86.09372741192598 -3.674161365006405, 86.20316977658177 -3.1121979531509023 M85.96421928754556 -4.339158212148133 C86.01396404685742 -4.083729386640286, 86.0637088061693 -3.828300561132438, 86.20316977658177 -3.1121979531509023 M86.20316977658177 -3.1121979531509023 C86.26293821144812 -2.648645774940044, 86.32270664631444 -2.185093596729185, 86.36301770250937 -1.872449005199798 M86.20316977658177 -3.1121979531509023 C86.24732246702257 -2.769758405027047, 86.29147515746335 -2.4273188569031916, 86.36301770250937 -1.872449005199798 M86.36301770250937 -1.872449005199798 C86.38295953890332 -1.5618388066033888, 86.40290137529728 -1.2512286080069794, 86.44310621591342 -0.6250057626472757 M86.36301770250937 -1.872449005199798 C86.39254375149518 -1.4125569592479417, 86.422069800481 -0.9526649132960854, 86.44310621591342 -0.6250057626472757 M86.44310621591342 -0.6250057626472757 C86.44310621591342 -0.2911108781899738, 86.44310621591342 0.042784006267328145, 86.44310621591342 0.625005762647271 M86.44310621591342 -0.6250057626472757 C86.44310621591342 -0.19372521019980105, 86.44310621591342 0.2375553422476736, 86.44310621591342 0.625005762647271 M86.44310621591342 0.625005762647271 C86.4199251926587 0.9860689112248072, 86.39674416940396 1.3471320598023433, 86.36301770250937 1.8724490051997846 M86.44310621591342 0.625005762647271 C86.41760794544159 1.0221619070795336, 86.39210967496975 1.4193180515117962, 86.36301770250937 1.8724490051997846 M86.36301770250937 1.8724490051997846 C86.30929797713277 2.2890885870610127, 86.25557825175618 2.705728168922241, 86.20316977658177 3.1121979531508885 M86.36301770250937 1.8724490051997846 C86.30861460132672 2.2943887148648963, 86.25421150014408 2.716328424530008, 86.20316977658177 3.1121979531508885 M86.20316977658177 3.1121979531508885 C86.15423194716759 3.3634833641788613, 86.10529411775339 3.6147687752068345, 85.96421928754556 4.339158212148129 M86.20316977658177 3.1121979531508885 C86.15251352415898 3.37230710313923, 86.10185727173618 3.632416253127572, 85.96421928754556 4.339158212148129 M85.96421928754556 4.339158212148129 C85.85745306013327 4.746304110046879, 85.75068683272097 5.153450007945629, 85.64714813421489 5.548287939305125 M85.96421928754556 4.339158212148129 C85.88615557183994 4.636848993162076, 85.80809185613431 4.934539774176023, 85.64714813421489 5.548287939305125 M85.64714813421489 5.548287939305125 C85.50498944711894 5.976447254927234, 85.362830760023 6.404606570549342, 85.25325922997033 6.734618561215495 M85.64714813421489 5.548287939305125 C85.54072327125797 5.868822670032166, 85.43429840830106 6.1893574007592065, 85.25325922997033 6.734618561215495 M85.25325922997033 6.734618561215495 C85.14152635741546 7.010600916634144, 85.02979348486059 7.286583272052793, 84.78417114880834 7.893275190886679 M85.25325922997033 6.734618561215495 C85.12777786783853 7.044559951698126, 85.00229650570674 7.3545013421807575, 84.78417114880834 7.893275190886679 M84.78417114880834 7.893275190886679 C84.64646967286855 8.179215252015252, 84.50876819692876 8.465155313143827, 84.2418114742735 9.019496659696284 M84.78417114880834 7.893275190886679 C84.60826760090379 8.258542671843463, 84.43236405299925 8.623810152800246, 84.2418114742735 9.019496659696284 M84.2418114742735 9.019496659696284 C84.00562969676608 9.438861321659049, 83.76944791925865 9.858225983621814, 83.62840887860425 10.108655082055236 M84.2418114742735 9.019496659696284 C84.01390437148382 9.424168798796028, 83.78599726869413 9.828840937895771, 83.62840887860425 10.108655082055236 M83.62840887860425 10.108655082055236 C83.39228323339748 10.471407481706626, 83.1561575881907 10.834159881358016, 82.94648396464065 11.156274872382301 M83.62840887860425 10.108655082055236 C83.4091115536748 10.445554662723927, 83.18981422874536 10.782454243392618, 82.94648396464065 11.156274872382301 M82.94648396464065 11.156274872382301 C82.7473922709017 11.42303960436607, 82.54830057716275 11.689804336349837, 82.19883890812659 12.158051136245302 M82.94648396464065 11.156274872382301 C82.74240992713939 11.429715491106704, 82.53833588963813 11.703156109831104, 82.19883890812659 12.158051136245302 M82.19883890812659 12.158051136245302 C81.95110193460594 12.449057081975779, 81.70336496108531 12.740063027706258, 81.38854594296866 13.10986736009567 M82.19883890812659 12.158051136245302 C81.93286912088274 12.470474382451544, 81.66689933363891 12.782897628657784, 81.38854594296866 13.10986736009567 M81.38854594296866 13.10986736009567 C81.12709251702293 13.37983948811011, 80.86563909107721 13.649811616124548, 80.51893473676799 14.007812326905684 M81.38854594296866 13.10986736009567 C81.16324983153756 13.34250409230304, 80.93795372010644 13.57514082451041, 80.51893473676799 14.007812326905684 M80.51893473676799 14.007812326905684 C80.27563946642908 14.228766654187377, 80.03234419609018 14.44972098146907, 79.5935787085019 14.848196188198111 M80.51893473676799 14.007812326905684 C80.17284997275902 14.322117352677552, 79.82676520875007 14.63642237844942, 79.5935787085019 14.848196188198111 M79.5935787085019 14.848196188198111 C79.37650731254736 15.0213048499594, 79.15943591659284 15.19441351172069, 78.61628034457871 15.627565626425152 M79.5935787085019 14.848196188198111 C79.35704637507222 15.036824429718534, 79.12051404164255 15.225452671238957, 78.61628034457871 15.627565626425152 M78.61628034457871 15.627565626425152 C78.29194882750762 15.853805252648852, 77.96761731043654 16.080044878872553, 77.5910555736057 16.34271804539089 M78.61628034457871 15.627565626425152 C78.35963387394571 15.806591094292079, 78.10298740331272 15.985616562159006, 77.5910555736057 16.34271804539089 M77.5910555736057 16.34271804539089 C77.1960803907424 16.582154322374443, 76.80110520787909 16.821590599357997, 76.52211726407678 16.990714730406093 M77.5910555736057 16.34271804539089 C77.35782750035544 16.484102273995486, 77.1245994271052 16.625486502600083, 76.52211726407678 16.990714730406093 M76.52211726407678 16.990714730406093 C76.21824480141976 17.149244799534664, 75.91437233876272 17.307774868663238, 75.41385791279238 17.56889292409717 M76.52211726407678 16.990714730406093 C76.23908281182194 17.138373622855227, 75.95604835956709 17.286032515304356, 75.41385791279238 17.56889292409717 M75.41385791279238 17.56889292409717 C75.13730964271502 17.69131263974746, 74.86076137263765 17.813732355397747, 74.2708315951478 18.07487676824742 M75.41385791279238 17.56889292409717 C75.0820882180485 17.715757526361962, 74.75031852330463 17.862622128626757, 74.2708315951478 18.07487676824742 M74.2708315951478 18.07487676824742 C73.86554162457814 18.224027223876472, 73.4602516540085 18.373177679505524, 73.09773525146062 18.506587066708033 M74.2708315951478 18.07487676824742 C73.85824331012495 18.226713071060132, 73.44565502510208 18.37854937387284, 73.09773525146062 18.506587066708033 M73.09773525146062 18.506587066708033 C72.7809391073692 18.60061049937747, 72.4641429632778 18.69463393204691, 71.89938938623541 18.86224982926107 M73.09773525146062 18.506587066708033 C72.65168911355195 18.638971219095367, 72.2056429756433 18.771355371482706, 71.89938938623541 18.86224982926107 M71.89938938623541 18.86224982926107 C71.47750854344511 18.958541378598174, 71.05562770065482 19.054832927935273, 70.68071825967677 19.140403561325773 M71.89938938623541 18.86224982926107 C71.49567860936146 18.954394179623527, 71.09196783248751 19.046538529985984, 70.68071825967677 19.140403561325773 M70.68071825967677 19.140403561325773 C70.28583416989139 19.20424535859042, 69.890950080106 19.26808715585507, 69.44672965284788 19.3399052695533 M70.68071825967677 19.140403561325773 C70.32069682182065 19.1986090353904, 69.96067538396454 19.256814509455026, 69.44672965284788 19.3399052695533 M69.44672965284788 19.3399052695533 C69.08153350612331 19.375135302615192, 68.71633735939874 19.41036533567709, 68.2024942896239 19.45993515863156 M69.44672965284788 19.3399052695533 C69.05800640740472 19.3774049335331, 68.66928316196154 19.4149045975129, 68.2024942896239 19.45993515863156 M68.2024942896239 19.45993515863156 C67.84047276963597 19.47154448414543, 67.47845124964802 19.483153809659303, 66.953125 19.5 M68.2024942896239 19.45993515863156 C67.90723711142545 19.46940348165315, 67.61197993322698 19.478871804674743, 66.953125 19.5 M66.953125 19.5 C66.953125 19.5, 66.953125 19.5, 66.953125 19.5 M66.953125 19.5 C66.953125 19.5, 66.953125 19.5, 66.953125 19.5 M66.953125 19.5 C16.588337068821097 19.5, -33.776450862357805 19.5, -66.953125 19.5 M66.953125 19.5 C26.516381289976543 19.5, -13.920362420046914 19.5, -66.953125 19.5 M-66.953125 19.5 C-67.36541265290847 19.48677873744046, -67.77770030581695 19.47355747488092, -68.2024942896239 19.45993515863156 M-66.953125 19.5 C-67.26151614199293 19.49011049632323, -67.56990728398586 19.480220992646462, -68.2024942896239 19.45993515863156 M-68.2024942896239 19.45993515863156 C-68.47649107902878 19.43350301788702, -68.75048786843367 19.407070877142484, -69.44672965284786 19.3399052695533 M-68.2024942896239 19.45993515863156 C-68.68064310403732 19.413808717563178, -69.15879191845075 19.3676822764948, -69.44672965284786 19.3399052695533 M-69.44672965284786 19.3399052695533 C-69.805928807866 19.281832735801018, -70.16512796288414 19.223760202048734, -70.68071825967675 19.140403561325773 M-69.44672965284786 19.3399052695533 C-69.91960341993548 19.263454706081404, -70.39247718702312 19.18700414260951, -70.68071825967675 19.140403561325773 M-70.68071825967675 19.140403561325773 C-71.13280449673942 19.037217827854622, -71.5848907338021 18.93403209438347, -71.89938938623538 18.862249829261074 M-70.68071825967675 19.140403561325773 C-71.01727448836397 19.063586798362557, -71.35383071705118 18.986770035399342, -71.89938938623538 18.862249829261074 M-71.89938938623538 18.862249829261074 C-72.23792582322292 18.761773991777194, -72.57646226021046 18.661298154293313, -73.09773525146059 18.506587066708043 M-71.89938938623538 18.862249829261074 C-72.28970836678785 18.74640520465924, -72.68002734734033 18.630560580057406, -73.09773525146059 18.506587066708043 M-73.09773525146059 18.506587066708043 C-73.51868989534655 18.351671866495938, -73.93964453923252 18.196756666283832, -74.2708315951478 18.074876768247425 M-73.09773525146059 18.506587066708043 C-73.51496325698696 18.353043303860936, -73.93219126251333 18.19949954101383, -74.2708315951478 18.074876768247425 M-74.2708315951478 18.074876768247425 C-74.51489645550518 17.96683649449406, -74.75896131586255 17.858796220740697, -75.41385791279238 17.568892924097174 M-74.2708315951478 18.074876768247425 C-74.58675930975899 17.93502494065173, -74.90268702437018 17.795173113056034, -75.41385791279238 17.568892924097174 M-75.41385791279238 17.568892924097174 C-75.66894839145662 17.435812384771285, -75.92403887012088 17.302731845445397, -76.52211726407678 16.990714730406097 M-75.41385791279238 17.568892924097174 C-75.65854464888452 17.441240010607242, -75.90323138497665 17.31358709711731, -76.52211726407678 16.990714730406097 M-76.52211726407678 16.990714730406097 C-76.93770435943658 16.73878339093813, -77.35329145479636 16.486852051470166, -77.59105557360569 16.3427180453909 M-76.52211726407678 16.990714730406097 C-76.8565054527748 16.78800664533424, -77.19089364147283 16.585298560262384, -77.59105557360569 16.3427180453909 M-77.59105557360569 16.3427180453909 C-77.81729573978225 16.18490269924508, -78.0435359059588 16.027087353099255, -78.61628034457871 15.627565626425156 M-77.59105557360569 16.3427180453909 C-77.91734771617769 16.115110771691874, -78.24363985874967 15.887503497992851, -78.61628034457871 15.627565626425156 M-78.61628034457871 15.627565626425156 C-78.8837425063337 15.414271669892592, -79.15120466808868 15.200977713360029, -79.59357870850187 14.848196188198125 M-78.61628034457871 15.627565626425156 C-78.83766753694044 15.451015231877287, -79.05905472930216 15.274464837329418, -79.59357870850187 14.848196188198125 M-79.59357870850187 14.848196188198125 C-79.78010878560576 14.678794507487757, -79.96663886270967 14.509392826777388, -80.51893473676797 14.007812326905697 M-79.59357870850187 14.848196188198125 C-79.82830055712901 14.635028015674742, -80.06302240575617 14.421859843151358, -80.51893473676797 14.007812326905697 M-80.51893473676797 14.007812326905697 C-80.73291216377453 13.786863065647958, -80.94688959078107 13.56591380439022, -81.38854594296865 13.109867360095677 M-80.51893473676797 14.007812326905697 C-80.85195261830368 13.663944022943529, -81.18497049983938 13.320075718981363, -81.38854594296865 13.109867360095677 M-81.38854594296865 13.109867360095677 C-81.70166185604839 12.742063591792032, -82.01477776912813 12.374259823488389, -82.19883890812658 12.158051136245307 M-81.38854594296865 13.109867360095677 C-81.66111459036944 12.78969271726331, -81.93368323777023 12.469518074430944, -82.19883890812658 12.158051136245307 M-82.19883890812658 12.158051136245307 C-82.4093803587563 11.875944773122226, -82.61992180938601 11.593838409999144, -82.94648396464063 11.156274872382316 M-82.19883890812658 12.158051136245307 C-82.41268830682982 11.871512424063956, -82.62653770553308 11.584973711882604, -82.94648396464063 11.156274872382316 M-82.94648396464063 11.156274872382316 C-83.09349186360957 10.93043126241784, -83.2404997625785 10.704587652453366, -83.62840887860425 10.108655082055249 M-82.94648396464063 11.156274872382316 C-83.08303991719865 10.9464882588456, -83.21959586975667 10.736701645308884, -83.62840887860425 10.108655082055249 M-83.62840887860425 10.108655082055249 C-83.79661998053078 9.809979237363612, -83.9648310824573 9.511303392671973, -84.2418114742735 9.019496659696289 M-83.62840887860425 10.108655082055249 C-83.76220500232895 9.871086516055373, -83.89600112605366 9.633517950055497, -84.2418114742735 9.019496659696289 M-84.2418114742735 9.019496659696289 C-84.37086081925263 8.751522933633508, -84.49991016423174 8.483549207570727, -84.78417114880834 7.893275190886686 M-84.2418114742735 9.019496659696289 C-84.37575583314792 8.741358332543385, -84.50970019202235 8.463220005390482, -84.78417114880834 7.893275190886686 M-84.78417114880834 7.893275190886686 C-84.96700078242125 7.4416824610923005, -85.14983041603416 6.990089731297914, -85.25325922997033 6.73461856121551 M-84.78417114880834 7.893275190886686 C-84.95888856391655 7.461719797638003, -85.13360597902475 7.03016440438932, -85.25325922997033 6.73461856121551 M-85.25325922997033 6.73461856121551 C-85.35755950789925 6.420482742086094, -85.46185978582818 6.1063469229566785, -85.64714813421489 5.5482879393051325 M-85.25325922997033 6.73461856121551 C-85.40146958144992 6.288232596671629, -85.54967993292951 5.841846632127749, -85.64714813421489 5.5482879393051325 M-85.64714813421489 5.5482879393051325 C-85.7451857353968 5.174428076233333, -85.84322333657873 4.800568213161534, -85.96421928754556 4.339158212148136 M-85.64714813421489 5.5482879393051325 C-85.76746821046828 5.089455341500014, -85.88778828672167 4.630622743694896, -85.96421928754556 4.339158212148136 M-85.96421928754556 4.339158212148136 C-86.03099306609798 3.996288971924601, -86.09776684465038 3.6534197317010664, -86.20316977658177 3.112197953150904 M-85.96421928754556 4.339158212148136 C-86.02284822238997 4.038111022951869, -86.08147715723437 3.7370638337556015, -86.20316977658177 3.112197953150904 M-86.20316977658177 3.112197953150904 C-86.25776661153128 2.6887556826470136, -86.3123634464808 2.2653134121431227, -86.36301770250937 1.872449005199809 M-86.20316977658177 3.112197953150904 C-86.2463044066606 2.777654280155687, -86.28943903673942 2.44311060716047, -86.36301770250937 1.872449005199809 M-86.36301770250937 1.872449005199809 C-86.3808894911208 1.5940814717286873, -86.39876127973223 1.3157139382575658, -86.44310621591342 0.6250057626472781 M-86.36301770250937 1.872449005199809 C-86.38512417518564 1.5281228492433376, -86.40723064786191 1.1837966932868662, -86.44310621591342 0.6250057626472781 M-86.44310621591342 0.6250057626472781 C-86.44310621591342 0.17712144791928103, -86.44310621591342 -0.2707628668087161, -86.44310621591342 -0.6250057626472687 M-86.44310621591342 0.6250057626472781 C-86.44310621591342 0.14652213447451745, -86.44310621591342 -0.33196149369824324, -86.44310621591342 -0.6250057626472687 M-86.44310621591342 -0.6250057626472687 C-86.41400916123813 -1.0782158759346485, -86.38491210656285 -1.531425989222028, -86.36301770250937 -1.8724490051997822 M-86.44310621591342 -0.6250057626472687 C-86.42475736164246 -0.9108039788459568, -86.40640850737151 -1.1966021950446448, -86.36301770250937 -1.8724490051997822 M-86.36301770250937 -1.8724490051997822 C-86.30441591304235 -2.326952912073767, -86.24581412357531 -2.7814568189477518, -86.20316977658177 -3.112197953150895 M-86.36301770250937 -1.8724490051997822 C-86.30551170000173 -2.318454204804389, -86.2480056974941 -2.7644594044089956, -86.20316977658177 -3.112197953150895 M-86.20316977658177 -3.112197953150895 C-86.12847311054558 -3.4957495461007952, -86.05377644450938 -3.8793011390506957, -85.96421928754556 -4.339158212148126 M-86.20316977658177 -3.112197953150895 C-86.11638160484448 -3.557836872335342, -86.02959343310718 -4.003475791519789, -85.96421928754556 -4.339158212148126 M-85.96421928754556 -4.339158212148126 C-85.84061696704663 -4.810507429795122, -85.7170146465477 -5.281856647442117, -85.64714813421489 -5.548287939305123 M-85.96421928754556 -4.339158212148126 C-85.85268586773228 -4.764483480786129, -85.74115244791898 -5.189808749424133, -85.64714813421489 -5.548287939305123 M-85.64714813421489 -5.548287939305123 C-85.51342767925625 -5.951032644179356, -85.37970722429762 -6.353777349053588, -85.25325922997033 -6.734618561215485 M-85.64714813421489 -5.548287939305123 C-85.5339471723625 -5.889231200280589, -85.42074621051012 -6.2301744612560555, -85.25325922997033 -6.734618561215485 M-85.25325922997033 -6.734618561215485 C-85.07965497254328 -7.163424433470257, -84.90605071511625 -7.592230305725028, -84.78417114880834 -7.893275190886676 M-85.25325922997033 -6.734618561215485 C-85.14189330269961 -7.009694554687868, -85.0305273754289 -7.2847705481602505, -84.78417114880834 -7.893275190886676 M-84.78417114880834 -7.893275190886676 C-84.62712334724885 -8.219388311109586, -84.47007554568938 -8.545501431332498, -84.2418114742735 -9.019496659696282 M-84.78417114880834 -7.893275190886676 C-84.62124144620395 -8.231602204481847, -84.45831174359958 -8.569929218077018, -84.2418114742735 -9.019496659696282 M-84.2418114742735 -9.019496659696282 C-84.10672811357894 -9.259350845283018, -83.97164475288437 -9.499205030869756, -83.62840887860425 -10.108655082055243 M-84.2418114742735 -9.019496659696282 C-84.10999279672157 -9.25355406977827, -83.97817411916962 -9.487611479860256, -83.62840887860425 -10.108655082055243 M-83.62840887860425 -10.108655082055243 C-83.3618707191859 -10.518129270439143, -83.09533255976756 -10.927603458823045, -82.94648396464063 -11.156274872382308 M-83.62840887860425 -10.108655082055243 C-83.44620326845896 -10.388571828295452, -83.26399765831366 -10.668488574535662, -82.94648396464063 -11.156274872382308 M-82.94648396464063 -11.156274872382308 C-82.76053283495717 -11.405432445661727, -82.57458170527373 -11.654590018941144, -82.19883890812659 -12.158051136245302 M-82.94648396464063 -11.156274872382308 C-82.70766156416414 -11.47627513185255, -82.46883916368763 -11.79627539132279, -82.19883890812659 -12.158051136245302 M-82.19883890812659 -12.158051136245302 C-81.88681699164614 -12.52456983389325, -81.57479507516568 -12.891088531541197, -81.38854594296866 -13.10986736009567 M-82.19883890812659 -12.158051136245302 C-81.88098836624062 -12.531416468952761, -81.56313782435464 -12.904781801660222, -81.38854594296866 -13.10986736009567 M-81.38854594296866 -13.10986736009567 C-81.05746971468137 -13.451730747666142, -80.7263934863941 -13.793594135236614, -80.51893473676799 -14.007812326905677 M-81.38854594296866 -13.10986736009567 C-81.16672460276938 -13.338916105722149, -80.94490326257011 -13.567964851348627, -80.51893473676799 -14.007812326905677 M-80.51893473676799 -14.007812326905677 C-80.17002869695695 -14.324679560714129, -79.8211226571459 -14.641546794522583, -79.5935787085019 -14.848196188198107 M-80.51893473676799 -14.007812326905677 C-80.17764882077465 -14.317759165880318, -79.83636290478131 -14.627706004854959, -79.5935787085019 -14.848196188198107 M-79.5935787085019 -14.848196188198107 C-79.23840423125786 -15.131438382210446, -78.88322975401381 -15.414680576222786, -78.61628034457871 -15.627565626425149 M-79.5935787085019 -14.848196188198107 C-79.29852583291849 -15.0834930047891, -79.00347295733509 -15.31878982138009, -78.61628034457871 -15.627565626425149 M-78.61628034457871 -15.627565626425149 C-78.36485891249077 -15.802946333591317, -78.11343748040284 -15.978327040757485, -77.59105557360571 -16.342718045390885 M-78.61628034457871 -15.627565626425149 C-78.3483703414178 -15.814448046993087, -78.08046033825688 -16.001330467561026, -77.59105557360571 -16.342718045390885 M-77.59105557360571 -16.342718045390885 C-77.30868365390623 -16.5138935625143, -77.02631173420676 -16.685069079637714, -76.52211726407678 -16.99071473040609 M-77.59105557360571 -16.342718045390885 C-77.33845973279173 -16.495843128510252, -77.08586389197774 -16.648968211629615, -76.52211726407678 -16.99071473040609 M-76.52211726407678 -16.99071473040609 C-76.18327290403452 -17.16748961599997, -75.84442854399227 -17.344264501593848, -75.4138579127924 -17.56889292409717 M-76.52211726407678 -16.99071473040609 C-76.16222601671915 -17.178469763631224, -75.80233476936152 -17.366224796856358, -75.4138579127924 -17.56889292409717 M-75.4138579127924 -17.56889292409717 C-75.01574044590201 -17.74512771695449, -74.61762297901163 -17.921362509811807, -74.27083159514781 -18.07487676824742 M-75.4138579127924 -17.56889292409717 C-75.1662985560428 -17.678480107742818, -74.9187391992932 -17.78806729138846, -74.27083159514781 -18.07487676824742 M-74.27083159514781 -18.07487676824742 C-73.97243280551436 -18.184690281200705, -73.6740340158809 -18.29450379415399, -73.09773525146062 -18.506587066708033 M-74.27083159514781 -18.07487676824742 C-73.9389760219468 -18.197002686824685, -73.60712044874579 -18.319128605401946, -73.09773525146062 -18.506587066708033 M-73.09773525146062 -18.506587066708033 C-72.69150063136108 -18.627155369584543, -72.28526601126154 -18.74772367246105, -71.89938938623541 -18.862249829261067 M-73.09773525146062 -18.506587066708033 C-72.63883330692138 -18.642786755021817, -72.17993136238215 -18.778986443335597, -71.89938938623541 -18.862249829261067 M-71.89938938623541 -18.862249829261067 C-71.52686573605915 -18.9472759214698, -71.15434208588289 -19.03230201367853, -70.68071825967677 -19.140403561325773 M-71.89938938623541 -18.862249829261067 C-71.58689562851247 -18.933574490248986, -71.2744018707895 -19.00489915123691, -70.68071825967677 -19.140403561325773 M-70.68071825967677 -19.140403561325773 C-70.19685145594286 -19.218631393710364, -69.71298465220895 -19.29685922609496, -69.44672965284788 -19.3399052695533 M-70.68071825967677 -19.140403561325773 C-70.36742411463891 -19.191054529063113, -70.05412996960105 -19.241705496800453, -69.44672965284788 -19.3399052695533 M-69.44672965284788 -19.3399052695533 C-69.10738575396267 -19.372641367358007, -68.76804185507748 -19.40537746516271, -68.2024942896239 -19.45993515863156 M-69.44672965284788 -19.3399052695533 C-69.07490182465047 -19.375775052951113, -68.70307399645304 -19.41164483634893, -68.2024942896239 -19.45993515863156 M-68.2024942896239 -19.45993515863156 C-67.70403165582046 -19.47591988509898, -67.205569022017 -19.491904611566394, -66.953125 -19.5 M-68.2024942896239 -19.45993515863156 C-67.78599851661205 -19.473291367412205, -67.36950274360021 -19.486647576192855, -66.953125 -19.5 M-66.953125 -19.5 C-66.953125 -19.5, -66.953125 -19.5, -66.953125 -19.5 M-66.953125 -19.5 C-66.953125 -19.5, -66.953125 -19.5, -66.953125 -19.5" stroke="#e65100" stroke-width="3" fill="none" stroke-dasharray="0 0" style="fill:#ffe0b2 !important;stroke:#e65100 !important;stroke-width:3px !important"/></g><g class="label" style="color:#000 !important" transform="translate(-74.078125, -12)"><rect/><foreignObject width="148.15625" height="24"><div style="color: rgb(0, 0, 0) !important; display: table-cell; white-space: nowrap; line-height: 1.5; max-width: 200px; text-align: center;" xmlns="http://www.w3.org/1999/xhtml"><span style="color:#000 !important" class="nodeLabel"><p>Admin Notes &amp; Audit</p></span></div></foreignObject></g></g><g class="node default neighbor" id="my-svg-flowchart-EP_GET-1" data-look="classic" transform="translate(416.80809020996094, 43)"><rect class="basic label-container" style="fill:#e3f2fd !important;stroke:#1565c0 !important" x="-110.875" y="-27" width="221.75" height="54"/><g class="label" style="color:#000 !important" transform="translate(-80.875, -12)"><rect/><foreignObject width="161.75" height="24"><div style="color: rgb(0, 0, 0) !important; display: table-cell; white-space: nowrap; line-height: 1.5; max-width: 200px; text-align: center;" xmlns="http://www.w3.org/1999/xhtml"><span style="color:#000 !important" class="nodeLabel"><p>GET /orders/:id/notes</p></span></div></foreignObject></g></g><g class="node default neighbor" id="my-svg-flowchart-EP_PATCH-2" data-look="classic" transform="translate(416.80809020996094, 147)"><rect class="basic label-container" style="fill:#e3f2fd !important;stroke:#1565c0 !important" x="-118.859375" y="-27" width="237.71875" height="54"/><g class="label" style="color:#000 !important" transform="translate(-88.859375, -12)"><rect/><foreignObject width="177.71875" height="24"><div style="color: rgb(0, 0, 0) !important; display: table-cell; white-space: nowrap; line-height: 1.5; max-width: 200px; text-align: center;" xmlns="http://www.w3.org/1999/xhtml"><span style="color:#000 !important" class="nodeLabel"><p>PATCH /orders/:id/notes</p></span></div></foreignObject></g></g><g class="node default neighbor" id="my-svg-flowchart-EP_LOG-3" data-look="classic" transform="translate(416.80809020996094, 251)"><rect class="basic label-container" style="fill:#e3f2fd !important;stroke:#1565c0 !important" x="-112.28125" y="-27" width="224.5625" height="54"/><g class="label" style="color:#000 !important" transform="translate(-82.28125, -12)"><rect/><foreignObject width="164.5625" height="24"><div style="color: rgb(0, 0, 0) !important; display: table-cell; white-space: nowrap; line-height: 1.5; max-width: 200px; text-align: center;" xmlns="http://www.w3.org/1999/xhtml"><span style="color:#000 !important" class="nodeLabel"><p>GET /logs/admin-audit</p></span></div></foreignObject></g></g><g class="node default neighbor" id="my-svg-flowchart-SVC-4" data-look="classic" transform="translate(772.0502777099609, 147)"><rect class="basic label-container" style="fill:#e3f2fd !important;stroke:#1565c0 !important" x="-96.4453125" y="-27" width="192.890625" height="54"/><g class="label" style="color:#000 !important" transform="translate(-66.4453125, -12)"><rect/><foreignObject width="132.890625" height="24"><div style="color: rgb(0, 0, 0) !important; display: table-cell; white-space: nowrap; line-height: 1.5; max-width: 200px; text-align: center;" xmlns="http://www.w3.org/1999/xhtml"><span style="color:#000 !important" class="nodeLabel"><p>OrderNotesService</p></span></div></foreignObject></g></g><g class="node default neighbor" id="my-svg-flowchart-COLS-5" data-look="classic" transform="translate(1132.495590209961, 71)"><rect class="basic label-container" style="fill:#e3f2fd !important;stroke:#1565c0 !important" x="-130" y="-63" width="260" height="126"/><g class="label" style="color:#000 !important" transform="translate(-100, -48)"><rect/><foreignObject width="200" height="96"><div style="color: rgb(0, 0, 0) !important; display: table; white-space: break-spaces; line-height: 1.5; max-width: 200px; text-align: center; width: 200px;" xmlns="http://www.w3.org/1999/xhtml"><span style="color:#000 !important" class="nodeLabel"><p>Order.internal_notes / payment_memo /<br />invoice_note / additional_terms</p></span></div></foreignObject></g></g><g class="node default neighbor" id="my-svg-flowchart-AUDIT-6" data-look="classic" transform="translate(1132.495590209961, 223)"><rect class="basic label-container" style="fill:#e3f2fd !important;stroke:#1565c0 !important" x="-129.9921875" y="-39" width="259.984375" height="78"/><g class="label" style="color:#000 !important" transform="translate(-99.9921875, -24)"><rect/><foreignObject width="199.984375" height="48"><div style="color: rgb(0, 0, 0) !important; display: table-cell; white-space: nowrap; line-height: 1.5; max-width: 200px; text-align: center;" xmlns="http://www.w3.org/1999/xhtml"><span style="color:#000 !important" class="nodeLabel"><p>AdminAuditLog<br />(one row per changed field)</p></span></div></foreignObject></g></g><g class="node default neighbor" id="my-svg-flowchart-DETAILS-7" data-look="classic" transform="translate(416.80809020996094, 367)"><rect class="basic label-container" style="fill:#e3f2fd !important;stroke:#1565c0 !important" x="-130" y="-39" width="260" height="78"/><g class="label" style="color:#000 !important" transform="translate(-100, -24)"><rect/><foreignObject width="200" height="48"><div style="color: rgb(0, 0, 0) !important; display: table; white-space: break-spaces; line-height: 1.5; max-width: 200px; text-align: center; width: 200px;" xmlns="http://www.w3.org/1999/xhtml"><span style="color:#000 !important" class="nodeLabel"><p>Admin Order Details (displays)</p></span></div></foreignObject></g></g></g></g></g><defs><filter id="my-svg-drop-shadow" height="130%" width="130%"><feDropShadow dx="4" dy="4" stdDeviation="0" flood-opacity="0.06" flood-color="#000000"/></filter></defs><defs><filter id="my-svg-drop-shadow-small" height="150%" width="150%"><feDropShadow dx="2" dy="2" stdDeviation="0" flood-opacity="0.06" flood-color="#000000"/></filter></defs></svg>