<svg id="my-svg" width="100%" xmlns="http://www.w3.org/2000/svg" xmlns:xlink="http://www.w3.org/1999/xlink" class="flowchart" style="max-width: 1203.41px; background-color: white;" viewBox="0 0 1203.40625 420" role="graphics-document document" aria-roledescription="flowchart-v2"><style>#my-svg{font-family:"trebuchet ms",verdana,arial,sans-serif;font-size:16px;fill:#333;}@keyframes edge-animation-frame{from{stroke-dashoffset:0;}}@keyframes dash{to{stroke-dashoffset:0;}}#my-svg .edge-animation-slow{stroke-dasharray:9,5!important;stroke-dashoffset:900;animation:dash 50s linear infinite;stroke-linecap:round;}#my-svg .edge-animation-fast{stroke-dasharray:9,5!important;stroke-dashoffset:900;animation:dash 20s linear infinite;stroke-linecap:round;}#my-svg .error-icon{fill:#552222;}#my-svg .error-text{fill:#552222;stroke:#552222;}#my-svg .edge-thickness-normal{stroke-width:1px;}#my-svg .edge-thickness-thick{stroke-width:3.5px;}#my-svg .edge-pattern-solid{stroke-dasharray:0;}#my-svg .edge-thickness-invisible{stroke-width:0;fill:none;}#my-svg .edge-pattern-dashed{stroke-dasharray:3;}#my-svg .edge-pattern-dotted{stroke-dasharray:2;}#my-svg .marker{fill:#333333;stroke:#333333;}#my-svg .marker.cross{stroke:#333333;}#my-svg svg{font-family:"trebuchet ms",verdana,arial,sans-serif;font-size:16px;}#my-svg p{margin:0;}#my-svg .label{font-family:"trebuchet ms",verdana,arial,sans-serif;color:#333;}#my-svg .cluster-label text{fill:#333;}#my-svg .cluster-label span{color:#333;}#my-svg .cluster-label span p{background-color:transparent;}#my-svg .label text,#my-svg span{fill:#333;color:#333;}#my-svg .node rect,#my-svg .node circle,#my-svg .node ellipse,#my-svg .node polygon,#my-svg .node path{fill:#ECECFF;stroke:#9370DB;stroke-width:1px;}#my-svg .rough-node .label text,#my-svg .node .label text,#my-svg .image-shape .label,#my-svg .icon-shape .label{text-anchor:middle;}#my-svg .node .katex path{fill:#000;stroke:#000;stroke-width:1px;}#my-svg .rough-node .label,#my-svg .node .label,#my-svg .image-shape .label,#my-svg .icon-shape .label{text-align:center;}#my-svg .node.clickable{cursor:pointer;}#my-svg .root .anchor path{fill:#333333!important;stroke-width:0;stroke:#333333;}#my-svg .arrowheadPath{fill:#333333;}#my-svg .edgePath .path{stroke:#333333;stroke-width:1px;}#my-svg .flowchart-link{stroke:#333333;fill:none;}#my-svg .edgeLabel{background-color:rgba(232,232,232, 0.8);text-align:center;}#my-svg .edgeLabel p{background-color:rgba(232,232,232, 0.8);}#my-svg .edgeLabel rect{opacity:0.5;background-color:rgba(232,232,232, 0.8);fill:rgba(232,232,232, 0.8);}#my-svg .labelBkg{background-color:rgba(232, 232, 232, 0.5);}#my-svg .cluster rect{fill:#ffffde;stroke:#aaaa33;stroke-width:1px;}#my-svg .cluster text{fill:#333;}#my-svg .cluster span{color:#333;}#my-svg div.mermaidTooltip{position:absolute;text-align:center;max-width:200px;padding:2px;font-family:"trebuchet ms",verdana,arial,sans-serif;font-size:12px;background:hsl(80, 100%, 96.2745098039%);border:1px solid #aaaa33;border-radius:2px;pointer-events:none;z-index:100;}#my-svg .flowchartTitleText{text-anchor:middle;font-size:18px;fill:#333;}#my-svg rect.text{fill:none;stroke-width:0;}#my-svg .icon-shape,#my-svg .image-shape{background-color:rgba(232,232,232, 0.8);text-align:center;}#my-svg .icon-shape p,#my-svg .image-shape p{background-color:rgba(232,232,232, 0.8);padding:2px;}#my-svg .icon-shape .label rect,#my-svg .image-shape .label rect{opacity:0.5;background-color:rgba(232,232,232, 0.8);fill:rgba(232,232,232, 0.8);}#my-svg .label-icon{display:inline-block;height:1em;overflow:visible;vertical-align:-0.125em;}#my-svg .node .label-icon path{fill:currentColor;stroke:revert;stroke-width:revert;}#my-svg .node .neo-node{stroke:#9370DB;}#my-svg [data-look="neo"].node rect,#my-svg [data-look="neo"].cluster rect,#my-svg [data-look="neo"].node polygon{stroke:#9370DB;filter:drop-shadow(1px 2px 2px rgba(185, 185, 185, 1));}#my-svg [data-look="neo"].swimlane.cluster rect{filter:none;}#my-svg [data-look="neo"].node path{stroke:#9370DB;stroke-width:1px;}#my-svg [data-look="neo"].node .outer-path{filter:drop-shadow(1px 2px 2px rgba(185, 185, 185, 1));}#my-svg [data-look="neo"].node .neo-line path{stroke:#9370DB;filter:none;}#my-svg [data-look="neo"].node circle{stroke:#9370DB;filter:drop-shadow(1px 2px 2px rgba(185, 185, 185, 1));}#my-svg [data-look="neo"].node circle .state-start{fill:#000000;}#my-svg [data-look="neo"].icon-shape .icon{fill:#9370DB;filter:drop-shadow(1px 2px 2px rgba(185, 185, 185, 1));}#my-svg [data-look="neo"].icon-shape .icon-neo path{stroke:#9370DB;filter:drop-shadow(1px 2px 2px rgba(185, 185, 185, 1));}#my-svg :root{--mermaid-font-family:"trebuchet ms",verdana,arial,sans-serif;}#my-svg .ego&gt;*{fill:rgb(255, 224, 178)!important;stroke:rgb(230, 81, 0)!important;stroke-width:3px!important;color:rgb(0, 0, 0)!important;}#my-svg .ego span{fill:rgb(255, 224, 178)!important;stroke:rgb(230, 81, 0)!important;stroke-width:3px!important;color:rgb(0, 0, 0)!important;}#my-svg .ego tspan{fill:rgb(0, 0, 0)!important;}#my-svg .neighbor&gt;*{fill:rgb(227, 242, 253)!important;stroke:rgb(21, 101, 192)!important;color:rgb(0, 0, 0)!important;}#my-svg .neighbor span{fill:rgb(227, 242, 253)!important;stroke:rgb(21, 101, 192)!important;color:rgb(0, 0, 0)!important;}#my-svg .neighbor tspan{fill:rgb(0, 0, 0)!important;}</style><g><marker id="my-svg_flowchart-v2-pointEnd" class="marker flowchart-v2" viewBox="0 0 10 10" refX="5" refY="5" markerUnits="userSpaceOnUse" markerWidth="8" markerHeight="8" orient="auto"><path d="M 0 0 L 10 5 L 0 10 z" class="arrowMarkerPath" style="stroke-width: 1; stroke-dasharray: 1, 0;"/></marker><marker id="my-svg_flowchart-v2-pointStart" class="marker flowchart-v2" viewBox="0 0 10 10" refX="4.5" refY="5" markerUnits="userSpaceOnUse" markerWidth="8" markerHeight="8" orient="auto"><path d="M 0 5 L 10 10 L 10 0 z" class="arrowMarkerPath" style="stroke-width: 1; stroke-dasharray: 1, 0;"/></marker><marker id="my-svg_flowchart-v2-pointEnd-margin" class="marker flowchart-v2" viewBox="0 0 11.5 14" refX="11.5" refY="7" markerUnits="userSpaceOnUse" markerWidth="10.5" markerHeight="14" orient="auto"><path d="M 0 0 L 11.5 7 L 0 14 z" class="arrowMarkerPath" style="stroke-width: 0; stroke-dasharray: 1, 0;"/></marker><marker id="my-svg_flowchart-v2-pointStart-margin" class="marker flowchart-v2" viewBox="0 0 11.5 14" refX="1" refY="7" markerUnits="userSpaceOnUse" markerWidth="11.5" markerHeight="14" orient="auto"><polygon points="0,7 11.5,14 11.5,0" class="arrowMarkerPath" style="stroke-width: 0; stroke-dasharray: 1, 0;"/></marker><marker id="my-svg_flowchart-v2-circleEnd" class="marker flowchart-v2" viewBox="0 0 10 10" refX="11" refY="5" markerUnits="userSpaceOnUse" markerWidth="11" markerHeight="11" orient="auto"><circle cx="5" cy="5" r="5" class="arrowMarkerPath" style="stroke-width: 1; stroke-dasharray: 1, 0;"/></marker><marker id="my-svg_flowchart-v2-circleStart" class="marker flowchart-v2" viewBox="0 0 10 10" refX="-1" refY="5" markerUnits="userSpaceOnUse" markerWidth="11" markerHeight="11" orient="auto"><circle cx="5" cy="5" r="5" class="arrowMarkerPath" style="stroke-width: 1; stroke-dasharray: 1, 0;"/></marker><marker id="my-svg_flowchart-v2-circleEnd-margin" class="marker flowchart-v2" viewBox="0 0 10 10" refY="5" refX="12.25" markerUnits="userSpaceOnUse" markerWidth="14" markerHeight="14" orient="auto"><circle cx="5" cy="5" r="5" class="arrowMarkerPath" style="stroke-width: 0; stroke-dasharray: 1, 0;"/></marker><marker id="my-svg_flowchart-v2-circleStart-margin" class="marker flowchart-v2" viewBox="0 0 10 10" refX="-2" refY="5" markerUnits="userSpaceOnUse" markerWidth="14" markerHeight="14" orient="auto"><circle cx="5" cy="5" r="5" class="arrowMarkerPath" style="stroke-width: 0; stroke-dasharray: 1, 0;"/></marker><marker id="my-svg_flowchart-v2-crossEnd" class="marker cross flowchart-v2" viewBox="0 0 11 11" refX="12" refY="5.2" markerUnits="userSpaceOnUse" markerWidth="11" markerHeight="11" orient="auto"><path d="M 1,1 l 9,9 M 10,1 l -9,9" class="arrowMarkerPath" style="stroke-width: 2; stroke-dasharray: 1, 0;"/></marker><marker id="my-svg_flowchart-v2-crossStart" class="marker cross flowchart-v2" viewBox="0 0 11 11" refX="-1" refY="5.2" markerUnits="userSpaceOnUse" markerWidth="11" markerHeight="11" orient="auto"><path d="M 1,1 l 9,9 M 10,1 l -9,9" class="arrowMarkerPath" style="stroke-width: 2; stroke-dasharray: 1, 0;"/></marker><marker id="my-svg_flowchart-v2-crossEnd-margin" class="marker cross flowchart-v2" viewBox="0 0 15 15" refX="17.7" refY="7.5" markerUnits="userSpaceOnUse" markerWidth="12" markerHeight="12" orient="auto"><path d="M 1,1 L 14,14 M 1,14 L 14,1" class="arrowMarkerPath" style="stroke-width: 2.5;"/></marker><marker id="my-svg_flowchart-v2-crossStart-margin" class="marker cross flowchart-v2" viewBox="0 0 15 15" refX="-3.5" refY="7.5" markerUnits="userSpaceOnUse" markerWidth="12" markerHeight="12" orient="auto"><path d="M 1,1 L 14,14 M 1,14 L 14,1" class="arrowMarkerPath" style="stroke-width: 2.5; stroke-dasharray: 1, 0;"/></marker><g class="root"><g class="clusters"/><g class="edgePaths"><path d="M193.31,178L224.38,166.833C255.449,155.667,317.588,133.333,368.513,118.717C419.439,104.1,459.151,97.2,479.008,93.75L498.864,90.3" id="my-svg-L_CAP_SVC_0" class="edge-thickness-normal edge-pattern-solid edge-thickness-normal edge-pattern-solid flowchart-link" style=";" data-edge="true" data-et="edge" data-id="L_CAP_SVC_0" data-points="W3sieCI6MTkzLjMxMDA5MjY1OTg4MzcsInkiOjE3OH0seyJ4IjozNzkuNzI2NTYyNSwieSI6MTExfSx7IngiOjUwMi44MDQ2ODc1LCJ5Ijo4OS42MTUxNzA4MDg5NTl9XQ==" data-look="classic" marker-end="url(#my-svg_flowchart-v2-pointEnd)"/><path d="M740.102,69L757.323,69C774.544,69,808.987,69,840.871,69C872.755,69,902.081,69,916.743,69L931.406,69" id="my-svg-L_SVC_TEMPLATES_0" class="edge-thickness-normal edge-pattern-solid edge-thickness-normal edge-pattern-solid flowchart-link" style=";" data-edge="true" data-et="edge" data-id="L_SVC_TEMPLATES_0" data-points="W3sieCI6NzQwLjEwMTU2MjUsInkiOjY5fSx7IngiOjg0My40Mjk2ODc1LCJ5Ijo2OX0seyJ4Ijo5MzUuNDA2MjUsInkiOjY5fV0=" data-look="classic" marker-end="url(#my-svg_flowchart-v2-pointEnd)"/><path d="M221.357,197.5L247.752,197.417C274.147,197.333,326.937,197.167,371.286,197.083C415.635,197,451.544,197,469.499,197L487.453,197" id="my-svg-L_CAP_CRON_0" class="edge-thickness-normal edge-pattern-solid edge-thickness-normal edge-pattern-solid flowchart-link" style=";" data-edge="true" data-et="edge" data-id="L_CAP_CRON_0" data-points="W3sieCI6MjIxLjM1NzE2NzMyNjg0NjQ1LCJ5IjoxOTcuNX0seyJ4IjozNzkuNzI2NTYyNSwieSI6MTk3fSx7IngiOjQ5MS40NTMxMjUsInkiOjE5N31d" data-look="classic" marker-end="url(#my-svg_flowchart-v2-pointEnd)"/><path d="M169.511,217L204.547,239C239.583,261,309.655,305,362.645,327C415.635,349,451.544,349,469.499,349L487.453,349" id="my-svg-L_CAP_TRIGGER_0" class="edge-thickness-normal edge-pattern-dotted edge-thickness-normal edge-pattern-solid flowchart-link" style=";" data-edge="true" data-et="edge" data-id="L_CAP_TRIGGER_0" data-points="W3sieCI6MTY5LjUxMDk3MzQ3ODYxODQsInkiOjIxN30seyJ4IjozNzkuNzI2NTYyNSwieSI6MzQ5fSx7IngiOjQ5MS40NTMxMjUsInkiOjM0OX1d" data-look="classic" marker-end="url(#my-svg_flowchart-v2-pointEnd)"/><path d="M751.453,197L766.783,197C782.112,197,812.771,197,843.221,197C873.672,197,903.914,197,919.035,197L934.156,197" id="my-svg-L_CRON_WORKER_0" class="edge-thickness-normal edge-pattern-solid edge-thickness-normal edge-pattern-solid flowchart-link" style=";" data-edge="true" data-et="edge" data-id="L_CRON_WORKER_0" data-points="W3sieCI6NzUxLjQ1MzEyNSwieSI6MTk3fSx7IngiOjg0My40Mjk2ODc1LCJ5IjoxOTd9LHsieCI6OTM4LjE1NjI1LCJ5IjoxOTd9XQ==" data-look="classic" marker-end="url(#my-svg_flowchart-v2-pointEnd)"/><path d="M268,47L286.621,47C305.242,47,342.484,47,380.955,48.807C419.425,50.613,459.123,54.226,478.972,56.033L498.821,57.839" id="my-svg-L_CANCEL_SVC_0" class="edge-thickness-normal edge-pattern-dotted edge-thickness-normal edge-pattern-solid flowchart-link" style=";" data-edge="true" data-et="edge" data-id="L_CANCEL_SVC_0" data-points="W3sieCI6MjY4LCJ5Ijo0N30seyJ4IjozNzkuNzI2NTYyNSwieSI6NDd9LHsieCI6NTAyLjgwNDY4NzUsInkiOjU4LjIwMTU3NzE5NTMwNzE5NX1d" data-look="classic" marker-end="url(#my-svg_flowchart-v2-pointEnd)"/></g><g class="edgeLabels"><g class="edgeLabel" transform="translate(345.29819, 123.37391)"><g class="label" data-id="L_CAP_SVC_0" transform="translate(-86.7265625, -12)"><foreignObject width="173.453125" height="24"><div xmlns="http://www.w3.org/1999/xhtml" class="labelBkg" style="display: table-cell; white-space: nowrap; line-height: 1.5; max-width: 200px; text-align: center;"><span class="edgeLabel"><p>on action (post-commit)</p></span></div></foreignObject></g></g><g class="edgeLabel" transform="translate(843.4296875, 69)"><g class="label" data-id="L_SVC_TEMPLATES_0" transform="translate(-66.9765625, -12)"><foreignObject width="133.953125" height="24"><div xmlns="http://www.w3.org/1999/xhtml" class="labelBkg" style="display: table-cell; white-space: nowrap; line-height: 1.5; max-width: 200px; text-align: center;"><span class="edgeLabel"><p>sends (best-effort)</p></span></div></foreignObject></g></g><g class="edgeLabel" transform="translate(379.7265625, 197)"><g class="label" data-id="L_CAP_CRON_0" transform="translate(-35.9453125, -12)"><foreignObject width="71.890625" height="24"><div xmlns="http://www.w3.org/1999/xhtml" class="labelBkg" style="display: table-cell; white-space: nowrap; line-height: 1.5; max-width: 200px; text-align: center;"><span class="edgeLabel"><p>scheduled</p></span></div></foreignObject></g></g><g class="edgeLabel" transform="translate(379.7265625, 349)"><g class="label" data-id="L_CAP_TRIGGER_0" transform="translate(-30.6484375, -12)"><foreignObject width="61.296875" height="24"><div xmlns="http://www.w3.org/1999/xhtml" class="labelBkg" style="display: table-cell; white-space: nowrap; line-height: 1.5; max-width: 200px; text-align: center;"><span class="edgeLabel"><p>dev-only</p></span></div></foreignObject></g></g><g class="edgeLabel" transform="translate(843.4296875, 197)"><g class="label" data-id="L_CRON_WORKER_0" transform="translate(-24.15625, -12)"><foreignObject width="48.3125" height="24"><div xmlns="http://www.w3.org/1999/xhtml" class="labelBkg" style="display: table-cell; white-space: nowrap; line-height: 1.5; max-width: 200px; text-align: center;"><span class="edgeLabel"><p>runs in</p></span></div></foreignObject></g></g><g class="edgeLabel" transform="translate(379.7265625, 47)"><g class="label" data-id="L_CANCEL_SVC_0" transform="translate(-72.671875, -12)"><foreignObject width="145.34375" height="24"><div xmlns="http://www.w3.org/1999/xhtml" class="labelBkg" style="display: table-cell; white-space: nowrap; line-height: 1.5; max-width: 200px; text-align: center;"><span class="edgeLabel"><p>send_notification →</p></span></div></foreignObject></g></g></g><g class="nodes"><g class="node default ego" id="my-svg-flowchart-CAP-0" data-look="classic" transform="translate(138, 197)"><g class="basic label-container outer-path"><path d="M-63.3671875 -19.5 C-31.767840055744223 -19.5, -0.1684926114884462 -19.5, 63.3671875 -19.5 C63.3671875 -19.5, 63.3671875 -19.5, 63.3671875 -19.5 C63.805515377492235 -19.48594367812228, 64.24384325498447 -19.47188735624456, 64.6165567896239 -19.45993515863156 C64.9830903585002 -19.42457610606317, 65.34962392737651 -19.389217053494786, 65.86079215284786 -19.3399052695533 C66.12554480948192 -19.297102113216223, 66.39029746611597 -19.254298956879143, 67.09478075967675 -19.140403561325776 C67.3685080985011 -19.07792708247694, 67.64223543732544 -19.0154506036281, 68.31345188623538 -18.862249829261074 C68.76006977760446 -18.729695983447883, 69.20668766897354 -18.597142137634695, 69.5117977514606 -18.50658706670804 C69.9698461027569 -18.33802103927846, 70.4278944540532 -18.169455011848875, 70.6848940951478 -18.074876768247425 C70.96835829278358 -17.949395576620727, 71.25182249041936 -17.823914384994033, 71.82792041279238 -17.568892924097174 C72.25244791162335 -17.347417199879896, 72.67697541045433 -17.125941475662618, 72.93617976407678 -16.990714730406097 C73.33022871857209 -16.75183993850235, 73.72427767306739 -16.5129651465986, 74.0051180736057 -16.342718045390892 C74.2395458373741 -16.17919138560039, 74.4739736011425 -16.015664725809884, 75.03034284457871 -15.627565626425154 C75.33517892511132 -15.384466964229182, 75.64001500564393 -15.14136830203321, 76.00764120850187 -14.848196188198123 C76.358838801442 -14.529247826469005, 76.71003639438214 -14.210299464739887, 76.93299723676799 -14.007812326905688 C77.14872545097806 -13.785055234118003, 77.36445366518815 -13.562298141330318, 77.80260844296865 -13.10986736009568 C77.98255800817506 -12.898488361383894, 78.16250757338148 -12.687109362672107, 78.61290140812658 -12.158051136245305 C78.80585517630682 -11.899510665333672, 78.99880894448708 -11.640970194422039, 79.36054646464063 -11.156274872382312 C79.57931876774607 -10.820181866223404, 79.7980910708515 -10.484088860064496, 80.04247137860425 -10.108655082055241 C80.17524755947362 -9.87289752787542, 80.308023740343 -9.637139973695598, 80.6558739742735 -9.019496659696287 C80.83997065057156 -8.637215972325516, 81.02406732686963 -8.254935284954746, 81.19823364880834 -7.893275190886684 C81.3832440288608 -7.4362959752247475, 81.56825440891326 -6.979316759562811, 81.66732172997033 -6.734618561215508 C81.78885775735347 -6.3685714108737645, 81.9103937847366 -6.002524260532021, 82.06121063421489 -5.548287939305138 C82.14935605333459 -5.212151253735441, 82.23750147245427 -4.876014568165743, 82.37828178754556 -4.339158212148133 C82.43037588991493 -4.071666006573885, 82.4824699922843 -3.804173800999636, 82.61723227658177 -3.1121979531509023 C82.668521998757 -2.714404996261138, 82.71981172093221 -2.316612039371374, 82.77708020250937 -1.872449005199798 C82.79861124095358 -1.5370857018898347, 82.82014227939779 -1.2017223985798715, 82.85716871591342 -0.6250057626472757 C82.85716871591342 -0.18090812602538486, 82.85716871591342 0.26318951059650597, 82.85716871591342 0.625005762647271 C82.8364146306373 0.948267393218952, 82.81566054536118 1.2715290237906332, 82.77708020250937 1.8724490051997846 C82.72585540399946 2.2697384269620104, 82.67463060548955 2.667027848724236, 82.61723227658177 3.1121979531508885 C82.56713001600306 3.3694624721060196, 82.51702775542437 3.626726991061151, 82.37828178754556 4.339158212148129 C82.30665501974897 4.612302120994073, 82.23502825195237 4.885446029840018, 82.06121063421489 5.548287939305125 C81.97052387813243 5.821421999653126, 81.87983712204996 6.094556060001127, 81.66732172997033 6.734618561215495 C81.52800799695073 7.078726175221673, 81.38869426393114 7.422833789227853, 81.19823364880834 7.893275190886679 C81.08024545932842 8.13828019088457, 80.9622572698485 8.383285190882463, 80.6558739742735 9.019496659696284 C80.46037343982425 9.366627655186718, 80.26487290537499 9.713758650677153, 80.04247137860425 10.108655082055236 C79.87500806694054 10.365923698966306, 79.70754475527683 10.623192315877374, 79.36054646464065 11.156274872382301 C79.13788120763142 11.454626031552436, 78.91521595062221 11.752977190722572, 78.61290140812659 12.158051136245302 C78.4289354548878 12.374148012878855, 78.24496950164902 12.590244889512409, 77.80260844296866 13.10986736009567 C77.49795505554631 13.424446995117513, 77.19330166812398 13.739026630139358, 76.93299723676799 14.007812326905684 C76.58872423820982 14.320471955231827, 76.24445123965165 14.633131583557972, 76.0076412085019 14.848196188198111 C75.63631043366227 15.144322599605792, 75.26497965882265 15.440449011013472, 75.03034284457871 15.627565626425152 C74.64892775127205 15.893624284322597, 74.26751265796541 16.15968294222004, 74.0051180736057 16.34271804539089 C73.58043741616306 16.600161955633173, 73.15575675872044 16.85760586587546, 72.93617976407678 16.990714730406093 C72.6954209186039 17.116318465875896, 72.45466207313102 17.241922201345698, 71.82792041279238 17.56889292409717 C71.42218645886439 17.748499309830976, 71.01645250493641 17.928105695564778, 70.6848940951478 18.07487676824742 C70.43929931378435 18.165257918042442, 70.1937045324209 18.255639067837464, 69.51179775146062 18.506587066708033 C69.03411412812791 18.648361058700676, 68.55643050479522 18.790135050693316, 68.31345188623541 18.86224982926107 C67.92363260211616 18.95122353705273, 67.5338133179969 19.04019724484439, 67.09478075967677 19.140403561325773 C66.76599846381852 19.19355853317535, 66.43721616796027 19.246713505024925, 65.86079215284788 19.3399052695533 C65.44568902745124 19.379949768825764, 65.0305859020546 19.41999426809823, 64.6165567896239 19.45993515863156 C64.34212132469851 19.46873576983549, 64.06768585977312 19.477536381039418, 63.36718750000001 19.5 C63.36718750000001 19.5, 63.3671875 19.5, 63.3671875 19.5 C35.45899519374531 19.5, 7.550802887490612 19.5, -63.36718749999999 19.5 C-63.76371568894631 19.48728411277579, -64.16024387789264 19.47456822555158, -64.6165567896239 19.45993515863156 C-65.08002357613474 19.41522507513722, -65.54349036264557 19.37051499164288, -65.86079215284786 19.3399052695533 C-66.1236929744571 19.29740150354184, -66.38659379606635 19.254897737530378, -67.09478075967675 19.140403561325773 C-67.5102188696511 19.045582523711154, -67.92565697962543 18.950761486096532, -68.31345188623538 18.862249829261074 C-68.7918491406951 18.720264035295862, -69.27024639515481 18.578278241330654, -69.51179775146059 18.506587066708043 C-69.90140122267981 18.36320938784436, -70.29100469389904 18.219831708980678, -70.6848940951478 18.074876768247425 C-71.07923117499024 17.90031544059503, -71.4735682548327 17.725754112942635, -71.82792041279238 17.568892924097174 C-72.10044418159683 17.426717448471695, -72.37296795040129 17.28454197284622, -72.93617976407678 16.990714730406097 C-73.22118392727627 16.817943531804193, -73.50618809047577 16.64517233320229, -74.00511807360569 16.3427180453909 C-74.24153395309126 16.17780456214024, -74.47794983257684 16.012891078889574, -75.03034284457871 15.627565626425156 C-75.29193973707673 15.418949066043655, -75.55353662957475 15.210332505662155, -76.00764120850187 14.848196188198125 C-76.33514590895078 14.550765084549951, -76.66265060939969 14.253333980901777, -76.93299723676797 14.007812326905697 C-77.23708655057604 13.693815144201906, -77.54117586438409 13.379817961498114, -77.80260844296865 13.109867360095677 C-78.05226975339261 12.816600978740691, -78.30193106381657 12.523334597385706, -78.61290140812658 12.158051136245307 C-78.7851795604315 11.927214107019262, -78.95745771273641 11.696377077793215, -79.36054646464063 11.156274872382316 C-79.61383399558396 10.767157207628012, -79.86712152652727 10.37803954287371, -80.04247137860425 10.108655082055249 C-80.19926039085443 9.830260314195948, -80.35604940310462 9.551865546336648, -80.6558739742735 9.019496659696289 C-80.86649806529037 8.582131228066155, -81.07712215630724 8.14476579643602, -81.19823364880834 7.893275190886686 C-81.32026797138636 7.591848054745855, -81.44230229396439 7.290420918605023, -81.66732172997033 6.73461856121551 C-81.8206912898977 6.272693882835157, -81.97406084982507 5.810769204454805, -82.06121063421489 5.5482879393051325 C-82.12844942114856 5.291877303252462, -82.19568820808222 5.03546666719979, -82.37828178754556 4.339158212148136 C-82.44467311738937 3.998252765212667, -82.5110644472332 3.657347318277198, -82.61723227658177 3.112197953150904 C-82.67692517213118 2.6492316429653027, -82.73661806768057 2.1862653327797013, -82.77708020250937 1.872449005199809 C-82.79561146022961 1.5838097080450457, -82.81414271794985 1.2951704108902824, -82.85716871591342 0.6250057626472781 C-82.85716871591342 0.2153258435422296, -82.85716871591342 -0.19435407556281892, -82.85716871591342 -0.6250057626472687 C-82.82782172592273 -1.0821088202160318, -82.79847473593206 -1.539211877784795, -82.77708020250937 -1.8724490051997822 C-82.74127777605324 -2.150125554804718, -82.70547534959711 -2.427802104409654, -82.61723227658177 -3.112197953150895 C-82.52632676288535 -3.5789785530949625, -82.4354212491889 -4.04575915303903, -82.37828178754556 -4.339158212148126 C-82.29357553699327 -4.66217985742524, -82.20886928644097 -4.985201502702354, -82.06121063421489 -5.548287939305123 C-81.93451150687468 -5.929885524089297, -81.80781237953447 -6.311483108873471, -81.66732172997033 -6.734618561215485 C-81.51597808110189 -7.1084402999509155, -81.36463443223346 -7.482262038686346, -81.19823364880834 -7.893275190886676 C-81.08190339052021 -8.13483746129078, -80.96557313223207 -8.376399731694885, -80.6558739742735 -9.019496659696282 C-80.50993681736101 -9.278622859533998, -80.36399966044851 -9.537749059371713, -80.04247137860425 -10.108655082055243 C-79.89500714811552 -10.335199739776293, -79.74754291762679 -10.561744397497344, -79.36054646464063 -11.156274872382308 C-79.192677614779 -11.38120383803006, -79.02480876491738 -11.606132803677815, -78.61290140812659 -12.158051136245302 C-78.29515692881279 -12.531291881820362, -77.97741244949897 -12.90453262739542, -77.80260844296866 -13.10986736009567 C-77.61080512806953 -13.307920030074042, -77.41900181317038 -13.505972700052414, -76.93299723676799 -14.007812326905677 C-76.59251198395621 -14.317032024763213, -76.25202673114444 -14.626251722620749, -76.0076412085019 -14.848196188198107 C-75.66252873782896 -15.123414199731227, -75.31741626715603 -15.398632211264347, -75.03034284457871 -15.627565626425149 C-74.69166223488507 -15.863814558500138, -74.35298162519143 -16.100063490575128, -74.00511807360571 -16.342718045390885 C-73.78652868618515 -16.47522821661906, -73.56793929876459 -16.607738387847228, -72.93617976407678 -16.99071473040609 C-72.68231400258065 -17.123156335569842, -72.42844824108452 -17.255597940733594, -71.8279204127924 -17.56889292409717 C-71.56451614075637 -17.68549418171741, -71.30111186872034 -17.80209543933765, -70.68489409514781 -18.07487676824742 C-70.31179265624343 -18.212181546676128, -69.93869121733904 -18.349486325104838, -69.51179775146062 -18.506587066708033 C-69.21569679314679 -18.59446827686993, -68.91959583483296 -18.682349487031825, -68.31345188623541 -18.862249829261067 C-67.8598576319648 -18.965779757819202, -67.40626337769419 -19.069309686377338, -67.09478075967677 -19.140403561325773 C-66.63653340720958 -19.214489439511375, -66.1782860547424 -19.288575317696974, -65.86079215284788 -19.3399052695533 C-65.49659479705028 -19.37503895045569, -65.13239744125266 -19.410172631358083, -64.6165567896239 -19.45993515863156 C-64.31793782587779 -19.469511287572345, -64.01931886213168 -19.47908741651313, -63.36718750000001 -19.5 C-63.36718750000001 -19.5, -63.3671875 -19.5, -63.3671875 -19.5" stroke="none" stroke-width="0" fill="#ffe0b2" style="fill:#ffe0b2 !important;stroke:#e65100 !important;stroke-width:3px !important"/><path d="M-63.3671875 -19.5 C-32.38559186269203 -19.5, -1.4039962253840628 -19.5, 63.3671875 -19.5 M-63.3671875 -19.5 C-31.431716236469157 -19.5, 0.5037550270616862 -19.5, 63.3671875 -19.5 M63.3671875 -19.5 C63.3671875 -19.5, 63.3671875 -19.5, 63.3671875 -19.5 M63.3671875 -19.5 C63.3671875 -19.5, 63.3671875 -19.5, 63.3671875 -19.5 M63.3671875 -19.5 C63.81532115648111 -19.485629225875897, 64.26345481296222 -19.471258451751797, 64.6165567896239 -19.45993515863156 M63.3671875 -19.5 C63.727726287493546 -19.48843822283126, 64.08826507498709 -19.47687644566252, 64.6165567896239 -19.45993515863156 M64.6165567896239 -19.45993515863156 C65.01371816893864 -19.421621478025507, 65.41087954825339 -19.383307797419455, 65.86079215284786 -19.3399052695533 M64.6165567896239 -19.45993515863156 C64.93856449661389 -19.428871462409163, 65.26057220360389 -19.397807766186766, 65.86079215284786 -19.3399052695533 M65.86079215284786 -19.3399052695533 C66.24776118678892 -19.277343117135388, 66.63473022072998 -19.214780964717477, 67.09478075967675 -19.140403561325776 M65.86079215284786 -19.3399052695533 C66.20216440604212 -19.284714851038213, 66.54353665923637 -19.22952443252313, 67.09478075967675 -19.140403561325776 M67.09478075967675 -19.140403561325776 C67.57905359502409 -19.02987144683333, 68.06332643037143 -18.919339332340883, 68.31345188623538 -18.862249829261074 M67.09478075967675 -19.140403561325776 C67.35481602456842 -19.081052209002937, 67.61485128946009 -19.0217008566801, 68.31345188623538 -18.862249829261074 M68.31345188623538 -18.862249829261074 C68.59230564268513 -18.779487498080027, 68.8711593991349 -18.696725166898975, 69.5117977514606 -18.50658706670804 M68.31345188623538 -18.862249829261074 C68.64499047898467 -18.76385091521467, 68.97652907173396 -18.665452001168273, 69.5117977514606 -18.50658706670804 M69.5117977514606 -18.50658706670804 C69.84747260829982 -18.383055616446846, 70.18314746513904 -18.259524166185653, 70.6848940951478 -18.074876768247425 M69.5117977514606 -18.50658706670804 C69.78860585737347 -18.404719124946023, 70.06541396328633 -18.302851183184007, 70.6848940951478 -18.074876768247425 M70.6848940951478 -18.074876768247425 C70.94917838015478 -17.957885954989603, 71.21346266516177 -17.840895141731778, 71.82792041279238 -17.568892924097174 M70.6848940951478 -18.074876768247425 C71.09306586296879 -17.894191234618365, 71.50123763078979 -17.713505700989305, 71.82792041279238 -17.568892924097174 M71.82792041279238 -17.568892924097174 C72.14230315179888 -17.40487965052923, 72.4566858908054 -17.240866376961293, 72.93617976407678 -16.990714730406097 M71.82792041279238 -17.568892924097174 C72.10128887757794 -17.426276771119408, 72.37465734236349 -17.283660618141642, 72.93617976407678 -16.990714730406097 M72.93617976407678 -16.990714730406097 C73.16887326417604 -16.849654563187137, 73.40156676427529 -16.708594395968177, 74.0051180736057 -16.342718045390892 M72.93617976407678 -16.990714730406097 C73.28607782744682 -16.778604468161927, 73.63597589081685 -16.566494205917753, 74.0051180736057 -16.342718045390892 M74.0051180736057 -16.342718045390892 C74.41392747720393 -16.057550302514628, 74.82273688080214 -15.772382559638363, 75.03034284457871 -15.627565626425154 M74.0051180736057 -16.342718045390892 C74.22742035925287 -16.187649594234266, 74.44972264490005 -16.03258114307764, 75.03034284457871 -15.627565626425154 M75.03034284457871 -15.627565626425154 C75.40306994059497 -15.330325686036764, 75.77579703661124 -15.033085745648373, 76.00764120850187 -14.848196188198123 M75.03034284457871 -15.627565626425154 C75.33657613152998 -15.383352729291529, 75.64280941848125 -15.139139832157905, 76.00764120850187 -14.848196188198123 M76.00764120850187 -14.848196188198123 C76.2471616327345 -14.630670076273196, 76.48668205696714 -14.413143964348269, 76.93299723676799 -14.007812326905688 M76.00764120850187 -14.848196188198123 C76.3044162254793 -14.578672970015877, 76.60119124245674 -14.30914975183363, 76.93299723676799 -14.007812326905688 M76.93299723676799 -14.007812326905688 C77.2565668556686 -13.673700129831044, 77.5801364745692 -13.3395879327564, 77.80260844296865 -13.10986736009568 M76.93299723676799 -14.007812326905688 C77.27562565432137 -13.654020355465581, 77.61825407187476 -13.300228384025475, 77.80260844296865 -13.10986736009568 M77.80260844296865 -13.10986736009568 C78.02604200940557 -12.847409579228783, 78.24947557584248 -12.584951798361883, 78.61290140812658 -12.158051136245305 M77.80260844296865 -13.10986736009568 C78.02839950322928 -12.844640332838248, 78.25419056348991 -12.579413305580816, 78.61290140812658 -12.158051136245305 M78.61290140812658 -12.158051136245305 C78.85113930223346 -11.838834062060725, 79.08937719634035 -11.519616987876145, 79.36054646464063 -11.156274872382312 M78.61290140812658 -12.158051136245305 C78.83682014127001 -11.85802043324935, 79.06073887441345 -11.557989730253396, 79.36054646464063 -11.156274872382312 M79.36054646464063 -11.156274872382312 C79.59282018691746 -10.799440060737457, 79.8250939091943 -10.442605249092601, 80.04247137860425 -10.108655082055241 M79.36054646464063 -11.156274872382312 C79.50394431855524 -10.93597726105412, 79.64734217246983 -10.715679649725926, 80.04247137860425 -10.108655082055241 M80.04247137860425 -10.108655082055241 C80.2158585532593 -9.800788596099922, 80.38924572791434 -9.492922110144605, 80.6558739742735 -9.019496659696287 M80.04247137860425 -10.108655082055241 C80.18371987998835 -9.85785406488606, 80.32496838137243 -9.607053047716878, 80.6558739742735 -9.019496659696287 M80.6558739742735 -9.019496659696287 C80.78610292114575 -8.749073465062988, 80.91633186801799 -8.47865027042969, 81.19823364880834 -7.893275190886684 M80.6558739742735 -9.019496659696287 C80.78921701176917 -8.742606989252597, 80.92256004926483 -8.465717318808908, 81.19823364880834 -7.893275190886684 M81.19823364880834 -7.893275190886684 C81.31110668679915 -7.614476604797667, 81.42397972478994 -7.3356780187086486, 81.66732172997033 -6.734618561215508 M81.19823364880834 -7.893275190886684 C81.32434600567898 -7.581775231199674, 81.45045836254961 -7.270275271512665, 81.66732172997033 -6.734618561215508 M81.66732172997033 -6.734618561215508 C81.75208125058046 -6.479336389733449, 81.83684077119058 -6.22405421825139, 82.06121063421489 -5.548287939305138 M81.66732172997033 -6.734618561215508 C81.77042083398293 -6.424100486540994, 81.87351993799554 -6.1135824118664805, 82.06121063421489 -5.548287939305138 M82.06121063421489 -5.548287939305138 C82.18703204019872 -5.068476386946472, 82.31285344618256 -4.5886648345878065, 82.37828178754556 -4.339158212148133 M82.06121063421489 -5.548287939305138 C82.16932634668146 -5.135995870023882, 82.27744205914804 -4.723703800742625, 82.37828178754556 -4.339158212148133 M82.37828178754556 -4.339158212148133 C82.45783812362477 -3.930653240618993, 82.53739445970398 -3.522148269089853, 82.61723227658177 -3.1121979531509023 M82.37828178754556 -4.339158212148133 C82.44442312519163 -3.9995364223121816, 82.51056446283772 -3.6599146324762297, 82.61723227658177 -3.1121979531509023 M82.61723227658177 -3.1121979531509023 C82.65605844568691 -2.8110698526658076, 82.69488461479203 -2.509941752180713, 82.77708020250937 -1.872449005199798 M82.61723227658177 -3.1121979531509023 C82.66882328770897 -2.712068258645826, 82.72041429883618 -2.3119385641407497, 82.77708020250937 -1.872449005199798 M82.77708020250937 -1.872449005199798 C82.80330825400607 -1.4639259322365323, 82.82953630550277 -1.0554028592732667, 82.85716871591342 -0.6250057626472757 M82.77708020250937 -1.872449005199798 C82.80340591412924 -1.4624047969881933, 82.82973162574913 -1.0523605887765886, 82.85716871591342 -0.6250057626472757 M82.85716871591342 -0.6250057626472757 C82.85716871591342 -0.3007469516478914, 82.85716871591342 0.023511859351492914, 82.85716871591342 0.625005762647271 M82.85716871591342 -0.6250057626472757 C82.85716871591342 -0.20746380742014903, 82.85716871591342 0.21007814780697764, 82.85716871591342 0.625005762647271 M82.85716871591342 0.625005762647271 C82.83321822472412 0.9980539954090187, 82.80926773353484 1.3711022281707663, 82.77708020250937 1.8724490051997846 M82.85716871591342 0.625005762647271 C82.83171952588164 1.0213974396086567, 82.80627033584986 1.4177891165700425, 82.77708020250937 1.8724490051997846 M82.77708020250937 1.8724490051997846 C82.72873449306918 2.247408780677659, 82.680388783629 2.622368556155534, 82.61723227658177 3.1121979531508885 M82.77708020250937 1.8724490051997846 C82.71910437674875 2.322098061177473, 82.66112855098811 2.7717471171551615, 82.61723227658177 3.1121979531508885 M82.61723227658177 3.1121979531508885 C82.551659965356 3.4488979125823995, 82.48608765413022 3.7855978720139105, 82.37828178754556 4.339158212148129 M82.61723227658177 3.1121979531508885 C82.52358432651968 3.5930603842184543, 82.4299363764576 4.07392281528602, 82.37828178754556 4.339158212148129 M82.37828178754556 4.339158212148129 C82.31478106170329 4.581314001173392, 82.25128033586101 4.823469790198656, 82.06121063421489 5.548287939305125 M82.37828178754556 4.339158212148129 C82.30802389006088 4.607082025222586, 82.23776599257621 4.875005838297043, 82.06121063421489 5.548287939305125 M82.06121063421489 5.548287939305125 C81.92408542983313 5.96128720696865, 81.78696022545138 6.374286474632174, 81.66732172997033 6.734618561215495 M82.06121063421489 5.548287939305125 C81.919366070512 5.975501165316109, 81.77752150680911 6.402714391327091, 81.66732172997033 6.734618561215495 M81.66732172997033 6.734618561215495 C81.51254513916506 7.116919732906313, 81.3577685483598 7.499220904597131, 81.19823364880834 7.893275190886679 M81.66732172997033 6.734618561215495 C81.54780897177724 7.029817384574392, 81.42829621358416 7.32501620793329, 81.19823364880834 7.893275190886679 M81.19823364880834 7.893275190886679 C80.99963675992034 8.30566587995532, 80.80103987103233 8.718056569023963, 80.6558739742735 9.019496659696284 M81.19823364880834 7.893275190886679 C81.01556872506697 8.272582813438897, 80.8329038013256 8.651890435991113, 80.6558739742735 9.019496659696284 M80.6558739742735 9.019496659696284 C80.41513104385618 9.446960110517391, 80.17438811343885 9.8744235613385, 80.04247137860425 10.108655082055236 M80.6558739742735 9.019496659696284 C80.41696538916877 9.443703044667295, 80.17805680406401 9.867909429638308, 80.04247137860425 10.108655082055236 M80.04247137860425 10.108655082055236 C79.90560262050404 10.31892224890482, 79.76873386240382 10.529189415754402, 79.36054646464065 11.156274872382301 M80.04247137860425 10.108655082055236 C79.77095308746702 10.525780090111954, 79.4994347963298 10.942905098168675, 79.36054646464065 11.156274872382301 M79.36054646464065 11.156274872382301 C79.16129651838251 11.423251648324673, 78.96204657212438 11.690228424267044, 78.61290140812659 12.158051136245302 M79.36054646464065 11.156274872382301 C79.19970680541033 11.371785362956535, 79.03886714618001 11.587295853530769, 78.61290140812659 12.158051136245302 M78.61290140812659 12.158051136245302 C78.35070343693478 12.466043792694414, 78.08850546574297 12.774036449143527, 77.80260844296866 13.10986736009567 M78.61290140812659 12.158051136245302 C78.34534435979408 12.472338869643998, 78.07778731146158 12.786626603042695, 77.80260844296866 13.10986736009567 M77.80260844296866 13.10986736009567 C77.4825615420851 13.440342061597187, 77.16251464120153 13.770816763098704, 76.93299723676799 14.007812326905684 M77.80260844296866 13.10986736009567 C77.61062541586224 13.30810559768271, 77.41864238875581 13.50634383526975, 76.93299723676799 14.007812326905684 M76.93299723676799 14.007812326905684 C76.74557348057343 14.178025623320739, 76.55814972437886 14.348238919735794, 76.0076412085019 14.848196188198111 M76.93299723676799 14.007812326905684 C76.62963997914649 14.283313361884325, 76.326282721525 14.558814396862966, 76.0076412085019 14.848196188198111 M76.0076412085019 14.848196188198111 C75.77678150915258 15.032300654994572, 75.54592180980329 15.216405121791034, 75.03034284457871 15.627565626425152 M76.0076412085019 14.848196188198111 C75.69091893300784 15.1007737745709, 75.37419665751378 15.353351360943687, 75.03034284457871 15.627565626425152 M75.03034284457871 15.627565626425152 C74.79575697702428 15.79120257257259, 74.56117110946984 15.954839518720028, 74.0051180736057 16.34271804539089 M75.03034284457871 15.627565626425152 C74.64878650159262 15.89372281398437, 74.26723015860654 16.159880001543588, 74.0051180736057 16.34271804539089 M74.0051180736057 16.34271804539089 C73.74849839803524 16.498282400786312, 73.49187872246476 16.653846756181736, 72.93617976407678 16.990714730406093 M74.0051180736057 16.34271804539089 C73.63684032564126 16.565970180447213, 73.2685625776768 16.789222315503533, 72.93617976407678 16.990714730406093 M72.93617976407678 16.990714730406093 C72.52882045232057 17.203233822423215, 72.12146114056436 17.415752914440336, 71.82792041279238 17.56889292409717 M72.93617976407678 16.990714730406093 C72.54024985093821 17.19727111248527, 72.14431993779965 17.40382749456445, 71.82792041279238 17.56889292409717 M71.82792041279238 17.56889292409717 C71.5547047440891 17.689837395977264, 71.2814890753858 17.810781867857358, 70.6848940951478 18.07487676824742 M71.82792041279238 17.56889292409717 C71.57228692417657 17.68205428640938, 71.31665343556075 17.795215648721587, 70.6848940951478 18.07487676824742 M70.6848940951478 18.07487676824742 C70.37208872722793 18.189992035183057, 70.05928335930805 18.305107302118692, 69.51179775146062 18.506587066708033 M70.6848940951478 18.07487676824742 C70.37667902029814 18.188302764901014, 70.0684639454485 18.301728761554603, 69.51179775146062 18.506587066708033 M69.51179775146062 18.506587066708033 C69.10188232751602 18.628247812844823, 68.69196690357141 18.749908558981613, 68.31345188623541 18.86224982926107 M69.51179775146062 18.506587066708033 C69.04285357958366 18.645767235382927, 68.5739094077067 18.78494740405782, 68.31345188623541 18.86224982926107 M68.31345188623541 18.86224982926107 C68.05925895224071 18.920267707681447, 67.80506601824601 18.978285586101823, 67.09478075967677 19.140403561325773 M68.31345188623541 18.86224982926107 C67.84959811419816 18.96812142579983, 67.38574434216092 19.073993022338588, 67.09478075967677 19.140403561325773 M67.09478075967677 19.140403561325773 C66.61366225645685 19.218187069796652, 66.13254375323692 19.295970578267532, 65.86079215284788 19.3399052695533 M67.09478075967677 19.140403561325773 C66.719860066561 19.201017831435333, 66.34493937344521 19.26163210154489, 65.86079215284788 19.3399052695533 M65.86079215284788 19.3399052695533 C65.50656674350414 19.374076968774308, 65.1523413341604 19.408248667995313, 64.6165567896239 19.45993515863156 M65.86079215284788 19.3399052695533 C65.55121947251276 19.36976937370961, 65.24164679217763 19.39963347786592, 64.6165567896239 19.45993515863156 M64.6165567896239 19.45993515863156 C64.27125097005747 19.47100844416805, 63.92594515049103 19.482081729704543, 63.36718750000001 19.5 M64.6165567896239 19.45993515863156 C64.29609170247744 19.470211850228893, 63.97562661533099 19.48048854182623, 63.36718750000001 19.5 M63.36718750000001 19.5 C63.36718750000001 19.5, 63.36718750000001 19.5, 63.3671875 19.5 M63.36718750000001 19.5 C63.36718750000001 19.5, 63.3671875 19.5, 63.3671875 19.5 M63.3671875 19.5 C26.501714241172436 19.5, -10.363759017655127 19.5, -63.36718749999999 19.5 M63.3671875 19.5 C37.13189240846726 19.5, 10.896597316934518 19.5, -63.36718749999999 19.5 M-63.36718749999999 19.5 C-63.73102927936441 19.488332302310845, -64.09487105872881 19.47666460462169, -64.6165567896239 19.45993515863156 M-63.36718749999999 19.5 C-63.811269475467675 19.48575915539988, -64.25535145093536 19.47151831079976, -64.6165567896239 19.45993515863156 M-64.6165567896239 19.45993515863156 C-64.95069472703457 19.427701273669214, -65.28483266444525 19.39546738870687, -65.86079215284786 19.3399052695533 M-64.6165567896239 19.45993515863156 C-64.929113843984 19.429783155502296, -65.2416708983441 19.39963115237303, -65.86079215284786 19.3399052695533 M-65.86079215284786 19.3399052695533 C-66.28910435033602 19.270659075074114, -66.71741654782417 19.20141288059493, -67.09478075967675 19.140403561325773 M-65.86079215284786 19.3399052695533 C-66.23657384852949 19.279151799226067, -66.61235554421111 19.218398328898836, -67.09478075967675 19.140403561325773 M-67.09478075967675 19.140403561325773 C-67.57222180840488 19.03143075754759, -68.049662857133 18.922457953769406, -68.31345188623538 18.862249829261074 M-67.09478075967675 19.140403561325773 C-67.52466974763233 19.04228420511273, -67.95455873558791 18.944164848899682, -68.31345188623538 18.862249829261074 M-68.31345188623538 18.862249829261074 C-68.62197559406661 18.77068161225076, -68.93049930189783 18.679113395240442, -69.51179775146059 18.506587066708043 M-68.31345188623538 18.862249829261074 C-68.7667039466159 18.72772699690875, -69.21995600699644 18.593204164556425, -69.51179775146059 18.506587066708043 M-69.51179775146059 18.506587066708043 C-69.93790746986795 18.349774751419076, -70.36401718827531 18.19296243613011, -70.6848940951478 18.074876768247425 M-69.51179775146059 18.506587066708043 C-69.76372145432687 18.41387681529607, -70.01564515719315 18.3211665638841, -70.6848940951478 18.074876768247425 M-70.6848940951478 18.074876768247425 C-70.99902474597287 17.935820447481834, -71.31315539679797 17.796764126716248, -71.82792041279238 17.568892924097174 M-70.6848940951478 18.074876768247425 C-70.96583755830567 17.950511430999164, -71.24678102146355 17.826146093750904, -71.82792041279238 17.568892924097174 M-71.82792041279238 17.568892924097174 C-72.0749888152928 17.43999749676757, -72.32205721779322 17.31110206943797, -72.93617976407678 16.990714730406097 M-71.82792041279238 17.568892924097174 C-72.21891727218264 17.36491011299872, -72.60991413157288 17.160927301900273, -72.93617976407678 16.990714730406097 M-72.93617976407678 16.990714730406097 C-73.16884556915043 16.84967135207441, -73.40151137422409 16.708627973742722, -74.00511807360569 16.3427180453909 M-72.93617976407678 16.990714730406097 C-73.3143585813526 16.761460508948087, -73.69253739862839 16.53220628749008, -74.00511807360569 16.3427180453909 M-74.00511807360569 16.3427180453909 C-74.23188398997748 16.184535958668242, -74.45864990634928 16.026353871945584, -75.03034284457871 15.627565626425156 M-74.00511807360569 16.3427180453909 C-74.27999524325038 16.150975631087654, -74.55487241289508 15.959233216784407, -75.03034284457871 15.627565626425156 M-75.03034284457871 15.627565626425156 C-75.36515141892025 15.360564698018123, -75.69995999326179 15.093563769611091, -76.00764120850187 14.848196188198125 M-75.03034284457871 15.627565626425156 C-75.36294106996104 15.362327392493235, -75.69553929534337 15.097089158561314, -76.00764120850187 14.848196188198125 M-76.00764120850187 14.848196188198125 C-76.30692171476086 14.576397550941977, -76.60620222101986 14.304598913685828, -76.93299723676797 14.007812326905697 M-76.00764120850187 14.848196188198125 C-76.32014233872339 14.56439093005776, -76.63264346894489 14.280585671917397, -76.93299723676797 14.007812326905697 M-76.93299723676797 14.007812326905697 C-77.24588448713686 13.68473055237882, -77.55877173750575 13.361648777851942, -77.80260844296865 13.109867360095677 M-76.93299723676797 14.007812326905697 C-77.23257934709957 13.698469201839641, -77.53216145743116 13.389126076773586, -77.80260844296865 13.109867360095677 M-77.80260844296865 13.109867360095677 C-78.00971645756013 12.866586501376636, -78.21682447215163 12.623305642657593, -78.61290140812658 12.158051136245307 M-77.80260844296865 13.109867360095677 C-78.06364285762577 12.803241483360456, -78.32467727228288 12.496615606625232, -78.61290140812658 12.158051136245307 M-78.61290140812658 12.158051136245307 C-78.80682614835655 11.898209651244423, -79.00075088858652 11.63836816624354, -79.36054646464063 11.156274872382316 M-78.61290140812658 12.158051136245307 C-78.86108866788916 11.825502818487946, -79.10927592765175 11.492954500730585, -79.36054646464063 11.156274872382316 M-79.36054646464063 11.156274872382316 C-79.53039341909584 10.895344340045794, -79.70024037355107 10.63441380770927, -80.04247137860425 10.108655082055249 M-79.36054646464063 11.156274872382316 C-79.5951100552337 10.795922208087982, -79.82967364582677 10.435569543793646, -80.04247137860425 10.108655082055249 M-80.04247137860425 10.108655082055249 C-80.25217575842095 9.736303720819613, -80.46188013823765 9.36395235958398, -80.6558739742735 9.019496659696289 M-80.04247137860425 10.108655082055249 C-80.21508076652711 9.802169635202363, -80.38769015444997 9.495684188349477, -80.6558739742735 9.019496659696289 M-80.6558739742735 9.019496659696289 C-80.77510419317775 8.771912559023608, -80.894334412082 8.524328458350928, -81.19823364880834 7.893275190886686 M-80.6558739742735 9.019496659696289 C-80.82701438141403 8.664119942450885, -80.99815478855456 8.30874322520548, -81.19823364880834 7.893275190886686 M-81.19823364880834 7.893275190886686 C-81.32527159808392 7.579489000064342, -81.4523095473595 7.265702809241999, -81.66732172997033 6.73461856121551 M-81.19823364880834 7.893275190886686 C-81.34546333273528 7.529615025094872, -81.4926930166622 7.165954859303057, -81.66732172997033 6.73461856121551 M-81.66732172997033 6.73461856121551 C-81.76817220936152 6.430872985631012, -81.86902268875271 6.127127410046515, -82.06121063421489 5.5482879393051325 M-81.66732172997033 6.73461856121551 C-81.79078163732714 6.3627769909216845, -81.91424154468396 5.990935420627858, -82.06121063421489 5.5482879393051325 M-82.06121063421489 5.5482879393051325 C-82.18704977926522 5.068408740197713, -82.31288892431557 4.588529541090294, -82.37828178754556 4.339158212148136 M-82.06121063421489 5.5482879393051325 C-82.12605567932815 5.301005678267934, -82.1909007244414 5.053723417230737, -82.37828178754556 4.339158212148136 M-82.37828178754556 4.339158212148136 C-82.45990012231397 3.9200653131534873, -82.54151845708239 3.5009724141588388, -82.61723227658177 3.112197953150904 M-82.37828178754556 4.339158212148136 C-82.43185183929455 4.064087318451473, -82.48542189104356 3.7890164247548106, -82.61723227658177 3.112197953150904 M-82.61723227658177 3.112197953150904 C-82.67815086241578 2.6397254311578466, -82.73906944824978 2.1672529091647887, -82.77708020250937 1.872449005199809 M-82.61723227658177 3.112197953150904 C-82.67892454514508 2.6337249006903063, -82.74061681370839 2.1552518482297085, -82.77708020250937 1.872449005199809 M-82.77708020250937 1.872449005199809 C-82.79635238062542 1.5722692748201093, -82.81562455874148 1.2720895444404094, -82.85716871591342 0.6250057626472781 M-82.77708020250937 1.872449005199809 C-82.79939794221828 1.524832194678236, -82.82171568192719 1.1772153841566628, -82.85716871591342 0.6250057626472781 M-82.85716871591342 0.6250057626472781 C-82.85716871591342 0.32987303844205834, -82.85716871591342 0.03474031423683854, -82.85716871591342 -0.6250057626472687 M-82.85716871591342 0.6250057626472781 C-82.85716871591342 0.25229771299179765, -82.85716871591342 -0.12041033666368284, -82.85716871591342 -0.6250057626472687 M-82.85716871591342 -0.6250057626472687 C-82.83349898466015 -0.9936809327800327, -82.80982925340689 -1.3623561029127966, -82.77708020250937 -1.8724490051997822 M-82.85716871591342 -0.6250057626472687 C-82.83831066039993 -0.918735199218222, -82.81945260488645 -1.2124646357891753, -82.77708020250937 -1.8724490051997822 M-82.77708020250937 -1.8724490051997822 C-82.73628439792999 -2.188853209474544, -82.69548859335063 -2.5052574137493058, -82.61723227658177 -3.112197953150895 M-82.77708020250937 -1.8724490051997822 C-82.73867037774656 -2.170348021182358, -82.70026055298374 -2.468247037164933, -82.61723227658177 -3.112197953150895 M-82.61723227658177 -3.112197953150895 C-82.55001647557285 -3.4573368852671607, -82.48280067456392 -3.802475817383426, -82.37828178754556 -4.339158212148126 M-82.61723227658177 -3.112197953150895 C-82.54902656036725 -3.462419890629224, -82.48082084415273 -3.812641828107553, -82.37828178754556 -4.339158212148126 M-82.37828178754556 -4.339158212148126 C-82.29787804435168 -4.645772532149157, -82.21747430115778 -4.9523868521501875, -82.06121063421489 -5.548287939305123 M-82.37828178754556 -4.339158212148126 C-82.25766848111718 -4.79910902369722, -82.1370551746888 -5.259059835246313, -82.06121063421489 -5.548287939305123 M-82.06121063421489 -5.548287939305123 C-81.98044951354218 -5.7915275672341515, -81.89968839286949 -6.03476719516318, -81.66732172997033 -6.734618561215485 M-82.06121063421489 -5.548287939305123 C-81.96209238968079 -5.846816299494197, -81.8629741451467 -6.145344659683272, -81.66732172997033 -6.734618561215485 M-81.66732172997033 -6.734618561215485 C-81.5606414670061 -6.998120873259687, -81.45396120404189 -7.261623185303889, -81.19823364880834 -7.893275190886676 M-81.66732172997033 -6.734618561215485 C-81.50774699299394 -7.128771246714813, -81.34817225601756 -7.522923932214143, -81.19823364880834 -7.893275190886676 M-81.19823364880834 -7.893275190886676 C-81.07151659758483 -8.156405859062838, -80.94479954636134 -8.419536527239, -80.6558739742735 -9.019496659696282 M-81.19823364880834 -7.893275190886676 C-81.02005381866776 -8.263269420611202, -80.8418739885272 -8.63326365033573, -80.6558739742735 -9.019496659696282 M-80.6558739742735 -9.019496659696282 C-80.498360242599 -9.299178240279257, -80.3408465109245 -9.578859820862231, -80.04247137860425 -10.108655082055243 M-80.6558739742735 -9.019496659696282 C-80.46282723815791 -9.362270687771257, -80.26978050204234 -9.705044715846231, -80.04247137860425 -10.108655082055243 M-80.04247137860425 -10.108655082055243 C-79.88074479155632 -10.357110549430192, -79.71901820450842 -10.605566016805142, -79.36054646464063 -11.156274872382308 M-80.04247137860425 -10.108655082055243 C-79.81685006140961 -10.455270013072973, -79.59122874421496 -10.801884944090702, -79.36054646464063 -11.156274872382308 M-79.36054646464063 -11.156274872382308 C-79.08438537762447 -11.526305570191377, -78.80822429060831 -11.896336268000447, -78.61290140812659 -12.158051136245302 M-79.36054646464063 -11.156274872382308 C-79.1101571219771 -11.491773780613068, -78.85976777931357 -11.827272688843827, -78.61290140812659 -12.158051136245302 M-78.61290140812659 -12.158051136245302 C-78.44324298475813 -12.35734157417166, -78.27358456138968 -12.556632012098015, -77.80260844296866 -13.10986736009567 M-78.61290140812659 -12.158051136245302 C-78.348752792991 -12.468335130065563, -78.08460417785541 -12.778619123885825, -77.80260844296866 -13.10986736009567 M-77.80260844296866 -13.10986736009567 C-77.59120992938387 -13.328153681512722, -77.37981141579905 -13.546440002929774, -76.93299723676799 -14.007812326905677 M-77.80260844296866 -13.10986736009567 C-77.53908942558171 -13.381972380861383, -77.27557040819477 -13.654077401627095, -76.93299723676799 -14.007812326905677 M-76.93299723676799 -14.007812326905677 C-76.58919048722949 -14.320048520208433, -76.245383737691 -14.632284713511188, -76.0076412085019 -14.848196188198107 M-76.93299723676799 -14.007812326905677 C-76.57946028036476 -14.328885236635816, -76.22592332396152 -14.649958146365956, -76.0076412085019 -14.848196188198107 M-76.0076412085019 -14.848196188198107 C-75.65718028441145 -15.12767944900337, -75.306719360321 -15.407162709808635, -75.03034284457871 -15.627565626425149 M-76.0076412085019 -14.848196188198107 C-75.76193798594085 -15.044137969753193, -75.5162347633798 -15.240079751308278, -75.03034284457871 -15.627565626425149 M-75.03034284457871 -15.627565626425149 C-74.78230206770004 -15.800588134863537, -74.53426129082138 -15.973610643301924, -74.00511807360571 -16.342718045390885 M-75.03034284457871 -15.627565626425149 C-74.79035612267612 -15.794969974766653, -74.5503694007735 -15.96237432310816, -74.00511807360571 -16.342718045390885 M-74.00511807360571 -16.342718045390885 C-73.59437259590278 -16.59171436778276, -73.18362711819984 -16.84071069017463, -72.93617976407678 -16.99071473040609 M-74.00511807360571 -16.342718045390885 C-73.70498648775707 -16.524659576501303, -73.40485490190842 -16.706601107611725, -72.93617976407678 -16.99071473040609 M-72.93617976407678 -16.99071473040609 C-72.60824219132836 -17.1617995520549, -72.28030461857995 -17.332884373703717, -71.8279204127924 -17.56889292409717 M-72.93617976407678 -16.99071473040609 C-72.55769614012111 -17.188169394593437, -72.17921251616544 -17.385624058780788, -71.8279204127924 -17.56889292409717 M-71.8279204127924 -17.56889292409717 C-71.42999840378067 -17.745041193549657, -71.03207639476895 -17.921189463002143, -70.68489409514781 -18.07487676824742 M-71.8279204127924 -17.56889292409717 C-71.5014111421754 -17.713428892645926, -71.17490187155842 -17.857964861194684, -70.68489409514781 -18.07487676824742 M-70.68489409514781 -18.07487676824742 C-70.27309286934977 -18.226423425989903, -69.86129164355172 -18.377970083732386, -69.51179775146062 -18.506587066708033 M-70.68489409514781 -18.07487676824742 C-70.40286342365879 -18.17866666241833, -70.12083275216976 -18.28245655658924, -69.51179775146062 -18.506587066708033 M-69.51179775146062 -18.506587066708033 C-69.2653808003428 -18.57972232433083, -69.01896384922497 -18.65285758195363, -68.31345188623541 -18.862249829261067 M-69.51179775146062 -18.506587066708033 C-69.0588301876699 -18.641025461965857, -68.60586262387919 -18.775463857223677, -68.31345188623541 -18.862249829261067 M-68.31345188623541 -18.862249829261067 C-68.05922506977157 -18.920275441133924, -67.80499825330773 -18.978301053006778, -67.09478075967677 -19.140403561325773 M-68.31345188623541 -18.862249829261067 C-68.00519782955743 -18.93260680615211, -67.69694377287945 -19.00296378304315, -67.09478075967677 -19.140403561325773 M-67.09478075967677 -19.140403561325773 C-66.75487905349941 -19.19535623320343, -66.41497734732205 -19.250308905081084, -65.86079215284788 -19.3399052695533 M-67.09478075967677 -19.140403561325773 C-66.80143138677111 -19.187830012978797, -66.50808201386545 -19.23525646463182, -65.86079215284788 -19.3399052695533 M-65.86079215284788 -19.3399052695533 C-65.5880587792816 -19.366215530091367, -65.31532540571533 -19.392525790629435, -64.6165567896239 -19.45993515863156 M-65.86079215284788 -19.3399052695533 C-65.4641881653101 -19.378165179244988, -65.06758417777233 -19.416425088936677, -64.6165567896239 -19.45993515863156 M-64.6165567896239 -19.45993515863156 C-64.15857444089372 -19.47462176114677, -63.700592092163525 -19.489308363661987, -63.36718750000001 -19.5 M-64.6165567896239 -19.45993515863156 C-64.11978415475224 -19.475865690122617, -63.62301151988058 -19.491796221613676, -63.36718750000001 -19.5 M-63.36718750000001 -19.5 C-63.36718750000001 -19.5, -63.3671875 -19.5, -63.3671875 -19.5 M-63.36718750000001 -19.5 C-63.36718750000001 -19.5, -63.3671875 -19.5, -63.3671875 -19.5" stroke="#e65100" stroke-width="3" fill="none" stroke-dasharray="0 0" style="fill:#ffe0b2 !important;stroke:#e65100 !important;stroke-width:3px !important"/></g><g class="label" style="color:#000 !important" transform="translate(-70.4921875, -12)"><rect/><foreignObject width="140.984375" height="24"><div style="color: rgb(0, 0, 0) !important; display: table-cell; white-space: nowrap; line-height: 1.5; max-width: 200px; text-align: center;" xmlns="http://www.w3.org/1999/xhtml"><span style="color:#000 !important" class="nodeLabel"><p>Admin Notifications</p></span></div></foreignObject></g></g><g class="node default neighbor" id="my-svg-flowchart-SVC-1" data-look="classic" transform="translate(621.453125, 69)"><rect class="basic label-container" style="fill:#e3f2fd !important;stroke:#1565c0 !important" x="-118.6484375" y="-39" width="237.296875" height="78"/><g class="label" style="color:#000 !important" transform="translate(-88.6484375, -24)"><rect/><foreignObject width="177.296875" height="48"><div style="color: rgb(0, 0, 0) !important; display: table-cell; white-space: nowrap; line-height: 1.5; max-width: 200px; text-align: center;" xmlns="http://www.w3.org/1999/xhtml"><span style="color:#000 !important" class="nodeLabel"><p>OrderNotificationService<br />(24.11 + SBE-1179)</p></span></div></foreignObject></g></g><g class="node default neighbor" id="my-svg-flowchart-TEMPLATES-2" data-look="classic" transform="translate(1065.40625, 69)"><rect class="basic label-container" style="fill:#e3f2fd !important;stroke:#1565c0 !important" x="-130" y="-51" width="260" height="102"/><g class="label" style="color:#000 !important" transform="translate(-100, -36)"><rect/><foreignObject width="200" height="72"><div style="color: rgb(0, 0, 0) !important; display: table; white-space: break-spaces; line-height: 1.5; max-width: 200px; text-align: center; width: 200px;" xmlns="http://www.w3.org/1999/xhtml"><span style="color:#000 !important" class="nodeLabel"><p>order_canceled / order_refunded /<br />gift_certificate_restored</p></span></div></foreignObject></g></g><g class="node default neighbor" id="my-svg-flowchart-CRON-3" data-look="classic" transform="translate(621.453125, 197)"><rect class="basic label-container" style="fill:#e3f2fd !important;stroke:#1565c0 !important" x="-130" y="-39" width="260" height="78"/><g class="label" style="color:#000 !important" transform="translate(-100, -24)"><rect/><foreignObject width="200" height="48"><div style="color: rgb(0, 0, 0) !important; display: table; white-space: break-spaces; line-height: 1.5; max-width: 200px; text-align: center; width: 200px;" xmlns="http://www.w3.org/1999/xhtml"><span style="color:#000 !important" class="nodeLabel"><p>24.15 payment-reminder cron</p></span></div></foreignObject></g></g><g class="node default neighbor" id="my-svg-flowchart-TRIGGER-4" data-look="classic" transform="translate(621.453125, 349)"><rect class="basic label-container" style="fill:#e3f2fd !important;stroke:#1565c0 !important" x="-130" y="-63" width="260" height="126"/><g class="label" style="color:#000 !important" transform="translate(-100, -48)"><rect/><foreignObject width="200" height="96"><div style="color: rgb(0, 0, 0) !important; display: table; white-space: break-spaces; line-height: 1.5; max-width: 200px; text-align: center; width: 200px;" xmlns="http://www.w3.org/1999/xhtml"><span style="color:#000 !important" class="nodeLabel"><p>POST worker /manual-trigger/<br />payment-reminders/run (dev)</p></span></div></foreignObject></g></g><g class="node default neighbor" id="my-svg-flowchart-WORKER-5" data-look="classic" transform="translate(1065.40625, 197)"><rect class="basic label-container" style="fill:#e3f2fd !important;stroke:#1565c0 !important" x="-127.25" y="-27" width="254.5" height="54"/><g class="label" style="color:#000 !important" transform="translate(-97.25, -12)"><rect/><foreignObject width="194.5" height="24"><div style="color: rgb(0, 0, 0) !important; display: table-cell; white-space: nowrap; line-height: 1.5; max-width: 200px; text-align: center;" xmlns="http://www.w3.org/1999/xhtml"><span style="color:#000 !important" class="nodeLabel"><p>background-worker-service</p></span></div></foreignObject></g></g><g class="node default neighbor" id="my-svg-flowchart-CANCEL-6" data-look="classic" transform="translate(138, 47)"><rect class="basic label-container" style="fill:#e3f2fd !important;stroke:#1565c0 !important" x="-130" y="-39" width="260" height="78"/><g class="label" style="color:#000 !important" transform="translate(-100, -24)"><rect/><foreignObject width="200" height="48"><div style="color: rgb(0, 0, 0) !important; display: table; white-space: break-spaces; line-height: 1.5; max-width: 200px; text-align: center; width: 200px;" xmlns="http://www.w3.org/1999/xhtml"><span style="color:#000 !important" class="nodeLabel"><p>Admin Cancellation / Refunds</p></span></div></foreignObject></g></g></g></g></g><defs><filter id="my-svg-drop-shadow" height="130%" width="130%"><feDropShadow dx="4" dy="4" stdDeviation="0" flood-opacity="0.06" flood-color="#000000"/></filter></defs><defs><filter id="my-svg-drop-shadow-small" height="150%" width="150%"><feDropShadow dx="2" dy="2" stdDeviation="0" flood-opacity="0.06" flood-color="#000000"/></filter></defs></svg>