<svg id="my-svg" width="100%" xmlns="http://www.w3.org/2000/svg" xmlns:xlink="http://www.w3.org/1999/xlink" class="flowchart" style="max-width: 1626.87px; background-color: white;" viewBox="0 0 1626.87060546875 350" role="graphics-document document" aria-roledescription="flowchart-v2"><style>#my-svg{font-family:"trebuchet ms",verdana,arial,sans-serif;font-size:16px;fill:#333;}@keyframes edge-animation-frame{from{stroke-dashoffset:0;}}@keyframes dash{to{stroke-dashoffset:0;}}#my-svg .edge-animation-slow{stroke-dasharray:9,5!important;stroke-dashoffset:900;animation:dash 50s linear infinite;stroke-linecap:round;}#my-svg .edge-animation-fast{stroke-dasharray:9,5!important;stroke-dashoffset:900;animation:dash 20s linear infinite;stroke-linecap:round;}#my-svg .error-icon{fill:#552222;}#my-svg .error-text{fill:#552222;stroke:#552222;}#my-svg .edge-thickness-normal{stroke-width:1px;}#my-svg .edge-thickness-thick{stroke-width:3.5px;}#my-svg .edge-pattern-solid{stroke-dasharray:0;}#my-svg .edge-thickness-invisible{stroke-width:0;fill:none;}#my-svg .edge-pattern-dashed{stroke-dasharray:3;}#my-svg .edge-pattern-dotted{stroke-dasharray:2;}#my-svg .marker{fill:#333333;stroke:#333333;}#my-svg .marker.cross{stroke:#333333;}#my-svg svg{font-family:"trebuchet ms",verdana,arial,sans-serif;font-size:16px;}#my-svg p{margin:0;}#my-svg .label{font-family:"trebuchet ms",verdana,arial,sans-serif;color:#333;}#my-svg .cluster-label text{fill:#333;}#my-svg .cluster-label span{color:#333;}#my-svg .cluster-label span p{background-color:transparent;}#my-svg .label text,#my-svg span{fill:#333;color:#333;}#my-svg .node rect,#my-svg .node circle,#my-svg .node ellipse,#my-svg .node polygon,#my-svg .node path{fill:#ECECFF;stroke:#9370DB;stroke-width:1px;}#my-svg .rough-node .label text,#my-svg .node .label text,#my-svg .image-shape .label,#my-svg .icon-shape .label{text-anchor:middle;}#my-svg .node .katex path{fill:#000;stroke:#000;stroke-width:1px;}#my-svg .rough-node .label,#my-svg .node .label,#my-svg .image-shape .label,#my-svg .icon-shape .label{text-align:center;}#my-svg .node.clickable{cursor:pointer;}#my-svg .root .anchor path{fill:#333333!important;stroke-width:0;stroke:#333333;}#my-svg .arrowheadPath{fill:#333333;}#my-svg .edgePath .path{stroke:#333333;stroke-width:1px;}#my-svg .flowchart-link{stroke:#333333;fill:none;}#my-svg .edgeLabel{background-color:rgba(232,232,232, 0.8);text-align:center;}#my-svg .edgeLabel p{background-color:rgba(232,232,232, 0.8);}#my-svg .edgeLabel rect{opacity:0.5;background-color:rgba(232,232,232, 0.8);fill:rgba(232,232,232, 0.8);}#my-svg .labelBkg{background-color:rgba(232, 232, 232, 0.5);}#my-svg .cluster rect{fill:#ffffde;stroke:#aaaa33;stroke-width:1px;}#my-svg .cluster text{fill:#333;}#my-svg .cluster span{color:#333;}#my-svg div.mermaidTooltip{position:absolute;text-align:center;max-width:200px;padding:2px;font-family:"trebuchet ms",verdana,arial,sans-serif;font-size:12px;background:hsl(80, 100%, 96.2745098039%);border:1px solid #aaaa33;border-radius:2px;pointer-events:none;z-index:100;}#my-svg .flowchartTitleText{text-anchor:middle;font-size:18px;fill:#333;}#my-svg rect.text{fill:none;stroke-width:0;}#my-svg .icon-shape,#my-svg .image-shape{background-color:rgba(232,232,232, 0.8);text-align:center;}#my-svg .icon-shape p,#my-svg .image-shape p{background-color:rgba(232,232,232, 0.8);padding:2px;}#my-svg .icon-shape .label rect,#my-svg .image-shape .label rect{opacity:0.5;background-color:rgba(232,232,232, 0.8);fill:rgba(232,232,232, 0.8);}#my-svg .label-icon{display:inline-block;height:1em;overflow:visible;vertical-align:-0.125em;}#my-svg .node .label-icon path{fill:currentColor;stroke:revert;stroke-width:revert;}#my-svg .node .neo-node{stroke:#9370DB;}#my-svg [data-look="neo"].node rect,#my-svg [data-look="neo"].cluster rect,#my-svg [data-look="neo"].node polygon{stroke:#9370DB;filter:drop-shadow(1px 2px 2px rgba(185, 185, 185, 1));}#my-svg [data-look="neo"].swimlane.cluster rect{filter:none;}#my-svg [data-look="neo"].node path{stroke:#9370DB;stroke-width:1px;}#my-svg [data-look="neo"].node .outer-path{filter:drop-shadow(1px 2px 2px rgba(185, 185, 185, 1));}#my-svg [data-look="neo"].node .neo-line path{stroke:#9370DB;filter:none;}#my-svg [data-look="neo"].node circle{stroke:#9370DB;filter:drop-shadow(1px 2px 2px rgba(185, 185, 185, 1));}#my-svg [data-look="neo"].node circle .state-start{fill:#000000;}#my-svg [data-look="neo"].icon-shape .icon{fill:#9370DB;filter:drop-shadow(1px 2px 2px rgba(185, 185, 185, 1));}#my-svg [data-look="neo"].icon-shape .icon-neo path{stroke:#9370DB;filter:drop-shadow(1px 2px 2px rgba(185, 185, 185, 1));}#my-svg :root{--mermaid-font-family:"trebuchet ms",verdana,arial,sans-serif;}#my-svg .ego&gt;*{fill:rgb(255, 224, 178)!important;stroke:rgb(230, 81, 0)!important;stroke-width:3px!important;color:rgb(0, 0, 0)!important;}#my-svg .ego span{fill:rgb(255, 224, 178)!important;stroke:rgb(230, 81, 0)!important;stroke-width:3px!important;color:rgb(0, 0, 0)!important;}#my-svg .ego tspan{fill:rgb(0, 0, 0)!important;}#my-svg .neighbor&gt;*{fill:rgb(227, 242, 253)!important;stroke:rgb(21, 101, 192)!important;color:rgb(0, 0, 0)!important;}#my-svg .neighbor span{fill:rgb(227, 242, 253)!important;stroke:rgb(21, 101, 192)!important;color:rgb(0, 0, 0)!important;}#my-svg .neighbor tspan{fill:rgb(0, 0, 0)!important;}</style><g><marker id="my-svg_flowchart-v2-pointEnd" class="marker flowchart-v2" viewBox="0 0 10 10" refX="5" refY="5" markerUnits="userSpaceOnUse" markerWidth="8" markerHeight="8" orient="auto"><path d="M 0 0 L 10 5 L 0 10 z" class="arrowMarkerPath" style="stroke-width: 1; stroke-dasharray: 1, 0;"/></marker><marker id="my-svg_flowchart-v2-pointStart" class="marker flowchart-v2" viewBox="0 0 10 10" refX="4.5" refY="5" markerUnits="userSpaceOnUse" markerWidth="8" markerHeight="8" orient="auto"><path d="M 0 5 L 10 10 L 10 0 z" class="arrowMarkerPath" style="stroke-width: 1; stroke-dasharray: 1, 0;"/></marker><marker id="my-svg_flowchart-v2-pointEnd-margin" class="marker flowchart-v2" viewBox="0 0 11.5 14" refX="11.5" refY="7" markerUnits="userSpaceOnUse" markerWidth="10.5" markerHeight="14" orient="auto"><path d="M 0 0 L 11.5 7 L 0 14 z" class="arrowMarkerPath" style="stroke-width: 0; stroke-dasharray: 1, 0;"/></marker><marker id="my-svg_flowchart-v2-pointStart-margin" class="marker flowchart-v2" viewBox="0 0 11.5 14" refX="1" refY="7" markerUnits="userSpaceOnUse" markerWidth="11.5" markerHeight="14" orient="auto"><polygon points="0,7 11.5,14 11.5,0" class="arrowMarkerPath" style="stroke-width: 0; stroke-dasharray: 1, 0;"/></marker><marker id="my-svg_flowchart-v2-circleEnd" class="marker flowchart-v2" viewBox="0 0 10 10" refX="11" refY="5" markerUnits="userSpaceOnUse" markerWidth="11" markerHeight="11" orient="auto"><circle cx="5" cy="5" r="5" class="arrowMarkerPath" style="stroke-width: 1; stroke-dasharray: 1, 0;"/></marker><marker id="my-svg_flowchart-v2-circleStart" class="marker flowchart-v2" viewBox="0 0 10 10" refX="-1" refY="5" markerUnits="userSpaceOnUse" markerWidth="11" markerHeight="11" orient="auto"><circle cx="5" cy="5" r="5" class="arrowMarkerPath" style="stroke-width: 1; stroke-dasharray: 1, 0;"/></marker><marker id="my-svg_flowchart-v2-circleEnd-margin" class="marker flowchart-v2" viewBox="0 0 10 10" refY="5" refX="12.25" markerUnits="userSpaceOnUse" markerWidth="14" markerHeight="14" orient="auto"><circle cx="5" cy="5" r="5" class="arrowMarkerPath" style="stroke-width: 0; stroke-dasharray: 1, 0;"/></marker><marker id="my-svg_flowchart-v2-circleStart-margin" class="marker flowchart-v2" viewBox="0 0 10 10" refX="-2" refY="5" markerUnits="userSpaceOnUse" markerWidth="14" markerHeight="14" orient="auto"><circle cx="5" cy="5" r="5" class="arrowMarkerPath" style="stroke-width: 0; stroke-dasharray: 1, 0;"/></marker><marker id="my-svg_flowchart-v2-crossEnd" class="marker cross flowchart-v2" viewBox="0 0 11 11" refX="12" refY="5.2" markerUnits="userSpaceOnUse" markerWidth="11" markerHeight="11" orient="auto"><path d="M 1,1 l 9,9 M 10,1 l -9,9" class="arrowMarkerPath" style="stroke-width: 2; stroke-dasharray: 1, 0;"/></marker><marker id="my-svg_flowchart-v2-crossStart" class="marker cross flowchart-v2" viewBox="0 0 11 11" refX="-1" refY="5.2" markerUnits="userSpaceOnUse" markerWidth="11" markerHeight="11" orient="auto"><path d="M 1,1 l 9,9 M 10,1 l -9,9" class="arrowMarkerPath" style="stroke-width: 2; stroke-dasharray: 1, 0;"/></marker><marker id="my-svg_flowchart-v2-crossEnd-margin" class="marker cross flowchart-v2" viewBox="0 0 15 15" refX="17.7" refY="7.5" markerUnits="userSpaceOnUse" markerWidth="12" markerHeight="12" orient="auto"><path d="M 1,1 L 14,14 M 1,14 L 14,1" class="arrowMarkerPath" style="stroke-width: 2.5;"/></marker><marker id="my-svg_flowchart-v2-crossStart-margin" class="marker cross flowchart-v2" viewBox="0 0 15 15" refX="-3.5" refY="7.5" markerUnits="userSpaceOnUse" markerWidth="12" markerHeight="12" orient="auto"><path d="M 1,1 L 14,14 M 1,14 L 14,1" class="arrowMarkerPath" style="stroke-width: 2.5; stroke-dasharray: 1, 0;"/></marker><g class="root"><g class="clusters"/><g class="edgePaths"><path d="M162.392,220L179.144,214.5C195.896,209,229.399,198,263.314,192.5C297.23,187,331.558,187,348.722,187L365.886,187" id="my-svg-L_CAP_EP_LIST_0" class="edge-thickness-normal edge-pattern-solid edge-thickness-normal edge-pattern-solid flowchart-link" style=";" data-edge="true" data-et="edge" data-id="L_CAP_EP_LIST_0" data-points="W3sieCI6MTYyLjM5MjQ3NjA4MTg0ODE0LCJ5IjoyMjB9LHsieCI6MjYyLjkwMTg0MDIwOTk2MDk0LCJ5IjoxODd9LHsieCI6MzY5Ljg4NjIxNTIwOTk2MDk0LCJ5IjoxODd9XQ==" data-look="classic" marker-end="url(#my-svg_flowchart-v2-pointEnd)"/><path d="M516.636,187L533.812,187C550.988,187,585.339,187,612.582,187C639.824,187,659.957,187,670.023,187L680.089,187" id="my-svg-L_EP_LIST_SVC_0" class="edge-thickness-normal edge-pattern-solid edge-thickness-normal edge-pattern-solid flowchart-link" style=";" data-edge="true" data-et="edge" data-id="L_EP_LIST_SVC_0" data-points="W3sieCI6NTE2LjYzNjIxNTIwOTk2MDksInkiOjE4N30seyJ4Ijo2MTkuNjkwOTAyNzA5OTYwOSwieSI6MTg3fSx7IngiOjY4NC4wODkzNDAyMDk5NjA5LCJ5IjoxODd9XQ==" data-look="classic" marker-end="url(#my-svg_flowchart-v2-pointEnd)"/><path d="M851.296,160L882.491,143.167C913.686,126.333,976.075,92.667,1026.608,75.833C1077.141,59,1115.819,59,1135.157,59L1154.496,59" id="my-svg-L_SVC_HELP_0" class="edge-thickness-normal edge-pattern-solid edge-thickness-normal edge-pattern-solid flowchart-link" style=";" data-edge="true" data-et="edge" data-id="L_SVC_HELP_0" data-points="W3sieCI6ODUxLjI5NjI0OTM4OTY0ODQsInkiOjE2MH0seyJ4IjoxMDM4LjQ2NDM0MDIwOTk2MSwieSI6NTl9LHsieCI6MTE1OC40OTU1OTAyMDk5NjEsInkiOjU5fV0=" data-look="classic" marker-end="url(#my-svg_flowchart-v2-pointEnd)"/><path d="M918.433,187L938.438,187C958.444,187,998.454,187,1039.748,187C1081.042,187,1123.621,187,1144.91,187L1166.199,187" id="my-svg-L_SVC_ORDER_0" class="edge-thickness-normal edge-pattern-solid edge-thickness-normal edge-pattern-solid flowchart-link" style=";" data-edge="true" data-et="edge" data-id="L_SVC_ORDER_0" data-points="W3sieCI6OTE4LjQzMzA5MDIwOTk2MDksInkiOjE4N30seyJ4IjoxMDM4LjQ2NDM0MDIwOTk2MSwieSI6MTg3fSx7IngiOjExNzAuMTk4NzE1MjA5OTYxLCJ5IjoxODd9XQ==" data-look="classic" marker-end="url(#my-svg_flowchart-v2-pointEnd)"/><path d="M1418.496,59L1426.576,59C1434.657,59,1450.819,59,1466.313,59C1481.808,59,1496.636,59,1504.05,59L1511.464,59" id="my-svg-L_HELP_SHOW_0" class="edge-thickness-normal edge-pattern-solid edge-thickness-normal edge-pattern-solid flowchart-link" style=";" data-edge="true" data-et="edge" data-id="L_HELP_SHOW_0" data-points="W3sieCI6MTQxOC40OTU1OTAyMDk5NjEsInkiOjU5fSx7IngiOjE0NjYuOTc5OTY1MjA5OTYxLCJ5Ijo1OX0seyJ4IjoxNTE1LjQ2NDM0MDIwOTk2MSwieSI6NTl9XQ==" data-look="classic" marker-end="url(#my-svg_flowchart-v2-pointEnd)"/><path d="M856.472,214L886.804,228.833C917.136,243.667,977.8,273.333,1029.99,288.167C1082.18,303,1125.897,303,1147.755,303L1169.613,303" id="my-svg-L_SVC_DTO_0" class="edge-thickness-normal edge-pattern-solid edge-thickness-normal edge-pattern-solid flowchart-link" style=";" data-edge="true" data-et="edge" data-id="L_SVC_DTO_0" data-points="W3sieCI6ODU2LjQ3MjI4NzQwODIzNjgsInkiOjIxNH0seyJ4IjoxMDM4LjQ2NDM0MDIwOTk2MSwieSI6MzAzfSx7IngiOjExNzMuNjEyNzc3NzA5OTYxLCJ5IjozMDN9XQ==" data-look="classic" marker-end="url(#my-svg_flowchart-v2-pointEnd)"/><path d="M162.392,259L179.144,264.333C195.896,269.667,229.399,280.333,256.872,285.667C284.345,291,305.787,291,316.509,291L327.23,291" id="my-svg-L_CAP_DETAILS_0" class="edge-thickness-normal edge-pattern-dotted edge-thickness-normal edge-pattern-solid flowchart-link" style=";" data-edge="true" data-et="edge" data-id="L_CAP_DETAILS_0" data-points="W3sieCI6MTYyLjM5MjQ3NjA4MTg0ODE0LCJ5IjoyNTl9LHsieCI6MjYyLjkwMTg0MDIwOTk2MDk0LCJ5IjoyOTF9LHsieCI6MzMxLjIyOTk2NTIwOTk2MDk0LCJ5IjoyOTF9XQ==" data-look="classic" marker-end="url(#my-svg_flowchart-v2-pointEnd)"/></g><g class="edgeLabels"><g class="edgeLabel" transform="translate(262.90184020996094, 187)"><g class="label" data-id="L_CAP_EP_LIST_0" transform="translate(-27.9609375, -12)"><foreignObject width="55.921875" height="24"><div xmlns="http://www.w3.org/1999/xhtml" class="labelBkg" style="display: table-cell; white-space: nowrap; line-height: 1.5; max-width: 200px; text-align: center;"><span class="edgeLabel"><p>exposes</p></span></div></foreignObject></g></g><g class="edgeLabel" transform="translate(619.6909027099609, 187)"><g class="label" data-id="L_EP_LIST_SVC_0" transform="translate(-39.3984375, -12)"><foreignObject width="78.796875" height="24"><div xmlns="http://www.w3.org/1999/xhtml" class="labelBkg" style="display: table-cell; white-space: nowrap; line-height: 1.5; max-width: 200px; text-align: center;"><span class="edgeLabel"><p>handled by</p></span></div></foreignObject></g></g><g class="edgeLabel" transform="translate(1038.464340209961, 59)"><g class="label" data-id="L_SVC_HELP_0" transform="translate(-57.546875, -12)"><foreignObject width="115.09375" height="24"><div xmlns="http://www.w3.org/1999/xhtml" class="labelBkg" style="display: table-cell; white-space: nowrap; line-height: 1.5; max-width: 200px; text-align: center;"><span class="edgeLabel"><p>derives rows via</p></span></div></foreignObject></g></g><g class="edgeLabel" transform="translate(1038.464340209961, 187)"><g class="label" data-id="L_SVC_ORDER_0" transform="translate(-95.03125, -12)"><foreignObject width="190.0625" height="24"><div xmlns="http://www.w3.org/1999/xhtml" class="labelBkg" style="display: table-cell; white-space: nowrap; line-height: 1.5; max-width: 200px; text-align: center;"><span class="edgeLabel"><p>reads (where company_id)</p></span></div></foreignObject></g></g><g class="edgeLabel" transform="translate(1466.979965209961, 59)"><g class="label" data-id="L_HELP_SHOW_0" transform="translate(-23.484375, -12)"><foreignObject width="46.96875" height="24"><div xmlns="http://www.w3.org/1999/xhtml" class="labelBkg" style="display: table-cell; white-space: nowrap; line-height: 1.5; max-width: 200px; text-align: center;"><span class="edgeLabel"><p>groups</p></span></div></foreignObject></g></g><g class="edgeLabel" transform="translate(1038.464340209961, 303)"><g class="label" data-id="L_SVC_DTO_0" transform="translate(-25.734375, -12)"><foreignObject width="51.46875" height="24"><div xmlns="http://www.w3.org/1999/xhtml" class="labelBkg" style="display: table-cell; white-space: nowrap; line-height: 1.5; max-width: 200px; text-align: center;"><span class="edgeLabel"><p>returns</p></span></div></foreignObject></g></g><g class="edgeLabel" transform="translate(262.90184020996094, 291)"><g class="label" data-id="L_CAP_DETAILS_0" transform="translate(-43.328125, -12)"><foreignObject width="86.65625" height="24"><div xmlns="http://www.w3.org/1999/xhtml" class="labelBkg" style="display: table-cell; white-space: nowrap; line-height: 1.5; max-width: 200px; text-align: center;"><span class="edgeLabel"><p>row View →</p></span></div></foreignObject></g></g></g><g class="nodes"><g class="node default ego" id="my-svg-flowchart-CAP-0" data-look="classic" transform="translate(101.28685760498047, 239)"><g class="basic label-container outer-path"><path d="M-73.796875 -19.5 C-23.270436830769484 -19.5, 27.256001338461033 -19.5, 73.796875 -19.5 C73.796875 -19.5, 73.796875 -19.5, 73.796875 -19.5 C74.27270485141796 -19.484741062811647, 74.74853470283591 -19.469482125623294, 75.0462442896239 -19.45993515863156 C75.41980721458971 -19.423897992535256, 75.79337013955552 -19.387860826438953, 76.29047965284786 -19.3399052695533 C76.56383473883943 -19.295711339150536, 76.837189824831 -19.25151740874777, 77.52446825967675 -19.140403561325776 C77.92205518018947 -19.049656941215872, 78.3196421007022 -18.958910321105964, 78.74313938623538 -18.862249829261074 C79.02879312091495 -18.777469300235232, 79.31444685559451 -18.692688771209387, 79.9414852514606 -18.50658706670804 C80.39610096676606 -18.33928428105403, 80.85071668207149 -18.171981495400022, 81.1145815951478 -18.074876768247425 C81.50329891290878 -17.902803142564178, 81.89201623066975 -17.73072951688093, 82.25760791279238 -17.568892924097174 C82.5088640372121 -17.437812764924633, 82.76012016163183 -17.306732605752092, 83.36586726407678 -16.990714730406097 C83.75512764051138 -16.75474280266356, 84.14438801694597 -16.518770874921024, 84.4348055736057 -16.342718045390892 C84.83023651572279 -16.06688253809961, 85.22566745783986 -15.791047030808324, 85.46003034457871 -15.627565626425154 C85.78011776134177 -15.372304429440506, 86.10020517810482 -15.117043232455858, 86.43732870850187 -14.848196188198123 C86.64283723148503 -14.661558785082363, 86.84834575446821 -14.474921381966602, 87.36268473676799 -14.007812326905688 C87.70957324164966 -13.649621465539443, 88.05646174653135 -13.291430604173197, 88.23229594296865 -13.10986736009568 C88.5410846630618 -12.747146558898349, 88.84987338315493 -12.384425757701015, 89.04258890812658 -12.158051136245305 C89.29333855887934 -11.82206944799973, 89.5440882096321 -11.486087759754154, 89.79023396464063 -11.156274872382312 C90.04203148397335 -10.769446265586051, 90.29382900330604 -10.382617658789789, 90.47215887860425 -10.108655082055241 C90.60332471162046 -9.875756863554116, 90.73449054463667 -9.64285864505299, 91.0855614742735 -9.019496659696287 C91.21541254326127 -8.749858136575394, 91.34526361224904 -8.480219613454501, 91.62792114880834 -7.893275190886684 C91.79875287098851 -7.471317534295007, 91.96958459316868 -7.0493598777033295, 92.09700922997033 -6.734618561215508 C92.22618856388645 -6.3455509893919295, 92.35536789780257 -5.956483417568351, 92.49089813421489 -5.548287939305138 C92.61215773760105 -5.085872517349159, 92.7334173409872 -4.623457095393181, 92.80796928754556 -4.339158212148133 C92.89223710499732 -3.906460779542899, 92.97650492244907 -3.4737633469376648, 93.04691977658177 -3.1121979531509023 C93.08898730489449 -2.7859305107305192, 93.13105483320722 -2.4596630683101366, 93.20676770250937 -1.872449005199798 C93.23434599606507 -1.4428948222717215, 93.2619242896208 -1.013340639343645, 93.28685621591342 -0.6250057626472757 C93.28685621591342 -0.1740230007935779, 93.28685621591342 0.2769597610601199, 93.28685621591342 0.625005762647271 C93.26532522829356 0.9603682743269248, 93.24379424067371 1.2957307860065788, 93.20676770250937 1.8724490051997846 C93.16311317433833 2.2110249051326454, 93.1194586461673 2.5496008050655057, 93.04691977658177 3.1121979531508885 C92.98981723765564 3.4054074219107298, 92.9327146987295 3.6986168906705714, 92.80796928754556 4.339158212148129 C92.7189301205827 4.678703145596621, 92.62989095361982 5.018248079045112, 92.49089813421489 5.548287939305125 C92.36694285106638 5.921621502556107, 92.24298756791787 6.294955065807088, 92.09700922997033 6.734618561215495 C92.00118860297977 6.971297362447956, 91.90536797598922 7.207976163680417, 91.62792114880834 7.893275190886679 C91.48643400733478 8.18707626749638, 91.34494686586123 8.480877344106082, 91.0855614742735 9.019496659696284 C90.8925505732184 9.362207058992688, 90.69953967216328 9.70491745828909, 90.47215887860425 10.108655082055236 C90.2585306779858 10.436845365409194, 90.04490247736737 10.765035648763151, 89.79023396464065 11.156274872382301 C89.51163622162082 11.529570467252363, 89.23303847860097 11.902866062122424, 89.04258890812659 12.158051136245302 C88.79687851482315 12.446676545536969, 88.55116812151972 12.735301954828634, 88.23229594296866 13.10986736009567 C87.9196031269953 13.432748365145807, 87.60691031102192 13.755629370195944, 87.36268473676799 14.007812326905684 C87.14166017645161 14.208540984595617, 86.92063561613523 14.409269642285548, 86.4373287085019 14.848196188198111 C86.06544611846587 15.144762657540506, 85.69356352842983 15.441329126882898, 85.46003034457871 15.627565626425152 C85.1317684814407 15.856546891923205, 84.80350661830268 16.08552815742126, 84.4348055736057 16.34271804539089 C84.1952929360307 16.487912013821347, 83.9557802984557 16.633105982251806, 83.36586726407678 16.990714730406093 C83.1074631374323 17.125523997760773, 82.84905901078784 17.260333265115452, 82.25760791279238 17.56889292409717 C81.8222040252889 17.761633309297537, 81.38680013778541 17.954373694497907, 81.1145815951478 18.07487676824742 C80.86848093678026 18.165444085456226, 80.6223802784127 18.25601140266503, 79.94148525146062 18.506587066708033 C79.57982383579287 18.61392627647871, 79.21816242012511 18.721265486249393, 78.74313938623541 18.86224982926107 C78.35546036395364 18.95073503625484, 77.96778134167185 19.039220243248607, 77.52446825967677 19.140403561325773 C77.13675585830593 19.20308589562483, 76.74904345693511 19.265768229923886, 76.29047965284788 19.3399052695533 C76.00321432773781 19.367617409979566, 75.71594900262774 19.395329550405837, 75.0462442896239 19.45993515863156 C74.77544447410611 19.46861918163535, 74.50464465858833 19.47730320463914, 73.796875 19.5 C73.796875 19.5, 73.796875 19.5, 73.796875 19.5 C17.92366663375057 19.5, -37.94954173249886 19.5, -73.796875 19.5 C-74.25220574041761 19.485398429402327, -74.70753648083523 19.470796858804658, -75.0462442896239 19.45993515863156 C-75.36257367754867 19.429419243020206, -75.67890306547342 19.398903327408853, -76.29047965284786 19.3399052695533 C-76.67111234875475 19.278367527129717, -77.05174504466162 19.216829784706135, -77.52446825967675 19.140403561325773 C-77.88328874981282 19.05850512597474, -78.24210923994889 18.976606690623708, -78.74313938623538 18.862249829261074 C-78.98423714003411 18.79069328148155, -79.22533489383284 18.71913673370202, -79.94148525146059 18.506587066708043 C-80.22549008121092 18.402070664048058, -80.50949491096124 18.29755426138807, -81.1145815951478 18.074876768247425 C-81.37916886454849 17.95775183278622, -81.64375613394918 17.840626897325013, -82.25760791279238 17.568892924097174 C-82.541993953745 17.420528908690144, -82.82637999469763 17.272164893283115, -83.36586726407678 16.990714730406097 C-83.58270794831792 16.859264633321818, -83.79954863255905 16.727814536237535, -84.43480557360569 16.3427180453909 C-84.814348420889 16.077965385271114, -85.19389126817231 15.813212725151327, -85.46003034457871 15.627565626425156 C-85.84019380022761 15.324395387119585, -86.2203572558765 15.021225147814016, -86.43732870850187 14.848196188198125 C-86.66113898412763 14.644937617570198, -86.8849492597534 14.441679046942271, -87.36268473676797 14.007812326905697 C-87.55731535912079 13.806840229855142, -87.7519459814736 13.605868132804588, -88.23229594296865 13.109867360095677 C-88.50556826392098 12.788866142269512, -88.7788405848733 12.467864924443347, -89.04258890812658 12.158051136245307 C-89.26979091900378 11.853621140198856, -89.49699292988099 11.549191144152402, -89.79023396464063 11.156274872382316 C-89.98934381589414 10.85038867237557, -90.18845366714766 10.544502472368823, -90.47215887860425 10.108655082055249 C-90.60388623373397 9.87475982418129, -90.73561358886371 9.64086456630733, -91.0855614742735 9.019496659696289 C-91.25833382801676 8.660731170412244, -91.43110618176003 8.301965681128198, -91.62792114880834 7.893275190886686 C-91.72417459978415 7.655527306042566, -91.82042805075996 7.4177794211984445, -92.09700922997033 6.73461856121551 C-92.19215555500261 6.448052989726452, -92.2873018800349 6.161487418237393, -92.49089813421489 5.5482879393051325 C-92.61391733091293 5.079162425438393, -92.73693652761096 4.610036911571653, -92.80796928754556 4.339158212148136 C-92.86758595681279 4.0330392154484445, -92.92720262608 3.7269202187487527, -93.04691977658177 3.112197953150904 C-93.0914774184618 2.766617681630957, -93.13603506034185 2.42103741011101, -93.20676770250937 1.872449005199809 C-93.22993325138985 1.5116268824918646, -93.25309880027032 1.1508047597839202, -93.28685621591342 0.6250057626472781 C-93.28685621591342 0.2924966043436575, -93.28685621591342 -0.04001255395996317, -93.28685621591342 -0.6250057626472687 C-93.26665580124615 -0.9396435265712647, -93.24645538657887 -1.2542812904952607, -93.20676770250937 -1.8724490051997822 C-93.15299809268156 -2.289475481013821, -93.09922848285375 -2.70650195682786, -93.04691977658177 -3.112197953150895 C-92.97656626810026 -3.4734483499842006, -92.90621275961874 -3.834698746817506, -92.80796928754556 -4.339158212148126 C-92.73690484237754 -4.610157741099169, -92.66584039720951 -4.881157270050211, -92.49089813421489 -5.548287939305123 C-92.40004262271859 -5.821930264072057, -92.3091871112223 -6.095572588838991, -92.09700922997033 -6.734618561215485 C-91.9824295739041 -7.017632526946028, -91.86784991783786 -7.300646492676572, -91.62792114880834 -7.893275190886676 C-91.49359564495143 -8.172204973750908, -91.35927014109453 -8.451134756615138, -91.0855614742735 -9.019496659696282 C-90.95878441393555 -9.244602167895751, -90.83200735359758 -9.469707676095219, -90.47215887860425 -10.108655082055243 C-90.2693306265996 -10.420253744146159, -90.06650237459493 -10.731852406237074, -89.79023396464063 -11.156274872382308 C-89.50247297000037 -11.54184838963435, -89.2147119753601 -11.92742190688639, -89.04258890812659 -12.158051136245302 C-88.83567166266063 -12.401107906694417, -88.62875441719468 -12.644164677143534, -88.23229594296866 -13.10986736009567 C-87.90863320907725 -13.444075706043188, -87.58497047518586 -13.778284051990708, -87.36268473676799 -14.007812326905677 C-87.01003071563711 -14.328083378182646, -86.65737669450625 -14.648354429459616, -86.4373287085019 -14.848196188198107 C-86.16519204273803 -15.065217937283977, -85.89305537697416 -15.282239686369845, -85.46003034457871 -15.627565626425149 C-85.15450986607989 -15.840683486457579, -84.84898938758107 -16.05380134649001, -84.43480557360571 -16.342718045390885 C-84.08839461139503 -16.552714406419778, -83.74198364918433 -16.762710767448674, -83.36586726407678 -16.99071473040609 C-82.99761820858505 -17.18283002678135, -82.62936915309332 -17.37494532315661, -82.2576079127924 -17.56889292409717 C-82.0028511659688 -17.68166617882558, -81.74809441914523 -17.79443943355399, -81.11458159514781 -18.07487676824742 C-80.6918759880422 -18.23043633911008, -80.2691703809366 -18.385995909972742, -79.94148525146062 -18.506587066708033 C-79.47569062364211 -18.644832467238672, -79.00989599582361 -18.783077867769308, -78.74313938623541 -18.862249829261067 C-78.42399339555256 -18.93509281901221, -78.10484740486972 -19.00793580876335, -77.52446825967677 -19.140403561325773 C-77.17742254149101 -19.196511221662306, -76.83037682330527 -19.25261888199884, -76.29047965284788 -19.3399052695533 C-75.85680255077824 -19.381741578016932, -75.4231254487086 -19.423577886480565, -75.0462442896239 -19.45993515863156 C-74.77450283583639 -19.468649378141873, -74.50276138204889 -19.477363597652186, -73.796875 -19.5 C-73.796875 -19.5, -73.796875 -19.5, -73.796875 -19.5" stroke="none" stroke-width="0" fill="#ffe0b2" style="fill:#ffe0b2 !important;stroke:#e65100 !important;stroke-width:3px !important"/><path d="M-73.796875 -19.5 C-21.241559550532045 -19.5, 31.31375589893591 -19.5, 73.796875 -19.5 M-73.796875 -19.5 C-21.527056968878377 -19.5, 30.742761062243247 -19.5, 73.796875 -19.5 M73.796875 -19.5 C73.796875 -19.5, 73.796875 -19.5, 73.796875 -19.5 M73.796875 -19.5 C73.796875 -19.5, 73.796875 -19.5, 73.796875 -19.5 M73.796875 -19.5 C74.24252912375658 -19.485708739664258, 74.68818324751315 -19.47141747932851, 75.0462442896239 -19.45993515863156 M73.796875 -19.5 C74.27428338895884 -19.484690442185148, 74.75169177791767 -19.469380884370295, 75.0462442896239 -19.45993515863156 M75.0462442896239 -19.45993515863156 C75.53426623646371 -19.412856268352186, 76.02228818330352 -19.36577737807281, 76.29047965284786 -19.3399052695533 M75.0462442896239 -19.45993515863156 C75.36645456693161 -19.429044858288886, 75.68666484423932 -19.398154557946214, 76.29047965284786 -19.3399052695533 M76.29047965284786 -19.3399052695533 C76.69135270652102 -19.275095223052386, 77.09222576019417 -19.210285176551473, 77.52446825967675 -19.140403561325776 M76.29047965284786 -19.3399052695533 C76.78089073935784 -19.260619408281144, 77.27130182586782 -19.181333547008986, 77.52446825967675 -19.140403561325776 M77.52446825967675 -19.140403561325776 C77.82057682983695 -19.072818712475712, 78.11668539999715 -19.005233863625648, 78.74313938623538 -18.862249829261074 M77.52446825967675 -19.140403561325776 C77.97645951802131 -19.037239506127236, 78.42845077636589 -18.934075450928695, 78.74313938623538 -18.862249829261074 M78.74313938623538 -18.862249829261074 C79.18360410239849 -18.731522213550342, 79.6240688185616 -18.60079459783961, 79.9414852514606 -18.50658706670804 M78.74313938623538 -18.862249829261074 C79.19265151471724 -18.728836989064973, 79.6421636431991 -18.595424148868872, 79.9414852514606 -18.50658706670804 M79.9414852514606 -18.50658706670804 C80.20215667113314 -18.410657574648358, 80.46282809080569 -18.314728082588672, 81.1145815951478 -18.074876768247425 M79.9414852514606 -18.50658706670804 C80.21930744144098 -18.40434593263509, 80.49712963142136 -18.302104798562137, 81.1145815951478 -18.074876768247425 M81.1145815951478 -18.074876768247425 C81.38208066707755 -17.95646286418216, 81.6495797390073 -17.838048960116897, 82.25760791279238 -17.568892924097174 M81.1145815951478 -18.074876768247425 C81.5515294684457 -17.88145290633658, 81.9884773417436 -17.688029044425733, 82.25760791279238 -17.568892924097174 M82.25760791279238 -17.568892924097174 C82.65113565514491 -17.363589752978402, 83.04466339749746 -17.158286581859635, 83.36586726407678 -16.990714730406097 M82.25760791279238 -17.568892924097174 C82.51987375902361 -17.432069000107635, 82.78213960525484 -17.295245076118096, 83.36586726407678 -16.990714730406097 M83.36586726407678 -16.990714730406097 C83.67157943046978 -16.80539021857456, 83.97729159686277 -16.620065706743024, 84.4348055736057 -16.342718045390892 M83.36586726407678 -16.990714730406097 C83.77068916280717 -16.745309316398192, 84.17551106153758 -16.499903902390283, 84.4348055736057 -16.342718045390892 M84.4348055736057 -16.342718045390892 C84.74658985521557 -16.125230827463866, 85.05837413682544 -15.907743609536842, 85.46003034457871 -15.627565626425154 M84.4348055736057 -16.342718045390892 C84.7778180510999 -16.10344738986177, 85.1208305285941 -15.864176734332652, 85.46003034457871 -15.627565626425154 M85.46003034457871 -15.627565626425154 C85.69651526123027 -15.43897519852346, 85.93300017788184 -15.250384770621768, 86.43732870850187 -14.848196188198123 M85.46003034457871 -15.627565626425154 C85.73526126739948 -15.408076289678046, 86.01049219022025 -15.188586952930939, 86.43732870850187 -14.848196188198123 M86.43732870850187 -14.848196188198123 C86.64897740431523 -14.655982442578058, 86.86062610012858 -14.463768696957992, 87.36268473676799 -14.007812326905688 M86.43732870850187 -14.848196188198123 C86.77531748265116 -14.541243726208657, 87.11330625680046 -14.23429126421919, 87.36268473676799 -14.007812326905688 M87.36268473676799 -14.007812326905688 C87.62283675922613 -13.739184004839386, 87.88298878168428 -13.470555682773083, 88.23229594296865 -13.10986736009568 M87.36268473676799 -14.007812326905688 C87.67124478021925 -13.689198748791554, 87.97980482367052 -13.370585170677419, 88.23229594296865 -13.10986736009568 M88.23229594296865 -13.10986736009568 C88.52076362311118 -12.771016808724271, 88.8092313032537 -12.432166257352863, 89.04258890812658 -12.158051136245305 M88.23229594296865 -13.10986736009568 C88.48400608492594 -12.814194304639832, 88.73571622688321 -12.518521249183983, 89.04258890812658 -12.158051136245305 M89.04258890812658 -12.158051136245305 C89.2065717401189 -11.93832908051891, 89.37055457211123 -11.718607024792515, 89.79023396464063 -11.156274872382312 M89.04258890812658 -12.158051136245305 C89.25078120599592 -11.879092423808904, 89.45897350386527 -11.600133711372504, 89.79023396464063 -11.156274872382312 M89.79023396464063 -11.156274872382312 C89.9435438130301 -10.920749775797525, 90.09685366141957 -10.685224679212736, 90.47215887860425 -10.108655082055241 M89.79023396464063 -11.156274872382312 C90.05277329252513 -10.752943963071017, 90.31531262040963 -10.349613053759724, 90.47215887860425 -10.108655082055241 M90.47215887860425 -10.108655082055241 C90.65515065976224 -9.783734644682054, 90.83814244092025 -9.458814207308867, 91.0855614742735 -9.019496659696287 M90.47215887860425 -10.108655082055241 C90.6132459305241 -9.85814073475834, 90.75433298244397 -9.607626387461437, 91.0855614742735 -9.019496659696287 M91.0855614742735 -9.019496659696287 C91.28661919279496 -8.601996005240464, 91.48767691131641 -8.18449535078464, 91.62792114880834 -7.893275190886684 M91.0855614742735 -9.019496659696287 C91.29089174443519 -8.593123960341579, 91.49622201459687 -8.16675126098687, 91.62792114880834 -7.893275190886684 M91.62792114880834 -7.893275190886684 C91.7565417408828 -7.57557984175281, 91.88516233295725 -7.257884492618936, 92.09700922997033 -6.734618561215508 M91.62792114880834 -7.893275190886684 C91.75391347859687 -7.582071700413044, 91.87990580838539 -7.270868209939404, 92.09700922997033 -6.734618561215508 M92.09700922997033 -6.734618561215508 C92.24964309348911 -6.274909683200521, 92.40227695700789 -5.815200805185535, 92.49089813421489 -5.548287939305138 M92.09700922997033 -6.734618561215508 C92.2308126651173 -6.331623933235106, 92.36461610026426 -5.928629305254704, 92.49089813421489 -5.548287939305138 M92.49089813421489 -5.548287939305138 C92.60963671007174 -5.095486287938651, 92.72837528592859 -4.642684636572164, 92.80796928754556 -4.339158212148133 M92.49089813421489 -5.548287939305138 C92.55699241270744 -5.296241809971493, 92.62308669120002 -5.0441956806378485, 92.80796928754556 -4.339158212148133 M92.80796928754556 -4.339158212148133 C92.90070592161604 -3.862975196090753, 92.99344255568653 -3.386792180033373, 93.04691977658177 -3.1121979531509023 M92.80796928754556 -4.339158212148133 C92.86357741373365 -4.053622236953885, 92.91918553992176 -3.7680862617596356, 93.04691977658177 -3.1121979531509023 M93.04691977658177 -3.1121979531509023 C93.08713643837832 -2.800285465934988, 93.12735310017487 -2.4883729787190734, 93.20676770250937 -1.872449005199798 M93.04691977658177 -3.1121979531509023 C93.08197888025042 -2.8402864683000217, 93.11703798391905 -2.5683749834491416, 93.20676770250937 -1.872449005199798 M93.20676770250937 -1.872449005199798 C93.23432161483375 -1.4432745796298327, 93.26187552715814 -1.0141001540598675, 93.28685621591342 -0.6250057626472757 M93.20676770250937 -1.872449005199798 C93.23864986799965 -1.375858542867694, 93.27053203348996 -0.8792680805355899, 93.28685621591342 -0.6250057626472757 M93.28685621591342 -0.6250057626472757 C93.28685621591342 -0.13748523489101494, 93.28685621591342 0.3500352928652458, 93.28685621591342 0.625005762647271 M93.28685621591342 -0.6250057626472757 C93.28685621591342 -0.2066325113887253, 93.28685621591342 0.2117407398698251, 93.28685621591342 0.625005762647271 M93.28685621591342 0.625005762647271 C93.25803013715588 1.0739952072878374, 93.22920405839835 1.5229846519284036, 93.20676770250937 1.8724490051997846 M93.28685621591342 0.625005762647271 C93.26281820207394 0.9994172313326639, 93.23878018823446 1.373828700018057, 93.20676770250937 1.8724490051997846 M93.20676770250937 1.8724490051997846 C93.15476398435838 2.275779573883089, 93.10276026620741 2.6791101425663935, 93.04691977658177 3.1121979531508885 M93.20676770250937 1.8724490051997846 C93.15429124571355 2.2794460414595985, 93.10181478891775 2.6864430777194124, 93.04691977658177 3.1121979531508885 M93.04691977658177 3.1121979531508885 C92.9611250468967 3.5527357573612006, 92.87533031721163 3.9932735615715123, 92.80796928754556 4.339158212148129 M93.04691977658177 3.1121979531508885 C92.9906873227089 3.4009397190547777, 92.93445486883603 3.6896814849586668, 92.80796928754556 4.339158212148129 M92.80796928754556 4.339158212148129 C92.71896604190994 4.678566162007407, 92.62996279627433 5.017974111866684, 92.49089813421489 5.548287939305125 M92.80796928754556 4.339158212148129 C92.68782150104106 4.797333794469857, 92.56767371453655 5.255509376791586, 92.49089813421489 5.548287939305125 M92.49089813421489 5.548287939305125 C92.38237602286618 5.875139248037112, 92.27385391151746 6.201990556769097, 92.09700922997033 6.734618561215495 M92.49089813421489 5.548287939305125 C92.40517150264687 5.806482894904161, 92.31944487107883 6.064677850503198, 92.09700922997033 6.734618561215495 M92.09700922997033 6.734618561215495 C91.94138691179282 7.119008695866789, 91.7857645936153 7.503398830518083, 91.62792114880834 7.893275190886679 M92.09700922997033 6.734618561215495 C92.001924579146 6.969479487088242, 91.90683992832167 7.20434041296099, 91.62792114880834 7.893275190886679 M91.62792114880834 7.893275190886679 C91.47259418918343 8.215814946012342, 91.31726722955851 8.538354701138005, 91.0855614742735 9.019496659696284 M91.62792114880834 7.893275190886679 C91.42029925789717 8.324406489760541, 91.212677366986 8.755537788634404, 91.0855614742735 9.019496659696284 M91.0855614742735 9.019496659696284 C90.88347816719774 9.378316034563094, 90.68139486012197 9.737135409429904, 90.47215887860425 10.108655082055236 M91.0855614742735 9.019496659696284 C90.84791880985232 9.441455274305271, 90.61027614543113 9.863413888914257, 90.47215887860425 10.108655082055236 M90.47215887860425 10.108655082055236 C90.2990240974675 10.37463659907969, 90.12588931633074 10.640618116104143, 89.79023396464065 11.156274872382301 M90.47215887860425 10.108655082055236 C90.28325421958917 10.398863366305934, 90.09434956057409 10.689071650556631, 89.79023396464065 11.156274872382301 M89.79023396464065 11.156274872382301 C89.55587696270204 11.470291904617946, 89.32151996076342 11.78430893685359, 89.04258890812659 12.158051136245302 M89.79023396464065 11.156274872382301 C89.62038858228755 11.38385221150282, 89.45054319993443 11.611429550623338, 89.04258890812659 12.158051136245302 M89.04258890812659 12.158051136245302 C88.74048165331982 12.512923508131122, 88.43837439851303 12.867795880016942, 88.23229594296866 13.10986736009567 M89.04258890812659 12.158051136245302 C88.8050715185102 12.43705257721104, 88.56755412889382 12.716054018176777, 88.23229594296866 13.10986736009567 M88.23229594296866 13.10986736009567 C87.95861696783484 13.392463371383077, 87.68493799270101 13.675059382670483, 87.36268473676799 14.007812326905684 M88.23229594296866 13.10986736009567 C87.98669314073238 13.3634724177697, 87.7410903384961 13.617077475443729, 87.36268473676799 14.007812326905684 M87.36268473676799 14.007812326905684 C87.04002182233079 14.300846248604666, 86.71735890789358 14.593880170303645, 86.4373287085019 14.848196188198111 M87.36268473676799 14.007812326905684 C87.05588247745133 14.286442021274123, 86.74908021813467 14.565071715642564, 86.4373287085019 14.848196188198111 M86.4373287085019 14.848196188198111 C86.1721424699838 15.059675156514116, 85.9069562314657 15.27115412483012, 85.46003034457871 15.627565626425152 M86.4373287085019 14.848196188198111 C86.23583514305501 15.008881944673032, 86.03434157760813 15.169567701147953, 85.46003034457871 15.627565626425152 M85.46003034457871 15.627565626425152 C85.19062440887033 15.815491544780322, 84.92121847316196 16.00341746313549, 84.4348055736057 16.34271804539089 M85.46003034457871 15.627565626425152 C85.2071321149931 15.80397648359616, 84.9542338854075 15.980387340767166, 84.4348055736057 16.34271804539089 M84.4348055736057 16.34271804539089 C84.10586589514016 16.542123211540822, 83.7769262166746 16.74152837769076, 83.36586726407678 16.990714730406093 M84.4348055736057 16.34271804539089 C84.18096073318414 16.496600279412306, 83.92711589276259 16.65048251343372, 83.36586726407678 16.990714730406093 M83.36586726407678 16.990714730406093 C82.99844213889153 17.18240018286821, 82.6310170137063 17.374085635330324, 82.25760791279238 17.56889292409717 M83.36586726407678 16.990714730406093 C82.99680019318785 17.183256784890112, 82.6277331222989 17.375798839374127, 82.25760791279238 17.56889292409717 M82.25760791279238 17.56889292409717 C81.97273042493309 17.694999737382048, 81.68785293707381 17.821106550666926, 81.1145815951478 18.07487676824742 M82.25760791279238 17.56889292409717 C81.83188615488608 17.757347317735036, 81.40616439697979 17.945801711372898, 81.1145815951478 18.07487676824742 M81.1145815951478 18.07487676824742 C80.82101560625813 18.18291176585307, 80.52744961736846 18.290946763458724, 79.94148525146062 18.506587066708033 M81.1145815951478 18.07487676824742 C80.70989443748697 18.22380538315368, 80.30520727982615 18.372733998059942, 79.94148525146062 18.506587066708033 M79.94148525146062 18.506587066708033 C79.66770970349489 18.587842212267088, 79.39393415552915 18.66909735782614, 78.74313938623541 18.86224982926107 M79.94148525146062 18.506587066708033 C79.61028767926922 18.604884767642908, 79.27909010707782 18.703182468577786, 78.74313938623541 18.86224982926107 M78.74313938623541 18.86224982926107 C78.27030762102376 18.970170594155004, 77.79747585581211 19.078091359048937, 77.52446825967677 19.140403561325773 M78.74313938623541 18.86224982926107 C78.32550432364746 18.95757230697329, 77.90786926105953 19.05289478468551, 77.52446825967677 19.140403561325773 M77.52446825967677 19.140403561325773 C77.1327079631809 19.203740327916748, 76.74094766668505 19.267077094507727, 76.29047965284788 19.3399052695533 M77.52446825967677 19.140403561325773 C77.0885058419299 19.21088658408804, 76.65254342418304 19.281369606850312, 76.29047965284788 19.3399052695533 M76.29047965284788 19.3399052695533 C75.82379884312134 19.384925406001827, 75.3571180333948 19.42994554245036, 75.0462442896239 19.45993515863156 M76.29047965284788 19.3399052695533 C75.8095425536366 19.386300693102722, 75.32860545442534 19.43269611665215, 75.0462442896239 19.45993515863156 M75.0462442896239 19.45993515863156 C74.61993307649617 19.473606129472127, 74.19362186336843 19.487277100312696, 73.796875 19.5 M75.0462442896239 19.45993515863156 C74.66784364622646 19.472069730753145, 74.28944300282903 19.48420430287473, 73.796875 19.5 M73.796875 19.5 C73.796875 19.5, 73.796875 19.5, 73.796875 19.5 M73.796875 19.5 C73.796875 19.5, 73.796875 19.5, 73.796875 19.5 M73.796875 19.5 C31.950622688740097 19.5, -9.895629622519806 19.5, -73.796875 19.5 M73.796875 19.5 C15.490261573157682 19.5, -42.81635185368464 19.5, -73.796875 19.5 M-73.796875 19.5 C-74.09544528235486 19.49042543217668, -74.39401556470972 19.480850864353357, -75.0462442896239 19.45993515863156 M-73.796875 19.5 C-74.2950630674886 19.48402407833989, -74.79325113497721 19.468048156679778, -75.0462442896239 19.45993515863156 M-75.0462442896239 19.45993515863156 C-75.5397916178603 19.412323241454096, -76.0333389460967 19.364711324276637, -76.29047965284786 19.3399052695533 M-75.0462442896239 19.45993515863156 C-75.45229872786138 19.4207635753267, -75.85835316609885 19.38159199202184, -76.29047965284786 19.3399052695533 M-76.29047965284786 19.3399052695533 C-76.65701428383973 19.280646792933048, -77.02354891483161 19.2213883163128, -77.52446825967675 19.140403561325773 M-76.29047965284786 19.3399052695533 C-76.72713098508515 19.26931086843883, -77.16378231732246 19.198716467324356, -77.52446825967675 19.140403561325773 M-77.52446825967675 19.140403561325773 C-77.95192608528262 19.04283910205423, -78.37938391088849 18.94527464278269, -78.74313938623538 18.862249829261074 M-77.52446825967675 19.140403561325773 C-77.84376234931788 19.06752676895384, -78.16305643895902 18.994649976581908, -78.74313938623538 18.862249829261074 M-78.74313938623538 18.862249829261074 C-78.99391494593281 18.787820959490652, -79.24469050563026 18.713392089720227, -79.94148525146059 18.506587066708043 M-78.74313938623538 18.862249829261074 C-79.11915341602815 18.750650838956503, -79.49516744582091 18.639051848651928, -79.94148525146059 18.506587066708043 M-79.94148525146059 18.506587066708043 C-80.24080646421082 18.396434093521, -80.54012767696105 18.286281120333957, -81.1145815951478 18.074876768247425 M-79.94148525146059 18.506587066708043 C-80.29192429601909 18.3776222588875, -80.64236334057759 18.24865745106695, -81.1145815951478 18.074876768247425 M-81.1145815951478 18.074876768247425 C-81.46730032870343 17.91873864793183, -81.82001906225905 17.76260052761623, -82.25760791279238 17.568892924097174 M-81.1145815951478 18.074876768247425 C-81.38901895085527 17.953391491770635, -81.66345630656276 17.83190621529384, -82.25760791279238 17.568892924097174 M-82.25760791279238 17.568892924097174 C-82.64670838308732 17.365899457975054, -83.03580885338224 17.162905991852938, -83.36586726407678 16.990714730406097 M-82.25760791279238 17.568892924097174 C-82.52417690035124 17.4298240540333, -82.7907458879101 17.29075518396943, -83.36586726407678 16.990714730406097 M-83.36586726407678 16.990714730406097 C-83.68956692747918 16.794486092181195, -84.01326659088157 16.59825745395629, -84.43480557360569 16.3427180453909 M-83.36586726407678 16.990714730406097 C-83.72835590095328 16.77097198851188, -84.09084453782978 16.55122924661767, -84.43480557360569 16.3427180453909 M-84.43480557360569 16.3427180453909 C-84.84053968818742 16.05969549100542, -85.24627380276915 15.776672936619944, -85.46003034457871 15.627565626425156 M-84.43480557360569 16.3427180453909 C-84.79974291962229 16.08815355069281, -85.16468026563889 15.83358905599472, -85.46003034457871 15.627565626425156 M-85.46003034457871 15.627565626425156 C-85.72741413072234 15.414334172356988, -85.99479791686596 15.20110271828882, -86.43732870850187 14.848196188198125 M-85.46003034457871 15.627565626425156 C-85.65748548389163 15.470100407325027, -85.85494062320457 15.312635188224899, -86.43732870850187 14.848196188198125 M-86.43732870850187 14.848196188198125 C-86.67217215312257 14.63491758541064, -86.9070155977433 14.421638982623158, -87.36268473676797 14.007812326905697 M-86.43732870850187 14.848196188198125 C-86.63542247485489 14.668292670870155, -86.83351624120792 14.488389153542187, -87.36268473676797 14.007812326905697 M-87.36268473676797 14.007812326905697 C-87.652434525256 13.708621881391764, -87.94218431374402 13.409431435877833, -88.23229594296865 13.109867360095677 M-87.36268473676797 14.007812326905697 C-87.67211274829599 13.68830250049081, -87.98154075982401 13.368792674075921, -88.23229594296865 13.109867360095677 M-88.23229594296865 13.109867360095677 C-88.4213685198386 12.887771952769832, -88.61044109670856 12.665676545443986, -89.04258890812658 12.158051136245307 M-88.23229594296865 13.109867360095677 C-88.43262024485108 12.874555036328891, -88.6329445467335 12.639242712562105, -89.04258890812658 12.158051136245307 M-89.04258890812658 12.158051136245307 C-89.33590688384204 11.765031770603894, -89.62922485955751 11.372012404962481, -89.79023396464063 11.156274872382316 M-89.04258890812658 12.158051136245307 C-89.19637188558542 11.95199595636792, -89.35015486304425 11.745940776490531, -89.79023396464063 11.156274872382316 M-89.79023396464063 11.156274872382316 C-89.9625565318359 10.891541134081976, -90.13487909903117 10.626807395781638, -90.47215887860425 10.108655082055249 M-89.79023396464063 11.156274872382316 C-89.9542041231054 10.904372676827808, -90.11817428157016 10.652470481273301, -90.47215887860425 10.108655082055249 M-90.47215887860425 10.108655082055249 C-90.61318012486163 9.858257579375627, -90.75420137111901 9.607860076696003, -91.0855614742735 9.019496659696289 M-90.47215887860425 10.108655082055249 C-90.63064711641022 9.82724316715642, -90.78913535421619 9.54583125225759, -91.0855614742735 9.019496659696289 M-91.0855614742735 9.019496659696289 C-91.24518077810909 8.688043759975727, -91.40480008194466 8.356590860255166, -91.62792114880834 7.893275190886686 M-91.0855614742735 9.019496659696289 C-91.26859035579443 8.639433271027391, -91.45161923731534 8.259369882358495, -91.62792114880834 7.893275190886686 M-91.62792114880834 7.893275190886686 C-91.81212847236542 7.4382795402943795, -91.9963357959225 6.983283889702074, -92.09700922997033 6.73461856121551 M-91.62792114880834 7.893275190886686 C-91.77655797133797 7.526139365541052, -91.92519479386759 7.1590035401954175, -92.09700922997033 6.73461856121551 M-92.09700922997033 6.73461856121551 C-92.19695528523665 6.4335969669946795, -92.29690134050298 6.13257537277385, -92.49089813421489 5.5482879393051325 M-92.09700922997033 6.73461856121551 C-92.1864224398445 6.465320219134828, -92.27583564971869 6.196021877054146, -92.49089813421489 5.5482879393051325 M-92.49089813421489 5.5482879393051325 C-92.60262473576428 5.122225984981868, -92.71435133731367 4.696164030658603, -92.80796928754556 4.339158212148136 M-92.49089813421489 5.5482879393051325 C-92.55696801015868 5.296334867466071, -92.62303788610248 5.044381795627011, -92.80796928754556 4.339158212148136 M-92.80796928754556 4.339158212148136 C-92.87384231761139 4.000914125029907, -92.93971534767722 3.6626700379116794, -93.04691977658177 3.112197953150904 M-92.80796928754556 4.339158212148136 C-92.86989376599993 4.021189103028103, -92.9318182444543 3.7032199939080694, -93.04691977658177 3.112197953150904 M-93.04691977658177 3.112197953150904 C-93.08465529959115 2.8195286884121096, -93.12239082260051 2.526859423673315, -93.20676770250937 1.872449005199809 M-93.04691977658177 3.112197953150904 C-93.09531426760454 2.736859837351544, -93.1437087586273 2.361521721552184, -93.20676770250937 1.872449005199809 M-93.20676770250937 1.872449005199809 C-93.22438096498995 1.5981082248951695, -93.24199422747053 1.3237674445905296, -93.28685621591342 0.6250057626472781 M-93.20676770250937 1.872449005199809 C-93.22945266516032 1.5191124009389259, -93.25213762781128 1.1657757966780429, -93.28685621591342 0.6250057626472781 M-93.28685621591342 0.6250057626472781 C-93.28685621591342 0.18567076874662702, -93.28685621591342 -0.2536642251540241, -93.28685621591342 -0.6250057626472687 M-93.28685621591342 0.6250057626472781 C-93.28685621591342 0.3369030710857397, -93.28685621591342 0.04880037952420124, -93.28685621591342 -0.6250057626472687 M-93.28685621591342 -0.6250057626472687 C-93.25509927528395 -1.119645746692274, -93.22334233465449 -1.6142857307372793, -93.20676770250937 -1.8724490051997822 M-93.28685621591342 -0.6250057626472687 C-93.25946117424428 -1.0517056495237165, -93.23206613257514 -1.4784055364001643, -93.20676770250937 -1.8724490051997822 M-93.20676770250937 -1.8724490051997822 C-93.1636812841876 -2.2066187573276603, -93.12059486586585 -2.5407885094555382, -93.04691977658177 -3.112197953150895 M-93.20676770250937 -1.8724490051997822 C-93.15228046680396 -2.2950412456092346, -93.09779323109855 -2.7176334860186873, -93.04691977658177 -3.112197953150895 M-93.04691977658177 -3.112197953150895 C-92.96929848347412 -3.510766887992581, -92.89167719036647 -3.909335822834267, -92.80796928754556 -4.339158212148126 M-93.04691977658177 -3.112197953150895 C-92.97396798960342 -3.4867899609191215, -92.90101620262506 -3.8613819686873483, -92.80796928754556 -4.339158212148126 M-92.80796928754556 -4.339158212148126 C-92.7164495924217 -4.688162474542203, -92.62492989729783 -5.03716673693628, -92.49089813421489 -5.548287939305123 M-92.80796928754556 -4.339158212148126 C-92.72587495737706 -4.6522194729883735, -92.64378062720857 -4.96528073382862, -92.49089813421489 -5.548287939305123 M-92.49089813421489 -5.548287939305123 C-92.39630804970098 -5.833178202977722, -92.30171796518707 -6.118068466650321, -92.09700922997033 -6.734618561215485 M-92.49089813421489 -5.548287939305123 C-92.33371325785728 -6.021703742885223, -92.17652838149966 -6.495119546465324, -92.09700922997033 -6.734618561215485 M-92.09700922997033 -6.734618561215485 C-91.97795794118696 -7.028677546210498, -91.85890665240359 -7.3227365312055115, -91.62792114880834 -7.893275190886676 M-92.09700922997033 -6.734618561215485 C-91.96220614859406 -7.067584778455122, -91.82740306721782 -7.400550995694759, -91.62792114880834 -7.893275190886676 M-91.62792114880834 -7.893275190886676 C-91.45854171759972 -8.244995203930642, -91.28916228639109 -8.596715216974609, -91.0855614742735 -9.019496659696282 M-91.62792114880834 -7.893275190886676 C-91.47213895596302 -8.216760247534955, -91.3163567631177 -8.540245304183234, -91.0855614742735 -9.019496659696282 M-91.0855614742735 -9.019496659696282 C-90.96028434422446 -9.241938889783361, -90.83500721417542 -9.464381119870438, -90.47215887860425 -10.108655082055243 M-91.0855614742735 -9.019496659696282 C-90.91910796704516 -9.31505171702553, -90.75265445981682 -9.610606774354775, -90.47215887860425 -10.108655082055243 M-90.47215887860425 -10.108655082055243 C-90.27235039772026 -10.415614564782718, -90.07254191683629 -10.722574047510193, -89.79023396464063 -11.156274872382308 M-90.47215887860425 -10.108655082055243 C-90.23394142101942 -10.474621067249593, -89.99572396343459 -10.840587052443942, -89.79023396464063 -11.156274872382308 M-89.79023396464063 -11.156274872382308 C-89.5121592215736 -11.528869694961891, -89.23408447850657 -11.901464517541473, -89.04258890812659 -12.158051136245302 M-89.79023396464063 -11.156274872382308 C-89.54754666848059 -11.48145373996926, -89.30485937232055 -11.806632607556212, -89.04258890812659 -12.158051136245302 M-89.04258890812659 -12.158051136245302 C-88.7780507965983 -12.468792654691413, -88.51351268506998 -12.779534173137522, -88.23229594296866 -13.10986736009567 M-89.04258890812659 -12.158051136245302 C-88.79846894723241 -12.444808333130888, -88.55434898633823 -12.731565530016477, -88.23229594296866 -13.10986736009567 M-88.23229594296866 -13.10986736009567 C-88.0489960347945 -13.29913956448783, -87.86569612662034 -13.488411768879988, -87.36268473676799 -14.007812326905677 M-88.23229594296866 -13.10986736009567 C-88.04970543817657 -13.298407047252741, -87.86711493338447 -13.486946734409813, -87.36268473676799 -14.007812326905677 M-87.36268473676799 -14.007812326905677 C-87.05416841478535 -14.287998687635742, -86.74565209280271 -14.568185048365809, -86.4373287085019 -14.848196188198107 M-87.36268473676799 -14.007812326905677 C-86.99637516122024 -14.340484991397876, -86.63006558567251 -14.673157655890076, -86.4373287085019 -14.848196188198107 M-86.4373287085019 -14.848196188198107 C-86.1467134014835 -15.079954161947171, -85.85609809446508 -15.311712135696236, -85.46003034457871 -15.627565626425149 M-86.4373287085019 -14.848196188198107 C-86.13458132488337 -15.089629170187656, -85.83183394126483 -15.331062152177205, -85.46003034457871 -15.627565626425149 M-85.46003034457871 -15.627565626425149 C-85.07735850741865 -15.894500934431175, -84.69468667025858 -16.1614362424372, -84.43480557360571 -16.342718045390885 M-85.46003034457871 -15.627565626425149 C-85.21611235287362 -15.797712258398942, -84.97219436116853 -15.967858890372733, -84.43480557360571 -16.342718045390885 M-84.43480557360571 -16.342718045390885 C-84.12289412161975 -16.53180060057992, -83.8109826696338 -16.72088315576896, -83.36586726407678 -16.99071473040609 M-84.43480557360571 -16.342718045390885 C-84.19524040301897 -16.487943859641778, -83.95567523243223 -16.63316967389267, -83.36586726407678 -16.99071473040609 M-83.36586726407678 -16.99071473040609 C-82.92783781908416 -17.219234411287495, -82.48980837409152 -17.447754092168903, -82.2576079127924 -17.56889292409717 M-83.36586726407678 -16.99071473040609 C-82.95004882990436 -17.207646941169426, -82.53423039573194 -17.42457915193276, -82.2576079127924 -17.56889292409717 M-82.2576079127924 -17.56889292409717 C-81.95874767969482 -17.701189483915638, -81.65988744659725 -17.833486043734105, -81.11458159514781 -18.07487676824742 M-82.2576079127924 -17.56889292409717 C-81.92209051995742 -17.71741652113538, -81.58657312712243 -17.86594011817359, -81.11458159514781 -18.07487676824742 M-81.11458159514781 -18.07487676824742 C-80.85757966091303 -18.169455855745653, -80.60057772667827 -18.26403494324389, -79.94148525146062 -18.506587066708033 M-81.11458159514781 -18.07487676824742 C-80.81296013036864 -18.185876255444413, -80.51133866558946 -18.296875742641408, -79.94148525146062 -18.506587066708033 M-79.94148525146062 -18.506587066708033 C-79.60042187375396 -18.607812886933168, -79.25935849604728 -18.709038707158307, -78.74313938623541 -18.862249829261067 M-79.94148525146062 -18.506587066708033 C-79.66692456128247 -18.58807523835444, -79.39236387110431 -18.66956341000084, -78.74313938623541 -18.862249829261067 M-78.74313938623541 -18.862249829261067 C-78.36889476541637 -18.94766872178863, -77.99465014459732 -19.033087614316194, -77.52446825967677 -19.140403561325773 M-78.74313938623541 -18.862249829261067 C-78.31697636669482 -18.95951875749761, -77.89081334715422 -19.056787685734154, -77.52446825967677 -19.140403561325773 M-77.52446825967677 -19.140403561325773 C-77.23291319641277 -19.18753992291101, -76.94135813314878 -19.23467628449625, -76.29047965284788 -19.3399052695533 M-77.52446825967677 -19.140403561325773 C-77.27558426431655 -19.180641195571404, -77.02670026895632 -19.220878829817035, -76.29047965284788 -19.3399052695533 M-76.29047965284788 -19.3399052695533 C-75.92632011785398 -19.375035301928243, -75.56216058286006 -19.410165334303187, -75.0462442896239 -19.45993515863156 M-76.29047965284788 -19.3399052695533 C-76.01439741697804 -19.366538590810194, -75.73831518110819 -19.393171912067093, -75.0462442896239 -19.45993515863156 M-75.0462442896239 -19.45993515863156 C-74.55673812061004 -19.475632668705877, -74.06723195159617 -19.491330178780192, -73.796875 -19.5 M-75.0462442896239 -19.45993515863156 C-74.58897812658878 -19.474598794465503, -74.13171196355367 -19.489262430299444, -73.796875 -19.5 M-73.796875 -19.5 C-73.796875 -19.5, -73.796875 -19.5, -73.796875 -19.5 M-73.796875 -19.5 C-73.796875 -19.5, -73.796875 -19.5, -73.796875 -19.5" stroke="#e65100" stroke-width="3" fill="none" stroke-dasharray="0 0" style="fill:#ffe0b2 !important;stroke:#e65100 !important;stroke-width:3px !important"/></g><g class="label" style="color:#000 !important" transform="translate(-80.921875, -12)"><rect/><foreignObject width="161.84375" height="24"><div style="color: rgb(0, 0, 0) !important; display: table-cell; white-space: nowrap; line-height: 1.5; max-width: 200px; text-align: center;" xmlns="http://www.w3.org/1999/xhtml"><span style="color:#000 !important" class="nodeLabel"><p>Exhibitor Order Listing</p></span></div></foreignObject></g></g><g class="node default neighbor" id="my-svg-flowchart-EP_LIST-1" data-look="classic" transform="translate(443.26121520996094, 187)"><rect class="basic label-container" style="fill:#e3f2fd !important;stroke:#1565c0 !important" x="-73.375" y="-27" width="146.75" height="54"/><g class="label" style="color:#000 !important" transform="translate(-43.375, -12)"><rect/><foreignObject width="86.75" height="24"><div style="color: rgb(0, 0, 0) !important; display: table-cell; white-space: nowrap; line-height: 1.5; max-width: 200px; text-align: center;" xmlns="http://www.w3.org/1999/xhtml"><span style="color:#000 !important" class="nodeLabel"><p>GET /orders</p></span></div></foreignObject></g></g><g class="node default neighbor" id="my-svg-flowchart-SVC-2" data-look="classic" transform="translate(801.2612152099609, 187)"><rect class="basic label-container" style="fill:#e3f2fd !important;stroke:#1565c0 !important" x="-117.171875" y="-27" width="234.34375" height="54"/><g class="label" style="color:#000 !important" transform="translate(-87.171875, -12)"><rect/><foreignObject width="174.34375" height="24"><div style="color: rgb(0, 0, 0) !important; display: table-cell; white-space: nowrap; line-height: 1.5; max-width: 200px; text-align: center;" xmlns="http://www.w3.org/1999/xhtml"><span style="color:#000 !important" class="nodeLabel"><p>OrdersService.listOrders</p></span></div></foreignObject></g></g><g class="node default neighbor" id="my-svg-flowchart-HELP-3" data-look="classic" transform="translate(1288.495590209961, 59)"><rect class="basic label-container" style="fill:#e3f2fd !important;stroke:#1565c0 !important" x="-130" y="-51" width="260" height="102"/><g class="label" style="color:#000 !important" transform="translate(-100, -36)"><rect/><foreignObject width="200" height="72"><div style="color: rgb(0, 0, 0) !important; display: table; white-space: break-spaces; line-height: 1.5; max-width: 200px; text-align: center; width: 200px;" xmlns="http://www.w3.org/1999/xhtml"><span style="color:#000 !important" class="nodeLabel"><p>orders.helpers<br />derivePaymentStatus / buildOrderShows</p></span></div></foreignObject></g></g><g class="node default neighbor" id="my-svg-flowchart-ORDER-4" data-look="classic" transform="translate(1288.495590209961, 187)"><rect class="basic label-container" style="fill:#e3f2fd !important;stroke:#1565c0 !important" x="-118.296875" y="-27" width="236.59375" height="54"/><g class="label" style="color:#000 !important" transform="translate(-88.296875, -12)"><rect/><foreignObject width="176.59375" height="24"><div style="color: rgb(0, 0, 0) !important; display: table-cell; white-space: nowrap; line-height: 1.5; max-width: 200px; text-align: center;" xmlns="http://www.w3.org/1999/xhtml"><span style="color:#000 !important" class="nodeLabel"><p>Order (company-scoped)</p></span></div></foreignObject></g></g><g class="node default neighbor" id="my-svg-flowchart-SHOW-5" data-look="classic" transform="translate(1567.167465209961, 59)"><rect class="basic label-container" style="fill:#e3f2fd !important;stroke:#1565c0 !important" x="-51.703125" y="-27" width="103.40625" height="54"/><g class="label" style="color:#000 !important" transform="translate(-21.703125, -12)"><rect/><foreignObject width="43.40625" height="24"><div style="color: rgb(0, 0, 0) !important; display: table-cell; white-space: nowrap; line-height: 1.5; max-width: 200px; text-align: center;" xmlns="http://www.w3.org/1999/xhtml"><span style="color:#000 !important" class="nodeLabel"><p>Shows</p></span></div></foreignObject></g></g><g class="node default neighbor" id="my-svg-flowchart-DTO-6" data-look="classic" transform="translate(1288.495590209961, 303)"><rect class="basic label-container" style="fill:#e3f2fd !important;stroke:#1565c0 !important" x="-114.8828125" y="-39" width="229.765625" height="78"/><g class="label" style="color:#000 !important" transform="translate(-84.8828125, -24)"><rect/><foreignObject width="169.765625" height="48"><div style="color: rgb(0, 0, 0) !important; display: table-cell; white-space: nowrap; line-height: 1.5; max-width: 200px; text-align: center;" xmlns="http://www.w3.org/1999/xhtml"><span style="color:#000 !important" class="nodeLabel"><p>OrderListResponseDto<br />{data[], meta, isEmpty}</p></span></div></foreignObject></g></g><g class="node default neighbor" id="my-svg-flowchart-DETAILS-7" data-look="classic" transform="translate(443.26121520996094, 291)"><rect class="basic label-container" style="fill:#e3f2fd !important;stroke:#1565c0 !important" x="-112.03125" y="-27" width="224.0625" height="54"/><g class="label" style="color:#000 !important" transform="translate(-82.03125, -12)"><rect/><foreignObject width="164.0625" height="24"><div style="color: rgb(0, 0, 0) !important; display: table-cell; white-space: nowrap; line-height: 1.5; max-width: 200px; text-align: center;" xmlns="http://www.w3.org/1999/xhtml"><span style="color:#000 !important" class="nodeLabel"><p>Exhibitor Order Details</p></span></div></foreignObject></g></g></g></g></g><defs><filter id="my-svg-drop-shadow" height="130%" width="130%"><feDropShadow dx="4" dy="4" stdDeviation="0" flood-opacity="0.06" flood-color="#000000"/></filter></defs><defs><filter id="my-svg-drop-shadow-small" height="150%" width="150%"><feDropShadow dx="2" dy="2" stdDeviation="0" flood-opacity="0.06" flood-color="#000000"/></filter></defs></svg>